<svg width="110" height="110" viewBox="0 0 110 110" fill="none" xmlns="http://www.w3.org/2000/svg">
<path d="M20.4938 83H18.8298C18.6431 83 18.4885 82.9547 18.3658 82.864C18.2485 82.768 18.1631 82.6507 18.1098 82.512L17.2458 80.152H12.4538L11.5898 82.512C11.5471 82.6347 11.4618 82.7467 11.3338 82.848C11.2111 82.9493 11.0591 83 10.8778 83H9.20581L13.7498 71.432H15.9498L20.4938 83ZM13.0058 78.632H16.6938L15.2858 74.784C15.2218 74.6133 15.1498 74.4133 15.0698 74.184C14.9951 73.9493 14.9205 73.696 14.8458 73.424C14.7711 73.696 14.6965 73.9493 14.6218 74.184C14.5525 74.4187 14.4831 74.624 14.4138 74.8L13.0058 78.632ZM29.1309 80.272C29.2483 80.272 29.3496 80.3173 29.4349 80.408L30.2829 81.328C29.8136 81.9093 29.2349 82.3547 28.5469 82.664C27.8643 82.9733 27.0429 83.128 26.0829 83.128C25.2243 83.128 24.4509 82.9813 23.7629 82.688C23.0803 82.3947 22.4963 81.9867 22.0109 81.464C21.5256 80.9413 21.1523 80.3173 20.8909 79.592C20.6349 78.8667 20.5069 78.0747 20.5069 77.216C20.5069 76.3467 20.6509 75.552 20.9389 74.832C21.2269 74.1067 21.6323 73.4827 22.1549 72.96C22.6776 72.4373 23.3016 72.032 24.0269 71.744C24.7576 71.4507 25.5629 71.304 26.4429 71.304C27.3016 71.304 28.0509 71.4427 28.6909 71.72C29.3363 71.992 29.8883 72.3547 30.3469 72.808L29.6269 73.808C29.5843 73.872 29.5283 73.928 29.4589 73.976C29.3949 74.024 29.3043 74.048 29.1869 74.048C29.0643 74.048 28.9389 74 28.8109 73.904C28.6829 73.808 28.5203 73.704 28.3229 73.592C28.1256 73.48 27.8749 73.376 27.5709 73.28C27.2723 73.184 26.8909 73.136 26.4269 73.136C25.8829 73.136 25.3816 73.232 24.9229 73.424C24.4696 73.6107 24.0776 73.88 23.7469 74.232C23.4216 74.584 23.1656 75.0133 22.9789 75.52C22.7976 76.0213 22.7069 76.5867 22.7069 77.216C22.7069 77.8667 22.7976 78.4453 22.9789 78.952C23.1656 79.4587 23.4163 79.8853 23.7309 80.232C24.0456 80.5787 24.4163 80.8453 24.8429 81.032C25.2696 81.2133 25.7283 81.304 26.2189 81.304C26.5123 81.304 26.7763 81.288 27.0109 81.256C27.2509 81.224 27.4696 81.1733 27.6669 81.104C27.8696 81.0347 28.0589 80.9467 28.2349 80.84C28.4163 80.728 28.5949 80.592 28.7709 80.432C28.8243 80.384 28.8803 80.3467 28.9389 80.32C28.9976 80.288 29.0616 80.272 29.1309 80.272ZM39.7653 80.272C39.8826 80.272 39.984 80.3173 40.0693 80.408L40.9173 81.328C40.448 81.9093 39.8693 82.3547 39.1813 82.664C38.4986 82.9733 37.6773 83.128 36.7173 83.128C35.8586 83.128 35.0853 82.9813 34.3973 82.688C33.7146 82.3947 33.1306 81.9867 32.6453 81.464C32.16 80.9413 31.7866 80.3173 31.5253 79.592C31.2693 78.8667 31.1413 78.0747 31.1413 77.216C31.1413 76.3467 31.2853 75.552 31.5733 74.832C31.8613 74.1067 32.2666 73.4827 32.7893 72.96C33.312 72.4373 33.936 72.032 34.6613 71.744C35.392 71.4507 36.1973 71.304 37.0773 71.304C37.936 71.304 38.6853 71.4427 39.3253 71.72C39.9706 71.992 40.5226 72.3547 40.9813 72.808L40.2613 73.808C40.2186 73.872 40.1626 73.928 40.0933 73.976C40.0293 74.024 39.9386 74.048 39.8213 74.048C39.6986 74.048 39.5733 74 39.4453 73.904C39.3173 73.808 39.1546 73.704 38.9573 73.592C38.76 73.48 38.5093 73.376 38.2053 73.28C37.9066 73.184 37.5253 73.136 37.0613 73.136C36.5173 73.136 36.016 73.232 35.5573 73.424C35.104 73.6107 34.712 73.88 34.3813 74.232C34.056 74.584 33.8 75.0133 33.6133 75.52C33.432 76.0213 33.3413 76.5867 33.3413 77.216C33.3413 77.8667 33.432 78.4453 33.6133 78.952C33.8 79.4587 34.0506 79.8853 34.3653 80.232C34.68 80.5787 35.0506 80.8453 35.4773 81.032C35.904 81.2133 36.3626 81.304 36.8533 81.304C37.1466 81.304 37.4106 81.288 37.6453 81.256C37.8853 81.224 38.104 81.1733 38.3013 81.104C38.504 81.0347 38.6933 80.9467 38.8693 80.84C39.0506 80.728 39.2293 80.592 39.4053 80.432C39.4586 80.384 39.5146 80.3467 39.5733 80.32C39.632 80.288 39.696 80.272 39.7653 80.272ZM49.7437 71.432V73.144H44.6157V76.352H48.6557V78.008H44.6157V81.28H49.7437V83H42.4477V71.432H49.7437ZM57.7039 73.536C57.6453 73.6533 57.5759 73.736 57.4959 73.784C57.4213 73.832 57.3306 73.856 57.2239 73.856C57.1173 73.856 56.9973 73.816 56.8639 73.736C56.7306 73.6507 56.5733 73.5573 56.3919 73.456C56.2106 73.3547 55.9973 73.264 55.7519 73.184C55.5119 73.0987 55.2266 73.056 54.8959 73.056C54.5973 73.056 54.3359 73.0933 54.1119 73.168C53.8933 73.2373 53.7066 73.336 53.5519 73.464C53.4026 73.592 53.2906 73.7467 53.2159 73.928C53.1413 74.104 53.1039 74.2987 53.1039 74.512C53.1039 74.784 53.1786 75.0107 53.3279 75.192C53.4826 75.3733 53.6853 75.528 53.9359 75.656C54.1866 75.784 54.4719 75.8987 54.7919 76C55.1119 76.1013 55.4373 76.2107 55.7679 76.328C56.1039 76.44 56.4319 76.5733 56.7519 76.728C57.0719 76.8773 57.3573 77.0693 57.6079 77.304C57.8586 77.5333 58.0586 77.816 58.2079 78.152C58.3626 78.488 58.4399 78.896 58.4399 79.376C58.4399 79.8987 58.3493 80.3893 58.1679 80.848C57.9919 81.3013 57.7306 81.6987 57.3839 82.04C57.0426 82.376 56.6239 82.6427 56.1279 82.84C55.6319 83.032 55.0639 83.128 54.4239 83.128C54.0559 83.128 53.6933 83.0907 53.3359 83.016C52.9786 82.9467 52.6346 82.8453 52.3039 82.712C51.9786 82.5787 51.6719 82.4187 51.3839 82.232C51.1013 82.0453 50.8479 81.8373 50.6239 81.608L51.2479 80.576C51.3066 80.5013 51.3759 80.44 51.4559 80.392C51.5413 80.3387 51.6346 80.312 51.7359 80.312C51.8693 80.312 52.0133 80.368 52.1679 80.48C52.3226 80.5867 52.5039 80.7067 52.7119 80.84C52.9253 80.9733 53.1733 81.096 53.4559 81.208C53.7439 81.3147 54.0879 81.368 54.4879 81.368C55.1013 81.368 55.5759 81.224 55.9119 80.936C56.2479 80.6427 56.4159 80.224 56.4159 79.68C56.4159 79.376 56.3386 79.128 56.1839 78.936C56.0346 78.744 55.8346 78.584 55.5839 78.456C55.3333 78.3227 55.0479 78.2107 54.7279 78.12C54.4079 78.0293 54.0826 77.9307 53.7519 77.824C53.4213 77.7173 53.0959 77.5893 52.7759 77.44C52.4559 77.2907 52.1706 77.096 51.9199 76.856C51.6693 76.616 51.4666 76.3173 51.3119 75.96C51.1626 75.5973 51.0879 75.152 51.0879 74.624C51.0879 74.2027 51.1706 73.792 51.3359 73.392C51.5066 72.992 51.7519 72.6373 52.0719 72.328C52.3973 72.0187 52.7946 71.7707 53.2639 71.584C53.7333 71.3973 54.2693 71.304 54.8719 71.304C55.5546 71.304 56.1839 71.4107 56.7599 71.624C57.3359 71.8373 57.8266 72.136 58.2319 72.52L57.7039 73.536ZM66.1821 73.536C66.1234 73.6533 66.0541 73.736 65.9741 73.784C65.8994 73.832 65.8087 73.856 65.7021 73.856C65.5954 73.856 65.4754 73.816 65.3421 73.736C65.2087 73.6507 65.0514 73.5573 64.8701 73.456C64.6887 73.3547 64.4754 73.264 64.2301 73.184C63.9901 73.0987 63.7047 73.056 63.3741 73.056C63.0754 73.056 62.8141 73.0933 62.5901 73.168C62.3714 73.2373 62.1847 73.336 62.0301 73.464C61.8807 73.592 61.7687 73.7467 61.6941 73.928C61.6194 74.104 61.5821 74.2987 61.5821 74.512C61.5821 74.784 61.6567 75.0107 61.8061 75.192C61.9607 75.3733 62.1634 75.528 62.4141 75.656C62.6647 75.784 62.9501 75.8987 63.2701 76C63.5901 76.1013 63.9154 76.2107 64.2461 76.328C64.5821 76.44 64.9101 76.5733 65.2301 76.728C65.5501 76.8773 65.8354 77.0693 66.0861 77.304C66.3367 77.5333 66.5367 77.816 66.6861 78.152C66.8407 78.488 66.9181 78.896 66.9181 79.376C66.9181 79.8987 66.8274 80.3893 66.6461 80.848C66.4701 81.3013 66.2087 81.6987 65.8621 82.04C65.5207 82.376 65.1021 82.6427 64.6061 82.84C64.1101 83.032 63.5421 83.128 62.9021 83.128C62.5341 83.128 62.1714 83.0907 61.8141 83.016C61.4567 82.9467 61.1127 82.8453 60.7821 82.712C60.4567 82.5787 60.1501 82.4187 59.8621 82.232C59.5794 82.0453 59.3261 81.8373 59.1021 81.608L59.7261 80.576C59.7847 80.5013 59.8541 80.44 59.9341 80.392C60.0194 80.3387 60.1127 80.312 60.2141 80.312C60.3474 80.312 60.4914 80.368 60.6461 80.48C60.8007 80.5867 60.9821 80.7067 61.1901 80.84C61.4034 80.9733 61.6514 81.096 61.9341 81.208C62.2221 81.3147 62.5661 81.368 62.9661 81.368C63.5794 81.368 64.0541 81.224 64.3901 80.936C64.7261 80.6427 64.8941 80.224 64.8941 79.68C64.8941 79.376 64.8167 79.128 64.6621 78.936C64.5127 78.744 64.3127 78.584 64.0621 78.456C63.8114 78.3227 63.5261 78.2107 63.2061 78.12C62.8861 78.0293 62.5607 77.9307 62.2301 77.824C61.8994 77.7173 61.5741 77.5893 61.2541 77.44C60.9341 77.2907 60.6487 77.096 60.3981 76.856C60.1474 76.616 59.9447 76.3173 59.7901 75.96C59.6407 75.5973 59.5661 75.152 59.5661 74.624C59.5661 74.2027 59.6487 73.792 59.8141 73.392C59.9847 72.992 60.2301 72.6373 60.5501 72.328C60.8754 72.0187 61.2727 71.7707 61.7421 71.584C62.2114 71.3973 62.7474 71.304 63.3501 71.304C64.0327 71.304 64.6621 71.4107 65.2381 71.624C65.8141 71.8373 66.3047 72.136 66.7101 72.52L66.1821 73.536ZM79.5562 77.216C79.5562 78.064 79.4149 78.8507 79.1322 79.576C78.8495 80.296 78.4522 80.92 77.9402 81.448C77.4282 81.976 76.8122 82.3893 76.0922 82.688C75.3722 82.9813 74.5749 83.128 73.7002 83.128C72.8255 83.128 72.0255 82.9813 71.3002 82.688C70.5802 82.3893 69.9615 81.976 69.4442 81.448C68.9322 80.92 68.5349 80.296 68.2522 79.576C67.9695 78.8507 67.8282 78.064 67.8282 77.216C67.8282 76.368 67.9695 75.584 68.2522 74.864C68.5349 74.1387 68.9322 73.512 69.4442 72.984C69.9615 72.456 70.5802 72.0453 71.3002 71.752C72.0255 71.4533 72.8255 71.304 73.7002 71.304C74.5749 71.304 75.3722 71.4533 76.0922 71.752C76.8122 72.0507 77.4282 72.464 77.9402 72.992C78.4522 73.5147 78.8495 74.1387 79.1322 74.864C79.4149 75.584 79.5562 76.368 79.5562 77.216ZM77.3482 77.216C77.3482 76.5813 77.2629 76.0133 77.0922 75.512C76.9269 75.0053 76.6869 74.576 76.3722 74.224C76.0575 73.872 75.6735 73.6027 75.2202 73.416C74.7722 73.2293 74.2655 73.136 73.7002 73.136C73.1349 73.136 72.6255 73.2293 72.1722 73.416C71.7189 73.6027 71.3322 73.872 71.0122 74.224C70.6975 74.576 70.4549 75.0053 70.2842 75.512C70.1135 76.0133 70.0282 76.5813 70.0282 77.216C70.0282 77.8507 70.1135 78.4213 70.2842 78.928C70.4549 79.4293 70.6975 79.856 71.0122 80.208C71.3322 80.5547 71.7189 80.8213 72.1722 81.008C72.6255 81.1947 73.1349 81.288 73.7002 81.288C74.2655 81.288 74.7722 81.1947 75.2202 81.008C75.6735 80.8213 76.0575 80.5547 76.3722 80.208C76.6869 79.856 76.9269 79.4293 77.0922 78.928C77.2629 78.4213 77.3482 77.8507 77.3482 77.216ZM83.3811 78.48V83H81.2291V71.432H84.7571C85.5464 71.432 86.2211 71.5147 86.7811 71.68C87.3464 71.84 87.8077 72.0667 88.1651 72.36C88.5277 72.6533 88.7917 73.0053 88.9571 73.416C89.1277 73.8213 89.2131 74.2693 89.2131 74.76C89.2131 75.1493 89.1544 75.5173 89.0371 75.864C88.9251 76.2107 88.7597 76.5253 88.5411 76.808C88.3277 77.0907 88.0611 77.3387 87.7411 77.552C87.4264 77.7653 87.0664 77.936 86.6611 78.064C86.9331 78.2187 87.1677 78.44 87.3651 78.728L90.2611 83H88.3251C88.1384 83 87.9784 82.9627 87.8451 82.888C87.7171 82.8133 87.6077 82.7067 87.5171 82.568L85.0851 78.864C84.9944 78.7253 84.8931 78.6267 84.7811 78.568C84.6744 78.5093 84.5144 78.48 84.3011 78.48H83.3811ZM83.3811 76.936H84.7251C85.1304 76.936 85.4824 76.8853 85.7811 76.784C86.0851 76.6827 86.3331 76.544 86.5251 76.368C86.7224 76.1867 86.8691 75.9733 86.9651 75.728C87.0611 75.4827 87.1091 75.2133 87.1091 74.92C87.1091 74.3333 86.9144 73.8827 86.5251 73.568C86.1411 73.2533 85.5517 73.096 84.7571 73.096H83.3811V76.936ZM96.6854 78.504V83H94.5334V78.504L90.3174 71.432H92.2134C92.4001 71.432 92.5468 71.4773 92.6534 71.568C92.7654 71.6587 92.8588 71.7733 92.9334 71.912L95.0534 75.776C95.1761 76.0053 95.2828 76.224 95.3734 76.432C95.4641 76.6347 95.5468 76.8347 95.6214 77.032C95.6908 76.8293 95.7681 76.6267 95.8534 76.424C95.9441 76.216 96.0508 76 96.1734 75.776L98.2774 71.912C98.3361 71.7947 98.4241 71.6853 98.5414 71.584C98.6588 71.4827 98.8081 71.432 98.9894 71.432H100.893L96.6854 78.504Z" fill="#333333"/>
<path d="M44.5492 31.9004C44.5492 31.2955 44.5482 30.7283 44.5492 30.1611C44.5512 29.6556 44.6823 29.5244 45.1839 29.5205C45.3548 29.5195 45.5256 29.5205 45.7213 29.5205C45.769 26.5029 46.8894 24.0018 49.2137 22.0957C51.0512 20.5889 53.1898 19.8995 55.5607 20.0118C60.6742 20.2531 64.5758 24.5312 64.5033 29.5205C64.7079 29.5205 64.9145 29.5165 65.1211 29.5215C65.5065 29.5304 65.6624 29.6804 65.6664 30.0628C65.6733 30.6568 65.6684 31.2508 65.6684 31.9004C65.8154 31.9004 65.9455 31.9004 66.0756 31.9004C67.8973 31.9004 69.719 31.8994 71.5407 31.9004C72.1029 31.9004 72.2528 32.0553 72.2002 32.6165C72.0711 33.9903 71.3351 35.0362 70.3001 35.8596C69.5978 36.4188 68.8012 36.8598 68.0443 37.3515C67.9331 37.424 67.8119 37.4816 67.7523 37.5134C68.0046 38.2425 68.239 38.9418 68.4933 39.6331C68.535 39.7453 68.6512 39.8457 68.7565 39.9172C69.7835 40.6085 70.8126 41.2988 71.8496 41.9752C72.1049 42.1421 72.2161 42.3368 72.2151 42.6457C72.2072 45.3355 72.2131 48.0253 72.2081 50.7151C72.2062 51.7293 71.5148 52.4236 70.5057 52.4276C68.9691 52.4335 67.4325 52.4325 65.8958 52.4276C64.8648 52.4246 64.1814 51.7313 64.1804 50.6903C64.1775 48.0134 64.1834 45.3355 64.1745 42.6586C64.1735 42.3527 64.2748 42.1521 64.5321 41.9842C65.4767 41.3693 66.4064 40.7317 67.351 40.1168C67.5606 39.9807 67.647 39.8526 67.5497 39.6063C67.3301 39.0471 67.1265 38.4819 66.9169 37.9197C65.9743 38.2157 65.1201 38.5007 64.2569 38.753C60.698 39.789 57.0586 40.0711 53.3705 39.8973C50.4642 39.7602 47.6026 39.3579 44.8293 38.4471C42.9828 37.8402 41.2247 37.0535 39.7546 35.7404C38.8756 34.9547 38.2141 34.03 38.0382 32.8251C37.9538 32.2451 37.9349 31.8795 38.8001 31.8934C40.6973 31.9202 42.5934 31.9004 44.5492 31.9004ZM38.9252 32.8063C39.0127 33.0655 39.0703 33.3029 39.1706 33.5224C39.6186 34.5068 40.4003 35.1872 41.2734 35.7742C42.665 36.7089 44.1996 37.3366 45.8037 37.7796C51.4396 39.3361 57.1162 39.492 62.8177 38.1779C63.9689 37.9127 65.0943 37.5363 66.2902 37.1946C65.7518 36.5559 65.1737 36.1218 64.5271 35.7712C64.1983 35.5924 64.104 35.3659 64.239 35.1156C64.3781 34.8594 64.6105 34.8127 64.9433 34.9845C65.7002 35.3769 66.3657 35.8894 66.916 36.539C67.0898 36.7446 67.2298 36.7675 67.4454 36.6354C68.098 36.2331 68.7764 35.8695 69.4051 35.4345C70.0617 34.9796 70.6129 34.4035 70.9735 33.6764C71.1056 33.4102 71.1851 33.1191 71.3003 32.8063C60.4735 32.8063 49.7312 32.8063 38.9252 32.8063ZM46.656 29.4946C52.3107 29.4946 57.9387 29.4946 63.5666 29.4946C63.7057 25.0894 60.0911 20.8422 55.0134 20.8988C49.9785 20.9554 46.4941 25.2196 46.656 29.4946ZM67.7424 40.9492C67.6112 41.0247 67.5268 41.0664 67.4483 41.119C66.7372 41.5918 66.0319 42.0756 65.3128 42.5365C65.1171 42.6616 65.0674 42.8017 65.0684 43.0202C65.0754 45.5481 65.0724 48.076 65.0734 50.6049C65.0734 51.2694 65.3346 51.5346 65.9902 51.5356C67.4523 51.5376 68.9144 51.5376 70.3765 51.5356C71.0579 51.5346 71.3182 51.2744 71.3182 50.591C71.3192 48.3849 71.3192 46.1788 71.3182 43.9737C71.3182 43.5536 71.4393 43.0619 71.2635 42.7321C71.0877 42.4024 70.61 42.2325 70.2613 41.9971C69.7428 41.6475 69.2223 41.3028 68.6582 40.9263C68.6582 41.5501 68.6582 42.1024 68.6582 42.6556C69.6087 43.1582 69.9842 43.8168 69.7826 44.6273C69.5938 45.3842 68.9601 45.8858 68.1933 45.8848C67.4404 45.8838 66.8097 45.3941 66.616 44.6591C66.3975 43.8287 66.761 43.1761 67.7404 42.6477C67.7424 42.1093 67.7424 41.565 67.7424 40.9492ZM64.7605 30.4403C58.3052 30.4403 51.8826 30.4403 45.4601 30.4403C45.4601 30.9329 45.4601 31.3998 45.4601 31.8805C51.9005 31.8805 58.3221 31.8805 64.7605 31.8805C64.7605 31.3938 64.7605 30.928 64.7605 30.4403ZM68.9383 44.2618C68.9452 43.8506 68.6025 43.5039 68.1923 43.5059C67.796 43.5079 67.4632 43.8357 67.4563 44.233C67.4483 44.6442 67.791 44.9909 68.2022 44.9889C68.5986 44.9859 68.9313 44.6571 68.9383 44.2618Z" fill="#CD76BA"/>
<path d="M50.479 45.0087C49.9913 45.0087 49.5135 45.0087 49.0834 45.0087C48.9334 45.6722 48.845 46.3268 48.6374 46.9406C47.7683 49.5073 45.3149 51.2465 42.639 51.2376C40.42 51.2306 38.6311 49.4884 38.6102 47.2724C38.6033 46.5215 38.5963 45.7487 38.7582 45.0236C39.1466 43.2854 40.721 42.0567 42.4989 42.0229C43.7495 41.9991 45.002 41.9851 46.2526 42.0259C47.4673 42.0656 48.3285 42.6874 48.7944 43.8158C48.8838 44.0333 48.9821 44.1177 49.2195 44.1038C49.6019 44.081 49.9883 44.1138 50.3707 44.0879C50.479 44.081 50.631 43.9717 50.6737 43.8724C51.1902 42.6606 52.1358 42.0189 53.4499 42.0169C54.5643 42.0149 55.6798 42.012 56.7943 42.0169C59.1563 42.0279 60.9025 43.7651 60.9035 46.1281C60.9035 46.7946 60.9273 47.48 60.7863 48.1226C60.3403 50.1619 58.455 51.4432 56.3433 51.2177C53.4111 50.9048 51.1941 48.8905 50.6151 46.007C50.5525 45.6911 50.5276 45.3693 50.479 45.0087ZM55.1712 42.9695C55.1712 42.9496 55.1712 42.9288 55.1712 42.9089C54.5644 42.9089 53.9584 42.9029 53.3515 42.9099C52.2202 42.9238 51.3928 43.7671 51.3918 44.8984C51.3908 47.8227 53.8412 50.3049 56.7684 50.3436C58.4352 50.3655 59.7632 49.258 59.9837 47.6081C60.0572 47.0598 60.0254 46.4956 60.0115 45.9394C59.9767 44.4723 58.9199 43.195 57.4657 42.9884C56.7158 42.8811 55.9371 42.9695 55.1712 42.9695ZM44.3623 42.9089C43.7684 42.9089 43.1734 42.901 42.5794 42.9109C41.0696 42.9357 39.7942 43.9896 39.5648 45.4765C39.4645 46.1301 39.4704 46.8115 39.5112 47.475C39.6075 49.0494 40.9534 50.3039 42.5317 50.3436C45.5444 50.4191 48.1279 47.8952 48.118 44.8845C48.114 43.774 47.2886 42.9268 46.182 42.9109C45.5761 42.901 44.9692 42.9089 44.3623 42.9089Z" fill="#CD76BA"/>
<rect x="0.5" y="0.5" width="109" height="109" rx="14.5" stroke="#CD76BA"/>
</svg>
