<svg width="350" height="42" viewBox="0 0 350 42" fill="none" xmlns="http://www.w3.org/2000/svg">
<path d="M20.1456 41.0996C16.795 41.0996 13.4443 41.0968 10.0937 41.0926H9.9801C9.7585 41.0926 9.5369 41.094 9.3139 41.094C9.0937 41.0954 8.8749 41.0954 8.65471 41.0954C7.83283 41.0954 6.95485 41.0842 6.0923 41.0042C4.3153 40.8387 2.70239 39.9664 1.54811 38.5498C0.374197 37.108 -0.160164 35.3128 0.0417999 33.4965C0.484998 29.5288 0.921185 25.561 1.35877 21.5919C1.60702 19.3366 1.85526 17.0828 2.10491 14.8289C2.15961 14.3366 2.21712 13.8443 2.27462 13.352C2.3728 12.5161 2.47238 11.6564 2.55793 10.7981C3.00393 10.7995 3.44573 10.8008 3.88753 10.8008L5.55092 10.7994C6.32371 10.7994 7.23535 10.8009 8.14559 10.8135H8.18627C8.72764 10.8135 9.65331 10.6213 9.7627 9.33101L9.79496 8.95513C9.91979 7.47967 10.0488 5.95373 10.2536 4.47546C10.5916 2.03647 12.3742 0.280508 14.6912 0.107997C15.6491 0.0364684 16.6421 0 17.6435 0C18.8595 0 20.1175 0.0532967 21.3798 0.158486C23.3377 0.321179 25.1835 2.09538 25.4107 4.03087C25.6126 5.75597 25.7922 7.51754 25.9577 9.41235C26.0362 10.3002 26.5804 10.8093 27.4514 10.8093H27.4752C28.0685 10.8037 28.6617 10.8023 29.255 10.8023L30.938 10.8037C31.5986 10.8037 32.3644 10.8023 33.1484 10.7924C33.234 11.6634 33.3321 12.54 33.4275 13.3913C33.5089 14.1206 33.593 14.8738 33.6687 15.6143C33.1905 16.108 32.6996 16.6017 32.2129 17.0884L31.6926 12.4656H26.2859L26.5355 15.0814C26.5579 15.3114 26.4836 15.533 26.3279 15.7041C26.1723 15.8752 25.9591 15.9692 25.729 15.9692C25.3125 15.9692 24.9661 15.6578 24.9226 15.244L24.6323 12.4628H11.0741L10.7837 15.2469C10.7403 15.6606 10.3938 15.9734 9.97729 15.9734C9.74587 15.9734 9.53409 15.8794 9.37841 15.7083C9.22273 15.5372 9.1498 15.317 9.17084 15.087L9.42049 12.453H4.02357L3.82441 14.1417C3.75288 14.7434 3.67995 15.3478 3.61263 15.9523C3.09089 20.6269 2.57055 25.303 2.05302 29.9776C1.90576 31.303 1.77532 32.4965 1.66032 33.6957C1.38402 36.5568 3.40506 39.0631 6.2606 39.4012L6.30407 39.4068C6.56214 39.4376 6.85527 39.4727 7.15962 39.4727L9.65611 39.4741C12.8104 39.4755 15.9647 39.4769 19.1189 39.4769C22.2564 39.4769 25.3938 39.4755 28.5313 39.4699C30.6954 39.4671 32.37 38.5526 33.3742 36.8261C33.9619 35.8163 34.1737 34.6354 34.0054 33.3156C34.0025 33.2946 34.0025 33.2791 34.0011 33.2693C34.0152 33.2511 34.0502 33.2076 34.1344 33.1347C34.6225 32.7111 35.0713 32.2903 35.4892 31.8654C35.68 33.4194 35.8048 34.8149 35.4107 36.1515C34.5145 39.1936 31.8735 41.087 28.5187 41.0926C25.7291 41.0982 22.9366 41.0996 20.1456 41.0996ZM17.9366 1.65218C17.1063 1.65218 16.2746 1.65358 15.4443 1.65499C13.4121 1.6606 11.9815 2.97476 11.8006 5.00422C11.7683 5.36747 11.7304 5.73072 11.6926 6.09397C11.6631 6.37168 11.6351 6.65078 11.6084 6.92988C11.5467 7.56803 11.4892 8.20758 11.4289 8.85695L11.2508 10.7784H24.4738L24.3658 9.69847C24.3153 9.19356 24.2662 8.69286 24.2185 8.19496C24.1105 7.07575 23.9997 5.92006 23.8637 4.78682C23.6365 2.89201 22.2297 1.6634 20.2774 1.65779C19.4976 1.65358 18.7178 1.65218 17.9366 1.65218Z" fill="#CD76BA"/>
<path d="M20.7825 24.6689C20.6451 24.5301 20.5693 24.3478 20.5693 24.1528C20.5693 23.9578 20.6465 23.7741 20.7839 23.6367L20.8092 23.6114C20.9466 23.4754 21.1303 23.3982 21.3239 23.3982C21.5188 23.3982 21.7026 23.474 21.84 23.6128L27.6689 29.4445L38.92 18.1949C39.0574 18.0574 39.2412 17.9817 39.4361 17.9817C39.6339 17.9817 39.8176 18.0588 39.9564 18.1991L40.0055 18.2482C40.2874 18.5343 40.286 18.9957 40.0041 19.279L27.69 31.5904L20.7825 24.6689Z" fill="#CD76BA"/>
<path d="M68.5446 27.73V34H66.4216V27.73L60.6466 18.237H62.5166C62.7073 18.237 62.8576 18.2847 62.9676 18.38C63.0776 18.4753 63.1729 18.5927 63.2536 18.732L66.8616 24.859C67.0083 25.1157 67.1293 25.3577 67.2246 25.585C67.3273 25.8123 67.4189 26.036 67.4996 26.256C67.5803 26.0287 67.6683 25.8013 67.7636 25.574C67.8589 25.3467 67.9799 25.1083 68.1266 24.859L71.7236 18.732C71.7896 18.6147 71.8776 18.5047 71.9876 18.402C72.1049 18.292 72.2553 18.237 72.4386 18.237H74.3306L68.5446 27.73ZM78.7488 22.681C79.5628 22.681 80.2961 22.8167 80.9488 23.088C81.6088 23.3593 82.1661 23.7443 82.6208 24.243C83.0828 24.7417 83.4348 25.3467 83.6768 26.058C83.9261 26.762 84.0508 27.5503 84.0508 28.423C84.0508 29.303 83.9261 30.095 83.6768 30.799C83.4348 31.503 83.0828 32.1043 82.6208 32.603C82.1661 33.1017 81.6088 33.4867 80.9488 33.758C80.2961 34.022 79.5628 34.154 78.7488 34.154C77.9348 34.154 77.1978 34.022 76.5378 33.758C75.8851 33.4867 75.3278 33.1017 74.8658 32.603C74.4038 32.1043 74.0481 31.503 73.7988 30.799C73.5495 30.095 73.4248 29.303 73.4248 28.423C73.4248 27.5503 73.5495 26.762 73.7988 26.058C74.0481 25.3467 74.4038 24.7417 74.8658 24.243C75.3278 23.7443 75.8851 23.3593 76.5378 23.088C77.1978 22.8167 77.9348 22.681 78.7488 22.681ZM78.7488 32.625C79.8488 32.625 80.6701 32.2583 81.2128 31.525C81.7555 30.7843 82.0268 29.754 82.0268 28.434C82.0268 27.1067 81.7555 26.0727 81.2128 25.332C80.6701 24.5913 79.8488 24.221 78.7488 24.221C78.1915 24.221 77.7075 24.3163 77.2968 24.507C76.8861 24.6977 76.5415 24.9727 76.2628 25.332C75.9915 25.6913 75.7861 26.135 75.6468 26.663C75.5148 27.1837 75.4488 27.774 75.4488 28.434C75.4488 29.094 75.5148 29.6843 75.6468 30.205C75.7861 30.7257 75.9915 31.1657 76.2628 31.525C76.5415 31.877 76.8861 32.1483 77.2968 32.339C77.7075 32.5297 78.1915 32.625 78.7488 32.625ZM88.1574 22.857V29.963C88.1574 30.8063 88.3518 31.459 88.7404 31.921C89.1291 32.383 89.7158 32.614 90.5004 32.614C91.0724 32.614 91.6114 32.4783 92.1174 32.207C92.6234 31.9357 93.0891 31.558 93.5144 31.074V22.857H95.4724V34H94.3064C94.0278 34 93.8518 33.8643 93.7784 33.593L93.6244 32.394C93.1404 32.9293 92.5978 33.362 91.9964 33.692C91.3951 34.0147 90.7058 34.176 89.9284 34.176C89.3198 34.176 88.7808 34.077 88.3114 33.879C87.8494 33.6737 87.4608 33.3877 87.1454 33.021C86.8301 32.6543 86.5918 32.2107 86.4304 31.69C86.2764 31.1693 86.1994 30.5937 86.1994 29.963V22.857H88.1574ZM102.942 34V17.797H104.9V24.353C105.377 23.847 105.905 23.4437 106.484 23.143C107.063 22.835 107.731 22.681 108.486 22.681C109.095 22.681 109.63 22.7837 110.092 22.989C110.561 23.187 110.95 23.473 111.258 23.847C111.573 24.2137 111.812 24.6573 111.973 25.178C112.134 25.6987 112.215 26.2743 112.215 26.905V34H110.257V26.905C110.257 26.0617 110.063 25.409 109.674 24.947C109.293 24.4777 108.706 24.243 107.914 24.243C107.335 24.243 106.792 24.3823 106.286 24.661C105.787 24.9397 105.325 25.3173 104.9 25.794V34H102.942ZM123.351 34H122.482C122.291 34 122.137 33.9707 122.02 33.912C121.902 33.8533 121.825 33.7287 121.789 33.538L121.569 32.504C121.275 32.768 120.989 33.0063 120.711 33.219C120.432 33.4243 120.139 33.6003 119.831 33.747C119.523 33.8863 119.193 33.9927 118.841 34.066C118.496 34.1393 118.111 34.176 117.686 34.176C117.253 34.176 116.846 34.1173 116.465 34C116.091 33.8753 115.764 33.692 115.486 33.45C115.207 33.208 114.983 32.9037 114.815 32.537C114.653 32.163 114.573 31.723 114.573 31.217C114.573 30.777 114.694 30.3553 114.936 29.952C115.178 29.5413 115.566 29.1783 116.102 28.863C116.644 28.5477 117.352 28.291 118.225 28.093C119.097 27.8877 120.164 27.7703 121.426 27.741V26.872C121.426 26.0067 121.239 25.354 120.865 24.914C120.498 24.4667 119.952 24.243 119.226 24.243C118.749 24.243 118.346 24.3053 118.016 24.43C117.693 24.5473 117.411 24.683 117.169 24.837C116.934 24.9837 116.729 25.1193 116.553 25.244C116.384 25.3613 116.215 25.42 116.047 25.42C115.915 25.42 115.797 25.387 115.695 25.321C115.599 25.2477 115.522 25.1597 115.464 25.057L115.112 24.43C115.728 23.836 116.391 23.3923 117.103 23.099C117.814 22.8057 118.602 22.659 119.468 22.659C120.091 22.659 120.645 22.7617 121.129 22.967C121.613 23.1723 122.02 23.4583 122.35 23.825C122.68 24.1917 122.929 24.6353 123.098 25.156C123.266 25.6767 123.351 26.2487 123.351 26.872V34ZM118.269 32.801C118.613 32.801 118.929 32.768 119.215 32.702C119.501 32.6287 119.768 32.5297 120.018 32.405C120.274 32.273 120.516 32.1153 120.744 31.932C120.978 31.7487 121.206 31.5397 121.426 31.305V28.984C120.524 29.0133 119.757 29.0867 119.127 29.204C118.496 29.314 117.983 29.4607 117.587 29.644C117.191 29.8273 116.901 30.0437 116.718 30.293C116.542 30.5423 116.454 30.821 116.454 31.129C116.454 31.4223 116.501 31.6753 116.597 31.888C116.692 32.1007 116.82 32.2767 116.982 32.416C117.143 32.548 117.334 32.647 117.554 32.713C117.774 32.7717 118.012 32.801 118.269 32.801ZM124.565 22.857H126.171C126.325 22.857 126.454 22.8973 126.556 22.978C126.659 23.0587 126.732 23.154 126.776 23.264L129.603 30.436C129.706 30.7 129.787 30.964 129.845 31.228C129.904 31.492 129.959 31.7523 130.01 32.009C130.069 31.7523 130.131 31.492 130.197 31.228C130.263 30.964 130.348 30.7 130.45 30.436L133.31 23.264C133.354 23.1467 133.424 23.0513 133.519 22.978C133.622 22.8973 133.747 22.857 133.893 22.857H135.422L130.879 34H129.108L124.565 22.857ZM141.363 22.681C142.03 22.681 142.646 22.7947 143.211 23.022C143.775 23.242 144.263 23.5647 144.674 23.99C145.084 24.408 145.403 24.9287 145.631 25.552C145.865 26.168 145.983 26.872 145.983 27.664C145.983 27.972 145.95 28.1773 145.884 28.28C145.818 28.3827 145.693 28.434 145.51 28.434H138.096C138.11 29.138 138.206 29.7503 138.382 30.271C138.558 30.7917 138.8 31.228 139.108 31.58C139.416 31.9247 139.782 32.185 140.208 32.361C140.633 32.5297 141.11 32.614 141.638 32.614C142.129 32.614 142.551 32.559 142.903 32.449C143.262 32.3317 143.57 32.207 143.827 32.075C144.083 31.943 144.296 31.822 144.465 31.712C144.641 31.5947 144.791 31.536 144.916 31.536C145.077 31.536 145.202 31.5983 145.29 31.723L145.84 32.438C145.598 32.7313 145.308 32.988 144.971 33.208C144.633 33.4207 144.27 33.5967 143.882 33.736C143.5 33.8753 143.104 33.978 142.694 34.044C142.283 34.1173 141.876 34.154 141.473 34.154C140.703 34.154 139.991 34.0257 139.339 33.769C138.693 33.505 138.132 33.1237 137.656 32.625C137.186 32.119 136.82 31.4957 136.556 30.755C136.292 30.0143 136.16 29.1637 136.16 28.203C136.16 27.4257 136.277 26.6997 136.512 26.025C136.754 25.3503 137.098 24.7673 137.546 24.276C137.993 23.7773 138.539 23.3887 139.185 23.11C139.83 22.824 140.556 22.681 141.363 22.681ZM141.407 24.122C140.461 24.122 139.716 24.397 139.174 24.947C138.631 25.4897 138.294 26.245 138.162 27.213H144.223C144.223 26.7583 144.16 26.344 144.036 25.97C143.911 25.5887 143.728 25.2623 143.486 24.991C143.244 24.7123 142.947 24.4997 142.595 24.353C142.25 24.199 141.854 24.122 141.407 24.122ZM160.927 34H160.058C159.867 34 159.713 33.9707 159.596 33.912C159.478 33.8533 159.401 33.7287 159.365 33.538L159.145 32.504C158.851 32.768 158.565 33.0063 158.287 33.219C158.008 33.4243 157.715 33.6003 157.407 33.747C157.099 33.8863 156.769 33.9927 156.417 34.066C156.072 34.1393 155.687 34.176 155.262 34.176C154.829 34.176 154.422 34.1173 154.041 34C153.667 33.8753 153.34 33.692 153.062 33.45C152.783 33.208 152.559 32.9037 152.391 32.537C152.229 32.163 152.149 31.723 152.149 31.217C152.149 30.777 152.27 30.3553 152.512 29.952C152.754 29.5413 153.142 29.1783 153.678 28.863C154.22 28.5477 154.928 28.291 155.801 28.093C156.673 27.8877 157.74 27.7703 159.002 27.741V26.872C159.002 26.0067 158.815 25.354 158.441 24.914C158.074 24.4667 157.528 24.243 156.802 24.243C156.325 24.243 155.922 24.3053 155.592 24.43C155.269 24.5473 154.987 24.683 154.745 24.837C154.51 24.9837 154.305 25.1193 154.129 25.244C153.96 25.3613 153.791 25.42 153.623 25.42C153.491 25.42 153.373 25.387 153.271 25.321C153.175 25.2477 153.098 25.1597 153.04 25.057L152.688 24.43C153.304 23.836 153.967 23.3923 154.679 23.099C155.39 22.8057 156.178 22.659 157.044 22.659C157.667 22.659 158.221 22.7617 158.705 22.967C159.189 23.1723 159.596 23.4583 159.926 23.825C160.256 24.1917 160.505 24.6353 160.674 25.156C160.842 25.6767 160.927 26.2487 160.927 26.872V34ZM155.845 32.801C156.189 32.801 156.505 32.768 156.791 32.702C157.077 32.6287 157.344 32.5297 157.594 32.405C157.85 32.273 158.092 32.1153 158.32 31.932C158.554 31.7487 158.782 31.5397 159.002 31.305V28.984C158.1 29.0133 157.333 29.0867 156.703 29.204C156.072 29.314 155.559 29.4607 155.163 29.644C154.767 29.8273 154.477 30.0437 154.294 30.293C154.118 30.5423 154.03 30.821 154.03 31.129C154.03 31.4223 154.077 31.6753 154.173 31.888C154.268 32.1007 154.396 32.2767 154.558 32.416C154.719 32.548 154.91 32.647 155.13 32.713C155.35 32.7717 155.588 32.801 155.845 32.801ZM171.736 34C171.457 34 171.281 33.8643 171.208 33.593L171.032 32.24C170.555 32.8193 170.009 33.285 169.393 33.637C168.784 33.9817 168.084 34.154 167.292 34.154C166.654 34.154 166.075 34.033 165.554 33.791C165.033 33.5417 164.59 33.1787 164.223 32.702C163.856 32.2253 163.574 31.6313 163.376 30.92C163.178 30.2087 163.079 29.391 163.079 28.467C163.079 27.6457 163.189 26.883 163.409 26.179C163.629 25.4677 163.944 24.8517 164.355 24.331C164.773 23.8103 165.279 23.4033 165.873 23.11C166.467 22.8093 167.142 22.659 167.897 22.659C168.579 22.659 169.162 22.7763 169.646 23.011C170.13 23.2383 170.563 23.561 170.944 23.979V17.797H172.902V34H171.736ZM167.941 32.57C168.579 32.57 169.136 32.4233 169.613 32.13C170.097 31.8367 170.541 31.4223 170.944 30.887V25.497C170.585 25.013 170.189 24.6757 169.756 24.485C169.331 24.287 168.858 24.188 168.337 24.188C167.296 24.188 166.496 24.5583 165.939 25.299C165.382 26.0397 165.103 27.0957 165.103 28.467C165.103 29.193 165.165 29.8163 165.29 30.337C165.415 30.8503 165.598 31.2757 165.84 31.613C166.082 31.943 166.379 32.185 166.731 32.339C167.083 32.493 167.486 32.57 167.941 32.57ZM184.025 34C183.747 34 183.571 33.8643 183.497 33.593L183.321 32.24C182.845 32.8193 182.298 33.285 181.682 33.637C181.074 33.9817 180.373 34.154 179.581 34.154C178.943 34.154 178.364 34.033 177.843 33.791C177.323 33.5417 176.879 33.1787 176.512 32.702C176.146 32.2253 175.863 31.6313 175.665 30.92C175.467 30.2087 175.368 29.391 175.368 28.467C175.368 27.6457 175.478 26.883 175.698 26.179C175.918 25.4677 176.234 24.8517 176.644 24.331C177.062 23.8103 177.568 23.4033 178.162 23.11C178.756 22.8093 179.431 22.659 180.186 22.659C180.868 22.659 181.451 22.7763 181.935 23.011C182.419 23.2383 182.852 23.561 183.233 23.979V17.797H185.191V34H184.025ZM180.23 32.57C180.868 32.57 181.426 32.4233 181.902 32.13C182.386 31.8367 182.83 31.4223 183.233 30.887V25.497C182.874 25.013 182.478 24.6757 182.045 24.485C181.62 24.287 181.147 24.188 180.626 24.188C179.585 24.188 178.786 24.5583 178.228 25.299C177.671 26.0397 177.392 27.0957 177.392 28.467C177.392 29.193 177.455 29.8163 177.579 30.337C177.704 30.8503 177.887 31.2757 178.129 31.613C178.371 31.943 178.668 32.185 179.02 32.339C179.372 32.493 179.776 32.57 180.23 32.57ZM192.882 22.681C193.55 22.681 194.166 22.7947 194.73 23.022C195.295 23.242 195.783 23.5647 196.193 23.99C196.604 24.408 196.923 24.9287 197.15 25.552C197.385 26.168 197.502 26.872 197.502 27.664C197.502 27.972 197.469 28.1773 197.403 28.28C197.337 28.3827 197.213 28.434 197.029 28.434H189.615C189.63 29.138 189.725 29.7503 189.901 30.271C190.077 30.7917 190.319 31.228 190.627 31.58C190.935 31.9247 191.302 32.185 191.727 32.361C192.153 32.5297 192.629 32.614 193.157 32.614C193.649 32.614 194.07 32.559 194.422 32.449C194.782 32.3317 195.09 32.207 195.346 32.075C195.603 31.943 195.816 31.822 195.984 31.712C196.16 31.5947 196.311 31.536 196.435 31.536C196.597 31.536 196.721 31.5983 196.809 31.723L197.359 32.438C197.117 32.7313 196.828 32.988 196.49 33.208C196.153 33.4207 195.79 33.5967 195.401 33.736C195.02 33.8753 194.624 33.978 194.213 34.044C193.803 34.1173 193.396 34.154 192.992 34.154C192.222 34.154 191.511 34.0257 190.858 33.769C190.213 33.505 189.652 33.1237 189.175 32.625C188.706 32.119 188.339 31.4957 188.075 30.755C187.811 30.0143 187.679 29.1637 187.679 28.203C187.679 27.4257 187.797 26.6997 188.031 26.025C188.273 25.3503 188.618 24.7673 189.065 24.276C189.513 23.7773 190.059 23.3887 190.704 23.11C191.35 22.824 192.076 22.681 192.882 22.681ZM192.926 24.122C191.98 24.122 191.236 24.397 190.693 24.947C190.151 25.4897 189.813 26.245 189.681 27.213H195.742C195.742 26.7583 195.68 26.344 195.555 25.97C195.431 25.5887 195.247 25.2623 195.005 24.991C194.763 24.7123 194.466 24.4997 194.114 24.353C193.77 24.199 193.374 24.122 192.926 24.122ZM207.851 34C207.573 34 207.397 33.8643 207.323 33.593L207.147 32.24C206.671 32.8193 206.124 33.285 205.508 33.637C204.9 33.9817 204.199 34.154 203.407 34.154C202.769 34.154 202.19 34.033 201.669 33.791C201.149 33.5417 200.705 33.1787 200.338 32.702C199.972 32.2253 199.689 31.6313 199.491 30.92C199.293 30.2087 199.194 29.391 199.194 28.467C199.194 27.6457 199.304 26.883 199.524 26.179C199.744 25.4677 200.06 24.8517 200.47 24.331C200.888 23.8103 201.394 23.4033 201.988 23.11C202.582 22.8093 203.257 22.659 204.012 22.659C204.694 22.659 205.277 22.7763 205.761 23.011C206.245 23.2383 206.678 23.561 207.059 23.979V17.797H209.017V34H207.851ZM204.056 32.57C204.694 32.57 205.252 32.4233 205.728 32.13C206.212 31.8367 206.656 31.4223 207.059 30.887V25.497C206.7 25.013 206.304 24.6757 205.871 24.485C205.446 24.287 204.973 24.188 204.452 24.188C203.411 24.188 202.612 24.5583 202.054 25.299C201.497 26.0397 201.218 27.0957 201.218 28.467C201.218 29.193 201.281 29.8163 201.405 30.337C201.53 30.8503 201.713 31.2757 201.955 31.613C202.197 31.943 202.494 32.185 202.846 32.339C203.198 32.493 203.602 32.57 204.056 32.57ZM219.818 37.289C219.752 37.4357 219.668 37.553 219.565 37.641C219.47 37.729 219.32 37.773 219.114 37.773H217.662L219.697 33.351L215.099 22.857H216.793C216.962 22.857 217.094 22.901 217.189 22.989C217.285 23.0697 217.354 23.1613 217.398 23.264L220.379 30.282C220.445 30.4433 220.5 30.6047 220.544 30.766C220.596 30.9273 220.64 31.0923 220.676 31.261C220.728 31.0923 220.779 30.9273 220.83 30.766C220.882 30.6047 220.94 30.4397 221.006 30.271L223.899 23.264C223.943 23.1467 224.017 23.0513 224.119 22.978C224.229 22.8973 224.347 22.857 224.471 22.857H226.033L219.818 37.289ZM232.04 22.681C232.854 22.681 233.587 22.8167 234.24 23.088C234.9 23.3593 235.457 23.7443 235.912 24.243C236.374 24.7417 236.726 25.3467 236.968 26.058C237.217 26.762 237.342 27.5503 237.342 28.423C237.342 29.303 237.217 30.095 236.968 30.799C236.726 31.503 236.374 32.1043 235.912 32.603C235.457 33.1017 234.9 33.4867 234.24 33.758C233.587 34.022 232.854 34.154 232.04 34.154C231.226 34.154 230.489 34.022 229.829 33.758C229.176 33.4867 228.619 33.1017 228.157 32.603C227.695 32.1043 227.339 31.503 227.09 30.799C226.84 30.095 226.716 29.303 226.716 28.423C226.716 27.5503 226.84 26.762 227.09 26.058C227.339 25.3467 227.695 24.7417 228.157 24.243C228.619 23.7443 229.176 23.3593 229.829 23.088C230.489 22.8167 231.226 22.681 232.04 22.681ZM232.04 32.625C233.14 32.625 233.961 32.2583 234.504 31.525C235.046 30.7843 235.318 29.754 235.318 28.434C235.318 27.1067 235.046 26.0727 234.504 25.332C233.961 24.5913 233.14 24.221 232.04 24.221C231.482 24.221 230.998 24.3163 230.588 24.507C230.177 24.6977 229.832 24.9727 229.554 25.332C229.282 25.6913 229.077 26.135 228.938 26.663C228.806 27.1837 228.74 27.774 228.74 28.434C228.74 29.094 228.806 29.6843 228.938 30.205C229.077 30.7257 229.282 31.1657 229.554 31.525C229.832 31.877 230.177 32.1483 230.588 32.339C230.998 32.5297 231.482 32.625 232.04 32.625ZM241.448 22.857V29.963C241.448 30.8063 241.643 31.459 242.031 31.921C242.42 32.383 243.007 32.614 243.791 32.614C244.363 32.614 244.902 32.4783 245.408 32.207C245.914 31.9357 246.38 31.558 246.805 31.074V22.857H248.763V34H247.597C247.319 34 247.143 33.8643 247.069 33.593L246.915 32.394C246.431 32.9293 245.889 33.362 245.287 33.692C244.686 34.0147 243.997 34.176 243.219 34.176C242.611 34.176 242.072 34.077 241.602 33.879C241.14 33.6737 240.752 33.3877 240.436 33.021C240.121 32.6543 239.883 32.2107 239.721 31.69C239.567 31.1693 239.49 30.5937 239.49 29.963V22.857H241.448ZM251.979 34V22.857H253.101C253.314 22.857 253.46 22.8973 253.541 22.978C253.622 23.0587 253.677 23.198 253.706 23.396L253.838 25.134C254.219 24.3567 254.689 23.7517 255.246 23.319C255.811 22.879 256.471 22.659 257.226 22.659C257.534 22.659 257.813 22.6957 258.062 22.769C258.311 22.835 258.542 22.9303 258.755 23.055L258.502 24.518C258.451 24.7013 258.337 24.793 258.161 24.793C258.058 24.793 257.901 24.76 257.688 24.694C257.475 24.6207 257.178 24.584 256.797 24.584C256.115 24.584 255.543 24.782 255.081 25.178C254.626 25.574 254.245 26.1497 253.937 26.905V34H251.979ZM265.106 37.773V22.857H266.272C266.551 22.857 266.727 22.9927 266.8 23.264L266.965 24.584C267.442 24.0047 267.984 23.539 268.593 23.187C269.209 22.835 269.917 22.659 270.716 22.659C271.354 22.659 271.933 22.7837 272.454 23.033C272.975 23.275 273.418 23.638 273.785 24.122C274.152 24.5987 274.434 25.1927 274.632 25.904C274.83 26.6153 274.929 27.433 274.929 28.357C274.929 29.1783 274.819 29.9447 274.599 30.656C274.379 31.36 274.064 31.9723 273.653 32.493C273.242 33.0063 272.736 33.4133 272.135 33.714C271.541 34.0073 270.87 34.154 270.122 34.154C269.433 34.154 268.842 34.0403 268.351 33.813C267.867 33.5857 267.438 33.263 267.064 32.845V37.773H265.106ZM270.067 24.243C269.429 24.243 268.868 24.3897 268.384 24.683C267.907 24.9763 267.467 25.3907 267.064 25.926V31.316C267.423 31.8 267.816 32.141 268.241 32.339C268.674 32.537 269.154 32.636 269.682 32.636C270.716 32.636 271.512 32.2657 272.069 31.525C272.626 30.7843 272.905 29.7283 272.905 28.357C272.905 27.631 272.839 27.0077 272.707 26.487C272.582 25.9663 272.399 25.541 272.157 25.211C271.915 24.8737 271.618 24.628 271.266 24.474C270.914 24.32 270.514 24.243 270.067 24.243ZM277.245 34V22.857H278.367C278.579 22.857 278.726 22.8973 278.807 22.978C278.887 23.0587 278.942 23.198 278.972 23.396L279.104 25.134C279.485 24.3567 279.954 23.7517 280.512 23.319C281.076 22.879 281.736 22.659 282.492 22.659C282.8 22.659 283.078 22.6957 283.328 22.769C283.577 22.835 283.808 22.9303 284.021 23.055L283.768 24.518C283.716 24.7013 283.603 24.793 283.427 24.793C283.324 24.793 283.166 24.76 282.954 24.694C282.741 24.6207 282.444 24.584 282.063 24.584C281.381 24.584 280.809 24.782 280.347 25.178C279.892 25.574 279.511 26.1497 279.203 26.905V34H277.245ZM290.628 22.681C291.442 22.681 292.175 22.8167 292.828 23.088C293.488 23.3593 294.045 23.7443 294.5 24.243C294.962 24.7417 295.314 25.3467 295.556 26.058C295.805 26.762 295.93 27.5503 295.93 28.423C295.93 29.303 295.805 30.095 295.556 30.799C295.314 31.503 294.962 32.1043 294.5 32.603C294.045 33.1017 293.488 33.4867 292.828 33.758C292.175 34.022 291.442 34.154 290.628 34.154C289.814 34.154 289.077 34.022 288.417 33.758C287.764 33.4867 287.207 33.1017 286.745 32.603C286.283 32.1043 285.927 31.503 285.678 30.799C285.428 30.095 285.304 29.303 285.304 28.423C285.304 27.5503 285.428 26.762 285.678 26.058C285.927 25.3467 286.283 24.7417 286.745 24.243C287.207 23.7443 287.764 23.3593 288.417 23.088C289.077 22.8167 289.814 22.681 290.628 22.681ZM290.628 32.625C291.728 32.625 292.549 32.2583 293.092 31.525C293.634 30.7843 293.906 29.754 293.906 28.434C293.906 27.1067 293.634 26.0727 293.092 25.332C292.549 24.5913 291.728 24.221 290.628 24.221C290.07 24.221 289.586 24.3163 289.176 24.507C288.765 24.6977 288.42 24.9727 288.142 25.332C287.87 25.6913 287.665 26.135 287.526 26.663C287.394 27.1837 287.328 27.774 287.328 28.434C287.328 29.094 287.394 29.6843 287.526 30.205C287.665 30.7257 287.87 31.1657 288.142 31.525C288.42 31.877 288.765 32.1483 289.176 32.339C289.586 32.5297 290.07 32.625 290.628 32.625ZM306.185 34C305.907 34 305.731 33.8643 305.657 33.593L305.481 32.24C305.005 32.8193 304.458 33.285 303.842 33.637C303.234 33.9817 302.533 34.154 301.741 34.154C301.103 34.154 300.524 34.033 300.003 33.791C299.483 33.5417 299.039 33.1787 298.672 32.702C298.306 32.2253 298.023 31.6313 297.825 30.92C297.627 30.2087 297.528 29.391 297.528 28.467C297.528 27.6457 297.638 26.883 297.858 26.179C298.078 25.4677 298.394 24.8517 298.804 24.331C299.222 23.8103 299.728 23.4033 300.322 23.11C300.916 22.8093 301.591 22.659 302.346 22.659C303.028 22.659 303.611 22.7763 304.095 23.011C304.579 23.2383 305.012 23.561 305.393 23.979V17.797H307.351V34H306.185ZM302.39 32.57C303.028 32.57 303.586 32.4233 304.062 32.13C304.546 31.8367 304.99 31.4223 305.393 30.887V25.497C305.034 25.013 304.638 24.6757 304.205 24.485C303.78 24.287 303.307 24.188 302.786 24.188C301.745 24.188 300.946 24.5583 300.388 25.299C299.831 26.0397 299.552 27.0957 299.552 28.467C299.552 29.193 299.615 29.8163 299.739 30.337C299.864 30.8503 300.047 31.2757 300.289 31.613C300.531 31.943 300.828 32.185 301.18 32.339C301.532 32.493 301.936 32.57 302.39 32.57ZM312.325 22.857V29.963C312.325 30.8063 312.52 31.459 312.908 31.921C313.297 32.383 313.884 32.614 314.668 32.614C315.24 32.614 315.779 32.4783 316.285 32.207C316.791 31.9357 317.257 31.558 317.682 31.074V22.857H319.64V34H318.474C318.196 34 318.02 33.8643 317.946 33.593L317.792 32.394C317.308 32.9293 316.766 33.362 316.164 33.692C315.563 34.0147 314.874 34.176 314.096 34.176C313.488 34.176 312.949 34.077 312.479 33.879C312.017 33.6737 311.629 33.3877 311.313 33.021C310.998 32.6543 310.76 32.2107 310.598 31.69C310.444 31.1693 310.367 30.5937 310.367 29.963V22.857H312.325ZM330.457 24.837C330.398 24.9177 330.34 24.98 330.281 25.024C330.222 25.068 330.138 25.09 330.028 25.09C329.918 25.09 329.797 25.046 329.665 24.958C329.54 24.8627 329.379 24.76 329.181 24.65C328.983 24.54 328.741 24.441 328.455 24.353C328.176 24.2577 327.832 24.21 327.421 24.21C326.878 24.21 326.398 24.309 325.98 24.507C325.562 24.6977 325.21 24.9763 324.924 25.343C324.645 25.7097 324.433 26.1533 324.286 26.674C324.147 27.1947 324.077 27.7777 324.077 28.423C324.077 29.0977 324.154 29.699 324.308 30.227C324.462 30.7477 324.678 31.1877 324.957 31.547C325.236 31.899 325.573 32.1703 325.969 32.361C326.372 32.5443 326.823 32.636 327.322 32.636C327.799 32.636 328.191 32.581 328.499 32.471C328.807 32.3537 329.064 32.2253 329.269 32.086C329.474 31.9467 329.643 31.822 329.775 31.712C329.907 31.5947 330.039 31.536 330.171 31.536C330.34 31.536 330.464 31.5983 330.545 31.723L331.095 32.438C330.611 33.032 330.006 33.4683 329.28 33.747C328.554 34.0183 327.788 34.154 326.981 34.154C326.284 34.154 325.635 34.0257 325.034 33.769C324.44 33.5123 323.923 33.142 323.483 32.658C323.043 32.1667 322.695 31.5653 322.438 30.854C322.189 30.1427 322.064 29.3323 322.064 28.423C322.064 27.5943 322.178 26.828 322.405 26.124C322.64 25.42 322.977 24.815 323.417 24.309C323.864 23.7957 324.414 23.396 325.067 23.11C325.72 22.824 326.468 22.681 327.311 22.681C328.088 22.681 328.778 22.8093 329.379 23.066C329.98 23.3153 330.512 23.671 330.974 24.133L330.457 24.837ZM336.503 34.176C335.623 34.176 334.944 33.9303 334.468 33.439C333.998 32.9477 333.764 32.24 333.764 31.316V24.496H332.422C332.304 24.496 332.205 24.463 332.125 24.397C332.044 24.3237 332.004 24.2137 332.004 24.067V23.286L333.83 23.055L334.281 19.612C334.295 19.502 334.343 19.414 334.424 19.348C334.504 19.2747 334.607 19.238 334.732 19.238H335.722V23.077H338.912V24.496H335.722V31.184C335.722 31.6533 335.835 32.0017 336.063 32.229C336.29 32.4563 336.583 32.57 336.943 32.57C337.148 32.57 337.324 32.5443 337.471 32.493C337.625 32.4343 337.757 32.372 337.867 32.306C337.977 32.24 338.068 32.1813 338.142 32.13C338.222 32.0713 338.292 32.042 338.351 32.042C338.453 32.042 338.545 32.1043 338.626 32.229L339.198 33.164C338.86 33.4793 338.453 33.7287 337.977 33.912C337.5 34.088 337.009 34.176 336.503 34.176ZM347.713 24.694C347.625 24.8553 347.489 24.936 347.306 24.936C347.196 24.936 347.071 24.8957 346.932 24.815C346.792 24.7343 346.62 24.6463 346.415 24.551C346.217 24.4483 345.978 24.3567 345.7 24.276C345.421 24.188 345.091 24.144 344.71 24.144C344.38 24.144 344.083 24.188 343.819 24.276C343.555 24.3567 343.327 24.4703 343.137 24.617C342.953 24.7637 342.81 24.936 342.708 25.134C342.612 25.3247 342.565 25.5337 342.565 25.761C342.565 26.047 342.645 26.2853 342.807 26.476C342.975 26.6667 343.195 26.8317 343.467 26.971C343.738 27.1103 344.046 27.235 344.391 27.345C344.735 27.4477 345.087 27.5613 345.447 27.686C345.813 27.8033 346.169 27.9353 346.514 28.082C346.858 28.2287 347.166 28.412 347.438 28.632C347.709 28.852 347.925 29.1233 348.087 29.446C348.255 29.7613 348.34 30.1427 348.34 30.59C348.34 31.1033 348.248 31.58 348.065 32.02C347.881 32.4527 347.61 32.8303 347.251 33.153C346.891 33.4683 346.451 33.7177 345.931 33.901C345.41 34.0843 344.809 34.176 344.127 34.176C343.349 34.176 342.645 34.0513 342.015 33.802C341.384 33.5453 340.849 33.219 340.409 32.823L340.871 32.075C340.929 31.9797 340.999 31.9063 341.08 31.855C341.16 31.8037 341.267 31.778 341.399 31.778C341.531 31.778 341.67 31.8293 341.817 31.932C341.963 32.0347 342.139 32.1483 342.345 32.273C342.557 32.3977 342.81 32.5113 343.104 32.614C343.404 32.7167 343.778 32.768 344.226 32.768C344.607 32.768 344.941 32.7203 345.227 32.625C345.513 32.5223 345.751 32.3867 345.942 32.218C346.132 32.0493 346.272 31.855 346.36 31.635C346.455 31.415 346.503 31.1803 346.503 30.931C346.503 30.623 346.418 30.37 346.25 30.172C346.088 29.9667 345.872 29.7943 345.601 29.655C345.329 29.5083 345.018 29.3837 344.666 29.281C344.321 29.171 343.965 29.0573 343.599 28.94C343.239 28.8227 342.884 28.6907 342.532 28.544C342.187 28.39 341.879 28.1993 341.608 27.972C341.336 27.7447 341.116 27.466 340.948 27.136C340.786 26.7987 340.706 26.3917 340.706 25.915C340.706 25.4897 340.794 25.0827 340.97 24.694C341.146 24.298 341.402 23.9533 341.74 23.66C342.077 23.3593 342.491 23.121 342.983 22.945C343.474 22.769 344.035 22.681 344.666 22.681C345.399 22.681 346.055 22.7983 346.635 23.033C347.221 23.2603 347.727 23.5757 348.153 23.979L347.713 24.694Z" fill="#808080"/>
</svg>
