<svg width="540" height="58" viewBox="0 0 540 58" fill="none" xmlns="http://www.w3.org/2000/svg">
<rect x="14" y="8" width="470" height="6" fill="#D8D8D8"/>
<path d="M8.30787 40.119C8.25387 40.209 8.19387 40.278 8.12787 40.326C8.06787 40.368 7.99287 40.389 7.90287 40.389C7.80087 40.389 7.68087 40.338 7.54287 40.236C7.40487 40.134 7.23087 40.023 7.02087 39.903C6.81687 39.777 6.56787 39.663 6.27387 39.561C5.98587 39.459 5.63487 39.408 5.22087 39.408C4.83087 39.408 4.48587 39.462 4.18587 39.57C3.89187 39.672 3.64287 39.813 3.43887 39.993C3.24087 40.173 3.09087 40.386 2.98887 40.632C2.88687 40.872 2.83587 41.133 2.83587 41.415C2.83587 41.775 2.92287 42.075 3.09687 42.315C3.27687 42.549 3.51087 42.75 3.79887 42.918C4.09287 43.086 4.42287 43.233 4.78887 43.359C5.16087 43.479 5.53887 43.605 5.92287 43.737C6.31287 43.869 6.69087 44.019 7.05687 44.187C7.42887 44.349 7.75887 44.556 8.04687 44.808C8.34087 45.06 8.57487 45.369 8.74887 45.735C8.92887 46.101 9.01887 46.551 9.01887 47.085C9.01887 47.649 8.92287 48.18 8.73087 48.678C8.53887 49.17 8.25687 49.599 7.88487 49.965C7.51887 50.331 7.06587 50.619 6.52587 50.829C5.99187 51.039 5.38287 51.144 4.69887 51.144C3.85887 51.144 3.09687 50.994 2.41287 50.694C1.72887 50.388 1.14387 49.977 0.657868 49.461L1.16187 48.633C1.20987 48.567 1.26687 48.513 1.33287 48.471C1.40487 48.423 1.48287 48.399 1.56687 48.399C1.64487 48.399 1.73187 48.432 1.82787 48.498C1.92987 48.558 2.04387 48.636 2.16987 48.732C2.29587 48.828 2.43987 48.933 2.60187 49.047C2.76387 49.161 2.94687 49.266 3.15087 49.362C3.36087 49.458 3.59787 49.539 3.86187 49.605C4.12587 49.665 4.42287 49.695 4.75287 49.695C5.16687 49.695 5.53587 49.638 5.85987 49.524C6.18387 49.41 6.45687 49.251 6.67887 49.047C6.90687 48.837 7.08087 48.588 7.20087 48.3C7.32087 48.012 7.38087 47.691 7.38087 47.337C7.38087 46.947 7.29087 46.629 7.11087 46.383C6.93687 46.131 6.70587 45.921 6.41787 45.753C6.12987 45.585 5.79987 45.444 5.42787 45.33C5.05587 45.21 4.67787 45.09 4.29387 44.97C3.90987 44.844 3.53187 44.7 3.15987 44.538C2.78787 44.376 2.45787 44.166 2.16987 43.908C1.88187 43.65 1.64787 43.329 1.46787 42.945C1.29387 42.555 1.20687 42.075 1.20687 41.505C1.20687 41.049 1.29387 40.608 1.46787 40.182C1.64787 39.756 1.90587 39.378 2.24187 39.048C2.58387 38.718 3.00087 38.454 3.49287 38.256C3.99087 38.058 4.56087 37.959 5.20287 37.959C5.92287 37.959 6.57687 38.073 7.16487 38.301C7.75887 38.529 8.28087 38.859 8.73087 39.291L8.30787 40.119ZM17.0556 45.447C17.0556 45.075 17.0016 44.736 16.8936 44.43C16.7916 44.118 16.6386 43.851 16.4346 43.629C16.2366 43.401 15.9936 43.227 15.7056 43.107C15.4176 42.981 15.0906 42.918 14.7246 42.918C13.9566 42.918 13.3476 43.143 12.8976 43.593C12.4536 44.037 12.1776 44.655 12.0696 45.447H17.0556ZM18.3516 49.722C18.1536 49.962 17.9166 50.172 17.6406 50.352C17.3646 50.526 17.0676 50.67 16.7496 50.784C16.4376 50.898 16.1136 50.982 15.7776 51.036C15.4416 51.096 15.1086 51.126 14.7786 51.126C14.1486 51.126 13.5666 51.021 13.0326 50.811C12.5046 50.595 12.0456 50.283 11.6556 49.875C11.2716 49.461 10.9716 48.951 10.7556 48.345C10.5396 47.739 10.4316 47.043 10.4316 46.257C10.4316 45.621 10.5276 45.027 10.7196 44.475C10.9176 43.923 11.1996 43.446 11.5656 43.044C11.9316 42.636 12.3786 42.318 12.9066 42.09C13.4346 41.856 14.0286 41.739 14.6886 41.739C15.2346 41.739 15.7386 41.832 16.2006 42.018C16.6686 42.198 17.0706 42.462 17.4066 42.81C17.7486 43.152 18.0156 43.578 18.2076 44.088C18.3996 44.592 18.4956 45.168 18.4956 45.816C18.4956 46.068 18.4686 46.236 18.4146 46.32C18.3606 46.404 18.2586 46.446 18.1086 46.446H12.0156C12.0336 47.022 12.1116 47.523 12.2496 47.949C12.3936 48.375 12.5916 48.732 12.8436 49.02C13.0956 49.302 13.3956 49.515 13.7436 49.659C14.0916 49.797 14.4816 49.866 14.9136 49.866C15.3156 49.866 15.6606 49.821 15.9486 49.731C16.2426 49.635 16.4946 49.533 16.7046 49.425C16.9146 49.317 17.0886 49.218 17.2266 49.128C17.3706 49.032 17.4936 48.984 17.5956 48.984C17.7276 48.984 17.8296 49.035 17.9016 49.137L18.3516 49.722ZM27.7283 51H26.1893C26.0573 51 25.9523 50.967 25.8743 50.901C25.8023 50.829 25.7423 50.751 25.6943 50.667L23.3993 47.094C23.3753 47.178 23.3483 47.262 23.3183 47.346C23.2943 47.424 23.2583 47.496 23.2103 47.562L21.0863 50.667C21.0263 50.751 20.9603 50.829 20.8883 50.901C20.8223 50.967 20.7293 51 20.6093 51H19.1783L22.3733 46.32L19.3043 41.883H20.8433C20.9753 41.883 21.0713 41.904 21.1313 41.946C21.1913 41.988 21.2453 42.048 21.2933 42.126L23.5343 45.546C23.5823 45.372 23.6573 45.204 23.7593 45.042L25.7213 42.162C25.7753 42.078 25.8323 42.012 25.8923 41.964C25.9583 41.91 26.0363 41.883 26.1263 41.883H27.6023L24.5333 46.239L27.7283 51Z" fill="#CD76BA"/>
<path d="M221.816 48.336C221.912 48.336 221.996 48.375 222.068 48.453L222.761 49.2C222.233 49.812 221.591 50.289 220.835 50.631C220.085 50.973 219.176 51.144 218.108 51.144C217.184 51.144 216.344 50.985 215.588 50.667C214.832 50.343 214.187 49.893 213.653 49.317C213.119 48.735 212.705 48.039 212.411 47.229C212.117 46.419 211.97 45.528 211.97 44.556C211.97 43.584 212.123 42.693 212.429 41.883C212.735 41.073 213.164 40.377 213.716 39.795C214.274 39.213 214.94 38.763 215.714 38.445C216.488 38.121 217.343 37.959 218.279 37.959C219.197 37.959 220.007 38.106 220.709 38.4C221.411 38.694 222.029 39.093 222.563 39.597L221.987 40.398C221.951 40.458 221.903 40.509 221.843 40.551C221.789 40.587 221.714 40.605 221.618 40.605C221.51 40.605 221.378 40.548 221.222 40.434C221.066 40.314 220.862 40.182 220.61 40.038C220.358 39.894 220.043 39.765 219.665 39.651C219.287 39.531 218.822 39.471 218.27 39.471C217.604 39.471 216.995 39.588 216.443 39.822C215.891 40.05 215.414 40.383 215.012 40.821C214.616 41.259 214.307 41.793 214.085 42.423C213.863 43.053 213.752 43.764 213.752 44.556C213.752 45.36 213.866 46.077 214.094 46.707C214.328 47.337 214.643 47.871 215.039 48.309C215.441 48.741 215.912 49.071 216.452 49.299C216.998 49.527 217.586 49.641 218.216 49.641C218.6 49.641 218.945 49.62 219.251 49.578C219.563 49.53 219.848 49.458 220.106 49.362C220.37 49.266 220.613 49.146 220.835 49.002C221.063 48.852 221.288 48.675 221.51 48.471C221.612 48.381 221.714 48.336 221.816 48.336ZM229.248 46.896C228.51 46.92 227.88 46.98 227.358 47.076C226.842 47.166 226.419 47.286 226.089 47.436C225.765 47.586 225.528 47.763 225.378 47.967C225.234 48.171 225.162 48.399 225.162 48.651C225.162 48.891 225.201 49.098 225.279 49.272C225.357 49.446 225.462 49.59 225.594 49.704C225.732 49.812 225.891 49.893 226.071 49.947C226.257 49.995 226.455 50.019 226.665 50.019C226.947 50.019 227.205 49.992 227.439 49.938C227.673 49.878 227.892 49.794 228.096 49.686C228.306 49.578 228.504 49.449 228.69 49.299C228.882 49.149 229.068 48.978 229.248 48.786V46.896ZM224.073 43.17C224.577 42.684 225.12 42.321 225.702 42.081C226.284 41.841 226.929 41.721 227.637 41.721C228.147 41.721 228.6 41.805 228.996 41.973C229.392 42.141 229.725 42.375 229.995 42.675C230.265 42.975 230.469 43.338 230.607 43.764C230.745 44.19 230.814 44.658 230.814 45.168V51H230.103C229.947 51 229.827 50.976 229.743 50.928C229.659 50.874 229.593 50.772 229.545 50.622L229.365 49.758C229.125 49.98 228.891 50.178 228.663 50.352C228.435 50.52 228.195 50.664 227.943 50.784C227.691 50.898 227.421 50.985 227.133 51.045C226.851 51.111 226.536 51.144 226.188 51.144C225.834 51.144 225.501 51.096 225.189 51C224.877 50.898 224.604 50.748 224.37 50.55C224.142 50.352 223.959 50.103 223.821 49.803C223.689 49.497 223.623 49.137 223.623 48.723C223.623 48.363 223.722 48.018 223.92 47.688C224.118 47.352 224.439 47.055 224.883 46.797C225.327 46.539 225.906 46.329 226.62 46.167C227.334 45.999 228.21 45.903 229.248 45.879V45.168C229.248 44.46 229.095 43.926 228.789 43.566C228.483 43.2 228.036 43.017 227.448 43.017C227.052 43.017 226.719 43.068 226.449 43.17C226.185 43.266 225.954 43.377 225.756 43.503C225.564 43.623 225.396 43.734 225.252 43.836C225.114 43.932 224.976 43.98 224.838 43.98C224.73 43.98 224.637 43.953 224.559 43.899C224.481 43.839 224.415 43.767 224.361 43.683L224.073 43.17ZM235.831 51.144C235.111 51.144 234.556 50.943 234.166 50.541C233.782 50.139 233.59 49.56 233.59 48.804V43.224H232.492C232.396 43.224 232.315 43.197 232.249 43.143C232.183 43.083 232.15 42.993 232.15 42.873V42.234L233.644 42.045L234.013 39.228C234.031 39.138 234.07 39.066 234.13 39.012C234.196 38.952 234.28 38.922 234.382 38.922H235.192V42.063H237.829V43.224H235.192V48.696C235.192 49.08 235.285 49.365 235.471 49.551C235.657 49.737 235.897 49.83 236.191 49.83C236.359 49.83 236.503 49.809 236.623 49.767C236.749 49.719 236.857 49.668 236.947 49.614C237.037 49.56 237.112 49.512 237.172 49.47C237.238 49.422 237.295 49.398 237.343 49.398C237.427 49.398 237.502 49.449 237.568 49.551L238.036 50.316C237.76 50.574 237.427 50.778 237.037 50.928C236.647 51.072 236.245 51.144 235.831 51.144ZM245.432 45.447C245.432 45.075 245.378 44.736 245.27 44.43C245.168 44.118 245.015 43.851 244.811 43.629C244.613 43.401 244.37 43.227 244.082 43.107C243.794 42.981 243.467 42.918 243.101 42.918C242.333 42.918 241.724 43.143 241.274 43.593C240.83 44.037 240.554 44.655 240.446 45.447H245.432ZM246.728 49.722C246.53 49.962 246.293 50.172 246.017 50.352C245.741 50.526 245.444 50.67 245.126 50.784C244.814 50.898 244.49 50.982 244.154 51.036C243.818 51.096 243.485 51.126 243.155 51.126C242.525 51.126 241.943 51.021 241.409 50.811C240.881 50.595 240.422 50.283 240.032 49.875C239.648 49.461 239.348 48.951 239.132 48.345C238.916 47.739 238.808 47.043 238.808 46.257C238.808 45.621 238.904 45.027 239.096 44.475C239.294 43.923 239.576 43.446 239.942 43.044C240.308 42.636 240.755 42.318 241.283 42.09C241.811 41.856 242.405 41.739 243.065 41.739C243.611 41.739 244.115 41.832 244.577 42.018C245.045 42.198 245.447 42.462 245.783 42.81C246.125 43.152 246.392 43.578 246.584 44.088C246.776 44.592 246.872 45.168 246.872 45.816C246.872 46.068 246.845 46.236 246.791 46.32C246.737 46.404 246.635 46.446 246.485 46.446H240.392C240.41 47.022 240.488 47.523 240.626 47.949C240.77 48.375 240.968 48.732 241.22 49.02C241.472 49.302 241.772 49.515 242.12 49.659C242.468 49.797 242.858 49.866 243.29 49.866C243.692 49.866 244.037 49.821 244.325 49.731C244.619 49.635 244.871 49.533 245.081 49.425C245.291 49.317 245.465 49.218 245.603 49.128C245.747 49.032 245.87 48.984 245.972 48.984C246.104 48.984 246.206 49.035 246.278 49.137L246.728 49.722ZM251.917 46.545C252.241 46.545 252.526 46.5 252.772 46.41C253.018 46.32 253.225 46.194 253.393 46.032C253.561 45.87 253.687 45.678 253.771 45.456C253.855 45.228 253.897 44.979 253.897 44.709C253.897 44.151 253.726 43.707 253.384 43.377C253.048 43.047 252.559 42.882 251.917 42.882C251.269 42.882 250.774 43.047 250.432 43.377C250.096 43.707 249.928 44.151 249.928 44.709C249.928 44.979 249.97 45.228 250.054 45.456C250.144 45.678 250.273 45.87 250.441 46.032C250.609 46.194 250.816 46.32 251.062 46.41C251.308 46.5 251.593 46.545 251.917 46.545ZM254.806 51.495C254.806 51.273 254.743 51.093 254.617 50.955C254.491 50.817 254.32 50.709 254.104 50.631C253.894 50.553 253.648 50.499 253.366 50.469C253.084 50.433 252.784 50.406 252.466 50.388C252.154 50.37 251.836 50.352 251.512 50.334C251.188 50.316 250.876 50.286 250.576 50.244C250.24 50.4 249.964 50.598 249.748 50.838C249.538 51.072 249.433 51.348 249.433 51.666C249.433 51.87 249.484 52.059 249.586 52.233C249.694 52.413 249.856 52.566 250.072 52.692C250.288 52.824 250.558 52.926 250.882 52.998C251.212 53.076 251.599 53.115 252.043 53.115C252.475 53.115 252.862 53.076 253.204 52.998C253.546 52.92 253.834 52.809 254.068 52.665C254.308 52.521 254.491 52.35 254.617 52.152C254.743 51.954 254.806 51.735 254.806 51.495ZM256.435 42.243V42.837C256.435 43.035 256.309 43.161 256.057 43.215L255.022 43.35C255.226 43.746 255.328 44.184 255.328 44.664C255.328 45.108 255.241 45.513 255.067 45.879C254.899 46.239 254.665 46.548 254.365 46.806C254.065 47.064 253.705 47.262 253.285 47.4C252.865 47.538 252.409 47.607 251.917 47.607C251.491 47.607 251.089 47.556 250.711 47.454C250.519 47.574 250.372 47.703 250.27 47.841C250.168 47.973 250.117 48.108 250.117 48.246C250.117 48.462 250.204 48.627 250.378 48.741C250.558 48.849 250.792 48.927 251.08 48.975C251.368 49.023 251.695 49.053 252.061 49.065C252.433 49.077 252.811 49.098 253.195 49.128C253.585 49.152 253.963 49.197 254.329 49.263C254.701 49.329 255.031 49.437 255.319 49.587C255.607 49.737 255.838 49.944 256.012 50.208C256.192 50.472 256.282 50.814 256.282 51.234C256.282 51.624 256.183 52.002 255.985 52.368C255.793 52.734 255.514 53.058 255.148 53.34C254.782 53.628 254.332 53.856 253.798 54.024C253.27 54.198 252.673 54.285 252.007 54.285C251.341 54.285 250.759 54.219 250.261 54.087C249.763 53.955 249.349 53.778 249.019 53.556C248.689 53.334 248.44 53.076 248.272 52.782C248.11 52.494 248.029 52.191 248.029 51.873C248.029 51.423 248.17 51.042 248.452 50.73C248.734 50.418 249.121 50.169 249.613 49.983C249.343 49.863 249.127 49.704 248.965 49.506C248.809 49.302 248.731 49.029 248.731 48.687C248.731 48.555 248.755 48.42 248.803 48.282C248.851 48.138 248.923 47.997 249.019 47.859C249.121 47.715 249.244 47.58 249.388 47.454C249.532 47.328 249.7 47.217 249.892 47.121C249.442 46.869 249.091 46.536 248.839 46.122C248.587 45.702 248.461 45.216 248.461 44.664C248.461 44.22 248.545 43.818 248.713 43.458C248.887 43.092 249.127 42.783 249.433 42.531C249.739 42.273 250.102 42.075 250.522 41.937C250.948 41.799 251.413 41.73 251.917 41.73C252.313 41.73 252.682 41.775 253.024 41.865C253.366 41.949 253.678 42.075 253.96 42.243H256.435ZM261.694 41.739C262.36 41.739 262.96 41.85 263.494 42.072C264.028 42.294 264.484 42.609 264.862 43.017C265.24 43.425 265.528 43.92 265.726 44.502C265.93 45.078 266.032 45.723 266.032 46.437C266.032 47.157 265.93 47.805 265.726 48.381C265.528 48.957 265.24 49.449 264.862 49.857C264.484 50.265 264.028 50.58 263.494 50.802C262.96 51.018 262.36 51.126 261.694 51.126C261.022 51.126 260.416 51.018 259.876 50.802C259.342 50.58 258.886 50.265 258.508 49.857C258.13 49.449 257.839 48.957 257.635 48.381C257.437 47.805 257.338 47.157 257.338 46.437C257.338 45.723 257.437 45.078 257.635 44.502C257.839 43.92 258.13 43.425 258.508 43.017C258.886 42.609 259.342 42.294 259.876 42.072C260.416 41.85 261.022 41.739 261.694 41.739ZM261.694 49.875C262.594 49.875 263.266 49.575 263.71 48.975C264.154 48.369 264.376 47.526 264.376 46.446C264.376 45.36 264.154 44.514 263.71 43.908C263.266 43.302 262.594 42.999 261.694 42.999C261.238 42.999 260.839 43.077 260.497 43.233C260.161 43.389 259.879 43.614 259.651 43.908C259.429 44.202 259.261 44.565 259.147 44.997C259.039 45.423 258.985 45.906 258.985 46.446C258.985 47.526 259.207 48.369 259.651 48.975C260.101 49.575 260.782 49.875 261.694 49.875ZM269.485 43.71C269.773 43.086 270.127 42.6 270.547 42.252C270.967 41.898 271.48 41.721 272.086 41.721C272.278 41.721 272.461 41.742 272.635 41.784C272.815 41.826 272.974 41.892 273.112 41.982L272.995 43.179C272.959 43.329 272.869 43.404 272.725 43.404C272.641 43.404 272.518 43.386 272.356 43.35C272.194 43.314 272.011 43.296 271.807 43.296C271.519 43.296 271.261 43.338 271.033 43.422C270.811 43.506 270.61 43.632 270.43 43.8C270.256 43.962 270.097 44.166 269.953 44.412C269.815 44.652 269.689 44.928 269.575 45.24V51H267.964V41.883H268.882C269.056 41.883 269.176 41.916 269.242 41.982C269.308 42.048 269.353 42.162 269.377 42.324L269.485 43.71ZM276.112 41.883V51H274.51V41.883H276.112ZM276.454 39.021C276.454 39.177 276.421 39.324 276.355 39.462C276.295 39.594 276.211 39.714 276.103 39.822C276.001 39.924 275.878 40.005 275.734 40.065C275.596 40.125 275.449 40.155 275.293 40.155C275.137 40.155 274.99 40.125 274.852 40.065C274.72 40.005 274.603 39.924 274.501 39.822C274.399 39.714 274.318 39.594 274.258 39.462C274.198 39.324 274.168 39.177 274.168 39.021C274.168 38.865 274.198 38.718 274.258 38.58C274.318 38.436 274.399 38.313 274.501 38.211C274.603 38.103 274.72 38.019 274.852 37.959C274.99 37.899 275.137 37.869 275.293 37.869C275.449 37.869 275.596 37.899 275.734 37.959C275.878 38.019 276.001 38.103 276.103 38.211C276.211 38.313 276.295 38.436 276.355 38.58C276.421 38.718 276.454 38.865 276.454 39.021ZM284.746 45.447C284.746 45.075 284.692 44.736 284.584 44.43C284.482 44.118 284.329 43.851 284.125 43.629C283.927 43.401 283.684 43.227 283.396 43.107C283.108 42.981 282.781 42.918 282.415 42.918C281.647 42.918 281.038 43.143 280.588 43.593C280.144 44.037 279.868 44.655 279.76 45.447H284.746ZM286.042 49.722C285.844 49.962 285.607 50.172 285.331 50.352C285.055 50.526 284.758 50.67 284.44 50.784C284.128 50.898 283.804 50.982 283.468 51.036C283.132 51.096 282.799 51.126 282.469 51.126C281.839 51.126 281.257 51.021 280.723 50.811C280.195 50.595 279.736 50.283 279.346 49.875C278.962 49.461 278.662 48.951 278.446 48.345C278.23 47.739 278.122 47.043 278.122 46.257C278.122 45.621 278.218 45.027 278.41 44.475C278.608 43.923 278.89 43.446 279.256 43.044C279.622 42.636 280.069 42.318 280.597 42.09C281.125 41.856 281.719 41.739 282.379 41.739C282.925 41.739 283.429 41.832 283.891 42.018C284.359 42.198 284.761 42.462 285.097 42.81C285.439 43.152 285.706 43.578 285.898 44.088C286.09 44.592 286.186 45.168 286.186 45.816C286.186 46.068 286.159 46.236 286.105 46.32C286.051 46.404 285.949 46.446 285.799 46.446H279.706C279.724 47.022 279.802 47.523 279.94 47.949C280.084 48.375 280.282 48.732 280.534 49.02C280.786 49.302 281.086 49.515 281.434 49.659C281.782 49.797 282.172 49.866 282.604 49.866C283.006 49.866 283.351 49.821 283.639 49.731C283.933 49.635 284.185 49.533 284.395 49.425C284.605 49.317 284.779 49.218 284.917 49.128C285.061 49.032 285.184 48.984 285.286 48.984C285.418 48.984 285.52 49.035 285.592 49.137L286.042 49.722Z" fill="#808080"/>
<path d="M434.856 46.212L432.831 40.965C432.771 40.809 432.708 40.629 432.642 40.425C432.576 40.215 432.513 39.993 432.453 39.759C432.327 40.245 432.198 40.65 432.066 40.974L430.041 46.212H434.856ZM438.492 51H437.142C436.986 51 436.86 50.961 436.764 50.883C436.668 50.805 436.596 50.706 436.548 50.586L435.342 47.472H429.555L428.349 50.586C428.313 50.694 428.244 50.79 428.142 50.874C428.04 50.958 427.914 51 427.764 51H426.414L431.571 38.103H433.335L438.492 51ZM445.457 44.052C445.157 43.65 444.833 43.371 444.485 43.215C444.137 43.053 443.747 42.972 443.315 42.972C442.469 42.972 441.818 43.275 441.362 43.881C440.906 44.487 440.678 45.351 440.678 46.473C440.678 47.067 440.729 47.577 440.831 48.003C440.933 48.423 441.083 48.771 441.281 49.047C441.479 49.317 441.722 49.515 442.01 49.641C442.298 49.767 442.625 49.83 442.991 49.83C443.519 49.83 443.978 49.71 444.368 49.47C444.764 49.23 445.127 48.891 445.457 48.453V44.052ZM447.059 37.743V51H446.105C445.877 51 445.733 50.889 445.673 50.667L445.529 49.56C445.139 50.028 444.695 50.406 444.197 50.694C443.699 50.982 443.123 51.126 442.469 51.126C441.947 51.126 441.473 51.027 441.047 50.829C440.621 50.625 440.258 50.328 439.958 49.938C439.658 49.548 439.427 49.062 439.265 48.48C439.103 47.898 439.022 47.229 439.022 46.473C439.022 45.801 439.112 45.177 439.292 44.601C439.472 44.019 439.73 43.515 440.066 43.089C440.402 42.663 440.813 42.33 441.299 42.09C441.791 41.844 442.343 41.721 442.955 41.721C443.513 41.721 443.99 41.817 444.386 42.009C444.788 42.195 445.145 42.456 445.457 42.792V37.743H447.059ZM454.431 46.896C453.693 46.92 453.063 46.98 452.541 47.076C452.025 47.166 451.602 47.286 451.272 47.436C450.948 47.586 450.711 47.763 450.561 47.967C450.417 48.171 450.345 48.399 450.345 48.651C450.345 48.891 450.384 49.098 450.462 49.272C450.54 49.446 450.645 49.59 450.777 49.704C450.915 49.812 451.074 49.893 451.254 49.947C451.44 49.995 451.638 50.019 451.848 50.019C452.13 50.019 452.388 49.992 452.622 49.938C452.856 49.878 453.075 49.794 453.279 49.686C453.489 49.578 453.687 49.449 453.873 49.299C454.065 49.149 454.251 48.978 454.431 48.786V46.896ZM449.256 43.17C449.76 42.684 450.303 42.321 450.885 42.081C451.467 41.841 452.112 41.721 452.82 41.721C453.33 41.721 453.783 41.805 454.179 41.973C454.575 42.141 454.908 42.375 455.178 42.675C455.448 42.975 455.652 43.338 455.79 43.764C455.928 44.19 455.997 44.658 455.997 45.168V51H455.286C455.13 51 455.01 50.976 454.926 50.928C454.842 50.874 454.776 50.772 454.728 50.622L454.548 49.758C454.308 49.98 454.074 50.178 453.846 50.352C453.618 50.52 453.378 50.664 453.126 50.784C452.874 50.898 452.604 50.985 452.316 51.045C452.034 51.111 451.719 51.144 451.371 51.144C451.017 51.144 450.684 51.096 450.372 51C450.06 50.898 449.787 50.748 449.553 50.55C449.325 50.352 449.142 50.103 449.004 49.803C448.872 49.497 448.806 49.137 448.806 48.723C448.806 48.363 448.905 48.018 449.103 47.688C449.301 47.352 449.622 47.055 450.066 46.797C450.51 46.539 451.089 46.329 451.803 46.167C452.517 45.999 453.393 45.903 454.431 45.879V45.168C454.431 44.46 454.278 43.926 453.972 43.566C453.666 43.2 453.219 43.017 452.631 43.017C452.235 43.017 451.902 43.068 451.632 43.17C451.368 43.266 451.137 43.377 450.939 43.503C450.747 43.623 450.579 43.734 450.435 43.836C450.297 43.932 450.159 43.98 450.021 43.98C449.913 43.98 449.82 43.953 449.742 43.899C449.664 43.839 449.598 43.767 449.544 43.683L449.256 43.17ZM465.834 41.883V51H464.88C464.652 51 464.508 50.889 464.448 50.667L464.322 49.686C463.926 50.124 463.482 50.478 462.99 50.748C462.498 51.012 461.934 51.144 461.298 51.144C460.8 51.144 460.359 51.063 459.975 50.901C459.597 50.733 459.279 50.499 459.021 50.199C458.763 49.899 458.568 49.536 458.436 49.11C458.31 48.684 458.247 48.213 458.247 47.697V41.883H459.849V47.697C459.849 48.387 460.005 48.921 460.317 49.299C460.635 49.677 461.118 49.866 461.766 49.866C462.24 49.866 462.681 49.755 463.089 49.533C463.503 49.305 463.884 48.993 464.232 48.597V41.883H465.834ZM471.451 46.545C471.775 46.545 472.06 46.5 472.306 46.41C472.552 46.32 472.759 46.194 472.927 46.032C473.095 45.87 473.221 45.678 473.305 45.456C473.389 45.228 473.431 44.979 473.431 44.709C473.431 44.151 473.26 43.707 472.918 43.377C472.582 43.047 472.093 42.882 471.451 42.882C470.803 42.882 470.308 43.047 469.966 43.377C469.63 43.707 469.462 44.151 469.462 44.709C469.462 44.979 469.504 45.228 469.588 45.456C469.678 45.678 469.807 45.87 469.975 46.032C470.143 46.194 470.35 46.32 470.596 46.41C470.842 46.5 471.127 46.545 471.451 46.545ZM474.34 51.495C474.34 51.273 474.277 51.093 474.151 50.955C474.025 50.817 473.854 50.709 473.638 50.631C473.428 50.553 473.182 50.499 472.9 50.469C472.618 50.433 472.318 50.406 472 50.388C471.688 50.37 471.37 50.352 471.046 50.334C470.722 50.316 470.41 50.286 470.11 50.244C469.774 50.4 469.498 50.598 469.282 50.838C469.072 51.072 468.967 51.348 468.967 51.666C468.967 51.87 469.018 52.059 469.12 52.233C469.228 52.413 469.39 52.566 469.606 52.692C469.822 52.824 470.092 52.926 470.416 52.998C470.746 53.076 471.133 53.115 471.577 53.115C472.009 53.115 472.396 53.076 472.738 52.998C473.08 52.92 473.368 52.809 473.602 52.665C473.842 52.521 474.025 52.35 474.151 52.152C474.277 51.954 474.34 51.735 474.34 51.495ZM475.969 42.243V42.837C475.969 43.035 475.843 43.161 475.591 43.215L474.556 43.35C474.76 43.746 474.862 44.184 474.862 44.664C474.862 45.108 474.775 45.513 474.601 45.879C474.433 46.239 474.199 46.548 473.899 46.806C473.599 47.064 473.239 47.262 472.819 47.4C472.399 47.538 471.943 47.607 471.451 47.607C471.025 47.607 470.623 47.556 470.245 47.454C470.053 47.574 469.906 47.703 469.804 47.841C469.702 47.973 469.651 48.108 469.651 48.246C469.651 48.462 469.738 48.627 469.912 48.741C470.092 48.849 470.326 48.927 470.614 48.975C470.902 49.023 471.229 49.053 471.595 49.065C471.967 49.077 472.345 49.098 472.729 49.128C473.119 49.152 473.497 49.197 473.863 49.263C474.235 49.329 474.565 49.437 474.853 49.587C475.141 49.737 475.372 49.944 475.546 50.208C475.726 50.472 475.816 50.814 475.816 51.234C475.816 51.624 475.717 52.002 475.519 52.368C475.327 52.734 475.048 53.058 474.682 53.34C474.316 53.628 473.866 53.856 473.332 54.024C472.804 54.198 472.207 54.285 471.541 54.285C470.875 54.285 470.293 54.219 469.795 54.087C469.297 53.955 468.883 53.778 468.553 53.556C468.223 53.334 467.974 53.076 467.806 52.782C467.644 52.494 467.563 52.191 467.563 51.873C467.563 51.423 467.704 51.042 467.986 50.73C468.268 50.418 468.655 50.169 469.147 49.983C468.877 49.863 468.661 49.704 468.499 49.506C468.343 49.302 468.265 49.029 468.265 48.687C468.265 48.555 468.289 48.42 468.337 48.282C468.385 48.138 468.457 47.997 468.553 47.859C468.655 47.715 468.778 47.58 468.922 47.454C469.066 47.328 469.234 47.217 469.426 47.121C468.976 46.869 468.625 46.536 468.373 46.122C468.121 45.702 467.995 45.216 467.995 44.664C467.995 44.22 468.079 43.818 468.247 43.458C468.421 43.092 468.661 42.783 468.967 42.531C469.273 42.273 469.636 42.075 470.056 41.937C470.482 41.799 470.947 41.73 471.451 41.73C471.847 41.73 472.216 41.775 472.558 41.865C472.9 41.949 473.212 42.075 473.494 42.243H475.969ZM482.467 46.896C481.729 46.92 481.099 46.98 480.577 47.076C480.061 47.166 479.638 47.286 479.308 47.436C478.984 47.586 478.747 47.763 478.597 47.967C478.453 48.171 478.381 48.399 478.381 48.651C478.381 48.891 478.42 49.098 478.498 49.272C478.576 49.446 478.681 49.59 478.813 49.704C478.951 49.812 479.11 49.893 479.29 49.947C479.476 49.995 479.674 50.019 479.884 50.019C480.166 50.019 480.424 49.992 480.658 49.938C480.892 49.878 481.111 49.794 481.315 49.686C481.525 49.578 481.723 49.449 481.909 49.299C482.101 49.149 482.287 48.978 482.467 48.786V46.896ZM477.292 43.17C477.796 42.684 478.339 42.321 478.921 42.081C479.503 41.841 480.148 41.721 480.856 41.721C481.366 41.721 481.819 41.805 482.215 41.973C482.611 42.141 482.944 42.375 483.214 42.675C483.484 42.975 483.688 43.338 483.826 43.764C483.964 44.19 484.033 44.658 484.033 45.168V51H483.322C483.166 51 483.046 50.976 482.962 50.928C482.878 50.874 482.812 50.772 482.764 50.622L482.584 49.758C482.344 49.98 482.11 50.178 481.882 50.352C481.654 50.52 481.414 50.664 481.162 50.784C480.91 50.898 480.64 50.985 480.352 51.045C480.07 51.111 479.755 51.144 479.407 51.144C479.053 51.144 478.72 51.096 478.408 51C478.096 50.898 477.823 50.748 477.589 50.55C477.361 50.352 477.178 50.103 477.04 49.803C476.908 49.497 476.842 49.137 476.842 48.723C476.842 48.363 476.941 48.018 477.139 47.688C477.337 47.352 477.658 47.055 478.102 46.797C478.546 46.539 479.125 46.329 479.839 46.167C480.553 45.999 481.429 45.903 482.467 45.879V45.168C482.467 44.46 482.314 43.926 482.008 43.566C481.702 43.2 481.255 43.017 480.667 43.017C480.271 43.017 479.938 43.068 479.668 43.17C479.404 43.266 479.173 43.377 478.975 43.503C478.783 43.623 478.615 43.734 478.471 43.836C478.333 43.932 478.195 43.98 478.057 43.98C477.949 43.98 477.856 43.953 477.778 43.899C477.7 43.839 477.634 43.767 477.58 43.683L477.292 43.17ZM480.658 40.524C480.196 40.524 479.809 40.461 479.497 40.335C479.185 40.203 478.93 40.029 478.732 39.813C478.54 39.591 478.402 39.333 478.318 39.039C478.234 38.745 478.192 38.433 478.192 38.103H479.326C479.326 38.301 479.347 38.487 479.389 38.661C479.431 38.829 479.503 38.973 479.605 39.093C479.707 39.213 479.842 39.309 480.01 39.381C480.184 39.447 480.4 39.48 480.658 39.48C480.916 39.48 481.129 39.447 481.297 39.381C481.471 39.309 481.609 39.213 481.711 39.093C481.813 38.973 481.885 38.829 481.927 38.661C481.969 38.487 481.99 38.301 481.99 38.103H483.124C483.124 38.433 483.082 38.745 482.998 39.039C482.914 39.333 482.773 39.591 482.575 39.813C482.383 40.029 482.128 40.203 481.81 40.335C481.498 40.461 481.114 40.524 480.658 40.524ZM492.57 41.883V51H490.959V41.883H492.57ZM494.568 40.479H493.497C493.431 40.479 493.362 40.467 493.29 40.443C493.224 40.419 493.158 40.374 493.092 40.308L491.985 39.12C491.931 39.072 491.883 39.015 491.841 38.949C491.811 38.979 491.784 39.009 491.76 39.039C491.736 39.069 491.712 39.096 491.688 39.12L490.572 40.308C490.446 40.422 490.311 40.479 490.167 40.479H489.06L491.067 38.103H492.561L494.568 40.479ZM496.615 43.206C496.813 42.984 497.023 42.783 497.245 42.603C497.467 42.423 497.701 42.27 497.947 42.144C498.199 42.012 498.463 41.913 498.739 41.847C499.021 41.775 499.324 41.739 499.648 41.739C500.146 41.739 500.584 41.823 500.962 41.991C501.346 42.153 501.664 42.387 501.916 42.693C502.174 42.993 502.369 43.356 502.501 43.782C502.633 44.208 502.699 44.679 502.699 45.195V51H501.088V45.195C501.088 44.505 500.929 43.971 500.611 43.593C500.299 43.209 499.822 43.017 499.18 43.017C498.706 43.017 498.262 43.131 497.848 43.359C497.44 43.587 497.062 43.896 496.714 44.286V51H495.103V41.883H496.066C496.294 41.883 496.435 41.994 496.489 42.216L496.615 43.206ZM511.201 37.743V51H509.599V37.743H511.201ZM515.391 41.883V51H513.789V41.883H515.391ZM515.733 39.021C515.733 39.177 515.7 39.324 515.634 39.462C515.574 39.594 515.49 39.714 515.382 39.822C515.28 39.924 515.157 40.005 515.013 40.065C514.875 40.125 514.728 40.155 514.572 40.155C514.416 40.155 514.269 40.125 514.131 40.065C513.999 40.005 513.882 39.924 513.78 39.822C513.678 39.714 513.597 39.594 513.537 39.462C513.477 39.324 513.447 39.177 513.447 39.021C513.447 38.865 513.477 38.718 513.537 38.58C513.597 38.436 513.678 38.313 513.78 38.211C513.882 38.103 513.999 38.019 514.131 37.959C514.269 37.899 514.416 37.869 514.572 37.869C514.728 37.869 514.875 37.899 515.013 37.959C515.157 38.019 515.28 38.103 515.382 38.211C515.49 38.313 515.574 38.436 515.634 38.58C515.7 38.718 515.733 38.865 515.733 39.021ZM523.233 43.386C523.161 43.518 523.05 43.584 522.9 43.584C522.81 43.584 522.708 43.551 522.594 43.485C522.48 43.419 522.339 43.347 522.171 43.269C522.009 43.185 521.814 43.11 521.586 43.044C521.358 42.972 521.088 42.936 520.776 42.936C520.506 42.936 520.263 42.972 520.047 43.044C519.831 43.11 519.645 43.203 519.489 43.323C519.339 43.443 519.222 43.584 519.138 43.746C519.06 43.902 519.021 44.073 519.021 44.259C519.021 44.493 519.087 44.688 519.219 44.844C519.357 45 519.537 45.135 519.759 45.249C519.981 45.363 520.233 45.465 520.515 45.555C520.797 45.639 521.085 45.732 521.379 45.834C521.679 45.93 521.97 46.038 522.252 46.158C522.534 46.278 522.786 46.428 523.008 46.608C523.23 46.788 523.407 47.01 523.539 47.274C523.677 47.532 523.746 47.844 523.746 48.21C523.746 48.63 523.671 49.02 523.521 49.38C523.371 49.734 523.149 50.043 522.855 50.307C522.561 50.565 522.201 50.769 521.775 50.919C521.349 51.069 520.857 51.144 520.299 51.144C519.663 51.144 519.087 51.042 518.571 50.838C518.055 50.628 517.617 50.361 517.257 50.037L517.635 49.425C517.683 49.347 517.74 49.287 517.806 49.245C517.872 49.203 517.956 49.182 518.058 49.182C518.166 49.182 518.28 49.224 518.4 49.308C518.52 49.392 518.664 49.485 518.832 49.587C519.006 49.689 519.216 49.782 519.462 49.866C519.708 49.95 520.014 49.992 520.38 49.992C520.692 49.992 520.965 49.953 521.199 49.875C521.433 49.791 521.628 49.68 521.784 49.542C521.94 49.404 522.054 49.245 522.126 49.065C522.204 48.885 522.243 48.693 522.243 48.489C522.243 48.237 522.174 48.03 522.036 47.868C521.904 47.7 521.727 47.559 521.505 47.445C521.283 47.325 521.028 47.223 520.74 47.139C520.458 47.049 520.167 46.956 519.867 46.86C519.573 46.764 519.282 46.656 518.994 46.536C518.712 46.41 518.46 46.254 518.238 46.068C518.016 45.882 517.836 45.654 517.698 45.384C517.566 45.108 517.5 44.775 517.5 44.385C517.5 44.037 517.572 43.704 517.716 43.386C517.86 43.062 518.07 42.78 518.346 42.54C518.622 42.294 518.961 42.099 519.363 41.955C519.765 41.811 520.224 41.739 520.74 41.739C521.34 41.739 521.877 41.835 522.351 42.027C522.831 42.213 523.245 42.471 523.593 42.801L523.233 43.386ZM528.409 51.144C527.689 51.144 527.134 50.943 526.744 50.541C526.36 50.139 526.168 49.56 526.168 48.804V43.224H525.07C524.974 43.224 524.893 43.197 524.827 43.143C524.761 43.083 524.728 42.993 524.728 42.873V42.234L526.222 42.045L526.591 39.228C526.609 39.138 526.648 39.066 526.708 39.012C526.774 38.952 526.858 38.922 526.96 38.922H527.77V42.063H530.407V43.224H527.77V48.696C527.77 49.08 527.863 49.365 528.049 49.551C528.235 49.737 528.475 49.83 528.769 49.83C528.937 49.83 529.081 49.809 529.201 49.767C529.327 49.719 529.435 49.668 529.525 49.614C529.615 49.56 529.69 49.512 529.75 49.47C529.816 49.422 529.873 49.398 529.921 49.398C530.005 49.398 530.08 49.449 530.146 49.551L530.614 50.316C530.338 50.574 530.005 50.778 529.615 50.928C529.225 51.072 528.823 51.144 528.409 51.144ZM536.903 46.896C536.165 46.92 535.535 46.98 535.013 47.076C534.497 47.166 534.074 47.286 533.744 47.436C533.42 47.586 533.183 47.763 533.033 47.967C532.889 48.171 532.817 48.399 532.817 48.651C532.817 48.891 532.856 49.098 532.934 49.272C533.012 49.446 533.117 49.59 533.249 49.704C533.387 49.812 533.546 49.893 533.726 49.947C533.912 49.995 534.11 50.019 534.32 50.019C534.602 50.019 534.86 49.992 535.094 49.938C535.328 49.878 535.547 49.794 535.751 49.686C535.961 49.578 536.159 49.449 536.345 49.299C536.537 49.149 536.723 48.978 536.903 48.786V46.896ZM531.728 43.17C532.232 42.684 532.775 42.321 533.357 42.081C533.939 41.841 534.584 41.721 535.292 41.721C535.802 41.721 536.255 41.805 536.651 41.973C537.047 42.141 537.38 42.375 537.65 42.675C537.92 42.975 538.124 43.338 538.262 43.764C538.4 44.19 538.469 44.658 538.469 45.168V51H537.758C537.602 51 537.482 50.976 537.398 50.928C537.314 50.874 537.248 50.772 537.2 50.622L537.02 49.758C536.78 49.98 536.546 50.178 536.318 50.352C536.09 50.52 535.85 50.664 535.598 50.784C535.346 50.898 535.076 50.985 534.788 51.045C534.506 51.111 534.191 51.144 533.843 51.144C533.489 51.144 533.156 51.096 532.844 51C532.532 50.898 532.259 50.748 532.025 50.55C531.797 50.352 531.614 50.103 531.476 49.803C531.344 49.497 531.278 49.137 531.278 48.723C531.278 48.363 531.377 48.018 531.575 47.688C531.773 47.352 532.094 47.055 532.538 46.797C532.982 46.539 533.561 46.329 534.275 46.167C534.989 45.999 535.865 45.903 536.903 45.879V45.168C536.903 44.46 536.75 43.926 536.444 43.566C536.138 43.2 535.691 43.017 535.103 43.017C534.707 43.017 534.374 43.068 534.104 43.17C533.84 43.266 533.609 43.377 533.411 43.503C533.219 43.623 533.051 43.734 532.907 43.836C532.769 43.932 532.631 43.98 532.493 43.98C532.385 43.98 532.292 43.953 532.214 43.899C532.136 43.839 532.07 43.767 532.016 43.683L531.728 43.17ZM535.094 40.524C534.632 40.524 534.245 40.461 533.933 40.335C533.621 40.203 533.366 40.029 533.168 39.813C532.976 39.591 532.838 39.333 532.754 39.039C532.67 38.745 532.628 38.433 532.628 38.103H533.762C533.762 38.301 533.783 38.487 533.825 38.661C533.867 38.829 533.939 38.973 534.041 39.093C534.143 39.213 534.278 39.309 534.446 39.381C534.62 39.447 534.836 39.48 535.094 39.48C535.352 39.48 535.565 39.447 535.733 39.381C535.907 39.309 536.045 39.213 536.147 39.093C536.249 38.973 536.321 38.829 536.363 38.661C536.405 38.487 536.426 38.301 536.426 38.103H537.56C537.56 38.433 537.518 38.745 537.434 39.039C537.35 39.333 537.209 39.591 537.011 39.813C536.819 40.029 536.564 40.203 536.246 40.335C535.934 40.461 535.55 40.524 535.094 40.524Z" fill="#808080"/>
<circle cx="14" cy="11" r="11" fill="#D8D8D8"/>
<circle cx="249" cy="11" r="11" fill="#D8D8D8"/>
<circle cx="485" cy="11" r="11" fill="#D8D8D8"/>
<circle cx="14" cy="11" r="7" fill="#CD76BA"/>
<circle cx="249" cy="11" r="7" fill="#CD76BA"/>
<circle cx="485" cy="11" r="7" fill="#CD76BA"/>
</svg>
