<svg width="315" height="42" viewBox="0 0 315 42" fill="none" xmlns="http://www.w3.org/2000/svg">
<path d="M20.1456 41.0996C16.795 41.0996 13.4443 41.0968 10.0937 41.0926H9.9801C9.7585 41.0926 9.5369 41.094 9.3139 41.094C9.0937 41.0954 8.8749 41.0954 8.65471 41.0954C7.83283 41.0954 6.95485 41.0842 6.0923 41.0042C4.3153 40.8387 2.70239 39.9664 1.54811 38.5498C0.374197 37.108 -0.160164 35.3128 0.0417999 33.4965C0.484998 29.5288 0.921185 25.561 1.35877 21.5919C1.60702 19.3366 1.85526 17.0828 2.10491 14.8289C2.15961 14.3366 2.21712 13.8443 2.27462 13.352C2.3728 12.5161 2.47238 11.6564 2.55793 10.7981C3.00393 10.7995 3.44573 10.8008 3.88753 10.8008L5.55092 10.7994C6.32371 10.7994 7.23535 10.8009 8.14559 10.8135H8.18627C8.72764 10.8135 9.65331 10.6213 9.7627 9.33101L9.79496 8.95513C9.91979 7.47967 10.0488 5.95373 10.2536 4.47546C10.5916 2.03647 12.3742 0.280508 14.6912 0.107997C15.6491 0.0364684 16.6421 0 17.6435 0C18.8595 0 20.1175 0.0532967 21.3798 0.158486C23.3377 0.321179 25.1835 2.09538 25.4107 4.03087C25.6126 5.75597 25.7922 7.51754 25.9577 9.41235C26.0362 10.3002 26.5804 10.8093 27.4514 10.8093H27.4752C28.0685 10.8037 28.6617 10.8023 29.255 10.8023L30.938 10.8037C31.5986 10.8037 32.3644 10.8023 33.1484 10.7924C33.234 11.6634 33.3321 12.54 33.4275 13.3913C33.5089 14.1206 33.593 14.8738 33.6687 15.6143C33.1905 16.108 32.6996 16.6017 32.2129 17.0884L31.6926 12.4656H26.2859L26.5355 15.0814C26.5579 15.3114 26.4836 15.533 26.3279 15.7041C26.1723 15.8752 25.9591 15.9692 25.729 15.9692C25.3125 15.9692 24.9661 15.6578 24.9226 15.244L24.6323 12.4628H11.0741L10.7837 15.2469C10.7403 15.6606 10.3938 15.9734 9.97729 15.9734C9.74587 15.9734 9.53409 15.8794 9.37841 15.7083C9.22273 15.5372 9.1498 15.317 9.17084 15.087L9.42049 12.453H4.02357L3.82441 14.1417C3.75288 14.7434 3.67995 15.3478 3.61263 15.9523C3.09089 20.6269 2.57055 25.303 2.05302 29.9776C1.90576 31.303 1.77532 32.4965 1.66032 33.6957C1.38402 36.5568 3.40506 39.0631 6.2606 39.4012L6.30407 39.4068C6.56214 39.4376 6.85527 39.4727 7.15962 39.4727L9.65611 39.4741C12.8104 39.4755 15.9647 39.4769 19.1189 39.4769C22.2564 39.4769 25.3938 39.4755 28.5313 39.4699C30.6954 39.4671 32.37 38.5526 33.3742 36.8261C33.9619 35.8163 34.1737 34.6354 34.0054 33.3156C34.0025 33.2946 34.0025 33.2791 34.0011 33.2693C34.0152 33.2511 34.0502 33.2076 34.1344 33.1347C34.6225 32.7111 35.0713 32.2903 35.4892 31.8654C35.68 33.4194 35.8048 34.8149 35.4107 36.1515C34.5145 39.1936 31.8735 41.087 28.5187 41.0926C25.7291 41.0982 22.9366 41.0996 20.1456 41.0996ZM17.9366 1.65218C17.1063 1.65218 16.2746 1.65358 15.4443 1.65499C13.4121 1.6606 11.9815 2.97476 11.8006 5.00422C11.7683 5.36747 11.7304 5.73072 11.6926 6.09397C11.6631 6.37168 11.6351 6.65078 11.6084 6.92988C11.5467 7.56803 11.4892 8.20758 11.4289 8.85695L11.2508 10.7784H24.4738L24.3658 9.69847C24.3153 9.19356 24.2662 8.69286 24.2185 8.19496C24.1105 7.07575 23.9997 5.92006 23.8637 4.78682C23.6365 2.89201 22.2297 1.6634 20.2774 1.65779C19.4976 1.65358 18.7178 1.65218 17.9366 1.65218Z" fill="#CD76BA"/>
<path d="M20.7825 24.6689C20.6451 24.5301 20.5693 24.3478 20.5693 24.1528C20.5693 23.9578 20.6465 23.7741 20.7839 23.6367L20.8092 23.6114C20.9466 23.4754 21.1303 23.3982 21.3239 23.3982C21.5188 23.3982 21.7026 23.474 21.84 23.6128L27.6689 29.4445L38.92 18.1949C39.0574 18.0574 39.2412 17.9817 39.4361 17.9817C39.6339 17.9817 39.8176 18.0588 39.9564 18.1991L40.0055 18.2482C40.2874 18.5343 40.286 18.9957 40.0041 19.279L27.69 31.5904L20.7825 24.6689Z" fill="#CD76BA"/>
<path d="M70.9426 28.148L68.4676 21.735C68.3943 21.5443 68.3173 21.3243 68.2366 21.075C68.1559 20.8183 68.0789 20.547 68.0056 20.261C67.8516 20.855 67.6939 21.35 67.5326 21.746L65.0576 28.148H70.9426ZM75.3866 34H73.7366C73.5459 34 73.3919 33.9523 73.2746 33.857C73.1573 33.7617 73.0693 33.6407 73.0106 33.494L71.5366 29.688H64.4636L62.9896 33.494C62.9456 33.626 62.8613 33.7433 62.7366 33.846C62.6119 33.9487 62.4579 34 62.2746 34H60.6246L66.9276 18.237H69.0836L75.3866 34ZM79.7313 34.176C78.8513 34.176 78.1729 33.9303 77.6963 33.439C77.2269 32.9477 76.9923 32.24 76.9923 31.316V24.496H75.6503C75.5329 24.496 75.4339 24.463 75.3533 24.397C75.2726 24.3237 75.2323 24.2137 75.2323 24.067V23.286L77.0583 23.055L77.5093 19.612C77.5313 19.502 77.5789 19.414 77.6523 19.348C77.7329 19.2747 77.8356 19.238 77.9603 19.238H78.9503V23.077H82.1733V24.496H78.9503V31.184C78.9503 31.6533 79.0639 32.0017 79.2913 32.229C79.5186 32.4563 79.8119 32.57 80.1713 32.57C80.3766 32.57 80.5526 32.5443 80.6993 32.493C80.8533 32.4343 80.9853 32.372 81.0953 32.306C81.2053 32.24 81.2969 32.1813 81.3703 32.13C81.4509 32.0713 81.5206 32.042 81.5793 32.042C81.6819 32.042 81.7736 32.1043 81.8543 32.229L82.4263 33.164C82.0889 33.4793 81.6819 33.7287 81.2053 33.912C80.7286 34.088 80.2373 34.176 79.7313 34.176ZM80.2593 35.056C80.4279 35.056 80.5306 35.0927 80.5673 35.166C80.6113 35.2467 80.6333 35.331 80.6333 35.419C80.6333 35.485 80.6223 35.5803 80.6003 35.705C80.5856 35.8297 80.5489 35.9873 80.4903 36.178C80.4389 36.376 80.3656 36.6143 80.2703 36.893C80.1823 37.1717 80.0686 37.5017 79.9293 37.883C79.8559 38.0443 79.7643 38.1507 79.6543 38.202C79.5516 38.2533 79.4086 38.279 79.2253 38.279H78.5433L79.0823 35.056H80.2593ZM86.2635 22.857V34H84.3055V22.857H86.2635ZM86.6815 19.359C86.6815 19.5497 86.6412 19.7293 86.5605 19.898C86.4872 20.0593 86.3845 20.206 86.2525 20.338C86.1279 20.4627 85.9775 20.5617 85.8015 20.635C85.6329 20.7083 85.4532 20.745 85.2625 20.745C85.0719 20.745 84.8922 20.7083 84.7235 20.635C84.5622 20.5617 84.4192 20.4627 84.2945 20.338C84.1699 20.206 84.0709 20.0593 83.9975 19.898C83.9242 19.7293 83.8875 19.5497 83.8875 19.359C83.8875 19.1683 83.9242 18.9887 83.9975 18.82C84.0709 18.644 84.1699 18.4937 84.2945 18.369C84.4192 18.237 84.5622 18.1343 84.7235 18.061C84.8922 17.9877 85.0719 17.951 85.2625 17.951C85.4532 17.951 85.6329 17.9877 85.8015 18.061C85.9775 18.1343 86.1279 18.237 86.2525 18.369C86.3845 18.4937 86.4872 18.644 86.5605 18.82C86.6412 18.9887 86.6815 19.1683 86.6815 19.359ZM101.149 28.984C100.247 29.0133 99.4766 29.0867 98.8386 29.204C98.2079 29.314 97.6909 29.4607 97.2876 29.644C96.8916 29.8273 96.6019 30.0437 96.4186 30.293C96.2426 30.5423 96.1546 30.821 96.1546 31.129C96.1546 31.4223 96.2023 31.6753 96.2976 31.888C96.3929 32.1007 96.5213 32.2767 96.6826 32.416C96.8513 32.548 97.0456 32.647 97.2656 32.713C97.4929 32.7717 97.7349 32.801 97.9916 32.801C98.3363 32.801 98.6516 32.768 98.9376 32.702C99.2236 32.6287 99.4913 32.526 99.7406 32.394C99.9973 32.262 100.239 32.1043 100.467 31.921C100.701 31.7377 100.929 31.5287 101.149 31.294V28.984ZM94.8236 24.43C95.4396 23.836 96.1033 23.3923 96.8146 23.099C97.5259 22.8057 98.3143 22.659 99.1796 22.659C99.8029 22.659 100.357 22.7617 100.841 22.967C101.325 23.1723 101.732 23.4583 102.062 23.825C102.392 24.1917 102.641 24.6353 102.81 25.156C102.978 25.6767 103.063 26.2487 103.063 26.872V34H102.194C102.003 34 101.856 33.9707 101.754 33.912C101.651 33.846 101.57 33.7213 101.512 33.538L101.292 32.482C100.998 32.7533 100.712 32.9953 100.434 33.208C100.155 33.4133 99.8616 33.5893 99.5536 33.736C99.2456 33.8753 98.9156 33.9817 98.5636 34.055C98.2189 34.1357 97.8339 34.176 97.4086 34.176C96.9759 34.176 96.5689 34.1173 96.1876 34C95.8063 33.8753 95.4726 33.692 95.1866 33.45C94.9079 33.208 94.6843 32.9037 94.5156 32.537C94.3543 32.163 94.2736 31.723 94.2736 31.217C94.2736 30.777 94.3946 30.3553 94.6366 29.952C94.8786 29.5413 95.2709 29.1783 95.8136 28.863C96.3563 28.5477 97.0639 28.291 97.9366 28.093C98.8093 27.8877 99.8799 27.7703 101.149 27.741V26.872C101.149 26.0067 100.962 25.354 100.588 24.914C100.214 24.4667 99.6673 24.243 98.9486 24.243C98.4646 24.243 98.0576 24.3053 97.7276 24.43C97.4049 24.5473 97.1226 24.683 96.8806 24.837C96.6459 24.9837 96.4406 25.1193 96.2646 25.244C96.0959 25.3613 95.9273 25.42 95.7586 25.42C95.6266 25.42 95.5129 25.387 95.4176 25.321C95.3223 25.2477 95.2416 25.1597 95.1756 25.057L94.8236 24.43ZM113.305 25.508C112.938 25.0167 112.542 24.6757 112.117 24.485C111.692 24.287 111.215 24.188 110.687 24.188C109.653 24.188 108.857 24.5583 108.3 25.299C107.743 26.0397 107.464 27.0957 107.464 28.467C107.464 29.193 107.526 29.8163 107.651 30.337C107.776 30.8503 107.959 31.2757 108.201 31.613C108.443 31.943 108.74 32.185 109.092 32.339C109.444 32.493 109.844 32.57 110.291 32.57C110.936 32.57 111.497 32.4233 111.974 32.13C112.458 31.8367 112.902 31.4223 113.305 30.887V25.508ZM115.263 17.797V34H114.097C113.818 34 113.642 33.8643 113.569 33.593L113.393 32.24C112.916 32.812 112.374 33.274 111.765 33.626C111.156 33.978 110.452 34.154 109.653 34.154C109.015 34.154 108.436 34.033 107.915 33.791C107.394 33.5417 106.951 33.1787 106.584 32.702C106.217 32.2253 105.935 31.6313 105.737 30.92C105.539 30.2087 105.44 29.391 105.44 28.467C105.44 27.6457 105.55 26.883 105.77 26.179C105.99 25.4677 106.305 24.8517 106.716 24.331C107.127 23.8103 107.629 23.4033 108.223 23.11C108.824 22.8093 109.499 22.659 110.247 22.659C110.929 22.659 111.512 22.7763 111.996 23.011C112.487 23.2383 112.924 23.5573 113.305 23.968V17.797H115.263ZM124.395 28.984C123.493 29.0133 122.723 29.0867 122.085 29.204C121.454 29.314 120.937 29.4607 120.534 29.644C120.138 29.8273 119.848 30.0437 119.665 30.293C119.489 30.5423 119.401 30.821 119.401 31.129C119.401 31.4223 119.448 31.6753 119.544 31.888C119.639 32.1007 119.767 32.2767 119.929 32.416C120.097 32.548 120.292 32.647 120.512 32.713C120.739 32.7717 120.981 32.801 121.238 32.801C121.582 32.801 121.898 32.768 122.184 32.702C122.47 32.6287 122.737 32.526 122.987 32.394C123.243 32.262 123.485 32.1043 123.713 31.921C123.947 31.7377 124.175 31.5287 124.395 31.294V28.984ZM118.07 24.43C118.686 23.836 119.349 23.3923 120.061 23.099C120.772 22.8057 121.56 22.659 122.426 22.659C123.049 22.659 123.603 22.7617 124.087 22.967C124.571 23.1723 124.978 23.4583 125.308 23.825C125.638 24.1917 125.887 24.6353 126.056 25.156C126.224 25.6767 126.309 26.2487 126.309 26.872V34H125.44C125.249 34 125.102 33.9707 125 33.912C124.897 33.846 124.816 33.7213 124.758 33.538L124.538 32.482C124.244 32.7533 123.958 32.9953 123.68 33.208C123.401 33.4133 123.108 33.5893 122.8 33.736C122.492 33.8753 122.162 33.9817 121.81 34.055C121.465 34.1357 121.08 34.176 120.655 34.176C120.222 34.176 119.815 34.1173 119.434 34C119.052 33.8753 118.719 33.692 118.433 33.45C118.154 33.208 117.93 32.9037 117.762 32.537C117.6 32.163 117.52 31.723 117.52 31.217C117.52 30.777 117.641 30.3553 117.883 29.952C118.125 29.5413 118.517 29.1783 119.06 28.863C119.602 28.5477 120.31 28.291 121.183 28.093C122.055 27.8877 123.126 27.7703 124.395 27.741V26.872C124.395 26.0067 124.208 25.354 123.834 24.914C123.46 24.4667 122.913 24.243 122.195 24.243C121.711 24.243 121.304 24.3053 120.974 24.43C120.651 24.5473 120.369 24.683 120.127 24.837C119.892 24.9837 119.687 25.1193 119.511 25.244C119.342 25.3613 119.173 25.42 119.005 25.42C118.873 25.42 118.759 25.387 118.664 25.321C118.568 25.2477 118.488 25.1597 118.422 25.057L118.07 24.43ZM122.184 21.196C121.619 21.196 121.146 21.119 120.765 20.965C120.383 20.8037 120.072 20.591 119.83 20.327C119.595 20.0557 119.426 19.7403 119.324 19.381C119.221 19.0217 119.17 18.6403 119.17 18.237H120.556C120.556 18.479 120.581 18.7063 120.633 18.919C120.684 19.1243 120.772 19.3003 120.897 19.447C121.021 19.5937 121.186 19.711 121.392 19.799C121.604 19.8797 121.868 19.92 122.184 19.92C122.499 19.92 122.759 19.8797 122.965 19.799C123.177 19.711 123.346 19.5937 123.471 19.447C123.595 19.3003 123.683 19.1243 123.735 18.919C123.786 18.7063 123.812 18.479 123.812 18.237H125.198C125.198 18.6403 125.146 19.0217 125.044 19.381C124.941 19.7403 124.769 20.0557 124.527 20.327C124.292 20.591 123.98 20.8037 123.592 20.965C123.21 21.119 122.741 21.196 122.184 21.196ZM138.454 22.857V34H137.288C137.01 34 136.834 33.8643 136.76 33.593L136.606 32.394C136.122 32.9293 135.58 33.362 134.978 33.692C134.377 34.0147 133.688 34.176 132.91 34.176C132.302 34.176 131.763 34.077 131.293 33.879C130.831 33.6737 130.443 33.3877 130.127 33.021C129.812 32.6543 129.574 32.2107 129.412 31.69C129.258 31.1693 129.181 30.5937 129.181 29.963V22.857H131.139V29.963C131.139 30.8063 131.33 31.459 131.711 31.921C132.1 32.383 132.69 32.614 133.482 32.614C134.062 32.614 134.601 32.4783 135.099 32.207C135.605 31.9283 136.071 31.547 136.496 31.063V22.857H138.454ZM145.442 28.555C145.838 28.555 146.186 28.5 146.487 28.39C146.787 28.28 147.04 28.126 147.246 27.928C147.451 27.73 147.605 27.4953 147.708 27.224C147.81 26.9453 147.862 26.641 147.862 26.311C147.862 25.629 147.653 25.0863 147.235 24.683C146.824 24.2797 146.226 24.078 145.442 24.078C144.65 24.078 144.045 24.2797 143.627 24.683C143.216 25.0863 143.011 25.629 143.011 26.311C143.011 26.641 143.062 26.9453 143.165 27.224C143.275 27.4953 143.432 27.73 143.638 27.928C143.843 28.126 144.096 28.28 144.397 28.39C144.697 28.5 145.046 28.555 145.442 28.555ZM148.973 34.605C148.973 34.3337 148.896 34.1137 148.742 33.945C148.588 33.7763 148.379 33.6443 148.115 33.549C147.858 33.4537 147.557 33.3877 147.213 33.351C146.868 33.307 146.501 33.274 146.113 33.252C145.731 33.23 145.343 33.208 144.947 33.186C144.551 33.164 144.169 33.1273 143.803 33.076C143.392 33.2667 143.055 33.5087 142.791 33.802C142.534 34.088 142.406 34.4253 142.406 34.814C142.406 35.0633 142.468 35.2943 142.593 35.507C142.725 35.727 142.923 35.914 143.187 36.068C143.451 36.2293 143.781 36.354 144.177 36.442C144.58 36.5373 145.053 36.585 145.596 36.585C146.124 36.585 146.597 36.5373 147.015 36.442C147.433 36.3467 147.785 36.211 148.071 36.035C148.364 35.859 148.588 35.65 148.742 35.408C148.896 35.166 148.973 34.8983 148.973 34.605ZM150.964 23.297V24.023C150.964 24.265 150.81 24.419 150.502 24.485L149.237 24.65C149.486 25.134 149.611 25.6693 149.611 26.256C149.611 26.7987 149.504 27.2937 149.292 27.741C149.086 28.181 148.8 28.5587 148.434 28.874C148.067 29.1893 147.627 29.4313 147.114 29.6C146.6 29.7687 146.043 29.853 145.442 29.853C144.921 29.853 144.43 29.7907 143.968 29.666C143.733 29.8127 143.553 29.9703 143.429 30.139C143.304 30.3003 143.242 30.4653 143.242 30.634C143.242 30.898 143.348 31.0997 143.561 31.239C143.781 31.371 144.067 31.4663 144.419 31.525C144.771 31.5837 145.17 31.6203 145.618 31.635C146.072 31.6497 146.534 31.6753 147.004 31.712C147.48 31.7413 147.942 31.7963 148.39 31.877C148.844 31.9577 149.248 32.0897 149.6 32.273C149.952 32.4563 150.234 32.7093 150.447 33.032C150.667 33.3547 150.777 33.7727 150.777 34.286C150.777 34.7627 150.656 35.2247 150.414 35.672C150.179 36.1193 149.838 36.5153 149.391 36.86C148.943 37.212 148.393 37.4907 147.741 37.696C147.095 37.9087 146.366 38.015 145.552 38.015C144.738 38.015 144.026 37.9343 143.418 37.773C142.809 37.6117 142.303 37.3953 141.9 37.124C141.496 36.8527 141.192 36.5373 140.987 36.178C140.789 35.826 140.69 35.4557 140.69 35.067C140.69 34.517 140.862 34.0513 141.207 33.67C141.551 33.2887 142.024 32.9843 142.626 32.757C142.296 32.6103 142.032 32.416 141.834 32.174C141.643 31.9247 141.548 31.591 141.548 31.173C141.548 31.0117 141.577 30.8467 141.636 30.678C141.694 30.502 141.782 30.3297 141.9 30.161C142.024 29.985 142.175 29.82 142.351 29.666C142.527 29.512 142.732 29.3763 142.967 29.259C142.417 28.951 141.988 28.544 141.68 28.038C141.372 27.5247 141.218 26.9307 141.218 26.256C141.218 25.7133 141.32 25.222 141.526 24.782C141.738 24.3347 142.032 23.957 142.406 23.649C142.78 23.3337 143.223 23.0917 143.737 22.923C144.257 22.7543 144.826 22.67 145.442 22.67C145.926 22.67 146.377 22.725 146.795 22.835C147.213 22.9377 147.594 23.0917 147.939 23.297H150.964ZM159.028 28.984C158.126 29.0133 157.356 29.0867 156.718 29.204C156.087 29.314 155.57 29.4607 155.167 29.644C154.771 29.8273 154.481 30.0437 154.298 30.293C154.122 30.5423 154.034 30.821 154.034 31.129C154.034 31.4223 154.081 31.6753 154.177 31.888C154.272 32.1007 154.4 32.2767 154.562 32.416C154.73 32.548 154.925 32.647 155.145 32.713C155.372 32.7717 155.614 32.801 155.871 32.801C156.215 32.801 156.531 32.768 156.817 32.702C157.103 32.6287 157.37 32.526 157.62 32.394C157.876 32.262 158.118 32.1043 158.346 31.921C158.58 31.7377 158.808 31.5287 159.028 31.294V28.984ZM152.703 24.43C153.319 23.836 153.982 23.3923 154.694 23.099C155.405 22.8057 156.193 22.659 157.059 22.659C157.682 22.659 158.236 22.7617 158.72 22.967C159.204 23.1723 159.611 23.4583 159.941 23.825C160.271 24.1917 160.52 24.6353 160.689 25.156C160.857 25.6767 160.942 26.2487 160.942 26.872V34H160.073C159.882 34 159.735 33.9707 159.633 33.912C159.53 33.846 159.449 33.7213 159.391 33.538L159.171 32.482C158.877 32.7533 158.591 32.9953 158.312 33.208C158.034 33.4133 157.741 33.5893 157.433 33.736C157.125 33.8753 156.795 33.9817 156.443 34.055C156.098 34.1357 155.713 34.176 155.288 34.176C154.855 34.176 154.448 34.1173 154.067 34C153.685 33.8753 153.352 33.692 153.066 33.45C152.787 33.208 152.563 32.9037 152.395 32.537C152.233 32.163 152.153 31.723 152.153 31.217C152.153 30.777 152.274 30.3553 152.516 29.952C152.758 29.5413 153.15 29.1783 153.693 28.863C154.235 28.5477 154.943 28.291 155.816 28.093C156.688 27.8877 157.759 27.7703 159.028 27.741V26.872C159.028 26.0067 158.841 25.354 158.467 24.914C158.093 24.4667 157.546 24.243 156.828 24.243C156.344 24.243 155.937 24.3053 155.607 24.43C155.284 24.5473 155.002 24.683 154.76 24.837C154.525 24.9837 154.32 25.1193 154.144 25.244C153.975 25.3613 153.806 25.42 153.638 25.42C153.506 25.42 153.392 25.387 153.297 25.321C153.201 25.2477 153.121 25.1597 153.054 25.057L152.703 24.43ZM167.195 34.176C166.315 34.176 165.636 33.9303 165.16 33.439C164.69 32.9477 164.456 32.24 164.456 31.316V24.496H163.114C162.996 24.496 162.897 24.463 162.817 24.397C162.736 24.3237 162.696 24.2137 162.696 24.067V23.286L164.522 23.055L164.973 19.612C164.995 19.502 165.042 19.414 165.116 19.348C165.196 19.2747 165.299 19.238 165.424 19.238H166.414V23.077H169.637V24.496H166.414V31.184C166.414 31.6533 166.527 32.0017 166.755 32.229C166.982 32.4563 167.275 32.57 167.635 32.57C167.84 32.57 168.016 32.5443 168.163 32.493C168.317 32.4343 168.449 32.372 168.559 32.306C168.669 32.24 168.76 32.1813 168.834 32.13C168.914 32.0713 168.984 32.042 169.043 32.042C169.145 32.042 169.237 32.1043 169.318 32.229L169.89 33.164C169.552 33.4793 169.145 33.7287 168.669 33.912C168.192 34.088 167.701 34.176 167.195 34.176ZM179.256 31.316C179.616 31.8 180.008 32.141 180.433 32.339C180.859 32.537 181.335 32.636 181.863 32.636C182.905 32.636 183.704 32.2657 184.261 31.525C184.819 30.7843 185.097 29.7283 185.097 28.357C185.097 27.631 185.031 27.0077 184.899 26.487C184.775 25.9663 184.591 25.541 184.349 25.211C184.107 24.8737 183.81 24.628 183.458 24.474C183.106 24.32 182.707 24.243 182.259 24.243C181.621 24.243 181.06 24.3897 180.576 24.683C180.1 24.9763 179.66 25.3907 179.256 25.926V31.316ZM179.157 24.584C179.627 24.0047 180.169 23.539 180.785 23.187C181.401 22.835 182.105 22.659 182.897 22.659C183.543 22.659 184.126 22.7837 184.646 23.033C185.167 23.275 185.611 23.638 185.977 24.122C186.344 24.5987 186.626 25.1927 186.824 25.904C187.022 26.6153 187.121 27.433 187.121 28.357C187.121 29.1783 187.011 29.9447 186.791 30.656C186.571 31.36 186.252 31.9723 185.834 32.493C185.424 33.0063 184.918 33.4133 184.316 33.714C183.722 34.0073 183.051 34.154 182.303 34.154C181.621 34.154 181.035 34.0403 180.543 33.813C180.059 33.5783 179.63 33.2557 179.256 32.845V37.773H177.287V22.857H178.464C178.743 22.857 178.915 22.9927 178.981 23.264L179.157 24.584ZM191.478 25.09C191.83 24.3273 192.263 23.7333 192.776 23.308C193.29 22.8753 193.917 22.659 194.657 22.659C194.892 22.659 195.116 22.6847 195.328 22.736C195.548 22.7873 195.743 22.868 195.911 22.978L195.768 24.441C195.724 24.6243 195.614 24.716 195.438 24.716C195.336 24.716 195.185 24.694 194.987 24.65C194.789 24.606 194.566 24.584 194.316 24.584C193.964 24.584 193.649 24.6353 193.37 24.738C193.099 24.8407 192.853 24.9947 192.633 25.2C192.421 25.398 192.226 25.6473 192.05 25.948C191.882 26.2413 191.728 26.5787 191.588 26.96V34H189.619V22.857H190.741C190.954 22.857 191.101 22.8973 191.181 22.978C191.262 23.0587 191.317 23.198 191.346 23.396L191.478 25.09ZM201.879 22.681C202.693 22.681 203.426 22.8167 204.079 23.088C204.732 23.3593 205.289 23.7443 205.751 24.243C206.213 24.7417 206.565 25.3467 206.807 26.058C207.056 26.762 207.181 27.5503 207.181 28.423C207.181 29.303 207.056 30.095 206.807 30.799C206.565 31.503 206.213 32.1043 205.751 32.603C205.289 33.1017 204.732 33.4867 204.079 33.758C203.426 34.022 202.693 34.154 201.879 34.154C201.058 34.154 200.317 34.022 199.657 33.758C199.004 33.4867 198.447 33.1017 197.985 32.603C197.523 32.1043 197.167 31.503 196.918 30.799C196.676 30.095 196.555 29.303 196.555 28.423C196.555 27.5503 196.676 26.762 196.918 26.058C197.167 25.3467 197.523 24.7417 197.985 24.243C198.447 23.7443 199.004 23.3593 199.657 23.088C200.317 22.8167 201.058 22.681 201.879 22.681ZM201.879 32.625C202.979 32.625 203.8 32.2583 204.343 31.525C204.886 30.7843 205.157 29.754 205.157 28.434C205.157 27.1067 204.886 26.0727 204.343 25.332C203.8 24.5913 202.979 24.221 201.879 24.221C201.322 24.221 200.834 24.3163 200.416 24.507C200.005 24.6977 199.661 24.9727 199.382 25.332C199.111 25.6913 198.905 26.135 198.766 26.663C198.634 27.1837 198.568 27.774 198.568 28.434C198.568 29.754 198.839 30.7843 199.382 31.525C199.932 32.2583 200.764 32.625 201.879 32.625ZM216.924 25.508C216.558 25.0167 216.162 24.6757 215.736 24.485C215.311 24.287 214.834 24.188 214.306 24.188C213.272 24.188 212.477 24.5583 211.919 25.299C211.362 26.0397 211.083 27.0957 211.083 28.467C211.083 29.193 211.146 29.8163 211.27 30.337C211.395 30.8503 211.578 31.2757 211.82 31.613C212.062 31.943 212.359 32.185 212.711 32.339C213.063 32.493 213.463 32.57 213.91 32.57C214.556 32.57 215.117 32.4233 215.593 32.13C216.077 31.8367 216.521 31.4223 216.924 30.887V25.508ZM218.882 17.797V34H217.716C217.438 34 217.262 33.8643 217.188 33.593L217.012 32.24C216.536 32.812 215.993 33.274 215.384 33.626C214.776 33.978 214.072 34.154 213.272 34.154C212.634 34.154 212.055 34.033 211.534 33.791C211.014 33.5417 210.57 33.1787 210.203 32.702C209.837 32.2253 209.554 31.6313 209.356 30.92C209.158 30.2087 209.059 29.391 209.059 28.467C209.059 27.6457 209.169 26.883 209.389 26.179C209.609 25.4677 209.925 24.8517 210.335 24.331C210.746 23.8103 211.248 23.4033 211.842 23.11C212.444 22.8093 213.118 22.659 213.866 22.659C214.548 22.659 215.131 22.7763 215.615 23.011C216.107 23.2383 216.543 23.5573 216.924 23.968V17.797H218.882ZM231.138 22.857V34H229.972C229.693 34 229.517 33.8643 229.444 33.593L229.29 32.394C228.806 32.9293 228.263 33.362 227.662 33.692C227.06 34.0147 226.371 34.176 225.594 34.176C224.985 34.176 224.446 34.077 223.977 33.879C223.515 33.6737 223.126 33.3877 222.811 33.021C222.495 32.6543 222.257 32.2107 222.096 31.69C221.942 31.1693 221.865 30.5937 221.865 29.963V22.857H223.823V29.963C223.823 30.8063 224.013 31.459 224.395 31.921C224.783 32.383 225.374 32.614 226.166 32.614C226.745 32.614 227.284 32.4783 227.783 32.207C228.289 31.9283 228.754 31.547 229.18 31.063V22.857H231.138ZM240.732 24.694C240.644 24.8553 240.509 24.936 240.325 24.936C240.215 24.936 240.091 24.8957 239.951 24.815C239.812 24.7343 239.64 24.6463 239.434 24.551C239.236 24.4483 238.998 24.3567 238.719 24.276C238.441 24.188 238.111 24.144 237.729 24.144C237.399 24.144 237.102 24.188 236.838 24.276C236.574 24.3567 236.347 24.4703 236.156 24.617C235.973 24.7637 235.83 24.936 235.727 25.134C235.632 25.3247 235.584 25.5337 235.584 25.761C235.584 26.047 235.665 26.2853 235.826 26.476C235.995 26.6667 236.215 26.8317 236.486 26.971C236.758 27.1103 237.066 27.235 237.41 27.345C237.755 27.4477 238.107 27.5613 238.466 27.686C238.833 27.8033 239.189 27.9353 239.533 28.082C239.878 28.2287 240.186 28.412 240.457 28.632C240.729 28.852 240.945 29.1233 241.106 29.446C241.275 29.7613 241.359 30.1427 241.359 30.59C241.359 31.1033 241.268 31.58 241.084 32.02C240.901 32.4527 240.63 32.8303 240.27 33.153C239.911 33.4683 239.471 33.7177 238.95 33.901C238.43 34.0843 237.828 34.176 237.146 34.176C236.369 34.176 235.665 34.0513 235.034 33.802C234.404 33.5453 233.868 33.219 233.428 32.823L233.89 32.075C233.949 31.9797 234.019 31.9063 234.099 31.855C234.18 31.8037 234.283 31.778 234.407 31.778C234.539 31.778 234.679 31.8293 234.825 31.932C234.972 32.0347 235.148 32.1483 235.353 32.273C235.566 32.3977 235.823 32.5113 236.123 32.614C236.424 32.7167 236.798 32.768 237.245 32.768C237.627 32.768 237.96 32.7203 238.246 32.625C238.532 32.5223 238.771 32.3867 238.961 32.218C239.152 32.0493 239.291 31.855 239.379 31.635C239.475 31.415 239.522 31.1803 239.522 30.931C239.522 30.623 239.438 30.37 239.269 30.172C239.108 29.9667 238.892 29.7943 238.62 29.655C238.349 29.5083 238.037 29.3837 237.685 29.281C237.341 29.171 236.985 29.0573 236.618 28.94C236.259 28.8227 235.903 28.6907 235.551 28.544C235.207 28.39 234.899 28.1993 234.627 27.972C234.356 27.7447 234.136 27.466 233.967 27.136C233.806 26.7987 233.725 26.3917 233.725 25.915C233.725 25.4897 233.813 25.0827 233.989 24.694C234.165 24.298 234.422 23.9533 234.759 23.66C235.097 23.3593 235.511 23.121 236.002 22.945C236.494 22.769 237.055 22.681 237.685 22.681C238.419 22.681 239.075 22.7983 239.654 23.033C240.241 23.2603 240.747 23.5757 241.172 23.979L240.732 24.694ZM251.218 27.213C251.218 26.7583 251.152 26.344 251.02 25.97C250.895 25.5887 250.708 25.2623 250.459 24.991C250.217 24.7123 249.92 24.4997 249.568 24.353C249.216 24.199 248.816 24.122 248.369 24.122C247.43 24.122 246.686 24.397 246.136 24.947C245.593 25.4897 245.256 26.245 245.124 27.213H251.218ZM252.802 32.438C252.56 32.7313 252.27 32.988 251.933 33.208C251.596 33.4207 251.233 33.5967 250.844 33.736C250.463 33.8753 250.067 33.978 249.656 34.044C249.245 34.1173 248.838 34.154 248.435 34.154C247.665 34.154 246.954 34.0257 246.301 33.769C245.656 33.505 245.095 33.1237 244.618 32.625C244.149 32.119 243.782 31.4957 243.518 30.755C243.254 30.0143 243.122 29.1637 243.122 28.203C243.122 27.4257 243.239 26.6997 243.474 26.025C243.716 25.3503 244.061 24.7673 244.508 24.276C244.955 23.7773 245.502 23.3887 246.147 23.11C246.792 22.824 247.518 22.681 248.325 22.681C248.992 22.681 249.608 22.7947 250.173 23.022C250.745 23.242 251.236 23.5647 251.647 23.99C252.065 24.408 252.391 24.9287 252.626 25.552C252.861 26.168 252.978 26.872 252.978 27.664C252.978 27.972 252.945 28.1773 252.879 28.28C252.813 28.3827 252.688 28.434 252.505 28.434H245.058C245.08 29.138 245.175 29.7503 245.344 30.271C245.52 30.7917 245.762 31.228 246.07 31.58C246.378 31.9247 246.745 32.185 247.17 32.361C247.595 32.5297 248.072 32.614 248.6 32.614C249.091 32.614 249.513 32.559 249.865 32.449C250.224 32.3317 250.532 32.207 250.789 32.075C251.046 31.943 251.258 31.822 251.427 31.712C251.603 31.5947 251.753 31.536 251.878 31.536C252.039 31.536 252.164 31.5983 252.252 31.723L252.802 32.438ZM257.407 17.797V34H255.449V17.797H257.407ZM268.04 27.213C268.04 26.7583 267.974 26.344 267.842 25.97C267.718 25.5887 267.531 25.2623 267.281 24.991C267.039 24.7123 266.742 24.4997 266.39 24.353C266.038 24.199 265.639 24.122 265.191 24.122C264.253 24.122 263.508 24.397 262.958 24.947C262.416 25.4897 262.078 26.245 261.946 27.213H268.04ZM269.624 32.438C269.382 32.7313 269.093 32.988 268.755 33.208C268.418 33.4207 268.055 33.5967 267.666 33.736C267.285 33.8753 266.889 33.978 266.478 34.044C266.068 34.1173 265.661 34.154 265.257 34.154C264.487 34.154 263.776 34.0257 263.123 33.769C262.478 33.505 261.917 33.1237 261.44 32.625C260.971 32.119 260.604 31.4957 260.34 30.755C260.076 30.0143 259.944 29.1637 259.944 28.203C259.944 27.4257 260.062 26.6997 260.296 26.025C260.538 25.3503 260.883 24.7673 261.33 24.276C261.778 23.7773 262.324 23.3887 262.969 23.11C263.615 22.824 264.341 22.681 265.147 22.681C265.815 22.681 266.431 22.7947 266.995 23.022C267.567 23.242 268.059 23.5647 268.469 23.99C268.887 24.408 269.214 24.9287 269.448 25.552C269.683 26.168 269.8 26.872 269.8 27.664C269.8 27.972 269.767 28.1773 269.701 28.28C269.635 28.3827 269.511 28.434 269.327 28.434H261.88C261.902 29.138 261.998 29.7503 262.166 30.271C262.342 30.7917 262.584 31.228 262.892 31.58C263.2 31.9247 263.567 32.185 263.992 32.361C264.418 32.5297 264.894 32.614 265.422 32.614C265.914 32.614 266.335 32.559 266.687 32.449C267.047 32.3317 267.355 32.207 267.611 32.075C267.868 31.943 268.081 31.822 268.249 31.712C268.425 31.5947 268.576 31.536 268.7 31.536C268.862 31.536 268.986 31.5983 269.074 31.723L269.624 32.438ZM285.094 25.508C284.728 25.0167 284.332 24.6757 283.906 24.485C283.481 24.287 283.004 24.188 282.476 24.188C281.442 24.188 280.647 24.5583 280.089 25.299C279.532 26.0397 279.253 27.0957 279.253 28.467C279.253 29.193 279.316 29.8163 279.44 30.337C279.565 30.8503 279.748 31.2757 279.99 31.613C280.232 31.943 280.529 32.185 280.881 32.339C281.233 32.493 281.633 32.57 282.08 32.57C282.726 32.57 283.287 32.4233 283.763 32.13C284.247 31.8367 284.691 31.4223 285.094 30.887V25.508ZM287.052 17.797V34H285.886C285.608 34 285.432 33.8643 285.358 33.593L285.182 32.24C284.706 32.812 284.163 33.274 283.554 33.626C282.946 33.978 282.242 34.154 281.442 34.154C280.804 34.154 280.225 34.033 279.704 33.791C279.184 33.5417 278.74 33.1787 278.373 32.702C278.007 32.2253 277.724 31.6313 277.526 30.92C277.328 30.2087 277.229 29.391 277.229 28.467C277.229 27.6457 277.339 26.883 277.559 26.179C277.779 25.4677 278.095 24.8517 278.505 24.331C278.916 23.8103 279.418 23.4033 280.012 23.11C280.614 22.8093 281.288 22.659 282.036 22.659C282.718 22.659 283.301 22.7763 283.785 23.011C284.277 23.2383 284.713 23.5573 285.094 23.968V17.797H287.052ZM299.693 22.857L295.15 34H293.39L288.847 22.857H290.442C290.603 22.857 290.735 22.8973 290.838 22.978C290.94 23.0587 291.01 23.154 291.047 23.264L293.874 30.436C293.962 30.7073 294.039 30.9713 294.105 31.228C294.171 31.4847 294.233 31.7413 294.292 31.998C294.35 31.7413 294.413 31.4847 294.479 31.228C294.545 30.9713 294.625 30.7073 294.721 30.436L297.581 23.264C297.625 23.1467 297.698 23.0513 297.801 22.978C297.903 22.8973 298.024 22.857 298.164 22.857H299.693ZM307.764 24.694C307.676 24.8553 307.54 24.936 307.357 24.936C307.247 24.936 307.122 24.8957 306.983 24.815C306.843 24.7343 306.671 24.6463 306.466 24.551C306.268 24.4483 306.029 24.3567 305.751 24.276C305.472 24.188 305.142 24.144 304.761 24.144C304.431 24.144 304.134 24.188 303.87 24.276C303.606 24.3567 303.378 24.4703 303.188 24.617C303.004 24.7637 302.861 24.936 302.759 25.134C302.663 25.3247 302.616 25.5337 302.616 25.761C302.616 26.047 302.696 26.2853 302.858 26.476C303.026 26.6667 303.246 26.8317 303.518 26.971C303.789 27.1103 304.097 27.235 304.442 27.345C304.786 27.4477 305.138 27.5613 305.498 27.686C305.864 27.8033 306.22 27.9353 306.565 28.082C306.909 28.2287 307.217 28.412 307.489 28.632C307.76 28.852 307.976 29.1233 308.138 29.446C308.306 29.7613 308.391 30.1427 308.391 30.59C308.391 31.1033 308.299 31.58 308.116 32.02C307.932 32.4527 307.661 32.8303 307.302 33.153C306.942 33.4683 306.502 33.7177 305.982 33.901C305.461 34.0843 304.86 34.176 304.178 34.176C303.4 34.176 302.696 34.0513 302.066 33.802C301.435 33.5453 300.9 33.219 300.46 32.823L300.922 32.075C300.98 31.9797 301.05 31.9063 301.131 31.855C301.211 31.8037 301.314 31.778 301.439 31.778C301.571 31.778 301.71 31.8293 301.857 31.932C302.003 32.0347 302.179 32.1483 302.385 32.273C302.597 32.3977 302.854 32.5113 303.155 32.614C303.455 32.7167 303.829 32.768 304.277 32.768C304.658 32.768 304.992 32.7203 305.278 32.625C305.564 32.5223 305.802 32.3867 305.993 32.218C306.183 32.0493 306.323 31.855 306.411 31.635C306.506 31.415 306.554 31.1803 306.554 30.931C306.554 30.623 306.469 30.37 306.301 30.172C306.139 29.9667 305.923 29.7943 305.652 29.655C305.38 29.5083 305.069 29.3837 304.717 29.281C304.372 29.171 304.016 29.0573 303.65 28.94C303.29 28.8227 302.935 28.6907 302.583 28.544C302.238 28.39 301.93 28.1993 301.659 27.972C301.387 27.7447 301.167 27.466 300.999 27.136C300.837 26.7987 300.757 26.3917 300.757 25.915C300.757 25.4897 300.845 25.0827 301.021 24.694C301.197 24.298 301.453 23.9533 301.791 23.66C302.128 23.3593 302.542 23.121 303.034 22.945C303.525 22.769 304.086 22.681 304.717 22.681C305.45 22.681 306.106 22.7983 306.686 23.033C307.272 23.2603 307.778 23.5757 308.204 23.979L307.764 24.694ZM310.461 32.79C310.461 32.5993 310.494 32.4197 310.56 32.251C310.634 32.0823 310.729 31.9357 310.846 31.811C310.971 31.6863 311.118 31.5873 311.286 31.514C311.455 31.4407 311.635 31.404 311.825 31.404C312.016 31.404 312.196 31.4407 312.364 31.514C312.533 31.5873 312.68 31.6863 312.804 31.811C312.929 31.9357 313.028 32.0823 313.101 32.251C313.175 32.4197 313.211 32.5993 313.211 32.79C313.211 32.988 313.175 33.1713 313.101 33.34C313.028 33.5013 312.929 33.6443 312.804 33.769C312.68 33.8937 312.533 33.989 312.364 34.055C312.196 34.1283 312.016 34.165 311.825 34.165C311.635 34.165 311.455 34.1283 311.286 34.055C311.118 33.989 310.971 33.8937 310.846 33.769C310.729 33.6443 310.634 33.5013 310.56 33.34C310.494 33.1713 310.461 32.988 310.461 32.79Z" fill="#808080"/>
</svg>
