<svg width="110" height="110" viewBox="0 0 110 110" fill="none" xmlns="http://www.w3.org/2000/svg">
<path d="M39.7993 83V71.432H43.7913C44.5486 71.432 45.1939 71.504 45.7273 71.648C46.2659 71.792 46.7059 71.9973 47.0473 72.264C47.3939 72.5307 47.6473 72.8533 47.8073 73.232C47.9673 73.6107 48.0473 74.0373 48.0473 74.512C48.0473 74.784 48.0073 75.0453 47.9273 75.296C47.8473 75.5413 47.7219 75.7733 47.5513 75.992C47.3859 76.2053 47.1726 76.4 46.9113 76.576C46.6553 76.752 46.3486 76.9013 45.9913 77.024C47.5806 77.3813 48.3753 78.24 48.3753 79.6C48.3753 80.0907 48.2819 80.544 48.0953 80.96C47.9086 81.376 47.6366 81.736 47.2793 82.04C46.9219 82.3387 46.4819 82.5733 45.9593 82.744C45.4366 82.9147 44.8393 83 44.1673 83H39.7993ZM41.9513 77.928V81.32H44.1353C44.5353 81.32 44.8686 81.272 45.1353 81.176C45.4073 81.08 45.6233 80.952 45.7833 80.792C45.9486 80.632 46.0659 80.4453 46.1353 80.232C46.2099 80.0187 46.2473 79.792 46.2473 79.552C46.2473 79.3013 46.2073 79.0773 46.1273 78.88C46.0473 78.6773 45.9219 78.5067 45.7513 78.368C45.5806 78.224 45.3619 78.1147 45.0953 78.04C44.8286 77.9653 44.5059 77.928 44.1273 77.928H41.9513ZM41.9513 76.44H43.6713C44.4019 76.44 44.9566 76.3067 45.3353 76.04C45.7139 75.7733 45.9033 75.3493 45.9033 74.768C45.9033 74.1653 45.7326 73.736 45.3913 73.48C45.0499 73.224 44.5166 73.096 43.7913 73.096H41.9513V76.44ZM60.2891 83H58.6251C58.4385 83 58.2838 82.9547 58.1611 82.864C58.0438 82.768 57.9585 82.6507 57.9051 82.512L57.0411 80.152H52.2491L51.3851 82.512C51.3425 82.6347 51.2571 82.7467 51.1291 82.848C51.0065 82.9493 50.8545 83 50.6731 83H49.0011L53.5451 71.432H55.7451L60.2891 83ZM52.8011 78.632H56.4891L55.0811 74.784C55.0171 74.6133 54.9451 74.4133 54.8651 74.184C54.7905 73.9493 54.7158 73.696 54.6411 73.424C54.5665 73.696 54.4918 73.9493 54.4171 74.184C54.3478 74.4187 54.2785 74.624 54.2091 74.8L52.8011 78.632ZM66.2863 81.416C66.7716 81.416 67.1929 81.3733 67.5503 81.288C67.9129 81.1973 68.2569 81.0747 68.5822 80.92V78.816H67.1343C66.9956 78.816 66.8863 78.7787 66.8063 78.704C66.7262 78.624 66.6862 78.528 66.6862 78.416V77.2H70.5343V81.88C70.2409 82.0933 69.9342 82.28 69.6143 82.44C69.2996 82.5947 68.9609 82.7227 68.5983 82.824C68.2409 82.9253 67.8569 83 67.4462 83.048C67.0356 83.1013 66.5929 83.128 66.1182 83.128C65.2756 83.128 64.4996 82.9813 63.7902 82.688C63.0809 82.3947 62.4676 81.9867 61.9502 81.464C61.4329 80.9413 61.0276 80.3173 60.7342 79.592C60.4462 78.8667 60.3022 78.0747 60.3022 77.216C60.3022 76.3467 60.4436 75.5493 60.7262 74.824C61.0089 74.0987 61.4089 73.4747 61.9262 72.952C62.4489 72.4293 63.0809 72.024 63.8222 71.736C64.5636 71.448 65.3956 71.304 66.3182 71.304C67.2622 71.304 68.0782 71.4453 68.7662 71.728C69.4596 72.0053 70.0462 72.368 70.5262 72.816L69.9023 73.792C69.7796 73.9893 69.6169 74.088 69.4143 74.088C69.2863 74.088 69.1556 74.0453 69.0223 73.96C68.8516 73.8587 68.6756 73.7573 68.4943 73.656C68.3183 73.5547 68.1209 73.4667 67.9023 73.392C67.6889 73.3173 67.4463 73.256 67.1743 73.208C66.9076 73.16 66.5983 73.136 66.2463 73.136C65.6756 73.136 65.1582 73.232 64.6942 73.424C64.2356 73.616 63.8436 73.8907 63.5182 74.248C63.1929 74.6053 62.9422 75.0347 62.7662 75.536C62.5902 76.0373 62.5022 76.5973 62.5022 77.216C62.5022 77.8827 62.5956 78.4773 62.7822 79C62.9689 79.5173 63.2302 79.9547 63.5662 80.312C63.9022 80.6693 64.3022 80.944 64.7662 81.136C65.2302 81.3227 65.7369 81.416 66.2863 81.416Z" fill="#333333"/>
<path d="M45.4427 55C45.33 54.9791 45.2163 54.9582 45.1036 54.9373C44.8343 54.8882 44.556 54.837 44.2857 54.7827C42.0635 54.3366 40.0088 52.9086 38.6493 50.8632C37.2879 48.8157 36.7313 46.3106 37.1223 43.9883C37.6449 40.8847 38.2164 37.8082 38.9156 34.1446C39.3076 32.0866 39.551 30.342 39.4582 28.517C39.4273 27.908 39.4353 27.2781 39.4433 26.669C39.4463 26.4016 39.4502 26.1331 39.4502 25.8657H45.0467L45.0886 25.3914C45.316 22.7808 46.2626 20.656 47.9831 18.8947C49.7066 17.1293 51.8002 16.1619 54.2039 16.0178C54.4034 16.0052 54.6049 16 54.8014 16C56.7064 16 58.4719 16.5652 60.0488 17.6798C62.5991 19.4829 64.0614 22.083 64.3935 25.4092L64.4404 25.8772H70.0189V27.043C70.0189 28.2736 70.0179 29.5053 70.0219 30.7359C70.0229 31.0336 70.0438 31.2937 70.0867 31.5298C70.2782 32.5839 70.4677 33.6369 70.6582 34.6909C71.1789 37.5783 71.7165 40.565 72.276 43.4973C72.7219 45.8311 72.3259 48.2474 71.1629 50.3012C69.9979 52.3591 68.1627 53.8707 65.9973 54.5571C65.5635 54.695 65.1136 54.7817 64.6389 54.8746C64.4364 54.9143 64.2279 54.954 64.0205 54.999H45.4427V55ZM39.9509 35.4713C39.939 35.5225 39.927 35.5684 39.916 35.6113C39.8931 35.7011 39.8721 35.7847 39.8552 35.8756C39.7146 36.6465 39.5759 37.4164 39.4373 38.1874C39.1281 39.9058 38.8079 41.6838 38.4748 43.4263C38.1985 44.869 38.1935 46.0849 38.4568 47.2518C39.3266 51.1014 42.4764 53.6921 46.2955 53.6973C48.5347 53.7005 50.7738 53.7015 53.012 53.7015C56.0452 53.7015 59.0783 53.6994 62.1124 53.6973L63.1747 53.6963C63.4958 53.6963 63.8439 53.6733 64.2698 53.6252C66.3823 53.385 68.3462 52.1805 69.6588 50.32C70.9694 48.4626 71.4911 46.1476 71.0911 43.9685C70.9146 43.0095 70.741 42.0494 70.5665 41.0905C70.4268 40.3237 70.2882 39.5569 70.1476 38.7912C70.0119 38.0484 69.8743 37.3067 69.7316 36.5431L69.2918 34.1696L68.6215 35.3104C66.14 39.5297 62.6331 41.7643 57.8993 42.1424L57.4385 42.179V44.9995H52.0306V42.1748L51.5698 42.1382C46.8351 41.7622 43.3312 39.535 40.8596 35.3282L40.2402 34.2751L39.9509 35.4713ZM53.2983 43.6906H56.1738V39.256H53.2983V43.6906ZM40.7239 28.2527C40.7239 29.2733 40.7239 30.2804 40.7259 31.2864C40.7259 31.4076 40.7568 31.5026 40.7758 31.5601L40.7818 31.5789C42.0395 36.2757 44.9809 39.2832 49.5241 40.5149C49.9639 40.6339 50.4168 40.6924 50.8546 40.7489C51.0551 40.775 51.2626 40.8011 51.468 40.8335L52.0416 40.9244V37.9638H57.4505V40.776H57.9492C58.0001 40.776 58.047 40.7771 58.0928 40.7781C58.1417 40.7792 58.1886 40.7802 58.2345 40.7802C58.3083 40.7802 58.3701 40.7771 58.43 40.7708C60.7689 40.5326 62.8236 39.6791 64.5391 38.2333C67.8964 35.4044 69.2918 31.839 68.6854 27.6374L68.6215 27.1935H40.7239V28.2527ZM54.6687 17.311C49.7774 17.3507 46.5638 21.4897 46.3912 25.3005L46.3663 25.8479H63.1108L63.0819 25.2974C62.8814 21.4562 59.6348 17.311 54.7396 17.311H54.6687Z" fill="#CD76BA"/>
<rect x="0.5" y="0.5" width="109" height="109" rx="14.5" stroke="#CD76BA"/>
</svg>
