<svg width="494" height="134" viewBox="0 0 494 134" fill="none" xmlns="http://www.w3.org/2000/svg">
<rect x="0.5" y="0.5" width="493" height="133" rx="9.5" stroke="#808080" stroke-dasharray="14 14"/>
<path d="M70.1456 82.0996C66.795 82.0996 63.4443 82.0968 60.0937 82.0926H59.9801C59.7585 82.0926 59.5369 82.094 59.3139 82.094C59.0937 82.0954 58.8749 82.0954 58.6547 82.0954C57.8328 82.0954 56.9548 82.0842 56.0923 82.0042C54.3153 81.8387 52.7024 80.9664 51.5481 79.5498C50.3742 78.108 49.8398 76.3128 50.0418 74.4965C50.485 70.5288 50.9212 66.561 51.3588 62.5919C51.607 60.3366 51.8553 58.0828 52.1049 55.8289C52.1596 55.3366 52.2171 54.8443 52.2746 54.352C52.3728 53.5161 52.4724 52.6564 52.5579 51.7981C53.0039 51.7995 53.4457 51.8008 53.8875 51.8008L55.5509 51.7994C56.3237 51.7994 57.2354 51.8009 58.1456 51.8135H58.1863C58.7276 51.8135 59.6533 51.6213 59.7627 50.331L59.795 49.9551C59.9198 48.4797 60.0488 46.9537 60.2536 45.4755C60.5916 43.0365 62.3742 41.2805 64.6912 41.108C65.6491 41.0365 66.6421 41 67.6435 41C68.8595 41 70.1175 41.0533 71.3798 41.1585C73.3377 41.3212 75.1835 43.0954 75.4107 45.0309C75.6126 46.756 75.7922 48.5175 75.9577 50.4124C76.0362 51.3002 76.5804 51.8093 77.4514 51.8093H77.4752C78.0685 51.8037 78.6617 51.8023 79.255 51.8023L80.938 51.8037C81.5986 51.8037 82.3644 51.8023 83.1484 51.7924C83.234 52.6634 83.3321 53.54 83.4275 54.3913C83.5089 55.1206 83.593 55.8738 83.6687 56.6143C83.1905 57.108 82.6996 57.6017 82.2129 58.0884L81.6926 53.4656H76.2859L76.5355 56.0814C76.5579 56.3114 76.4836 56.533 76.3279 56.7041C76.1723 56.8752 75.9591 56.9692 75.729 56.9692C75.3125 56.9692 74.9661 56.6578 74.9226 56.244L74.6323 53.4628H61.0741L60.7837 56.2469C60.7403 56.6606 60.3938 56.9734 59.9773 56.9734C59.7459 56.9734 59.5341 56.8794 59.3784 56.7083C59.2227 56.5372 59.1498 56.317 59.1708 56.087L59.4205 53.453H54.0236L53.8244 55.1417C53.7529 55.7434 53.6799 56.3478 53.6126 56.9523C53.0909 61.6269 52.5706 66.303 52.053 70.9776C51.9058 72.303 51.7753 73.4965 51.6603 74.6957C51.384 77.5568 53.4051 80.0631 56.2606 80.4012L56.3041 80.4068C56.5621 80.4376 56.8553 80.4727 57.1596 80.4727L59.6561 80.4741C62.8104 80.4755 65.9647 80.4769 69.1189 80.4769C72.2564 80.4769 75.3938 80.4755 78.5313 80.4699C80.6954 80.4671 82.37 79.5526 83.3742 77.8261C83.9619 76.8163 84.1737 75.6354 84.0054 74.3156C84.0025 74.2946 84.0025 74.2791 84.0011 74.2693C84.0152 74.2511 84.0502 74.2076 84.1344 74.1347C84.6225 73.7111 85.0713 73.2903 85.4892 72.8654C85.68 74.4194 85.8048 75.8149 85.4107 77.1515C84.5145 80.1936 81.8735 82.087 78.5187 82.0926C75.7291 82.0982 72.9366 82.0996 70.1456 82.0996ZM67.9366 42.6522C67.1063 42.6522 66.2746 42.6536 65.4443 42.655C63.4121 42.6606 61.9815 43.9748 61.8006 46.0042C61.7683 46.3675 61.7304 46.7307 61.6926 47.094C61.6631 47.3717 61.6351 47.6508 61.6084 47.9299C61.5467 48.568 61.4892 49.2076 61.4289 49.857L61.2508 51.7784H74.4738L74.3658 50.6985C74.3153 50.1936 74.2662 49.6929 74.2185 49.195C74.1105 48.0757 73.9997 46.9201 73.8637 45.7868C73.6365 43.892 72.2297 42.6634 70.2774 42.6578C69.4976 42.6536 68.7178 42.6522 67.9366 42.6522Z" fill="#CD76BA"/>
<path d="M70.7825 65.6689C70.6451 65.5301 70.5693 65.3478 70.5693 65.1528C70.5693 64.9578 70.6465 64.7741 70.7839 64.6367L70.8092 64.6114C70.9466 64.4754 71.1303 64.3982 71.3239 64.3982C71.5188 64.3982 71.7026 64.474 71.84 64.6128L77.6689 70.4445L88.92 59.1949C89.0574 59.0574 89.2412 58.9817 89.4361 58.9817C89.6339 58.9817 89.8176 59.0588 89.9564 59.1991L90.0055 59.2482C90.2874 59.5343 90.286 59.9957 90.0041 60.279L77.69 72.5904L70.7825 65.6689Z" fill="#CD76BA"/>
<path d="M116.013 64.79C116.511 64.79 116.949 64.724 117.327 64.592C117.711 64.46 118.032 64.277 118.29 64.043C118.554 63.803 118.752 63.518 118.884 63.188C119.016 62.858 119.082 62.495 119.082 62.099C119.082 61.277 118.827 60.635 118.317 60.173C117.813 59.711 117.045 59.48 116.013 59.48H113.943V64.79H116.013ZM116.013 58.103C116.829 58.103 117.537 58.199 118.137 58.391C118.743 58.577 119.244 58.844 119.64 59.192C120.036 59.54 120.33 59.96 120.522 60.452C120.72 60.944 120.819 61.493 120.819 62.099C120.819 62.699 120.714 63.248 120.504 63.746C120.294 64.244 119.985 64.673 119.577 65.033C119.175 65.393 118.674 65.675 118.074 65.879C117.48 66.077 116.793 66.176 116.013 66.176H113.943V71H112.206V58.103H116.013ZM123.983 63.71C124.271 63.086 124.625 62.6 125.045 62.252C125.465 61.898 125.978 61.721 126.584 61.721C126.776 61.721 126.959 61.742 127.133 61.784C127.313 61.826 127.472 61.892 127.61 61.982L127.493 63.179C127.457 63.329 127.367 63.404 127.223 63.404C127.139 63.404 127.016 63.386 126.854 63.35C126.692 63.314 126.509 63.296 126.305 63.296C126.017 63.296 125.759 63.338 125.531 63.422C125.309 63.506 125.108 63.632 124.928 63.8C124.754 63.962 124.595 64.166 124.451 64.412C124.313 64.652 124.187 64.928 124.073 65.24V71H122.462V61.883H123.38C123.554 61.883 123.674 61.916 123.74 61.982C123.806 62.048 123.851 62.162 123.875 62.324L123.983 63.71ZM132.493 61.739C133.159 61.739 133.759 61.85 134.293 62.072C134.827 62.294 135.283 62.609 135.661 63.017C136.039 63.425 136.327 63.92 136.525 64.502C136.729 65.078 136.831 65.723 136.831 66.437C136.831 67.157 136.729 67.805 136.525 68.381C136.327 68.957 136.039 69.449 135.661 69.857C135.283 70.265 134.827 70.58 134.293 70.802C133.759 71.018 133.159 71.126 132.493 71.126C131.821 71.126 131.215 71.018 130.675 70.802C130.141 70.58 129.685 70.265 129.307 69.857C128.929 69.449 128.638 68.957 128.434 68.381C128.236 67.805 128.137 67.157 128.137 66.437C128.137 65.723 128.236 65.078 128.434 64.502C128.638 63.92 128.929 63.425 129.307 63.017C129.685 62.609 130.141 62.294 130.675 62.072C131.215 61.85 131.821 61.739 132.493 61.739ZM132.493 69.875C133.393 69.875 134.065 69.575 134.509 68.975C134.953 68.369 135.175 67.526 135.175 66.446C135.175 65.36 134.953 64.514 134.509 63.908C134.065 63.302 133.393 62.999 132.493 62.999C132.037 62.999 131.638 63.077 131.296 63.233C130.96 63.389 130.678 63.614 130.45 63.908C130.228 64.202 130.06 64.565 129.946 64.997C129.838 65.423 129.784 65.906 129.784 66.446C129.784 67.526 130.006 68.369 130.45 68.975C130.9 69.575 131.581 69.875 132.493 69.875ZM144.803 64.052C144.503 63.65 144.179 63.371 143.831 63.215C143.483 63.053 143.093 62.972 142.661 62.972C141.815 62.972 141.164 63.275 140.708 63.881C140.252 64.487 140.024 65.351 140.024 66.473C140.024 67.067 140.075 67.577 140.177 68.003C140.279 68.423 140.429 68.771 140.627 69.047C140.825 69.317 141.068 69.515 141.356 69.641C141.644 69.767 141.971 69.83 142.337 69.83C142.865 69.83 143.324 69.71 143.714 69.47C144.11 69.23 144.473 68.891 144.803 68.453V64.052ZM146.405 57.743V71H145.451C145.223 71 145.079 70.889 145.019 70.667L144.875 69.56C144.485 70.028 144.041 70.406 143.543 70.694C143.045 70.982 142.469 71.126 141.815 71.126C141.293 71.126 140.819 71.027 140.393 70.829C139.967 70.625 139.604 70.328 139.304 69.938C139.004 69.548 138.773 69.062 138.611 68.48C138.449 67.898 138.368 67.229 138.368 66.473C138.368 65.801 138.458 65.177 138.638 64.601C138.818 64.019 139.076 63.515 139.412 63.089C139.748 62.663 140.159 62.33 140.645 62.09C141.137 61.844 141.689 61.721 142.301 61.721C142.859 61.721 143.336 61.817 143.732 62.009C144.134 62.195 144.491 62.456 144.803 62.792V57.743H146.405ZM156.432 61.883V71H155.478C155.25 71 155.106 70.889 155.046 70.667L154.92 69.686C154.524 70.124 154.08 70.478 153.588 70.748C153.096 71.012 152.532 71.144 151.896 71.144C151.398 71.144 150.957 71.063 150.573 70.901C150.195 70.733 149.877 70.499 149.619 70.199C149.361 69.899 149.166 69.536 149.034 69.11C148.908 68.684 148.845 68.213 148.845 67.697V61.883H150.447V67.697C150.447 68.387 150.603 68.921 150.915 69.299C151.233 69.677 151.716 69.866 152.364 69.866C152.838 69.866 153.279 69.755 153.687 69.533C154.101 69.305 154.482 68.993 154.83 68.597V61.883H156.432ZM164.282 63.386C164.21 63.518 164.099 63.584 163.949 63.584C163.859 63.584 163.757 63.551 163.643 63.485C163.529 63.419 163.388 63.347 163.22 63.269C163.058 63.185 162.863 63.11 162.635 63.044C162.407 62.972 162.137 62.936 161.825 62.936C161.555 62.936 161.312 62.972 161.096 63.044C160.88 63.11 160.694 63.203 160.538 63.323C160.388 63.443 160.271 63.584 160.187 63.746C160.109 63.902 160.07 64.073 160.07 64.259C160.07 64.493 160.136 64.688 160.268 64.844C160.406 65 160.586 65.135 160.808 65.249C161.03 65.363 161.282 65.465 161.564 65.555C161.846 65.639 162.134 65.732 162.428 65.834C162.728 65.93 163.019 66.038 163.301 66.158C163.583 66.278 163.835 66.428 164.057 66.608C164.279 66.788 164.456 67.01 164.588 67.274C164.726 67.532 164.795 67.844 164.795 68.21C164.795 68.63 164.72 69.02 164.57 69.38C164.42 69.734 164.198 70.043 163.904 70.307C163.61 70.565 163.25 70.769 162.824 70.919C162.398 71.069 161.906 71.144 161.348 71.144C160.712 71.144 160.136 71.042 159.62 70.838C159.104 70.628 158.666 70.361 158.306 70.037L158.684 69.425C158.732 69.347 158.789 69.287 158.855 69.245C158.921 69.203 159.005 69.182 159.107 69.182C159.215 69.182 159.329 69.224 159.449 69.308C159.569 69.392 159.713 69.485 159.881 69.587C160.055 69.689 160.265 69.782 160.511 69.866C160.757 69.95 161.063 69.992 161.429 69.992C161.741 69.992 162.014 69.953 162.248 69.875C162.482 69.791 162.677 69.68 162.833 69.542C162.989 69.404 163.103 69.245 163.175 69.065C163.253 68.885 163.292 68.693 163.292 68.489C163.292 68.237 163.223 68.03 163.085 67.868C162.953 67.7 162.776 67.559 162.554 67.445C162.332 67.325 162.077 67.223 161.789 67.139C161.507 67.049 161.216 66.956 160.916 66.86C160.622 66.764 160.331 66.656 160.043 66.536C159.761 66.41 159.509 66.254 159.287 66.068C159.065 65.882 158.885 65.654 158.747 65.384C158.615 65.108 158.549 64.775 158.549 64.385C158.549 64.037 158.621 63.704 158.765 63.386C158.909 63.062 159.119 62.78 159.395 62.54C159.671 62.294 160.01 62.099 160.412 61.955C160.814 61.811 161.273 61.739 161.789 61.739C162.389 61.739 162.926 61.835 163.4 62.027C163.88 62.213 164.294 62.471 164.642 62.801L164.282 63.386ZM172.861 65.447C172.861 65.075 172.807 64.736 172.699 64.43C172.597 64.118 172.444 63.851 172.24 63.629C172.042 63.401 171.799 63.227 171.511 63.107C171.223 62.981 170.896 62.918 170.53 62.918C169.762 62.918 169.153 63.143 168.703 63.593C168.259 64.037 167.983 64.655 167.875 65.447H172.861ZM174.157 69.722C173.959 69.962 173.722 70.172 173.446 70.352C173.17 70.526 172.873 70.67 172.555 70.784C172.243 70.898 171.919 70.982 171.583 71.036C171.247 71.096 170.914 71.126 170.584 71.126C169.954 71.126 169.372 71.021 168.838 70.811C168.31 70.595 167.851 70.283 167.461 69.875C167.077 69.461 166.777 68.951 166.561 68.345C166.345 67.739 166.237 67.043 166.237 66.257C166.237 65.621 166.333 65.027 166.525 64.475C166.723 63.923 167.005 63.446 167.371 63.044C167.737 62.636 168.184 62.318 168.712 62.09C169.24 61.856 169.834 61.739 170.494 61.739C171.04 61.739 171.544 61.832 172.006 62.018C172.474 62.198 172.876 62.462 173.212 62.81C173.554 63.152 173.821 63.578 174.013 64.088C174.205 64.592 174.301 65.168 174.301 65.816C174.301 66.068 174.274 66.236 174.22 66.32C174.166 66.404 174.064 66.446 173.914 66.446H167.821C167.839 67.022 167.917 67.523 168.055 67.949C168.199 68.375 168.397 68.732 168.649 69.02C168.901 69.302 169.201 69.515 169.549 69.659C169.897 69.797 170.287 69.866 170.719 69.866C171.121 69.866 171.466 69.821 171.754 69.731C172.048 69.635 172.3 69.533 172.51 69.425C172.72 69.317 172.894 69.218 173.032 69.128C173.176 69.032 173.299 68.984 173.401 68.984C173.533 68.984 173.635 69.035 173.707 69.137L174.157 69.722ZM177.925 57.743V71H176.323V57.743H177.925ZM186.625 65.447C186.625 65.075 186.571 64.736 186.463 64.43C186.361 64.118 186.208 63.851 186.004 63.629C185.806 63.401 185.563 63.227 185.275 63.107C184.987 62.981 184.66 62.918 184.294 62.918C183.526 62.918 182.917 63.143 182.467 63.593C182.023 64.037 181.747 64.655 181.639 65.447H186.625ZM187.921 69.722C187.723 69.962 187.486 70.172 187.21 70.352C186.934 70.526 186.637 70.67 186.319 70.784C186.007 70.898 185.683 70.982 185.347 71.036C185.011 71.096 184.678 71.126 184.348 71.126C183.718 71.126 183.136 71.021 182.602 70.811C182.074 70.595 181.615 70.283 181.225 69.875C180.841 69.461 180.541 68.951 180.325 68.345C180.109 67.739 180.001 67.043 180.001 66.257C180.001 65.621 180.097 65.027 180.289 64.475C180.487 63.923 180.769 63.446 181.135 63.044C181.501 62.636 181.948 62.318 182.476 62.09C183.004 61.856 183.598 61.739 184.258 61.739C184.804 61.739 185.308 61.832 185.77 62.018C186.238 62.198 186.64 62.462 186.976 62.81C187.318 63.152 187.585 63.578 187.777 64.088C187.969 64.592 188.065 65.168 188.065 65.816C188.065 66.068 188.038 66.236 187.984 66.32C187.93 66.404 187.828 66.446 187.678 66.446H181.585C181.603 67.022 181.681 67.523 181.819 67.949C181.963 68.375 182.161 68.732 182.413 69.02C182.665 69.302 182.965 69.515 183.313 69.659C183.661 69.797 184.051 69.866 184.483 69.866C184.885 69.866 185.23 69.821 185.518 69.731C185.812 69.635 186.064 69.533 186.274 69.425C186.484 69.317 186.658 69.218 186.796 69.128C186.94 69.032 187.063 68.984 187.165 68.984C187.297 68.984 187.399 69.035 187.471 69.137L187.921 69.722ZM197.437 71.144C196.717 71.144 196.162 70.943 195.772 70.541C195.388 70.139 195.196 69.56 195.196 68.804V63.224H194.098C194.002 63.224 193.921 63.197 193.855 63.143C193.789 63.083 193.756 62.993 193.756 62.873V62.234L195.25 62.045L195.619 59.228C195.637 59.138 195.676 59.066 195.736 59.012C195.802 58.952 195.886 58.922 195.988 58.922H196.798V62.063H199.435V63.224H196.798V68.696C196.798 69.08 196.891 69.365 197.077 69.551C197.263 69.737 197.503 69.83 197.797 69.83C197.965 69.83 198.109 69.809 198.229 69.767C198.355 69.719 198.463 69.668 198.553 69.614C198.643 69.56 198.718 69.512 198.778 69.47C198.844 69.422 198.901 69.398 198.949 69.398C199.033 69.398 199.108 69.449 199.174 69.551L199.642 70.316C199.366 70.574 199.033 70.778 198.643 70.928C198.253 71.072 197.851 71.144 197.437 71.144ZM206.03 66.896C205.292 66.92 204.662 66.98 204.14 67.076C203.624 67.166 203.201 67.286 202.871 67.436C202.547 67.586 202.31 67.763 202.16 67.967C202.016 68.171 201.944 68.399 201.944 68.651C201.944 68.891 201.983 69.098 202.061 69.272C202.139 69.446 202.244 69.59 202.376 69.704C202.514 69.812 202.673 69.893 202.853 69.947C203.039 69.995 203.237 70.019 203.447 70.019C203.729 70.019 203.987 69.992 204.221 69.938C204.455 69.878 204.674 69.794 204.878 69.686C205.088 69.578 205.286 69.449 205.472 69.299C205.664 69.149 205.85 68.978 206.03 68.786V66.896ZM200.855 63.17C201.359 62.684 201.902 62.321 202.484 62.081C203.066 61.841 203.711 61.721 204.419 61.721C204.929 61.721 205.382 61.805 205.778 61.973C206.174 62.141 206.507 62.375 206.777 62.675C207.047 62.975 207.251 63.338 207.389 63.764C207.527 64.19 207.596 64.658 207.596 65.168V71H206.885C206.729 71 206.609 70.976 206.525 70.928C206.441 70.874 206.375 70.772 206.327 70.622L206.147 69.758C205.907 69.98 205.673 70.178 205.445 70.352C205.217 70.52 204.977 70.664 204.725 70.784C204.473 70.898 204.203 70.985 203.915 71.045C203.633 71.111 203.318 71.144 202.97 71.144C202.616 71.144 202.283 71.096 201.971 71C201.659 70.898 201.386 70.748 201.152 70.55C200.924 70.352 200.741 70.103 200.603 69.803C200.471 69.497 200.405 69.137 200.405 68.723C200.405 68.363 200.504 68.018 200.702 67.688C200.9 67.352 201.221 67.055 201.665 66.797C202.109 66.539 202.688 66.329 203.402 66.167C204.116 65.999 204.992 65.903 206.03 65.879V65.168C206.03 64.46 205.877 63.926 205.571 63.566C205.265 63.2 204.818 63.017 204.23 63.017C203.834 63.017 203.501 63.068 203.231 63.17C202.967 63.266 202.736 63.377 202.538 63.503C202.346 63.623 202.178 63.734 202.034 63.836C201.896 63.932 201.758 63.98 201.62 63.98C201.512 63.98 201.419 63.953 201.341 63.899C201.263 63.839 201.197 63.767 201.143 63.683L200.855 63.17ZM211.693 57.743V71H210.091V57.743H211.693ZM220.392 65.447C220.392 65.075 220.338 64.736 220.23 64.43C220.128 64.118 219.975 63.851 219.771 63.629C219.573 63.401 219.33 63.227 219.042 63.107C218.754 62.981 218.427 62.918 218.061 62.918C217.293 62.918 216.684 63.143 216.234 63.593C215.79 64.037 215.514 64.655 215.406 65.447H220.392ZM221.688 69.722C221.49 69.962 221.253 70.172 220.977 70.352C220.701 70.526 220.404 70.67 220.086 70.784C219.774 70.898 219.45 70.982 219.114 71.036C218.778 71.096 218.445 71.126 218.115 71.126C217.485 71.126 216.903 71.021 216.369 70.811C215.841 70.595 215.382 70.283 214.992 69.875C214.608 69.461 214.308 68.951 214.092 68.345C213.876 67.739 213.768 67.043 213.768 66.257C213.768 65.621 213.864 65.027 214.056 64.475C214.254 63.923 214.536 63.446 214.902 63.044C215.268 62.636 215.715 62.318 216.243 62.09C216.771 61.856 217.365 61.739 218.025 61.739C218.571 61.739 219.075 61.832 219.537 62.018C220.005 62.198 220.407 62.462 220.743 62.81C221.085 63.152 221.352 63.578 221.544 64.088C221.736 64.592 221.832 65.168 221.832 65.816C221.832 66.068 221.805 66.236 221.751 66.32C221.697 66.404 221.595 66.446 221.445 66.446H215.352C215.37 67.022 215.448 67.523 215.586 67.949C215.73 68.375 215.928 68.732 216.18 69.02C216.432 69.302 216.732 69.515 217.08 69.659C217.428 69.797 217.818 69.866 218.25 69.866C218.652 69.866 218.997 69.821 219.285 69.731C219.579 69.635 219.831 69.533 220.041 69.425C220.251 69.317 220.425 69.218 220.563 69.128C220.707 69.032 220.83 68.984 220.932 68.984C221.064 68.984 221.166 69.035 221.238 69.137L221.688 69.722ZM235.778 61.883L232.061 71H230.621L226.904 61.883H228.209C228.341 61.883 228.449 61.916 228.533 61.982C228.617 62.048 228.674 62.126 228.704 62.216L231.017 68.084C231.089 68.306 231.152 68.522 231.206 68.732C231.26 68.942 231.311 69.152 231.359 69.362C231.407 69.152 231.458 68.942 231.512 68.732C231.566 68.522 231.632 68.306 231.71 68.084L234.05 62.216C234.086 62.12 234.146 62.042 234.23 61.982C234.314 61.916 234.413 61.883 234.527 61.883H235.778ZM240.844 61.739C241.51 61.739 242.11 61.85 242.644 62.072C243.178 62.294 243.634 62.609 244.012 63.017C244.39 63.425 244.678 63.92 244.876 64.502C245.08 65.078 245.182 65.723 245.182 66.437C245.182 67.157 245.08 67.805 244.876 68.381C244.678 68.957 244.39 69.449 244.012 69.857C243.634 70.265 243.178 70.58 242.644 70.802C242.11 71.018 241.51 71.126 240.844 71.126C240.172 71.126 239.566 71.018 239.026 70.802C238.492 70.58 238.036 70.265 237.658 69.857C237.28 69.449 236.989 68.957 236.785 68.381C236.587 67.805 236.488 67.157 236.488 66.437C236.488 65.723 236.587 65.078 236.785 64.502C236.989 63.92 237.28 63.425 237.658 63.017C238.036 62.609 238.492 62.294 239.026 62.072C239.566 61.85 240.172 61.739 240.844 61.739ZM240.844 69.875C241.744 69.875 242.416 69.575 242.86 68.975C243.304 68.369 243.526 67.526 243.526 66.446C243.526 65.36 243.304 64.514 242.86 63.908C242.416 63.302 241.744 62.999 240.844 62.999C240.388 62.999 239.989 63.077 239.647 63.233C239.311 63.389 239.029 63.614 238.801 63.908C238.579 64.202 238.411 64.565 238.297 64.997C238.189 65.423 238.135 65.906 238.135 66.446C238.135 67.526 238.357 68.369 238.801 68.975C239.251 69.575 239.932 69.875 240.844 69.875ZM248.735 63.71C249.023 63.086 249.377 62.6 249.797 62.252C250.217 61.898 250.73 61.721 251.336 61.721C251.528 61.721 251.711 61.742 251.885 61.784C252.065 61.826 252.224 61.892 252.362 61.982L252.245 63.179C252.209 63.329 252.119 63.404 251.975 63.404C251.891 63.404 251.768 63.386 251.606 63.35C251.444 63.314 251.261 63.296 251.057 63.296C250.769 63.296 250.511 63.338 250.283 63.422C250.061 63.506 249.86 63.632 249.68 63.8C249.506 63.962 249.347 64.166 249.203 64.412C249.065 64.652 248.939 64.928 248.825 65.24V71H247.214V61.883H248.132C248.306 61.883 248.426 61.916 248.492 61.982C248.558 62.048 248.603 62.162 248.627 62.324L248.735 63.71ZM258.602 71V63.251L257.594 63.134C257.462 63.104 257.357 63.059 257.279 62.999C257.201 62.933 257.162 62.84 257.162 62.72V62.063H258.602V61.559C258.602 61.001 258.689 60.491 258.863 60.029C259.037 59.561 259.298 59.159 259.646 58.823C259.994 58.487 260.426 58.226 260.942 58.04C261.464 57.854 262.067 57.761 262.751 57.761C262.979 57.761 263.213 57.776 263.453 57.806C263.693 57.836 263.9 57.881 264.074 57.941L264.011 58.778C264.005 58.838 263.981 58.88 263.939 58.904C263.903 58.928 263.852 58.943 263.786 58.949C263.72 58.955 263.636 58.958 263.534 58.958C263.438 58.952 263.327 58.949 263.201 58.949C262.133 58.949 261.359 59.171 260.879 59.615C260.399 60.053 260.159 60.716 260.159 61.604V62.063H265.667V71H264.056V63.224H260.204V71H258.602ZM277.837 66.896C277.099 66.92 276.469 66.98 275.947 67.076C275.431 67.166 275.008 67.286 274.678 67.436C274.354 67.586 274.117 67.763 273.967 67.967C273.823 68.171 273.751 68.399 273.751 68.651C273.751 68.891 273.79 69.098 273.868 69.272C273.946 69.446 274.051 69.59 274.183 69.704C274.321 69.812 274.48 69.893 274.66 69.947C274.846 69.995 275.044 70.019 275.254 70.019C275.536 70.019 275.794 69.992 276.028 69.938C276.262 69.878 276.481 69.794 276.685 69.686C276.895 69.578 277.093 69.449 277.279 69.299C277.471 69.149 277.657 68.978 277.837 68.786V66.896ZM272.662 63.17C273.166 62.684 273.709 62.321 274.291 62.081C274.873 61.841 275.518 61.721 276.226 61.721C276.736 61.721 277.189 61.805 277.585 61.973C277.981 62.141 278.314 62.375 278.584 62.675C278.854 62.975 279.058 63.338 279.196 63.764C279.334 64.19 279.403 64.658 279.403 65.168V71H278.692C278.536 71 278.416 70.976 278.332 70.928C278.248 70.874 278.182 70.772 278.134 70.622L277.954 69.758C277.714 69.98 277.48 70.178 277.252 70.352C277.024 70.52 276.784 70.664 276.532 70.784C276.28 70.898 276.01 70.985 275.722 71.045C275.44 71.111 275.125 71.144 274.777 71.144C274.423 71.144 274.09 71.096 273.778 71C273.466 70.898 273.193 70.748 272.959 70.55C272.731 70.352 272.548 70.103 272.41 69.803C272.278 69.497 272.212 69.137 272.212 68.723C272.212 68.363 272.311 68.018 272.509 67.688C272.707 67.352 273.028 67.055 273.472 66.797C273.916 66.539 274.495 66.329 275.209 66.167C275.923 65.999 276.799 65.903 277.837 65.879V65.168C277.837 64.46 277.684 63.926 277.378 63.566C277.072 63.2 276.625 63.017 276.037 63.017C275.641 63.017 275.308 63.068 275.038 63.17C274.774 63.266 274.543 63.377 274.345 63.503C274.153 63.623 273.985 63.734 273.841 63.836C273.703 63.932 273.565 63.98 273.427 63.98C273.319 63.98 273.226 63.953 273.148 63.899C273.07 63.839 273.004 63.767 272.95 63.683L272.662 63.17ZM284.519 71.144C283.799 71.144 283.244 70.943 282.854 70.541C282.47 70.139 282.278 69.56 282.278 68.804V63.224H281.18C281.084 63.224 281.003 63.197 280.937 63.143C280.871 63.083 280.838 62.993 280.838 62.873V62.234L282.332 62.045L282.701 59.228C282.719 59.138 282.758 59.066 282.818 59.012C282.884 58.952 282.968 58.922 283.07 58.922H283.88V62.063H286.517V63.224H283.88V68.696C283.88 69.08 283.973 69.365 284.159 69.551C284.345 69.737 284.585 69.83 284.879 69.83C285.047 69.83 285.191 69.809 285.311 69.767C285.437 69.719 285.545 69.668 285.635 69.614C285.725 69.56 285.8 69.512 285.86 69.47C285.926 69.422 285.983 69.398 286.031 69.398C286.115 69.398 286.19 69.449 286.256 69.551L286.724 70.316C286.448 70.574 286.115 70.778 285.725 70.928C285.335 71.072 284.933 71.144 284.519 71.144ZM293.112 66.896C292.374 66.92 291.744 66.98 291.222 67.076C290.706 67.166 290.283 67.286 289.953 67.436C289.629 67.586 289.392 67.763 289.242 67.967C289.098 68.171 289.026 68.399 289.026 68.651C289.026 68.891 289.065 69.098 289.143 69.272C289.221 69.446 289.326 69.59 289.458 69.704C289.596 69.812 289.755 69.893 289.935 69.947C290.121 69.995 290.319 70.019 290.529 70.019C290.811 70.019 291.069 69.992 291.303 69.938C291.537 69.878 291.756 69.794 291.96 69.686C292.17 69.578 292.368 69.449 292.554 69.299C292.746 69.149 292.932 68.978 293.112 68.786V66.896ZM287.937 63.17C288.441 62.684 288.984 62.321 289.566 62.081C290.148 61.841 290.793 61.721 291.501 61.721C292.011 61.721 292.464 61.805 292.86 61.973C293.256 62.141 293.589 62.375 293.859 62.675C294.129 62.975 294.333 63.338 294.471 63.764C294.609 64.19 294.678 64.658 294.678 65.168V71H293.967C293.811 71 293.691 70.976 293.607 70.928C293.523 70.874 293.457 70.772 293.409 70.622L293.229 69.758C292.989 69.98 292.755 70.178 292.527 70.352C292.299 70.52 292.059 70.664 291.807 70.784C291.555 70.898 291.285 70.985 290.997 71.045C290.715 71.111 290.4 71.144 290.052 71.144C289.698 71.144 289.365 71.096 289.053 71C288.741 70.898 288.468 70.748 288.234 70.55C288.006 70.352 287.823 70.103 287.685 69.803C287.553 69.497 287.487 69.137 287.487 68.723C287.487 68.363 287.586 68.018 287.784 67.688C287.982 67.352 288.303 67.055 288.747 66.797C289.191 66.539 289.77 66.329 290.484 66.167C291.198 65.999 292.074 65.903 293.112 65.879V65.168C293.112 64.46 292.959 63.926 292.653 63.566C292.347 63.2 291.9 63.017 291.312 63.017C290.916 63.017 290.583 63.068 290.313 63.17C290.049 63.266 289.818 63.377 289.62 63.503C289.428 63.623 289.26 63.734 289.116 63.836C288.978 63.932 288.84 63.98 288.702 63.98C288.594 63.98 288.501 63.953 288.423 63.899C288.345 63.839 288.279 63.767 288.225 63.683L287.937 63.17ZM302.429 63.386C302.357 63.518 302.246 63.584 302.096 63.584C302.006 63.584 301.904 63.551 301.79 63.485C301.676 63.419 301.535 63.347 301.367 63.269C301.205 63.185 301.01 63.11 300.782 63.044C300.554 62.972 300.284 62.936 299.972 62.936C299.702 62.936 299.459 62.972 299.243 63.044C299.027 63.11 298.841 63.203 298.685 63.323C298.535 63.443 298.418 63.584 298.334 63.746C298.256 63.902 298.217 64.073 298.217 64.259C298.217 64.493 298.283 64.688 298.415 64.844C298.553 65 298.733 65.135 298.955 65.249C299.177 65.363 299.429 65.465 299.711 65.555C299.993 65.639 300.281 65.732 300.575 65.834C300.875 65.93 301.166 66.038 301.448 66.158C301.73 66.278 301.982 66.428 302.204 66.608C302.426 66.788 302.603 67.01 302.735 67.274C302.873 67.532 302.942 67.844 302.942 68.21C302.942 68.63 302.867 69.02 302.717 69.38C302.567 69.734 302.345 70.043 302.051 70.307C301.757 70.565 301.397 70.769 300.971 70.919C300.545 71.069 300.053 71.144 299.495 71.144C298.859 71.144 298.283 71.042 297.767 70.838C297.251 70.628 296.813 70.361 296.453 70.037L296.831 69.425C296.879 69.347 296.936 69.287 297.002 69.245C297.068 69.203 297.152 69.182 297.254 69.182C297.362 69.182 297.476 69.224 297.596 69.308C297.716 69.392 297.86 69.485 298.028 69.587C298.202 69.689 298.412 69.782 298.658 69.866C298.904 69.95 299.21 69.992 299.576 69.992C299.888 69.992 300.161 69.953 300.395 69.875C300.629 69.791 300.824 69.68 300.98 69.542C301.136 69.404 301.25 69.245 301.322 69.065C301.4 68.885 301.439 68.693 301.439 68.489C301.439 68.237 301.37 68.03 301.232 67.868C301.1 67.7 300.923 67.559 300.701 67.445C300.479 67.325 300.224 67.223 299.936 67.139C299.654 67.049 299.363 66.956 299.063 66.86C298.769 66.764 298.478 66.656 298.19 66.536C297.908 66.41 297.656 66.254 297.434 66.068C297.212 65.882 297.032 65.654 296.894 65.384C296.762 65.108 296.696 64.775 296.696 64.385C296.696 64.037 296.768 63.704 296.912 63.386C297.056 63.062 297.266 62.78 297.542 62.54C297.818 62.294 298.157 62.099 298.559 61.955C298.961 61.811 299.42 61.739 299.936 61.739C300.536 61.739 301.073 61.835 301.547 62.027C302.027 62.213 302.441 62.471 302.789 62.801L302.429 63.386ZM300.125 71.864C300.263 71.864 300.347 71.894 300.377 71.954C300.413 72.02 300.431 72.089 300.431 72.161C300.431 72.215 300.422 72.293 300.404 72.395C300.392 72.497 300.362 72.626 300.314 72.782C300.272 72.944 300.212 73.139 300.134 73.367C300.062 73.595 299.969 73.865 299.855 74.177C299.795 74.309 299.72 74.396 299.63 74.438C299.546 74.48 299.429 74.501 299.279 74.501H298.721L299.162 71.864H300.125ZM309.847 66.896C309.109 66.92 308.479 66.98 307.957 67.076C307.441 67.166 307.018 67.286 306.688 67.436C306.364 67.586 306.127 67.763 305.977 67.967C305.833 68.171 305.761 68.399 305.761 68.651C305.761 68.891 305.8 69.098 305.878 69.272C305.956 69.446 306.061 69.59 306.193 69.704C306.331 69.812 306.49 69.893 306.67 69.947C306.856 69.995 307.054 70.019 307.264 70.019C307.546 70.019 307.804 69.992 308.038 69.938C308.272 69.878 308.491 69.794 308.695 69.686C308.905 69.578 309.103 69.449 309.289 69.299C309.481 69.149 309.667 68.978 309.847 68.786V66.896ZM304.672 63.17C305.176 62.684 305.719 62.321 306.301 62.081C306.883 61.841 307.528 61.721 308.236 61.721C308.746 61.721 309.199 61.805 309.595 61.973C309.991 62.141 310.324 62.375 310.594 62.675C310.864 62.975 311.068 63.338 311.206 63.764C311.344 64.19 311.413 64.658 311.413 65.168V71H310.702C310.546 71 310.426 70.976 310.342 70.928C310.258 70.874 310.192 70.772 310.144 70.622L309.964 69.758C309.724 69.98 309.49 70.178 309.262 70.352C309.034 70.52 308.794 70.664 308.542 70.784C308.29 70.898 308.02 70.985 307.732 71.045C307.45 71.111 307.135 71.144 306.787 71.144C306.433 71.144 306.1 71.096 305.788 71C305.476 70.898 305.203 70.748 304.969 70.55C304.741 70.352 304.558 70.103 304.42 69.803C304.288 69.497 304.222 69.137 304.222 68.723C304.222 68.363 304.321 68.018 304.519 67.688C304.717 67.352 305.038 67.055 305.482 66.797C305.926 66.539 306.505 66.329 307.219 66.167C307.933 65.999 308.809 65.903 309.847 65.879V65.168C309.847 64.46 309.694 63.926 309.388 63.566C309.082 63.2 308.635 63.017 308.047 63.017C307.651 63.017 307.318 63.068 307.048 63.17C306.784 63.266 306.553 63.377 306.355 63.503C306.163 63.623 305.995 63.734 305.851 63.836C305.713 63.932 305.575 63.98 305.437 63.98C305.329 63.98 305.236 63.953 305.158 63.899C305.08 63.839 305.014 63.767 304.96 63.683L304.672 63.17ZM316.529 71.144C315.809 71.144 315.254 70.943 314.864 70.541C314.48 70.139 314.288 69.56 314.288 68.804V63.224H313.19C313.094 63.224 313.013 63.197 312.947 63.143C312.881 63.083 312.848 62.993 312.848 62.873V62.234L314.342 62.045L314.711 59.228C314.729 59.138 314.768 59.066 314.828 59.012C314.894 58.952 314.978 58.922 315.08 58.922H315.89V62.063H318.527V63.224H315.89V68.696C315.89 69.08 315.983 69.365 316.169 69.551C316.355 69.737 316.595 69.83 316.889 69.83C317.057 69.83 317.201 69.809 317.321 69.767C317.447 69.719 317.555 69.668 317.645 69.614C317.735 69.56 317.81 69.512 317.87 69.47C317.936 69.422 317.993 69.398 318.041 69.398C318.125 69.398 318.2 69.449 318.266 69.551L318.734 70.316C318.458 70.574 318.125 70.778 317.735 70.928C317.345 71.072 316.943 71.144 316.529 71.144ZM326.23 65.447C326.23 65.075 326.176 64.736 326.068 64.43C325.966 64.118 325.813 63.851 325.609 63.629C325.411 63.401 325.168 63.227 324.88 63.107C324.592 62.981 324.265 62.918 323.899 62.918C323.131 62.918 322.522 63.143 322.072 63.593C321.628 64.037 321.352 64.655 321.244 65.447H326.23ZM327.526 69.722C327.328 69.962 327.091 70.172 326.815 70.352C326.539 70.526 326.242 70.67 325.924 70.784C325.612 70.898 325.288 70.982 324.952 71.036C324.616 71.096 324.283 71.126 323.953 71.126C323.323 71.126 322.741 71.021 322.207 70.811C321.679 70.595 321.22 70.283 320.83 69.875C320.446 69.461 320.146 68.951 319.93 68.345C319.714 67.739 319.606 67.043 319.606 66.257C319.606 65.621 319.702 65.027 319.894 64.475C320.092 63.923 320.374 63.446 320.74 63.044C321.106 62.636 321.553 62.318 322.081 62.09C322.609 61.856 323.203 61.739 323.863 61.739C324.409 61.739 324.913 61.832 325.375 62.018C325.843 62.198 326.245 62.462 326.581 62.81C326.923 63.152 327.19 63.578 327.382 64.088C327.574 64.592 327.67 65.168 327.67 65.816C327.67 66.068 327.643 66.236 327.589 66.32C327.535 66.404 327.433 66.446 327.283 66.446H321.19C321.208 67.022 321.286 67.523 321.424 67.949C321.568 68.375 321.766 68.732 322.018 69.02C322.27 69.302 322.57 69.515 322.918 69.659C323.266 69.797 323.656 69.866 324.088 69.866C324.49 69.866 324.835 69.821 325.123 69.731C325.417 69.635 325.669 69.533 325.879 69.425C326.089 69.317 326.263 69.218 326.401 69.128C326.545 69.032 326.668 68.984 326.77 68.984C326.902 68.984 327.004 69.035 327.076 69.137L327.526 69.722ZM339.185 66.896C338.447 66.92 337.817 66.98 337.295 67.076C336.779 67.166 336.356 67.286 336.026 67.436C335.702 67.586 335.465 67.763 335.315 67.967C335.171 68.171 335.099 68.399 335.099 68.651C335.099 68.891 335.138 69.098 335.216 69.272C335.294 69.446 335.399 69.59 335.531 69.704C335.669 69.812 335.828 69.893 336.008 69.947C336.194 69.995 336.392 70.019 336.602 70.019C336.884 70.019 337.142 69.992 337.376 69.938C337.61 69.878 337.829 69.794 338.033 69.686C338.243 69.578 338.441 69.449 338.627 69.299C338.819 69.149 339.005 68.978 339.185 68.786V66.896ZM334.01 63.17C334.514 62.684 335.057 62.321 335.639 62.081C336.221 61.841 336.866 61.721 337.574 61.721C338.084 61.721 338.537 61.805 338.933 61.973C339.329 62.141 339.662 62.375 339.932 62.675C340.202 62.975 340.406 63.338 340.544 63.764C340.682 64.19 340.751 64.658 340.751 65.168V71H340.04C339.884 71 339.764 70.976 339.68 70.928C339.596 70.874 339.53 70.772 339.482 70.622L339.302 69.758C339.062 69.98 338.828 70.178 338.6 70.352C338.372 70.52 338.132 70.664 337.88 70.784C337.628 70.898 337.358 70.985 337.07 71.045C336.788 71.111 336.473 71.144 336.125 71.144C335.771 71.144 335.438 71.096 335.126 71C334.814 70.898 334.541 70.748 334.307 70.55C334.079 70.352 333.896 70.103 333.758 69.803C333.626 69.497 333.56 69.137 333.56 68.723C333.56 68.363 333.659 68.018 333.857 67.688C334.055 67.352 334.376 67.055 334.82 66.797C335.264 66.539 335.843 66.329 336.557 66.167C337.271 65.999 338.147 65.903 339.185 65.879V65.168C339.185 64.46 339.032 63.926 338.726 63.566C338.42 63.2 337.973 63.017 337.385 63.017C336.989 63.017 336.656 63.068 336.386 63.17C336.122 63.266 335.891 63.377 335.693 63.503C335.501 63.623 335.333 63.734 335.189 63.836C335.051 63.932 334.913 63.98 334.775 63.98C334.667 63.98 334.574 63.953 334.496 63.899C334.418 63.839 334.352 63.767 334.298 63.683L334.01 63.17ZM344.883 61.883V71H343.281V61.883H344.883ZM345.225 59.021C345.225 59.177 345.192 59.324 345.126 59.462C345.066 59.594 344.982 59.714 344.874 59.822C344.772 59.924 344.649 60.005 344.505 60.065C344.367 60.125 344.22 60.155 344.064 60.155C343.908 60.155 343.761 60.125 343.623 60.065C343.491 60.005 343.374 59.924 343.272 59.822C343.17 59.714 343.089 59.594 343.029 59.462C342.969 59.324 342.939 59.177 342.939 59.021C342.939 58.865 342.969 58.718 343.029 58.58C343.089 58.436 343.17 58.313 343.272 58.211C343.374 58.103 343.491 58.019 343.623 57.959C343.761 57.899 343.908 57.869 344.064 57.869C344.22 57.869 344.367 57.899 344.505 57.959C344.649 58.019 344.772 58.103 344.874 58.211C344.982 58.313 345.066 58.436 345.126 58.58C345.192 58.718 345.225 58.865 345.225 59.021ZM353.86 63.503C353.812 63.569 353.764 63.62 353.716 63.656C353.668 63.692 353.602 63.71 353.518 63.71C353.428 63.71 353.329 63.674 353.221 63.602C353.113 63.524 352.978 63.44 352.816 63.35C352.66 63.26 352.465 63.179 352.231 63.107C352.003 63.029 351.721 62.99 351.385 62.99C350.935 62.99 350.539 63.071 350.197 63.233C349.855 63.389 349.567 63.617 349.333 63.917C349.105 64.217 348.931 64.58 348.811 65.006C348.697 65.432 348.64 65.909 348.64 66.437C348.64 66.989 348.703 67.481 348.829 67.913C348.955 68.339 349.132 68.699 349.36 68.993C349.594 69.281 349.873 69.503 350.197 69.659C350.527 69.809 350.896 69.884 351.304 69.884C351.694 69.884 352.015 69.839 352.267 69.749C352.519 69.653 352.726 69.548 352.888 69.434C353.056 69.32 353.194 69.218 353.302 69.128C353.416 69.032 353.527 68.984 353.635 68.984C353.767 68.984 353.869 69.035 353.941 69.137L354.391 69.722C354.193 69.968 353.968 70.178 353.716 70.352C353.464 70.526 353.191 70.673 352.897 70.793C352.609 70.907 352.306 70.991 351.988 71.045C351.67 71.099 351.346 71.126 351.016 71.126C350.446 71.126 349.915 71.021 349.423 70.811C348.937 70.601 348.514 70.298 348.154 69.902C347.794 69.5 347.512 69.008 347.308 68.426C347.104 67.844 347.002 67.181 347.002 66.437C347.002 65.759 347.095 65.132 347.281 64.556C347.473 63.98 347.749 63.485 348.109 63.071C348.475 62.651 348.922 62.324 349.45 62.09C349.984 61.856 350.596 61.739 351.286 61.739C351.928 61.739 352.492 61.844 352.978 62.054C353.47 62.258 353.905 62.549 354.283 62.927L353.86 63.503ZM357.803 61.883V71H356.201V61.883H357.803ZM358.145 59.021C358.145 59.177 358.112 59.324 358.046 59.462C357.986 59.594 357.902 59.714 357.794 59.822C357.692 59.924 357.569 60.005 357.425 60.065C357.287 60.125 357.14 60.155 356.984 60.155C356.828 60.155 356.681 60.125 356.543 60.065C356.411 60.005 356.294 59.924 356.192 59.822C356.09 59.714 356.009 59.594 355.949 59.462C355.889 59.324 355.859 59.177 355.859 59.021C355.859 58.865 355.889 58.718 355.949 58.58C356.009 58.436 356.09 58.313 356.192 58.211C356.294 58.103 356.411 58.019 356.543 57.959C356.681 57.899 356.828 57.869 356.984 57.869C357.14 57.869 357.287 57.899 357.425 57.959C357.569 58.019 357.692 58.103 357.794 58.211C357.902 58.313 357.986 58.436 358.046 58.58C358.112 58.718 358.145 58.865 358.145 59.021Z" fill="#808080"/>
</svg>
