<svg width="110" height="110" viewBox="0 0 110 110" fill="none" xmlns="http://www.w3.org/2000/svg">
<path d="M43.3559 80.272C43.4733 80.272 43.5746 80.3173 43.6599 80.408L44.5079 81.328C44.0386 81.9093 43.4599 82.3547 42.7719 82.664C42.0893 82.9733 41.2679 83.128 40.3079 83.128C39.4493 83.128 38.6759 82.9813 37.9879 82.688C37.3053 82.3947 36.7213 81.9867 36.2359 81.464C35.7506 80.9413 35.3773 80.3173 35.1159 79.592C34.8599 78.8667 34.7319 78.0747 34.7319 77.216C34.7319 76.3467 34.8759 75.552 35.1639 74.832C35.4519 74.1067 35.8573 73.4827 36.3799 72.96C36.9026 72.4373 37.5266 72.032 38.2519 71.744C38.9826 71.4507 39.7879 71.304 40.6679 71.304C41.5266 71.304 42.2759 71.4427 42.9159 71.72C43.5613 71.992 44.1133 72.3547 44.5719 72.808L43.8519 73.808C43.8093 73.872 43.7533 73.928 43.6839 73.976C43.6199 74.024 43.5293 74.048 43.4119 74.048C43.2893 74.048 43.1639 74 43.0359 73.904C42.9079 73.808 42.7453 73.704 42.5479 73.592C42.3506 73.48 42.0999 73.376 41.7959 73.28C41.4973 73.184 41.1159 73.136 40.6519 73.136C40.1079 73.136 39.6066 73.232 39.1479 73.424C38.6946 73.6107 38.3026 73.88 37.9719 74.232C37.6466 74.584 37.3906 75.0133 37.2039 75.52C37.0226 76.0213 36.9319 76.5867 36.9319 77.216C36.9319 77.8667 37.0226 78.4453 37.2039 78.952C37.3906 79.4587 37.6413 79.8853 37.9559 80.232C38.2706 80.5787 38.6413 80.8453 39.0679 81.032C39.4946 81.2133 39.9533 81.304 40.4439 81.304C40.7373 81.304 41.0013 81.288 41.2359 81.256C41.4759 81.224 41.6946 81.1733 41.8919 81.104C42.0946 81.0347 42.2839 80.9467 42.4599 80.84C42.6413 80.728 42.8199 80.592 42.9959 80.432C43.0493 80.384 43.1053 80.3467 43.1639 80.32C43.2226 80.288 43.2866 80.272 43.3559 80.272ZM57.1343 77.216C57.1343 78.064 56.993 78.8507 56.7103 79.576C56.4276 80.296 56.0303 80.92 55.5183 81.448C55.0063 81.976 54.3903 82.3893 53.6703 82.688C52.9503 82.9813 52.153 83.128 51.2783 83.128C50.4036 83.128 49.6036 82.9813 48.8783 82.688C48.1583 82.3893 47.5396 81.976 47.0223 81.448C46.5103 80.92 46.113 80.296 45.8303 79.576C45.5476 78.8507 45.4063 78.064 45.4063 77.216C45.4063 76.368 45.5476 75.584 45.8303 74.864C46.113 74.1387 46.5103 73.512 47.0223 72.984C47.5396 72.456 48.1583 72.0453 48.8783 71.752C49.6036 71.4533 50.4036 71.304 51.2783 71.304C52.153 71.304 52.9503 71.4533 53.6703 71.752C54.3903 72.0507 55.0063 72.464 55.5183 72.992C56.0303 73.5147 56.4276 74.1387 56.7103 74.864C56.993 75.584 57.1343 76.368 57.1343 77.216ZM54.9263 77.216C54.9263 76.5813 54.841 76.0133 54.6703 75.512C54.505 75.0053 54.265 74.576 53.9503 74.224C53.6356 73.872 53.2516 73.6027 52.7983 73.416C52.3503 73.2293 51.8436 73.136 51.2783 73.136C50.713 73.136 50.2036 73.2293 49.7503 73.416C49.297 73.6027 48.9103 73.872 48.5903 74.224C48.2756 74.576 48.033 75.0053 47.8623 75.512C47.6916 76.0133 47.6063 76.5813 47.6063 77.216C47.6063 77.8507 47.6916 78.4213 47.8623 78.928C48.033 79.4293 48.2756 79.856 48.5903 80.208C48.9103 80.5547 49.297 80.8213 49.7503 81.008C50.2036 81.1947 50.713 81.288 51.2783 81.288C51.8436 81.288 52.3503 81.1947 52.7983 81.008C53.2516 80.8213 53.6356 80.5547 53.9503 80.208C54.265 79.856 54.505 79.4293 54.6703 78.928C54.841 78.4213 54.9263 77.8507 54.9263 77.216ZM68.4969 83H66.8329C66.6463 83 66.4916 82.9547 66.3689 82.864C66.2516 82.768 66.1663 82.6507 66.1129 82.512L65.2489 80.152H60.4569L59.5929 82.512C59.5503 82.6347 59.4649 82.7467 59.3369 82.848C59.2143 82.9493 59.0623 83 58.8809 83H57.2089L61.7529 71.432H63.9529L68.4969 83ZM61.0089 78.632H64.6969L63.2889 74.784C63.2249 74.6133 63.1529 74.4133 63.0729 74.184C62.9983 73.9493 62.9236 73.696 62.8489 73.424C62.7743 73.696 62.6996 73.9493 62.6249 74.184C62.5556 74.4187 62.4863 74.624 62.4169 74.8L61.0089 78.632ZM76.5684 71.432V73.2H73.0884V83H70.9364V73.2H67.4404V71.432H76.5684Z" fill="#333333"/>
<path d="M36 41.5553C36.1461 40.7866 36.303 40.0188 36.4352 39.2481C37.0105 35.8791 37.5769 32.5081 38.1493 29.1381C38.2529 28.5282 38.6526 28.1858 39.2713 28.1838C40.7604 28.1799 42.2505 28.1819 43.7397 28.1819C43.8729 28.1819 44.0061 28.1819 44.1877 28.1819C44.1877 28.02 44.1877 27.8898 44.1877 27.7585C44.1877 25.9615 44.1867 24.1645 44.1877 22.3665C44.1887 21.4261 44.617 21.0017 45.5673 21.0007C48.2751 20.9998 50.9839 20.9998 53.6918 21.0007C54.6776 21.0007 55.0951 21.4241 55.097 22.4218C55.098 23.0316 55.097 23.6415 55.097 24.3648C55.4385 24.0757 55.7098 23.8734 55.9487 23.6356C56.223 23.3622 56.5319 23.2566 56.9148 23.2852C57.2453 23.3099 57.5819 23.2655 57.9105 23.3C58.1029 23.3198 58.2845 23.4362 58.473 23.5043C58.5815 23.5438 58.693 23.605 58.8035 23.605C61.4374 23.6109 64.0722 23.6099 66.706 23.6079C66.7899 23.6079 66.8995 23.6168 66.9537 23.5704C67.606 23.0119 68.3679 23.382 69.0774 23.3218C69.184 23.3129 69.3122 23.4421 69.4139 23.527C70.3474 24.3106 71.279 25.0951 72.2056 25.8865C73.2793 26.8033 73.8191 27.9727 73.8201 29.3858C73.821 35.738 73.821 42.0892 73.8201 48.4414C73.8201 49.3206 73.3266 49.8131 72.4474 49.817C71.8563 49.82 71.2652 49.8052 70.675 49.8269C70.529 49.8328 70.3464 49.9147 70.2497 50.0233C69.6438 50.7081 68.8978 51.09 67.983 51.0752C67.4343 51.0663 66.8768 51.0367 66.3399 50.9292C65.7705 50.8147 65.3324 50.4417 64.9495 50.0045C64.8666 49.9088 64.7136 49.8654 64.5854 49.8219C64.5074 49.7963 64.4136 49.8249 64.3288 49.816C63.7604 49.7548 63.2995 49.8496 62.8781 50.3371C62.4163 50.8719 61.7265 51.0841 61.0091 51.0762C60.4821 51.0703 59.9463 51.0673 59.4331 50.9696C58.8262 50.8542 58.3387 50.4871 57.9371 50.0124C57.8651 49.9275 57.7486 49.8279 57.6509 49.8269C56.7786 49.8121 55.9062 49.818 55.0289 49.818C54.6836 50.8897 54.0115 51.5972 52.9161 51.8449C52.6793 51.8982 52.4287 51.9091 52.1839 51.9101C50.8665 51.916 49.5491 51.9071 48.2327 51.917C47.8814 51.9199 47.5962 51.8153 47.3209 51.5963C43.8206 48.8203 40.3174 46.0493 36.8072 43.2862C36.4362 42.9941 36.1559 42.6596 36.001 42.2175C36 41.9994 36 41.7774 36 41.5553ZM49.9636 50.8009C49.8225 50.3015 49.6142 49.8308 49.5718 49.3463C49.5037 48.5638 49.5412 47.7723 49.5402 46.9848C49.5382 43.8586 49.5382 40.7313 49.5402 37.6051C49.5402 37.1334 49.7346 36.8886 50.0919 36.8837C50.457 36.8788 50.6435 37.1146 50.6514 37.5903C50.6534 37.6889 50.6514 37.7876 50.6514 37.8853C50.6514 41.5297 50.6504 45.173 50.6534 48.8174C50.6534 49.0384 50.6603 49.2624 50.6978 49.4785C50.8172 50.1654 51.429 50.7239 52.1139 50.791C52.8737 50.865 53.5309 50.4969 53.7895 49.819C53.4974 49.819 53.2191 49.8249 52.9418 49.818C52.2185 49.7983 51.6954 49.3127 51.6826 48.5904C51.6609 47.4338 51.6737 46.2763 51.6777 45.1187C51.6787 44.8168 51.8158 44.5938 52.1247 44.5207C52.4918 44.4349 52.7819 44.7082 52.7849 45.1533C52.7908 46.1993 52.7977 47.2463 52.781 48.2924C52.776 48.6072 52.8569 48.7236 53.1925 48.7187C54.4605 48.6999 55.7286 48.7118 56.9967 48.7108C57.1023 48.7108 57.2069 48.697 57.2848 48.691C57.2848 47.9924 57.2819 47.3282 57.2858 46.6651C57.2927 45.4562 58.0338 44.7102 59.2447 44.7013C60.1308 44.6954 61.017 44.7062 61.9041 44.6974C62.4587 44.6924 62.9443 44.8434 63.3489 45.2362C63.5255 45.4069 64.5992 45.4375 64.7936 45.2904C64.8133 45.2756 64.8271 45.2549 64.8439 45.2372C65.2307 44.8454 65.7074 44.6944 66.2491 44.6984C67.16 44.7043 68.0708 44.6954 68.9817 44.7033C69.1889 44.7053 69.403 44.726 69.6004 44.7832C70.378 45.0102 70.8675 45.6694 70.8852 46.522C70.9 47.2424 70.8882 47.9638 70.8882 48.7108C71.3796 48.7108 71.8464 48.696 72.3112 48.7157C72.6092 48.7285 72.7148 48.6417 72.7148 48.3249C72.7059 42.0093 72.7089 35.6946 72.7069 29.3789C72.7069 28.3072 72.2915 27.421 71.4734 26.7263C70.6573 26.0335 69.8244 25.3586 69.0271 24.6441C68.7024 24.353 68.3777 24.3855 68.0136 24.4418C68.0017 24.5158 67.9919 24.5632 67.9869 24.6115C67.7728 26.9493 66.034 28.8924 63.7248 29.3345C63.4169 29.3937 63.3607 29.5101 63.3627 29.7864C63.3735 31.5341 63.3686 33.2828 63.3666 35.0304C63.3666 35.1775 63.3666 35.3294 63.3321 35.4696C63.2689 35.7252 63.0864 35.8633 62.8219 35.8673C62.5416 35.8712 62.3492 35.7311 62.2851 35.4567C62.2515 35.3156 62.2545 35.1637 62.2535 35.0166C62.2515 33.269 62.2466 31.5203 62.2574 29.7726C62.2594 29.4953 62.1775 29.4006 61.8963 29.3572C60.6173 29.1608 59.5614 28.547 58.7216 27.5661C57.9529 26.6681 57.5601 25.6132 57.4743 24.428C57.0707 24.3727 56.7391 24.3895 56.4125 24.6895C55.696 25.3457 54.947 25.9684 54.1892 26.5763C53.2033 27.3667 52.7731 28.3802 52.778 29.6355C52.7948 33.9193 52.7849 38.2041 52.7839 42.4879C52.7839 42.6231 52.7888 42.7592 52.774 42.8935C52.7405 43.1954 52.55 43.3632 52.2629 43.3829C51.9895 43.4017 51.7872 43.2576 51.7122 42.9862C51.6767 42.8589 51.6737 42.7188 51.6737 42.5856C51.6718 38.2031 51.6668 33.8206 51.6797 29.4381C51.6806 28.9881 51.7517 28.5292 51.8602 28.0911C52.1306 27.0006 52.8362 26.2082 53.7007 25.5352C53.8033 25.4553 53.9464 25.3477 53.9563 25.2431C53.9878 24.8839 53.9681 24.5188 53.9681 24.1527C51.0511 24.1527 48.1893 24.1527 45.3166 24.1527C45.3166 25.4987 45.3166 26.821 45.3166 28.1769C45.4715 28.1769 45.6048 28.1769 45.737 28.1769C46.9439 28.1769 48.1498 28.1759 49.3567 28.1769C50.2764 28.1779 50.6474 28.5509 50.6484 29.4805C50.6504 31.241 50.6494 33.0015 50.6484 34.762C50.6484 34.9337 50.6534 35.1084 50.6326 35.2781C50.5981 35.5604 50.4195 35.7212 50.1422 35.7419C49.8481 35.7636 49.6419 35.6235 49.5688 35.3314C49.5373 35.2021 49.5373 35.063 49.5363 34.9288C49.5323 34.465 49.5353 34.0012 49.5353 33.5216C45.8446 33.5216 42.1953 33.5216 38.5539 33.5216C38.5352 33.564 38.5204 33.5847 38.5164 33.6074C38.0526 36.3222 37.5917 39.0379 37.124 41.7517C37.0796 42.0112 37.1891 42.1671 37.3766 42.3162C40.8927 45.0931 44.4058 47.872 47.9218 50.6479C48.0047 50.713 48.1103 50.789 48.207 50.791C48.81 50.8078 49.409 50.8009 49.9636 50.8009ZM60.5976 45.8164C60.1298 45.8164 59.6621 45.8105 59.1943 45.8184C58.6792 45.8273 58.4137 46.0779 58.4009 46.5852C58.3881 47.1269 58.3832 47.6687 58.4019 48.2095C58.4335 49.1174 59.0374 49.8289 59.9157 49.9443C60.3509 50.0016 60.8048 50.0015 61.241 49.9453C62.1114 49.8348 62.7183 49.1243 62.7508 48.2519C62.7578 48.0674 62.7439 47.8819 62.7617 47.6983C62.8012 47.2789 63.0518 47.0115 63.4732 46.9868C63.8896 46.9611 64.311 46.9611 64.7275 46.9878C65.1478 47.0154 65.3906 47.2917 65.4172 47.7131C65.4281 47.8848 65.4163 48.0585 65.4271 48.2302C65.4824 49.144 66.0824 49.8417 66.9606 49.9493C67.385 50.0016 67.8251 50.0006 68.2494 49.9493C69.1188 49.8446 69.7405 49.143 69.7711 48.2687C69.7909 47.7032 69.7859 47.1358 69.776 46.5704C69.7672 46.077 69.5126 45.8243 69.0142 45.8204C68.0669 45.8115 67.1175 45.7987 66.1712 45.8322C65.958 45.8401 65.7005 45.9842 65.5554 46.147C65.357 46.372 65.1547 46.4904 64.8626 46.4885C64.3456 46.4835 63.8285 46.4845 63.3114 46.4875C63.0331 46.4894 62.8416 46.3681 62.6462 46.1638C62.4864 45.996 62.2278 45.8569 61.9999 45.8322C61.5371 45.7809 61.0653 45.8164 60.5976 45.8164ZM65.0186 24.7319C65.0186 25.0319 65.0215 25.3003 65.0186 25.5688C65.0107 26.2852 64.6643 26.6424 63.9587 26.6474C63.1466 26.6523 62.3334 26.6533 61.5213 26.6474C60.8473 26.6424 60.5088 26.301 60.492 25.6201C60.4851 25.328 60.491 25.0359 60.491 24.7408C59.8516 24.7408 59.2654 24.7408 58.6792 24.7408C58.6683 26.5812 60.6963 28.3417 62.7903 28.3309C64.8064 28.32 66.8274 26.5161 66.8087 24.7329C66.2333 24.7319 65.657 24.7319 65.0186 24.7319ZM42.2752 29.3118C42.2752 30.345 42.2752 31.3565 42.2752 32.365C43.4318 32.365 44.5568 32.365 45.6817 32.365C45.6817 31.3328 45.6817 30.3292 45.6817 29.3118C44.5321 29.3118 43.4071 29.3118 42.2752 29.3118ZM49.5096 32.3778C49.5096 31.3367 49.5096 30.3252 49.5096 29.3039C48.6087 29.3039 47.7373 29.3039 46.8432 29.3039C46.8432 30.3322 46.8432 31.3476 46.8432 32.3778C47.7353 32.3778 48.6047 32.3778 49.5096 32.3778ZM45.3107 23.001C48.2129 23.001 51.0757 23.001 53.9582 23.001C53.9582 22.707 53.9582 22.4316 53.9582 22.1425C51.0649 22.1425 48.1942 22.1425 45.3107 22.1425C45.3107 22.4366 45.3107 22.704 45.3107 23.001ZM41.1068 29.3118C40.4772 29.3118 39.8703 29.3118 39.2486 29.3118C39.0749 30.3401 38.9032 31.3496 38.7315 32.364C39.5476 32.364 40.3253 32.364 41.1058 32.364C41.1068 31.3328 41.1068 30.3302 41.1068 29.3118ZM63.8877 24.7398C63.11 24.7398 62.3778 24.7398 61.6308 24.7398C61.6308 25.0092 61.6308 25.2569 61.6308 25.5086C62.3976 25.5086 63.1377 25.5086 63.8877 25.5086C63.8877 25.2411 63.8877 25.0023 63.8877 24.7398ZM64.3584 48.695C64.3317 48.473 64.31 48.2963 64.2863 48.0901C64.1354 48.099 64.01 48.1059 63.8699 48.1138C63.8699 48.3309 63.8699 48.5075 63.8699 48.695C64.0327 48.695 64.1738 48.695 64.3584 48.695Z" fill="#CD76BA"/>
<path d="M43.7049 34.7655C44.6157 34.7655 45.5266 34.7626 46.4374 34.7665C47.1618 34.7705 47.5614 35.1534 47.5664 35.8816C47.5762 37.4201 47.5683 38.9585 47.5703 40.497C47.5713 40.9884 47.365 41.3388 46.915 41.5559C46.019 41.9881 45.1269 42.4302 44.2368 42.8762C43.8677 43.0608 43.5154 43.0637 43.1434 42.8762C42.2543 42.4282 41.3612 41.9891 40.4652 41.5559C40.0319 41.3467 39.8119 41.021 39.8129 40.5375C39.8158 38.9743 39.8069 37.4112 39.8168 35.8491C39.8218 35.1474 40.2224 34.7714 40.9359 34.7685C41.8586 34.7616 42.7812 34.7655 43.7049 34.7655ZM40.9635 35.8964C40.9497 35.9596 40.93 36.005 40.93 36.0514C40.928 37.4793 40.9221 38.9072 40.9369 40.3352C40.9378 40.4437 41.0592 40.5957 41.1648 40.65C41.9079 41.0319 42.6658 41.3861 43.4089 41.767C43.621 41.8756 43.7888 41.8608 43.9931 41.7562C44.7046 41.393 45.42 41.0358 46.1424 40.6973C46.3743 40.5888 46.4641 40.4605 46.4611 40.197C46.4463 38.8796 46.4552 37.5632 46.4532 36.2458C46.4532 36.1283 46.4374 36.0109 46.4295 35.8964C44.5842 35.8964 42.7783 35.8964 40.9635 35.8964Z" fill="#CD76BA"/>
<path d="M65.0256 36.2105C65.0256 35.4852 65.0217 34.7599 65.0266 34.0346C65.0315 33.3912 65.3828 33.0142 66.0233 33.0092C67.4492 32.9974 68.8752 32.9974 70.3012 33.0102C70.9179 33.0152 71.286 33.3902 71.291 34.0119C71.3018 35.4872 71.2969 36.9625 71.2929 38.4378C71.2919 38.8552 71.0995 39.1611 70.7216 39.3536C70.0328 39.7049 69.3459 40.0611 68.6591 40.4173C68.3167 40.595 67.9831 40.591 67.6397 40.4094C66.9667 40.0532 66.2907 39.7039 65.6108 39.3624C65.2042 39.1582 65.0157 38.8434 65.0226 38.3874C65.0335 37.6611 65.0256 36.9358 65.0256 36.2105ZM66.1822 34.1441C66.1644 34.1806 66.1457 34.2013 66.1457 34.223C66.1417 35.5513 66.1348 36.8806 66.1447 38.2088C66.1457 38.3006 66.2443 38.4279 66.3322 38.4753C66.871 38.7693 67.4157 39.0545 67.9703 39.32C68.0788 39.3713 68.2575 39.3605 68.369 39.3072C68.9009 39.0526 69.4278 38.7861 69.939 38.493C70.0554 38.4259 70.1689 38.2404 70.1719 38.1062C70.1916 37.1835 70.1827 36.2608 70.1827 35.3382C70.1827 34.9484 70.1827 34.5576 70.1827 34.1441C68.819 34.1441 67.4976 34.1441 66.1822 34.1441Z" fill="#CD76BA"/>
<path d="M60.8313 31.4108C60.5332 31.4177 60.2619 31.1631 60.249 30.8631C60.2352 30.5523 60.5125 30.2681 60.8243 30.272C61.1234 30.276 61.3859 30.5394 61.3878 30.8384C61.3908 31.1365 61.1313 31.4029 60.8313 31.4108Z" fill="#CD76BA"/>
<path d="M60.8081 33.9449C61.117 33.94 61.3765 34.1817 61.3883 34.4877C61.4002 34.7926 61.1574 35.0521 60.8466 35.0659C60.5199 35.0797 60.2476 34.8261 60.2476 34.5074C60.2466 34.2034 60.5002 33.9498 60.8081 33.9449Z" fill="#CD76BA"/>
<path d="M60.7897 33.2338C60.4838 33.2199 60.2361 32.9545 60.248 32.6535C60.2598 32.3535 60.5282 32.0999 60.8282 32.1058C61.143 32.1117 61.4095 32.4009 61.3868 32.7107C61.3651 33.0167 61.0996 33.2486 60.7897 33.2338Z" fill="#CD76BA"/>
<rect x="0.5" y="0.5" width="109" height="109" rx="14.5" stroke="#CD76BA"/>
</svg>
