<svg width="31" height="31" viewBox="0 0 48 40" fill="none" xmlns="http://www.w3.org/2000/svg">
<path d="M6.31455 30.153C5.38378 31.9693 4.49825 33.739 3.57297 35.4881C2.93418 36.6958 2.25152 37.8788 1.5675 39.0617C1.29334 39.536 0.793001 39.6594 0.385875 39.4072C-0.0157668 39.1591 -0.111722 38.7149 0.13502 38.2406C0.181627 38.1502 0.241943 38.0652 0.28992 37.9747C1.91842 34.8973 3.54144 31.8171 5.17954 28.7465C5.39749 28.3394 5.40983 27.9899 5.25356 27.5471C4.07605 24.1955 3.10964 20.7822 2.60245 17.2593C2.21177 14.5465 1.97599 11.8214 2.66687 9.11268C2.97667 7.89953 3.48935 6.78782 4.48043 5.97083C7.17267 3.75014 11.248 5.15521 12.0924 8.59041C12.5599 10.4917 12.3899 12.3944 12.0431 14.2861C11.1877 18.97 9.45915 23.3621 7.50988 27.676C7.34128 28.0488 7.3166 28.36 7.48384 28.7328C8.16375 30.2599 8.82173 31.7966 9.49068 33.3277C9.5551 33.4758 9.64421 33.6142 9.77306 33.8514C10.2994 32.2873 10.7916 30.826 11.2837 29.3648C11.8923 27.5553 12.505 25.7459 13.1055 23.9337C13.2466 23.5087 13.3961 23.1222 13.9238 23.0797C14.4776 23.0358 14.6901 23.4128 14.8971 23.8295C15.7538 25.5567 16.6215 27.2784 17.5386 29.1057C18.0006 28.6273 18.3871 28.1434 18.8546 27.7596C20.2185 26.6383 21.0698 25.2236 21.5728 23.5375C21.9772 22.1846 22.5187 20.8727 23.0122 19.5485C23.0752 19.3799 23.1945 19.2182 23.3233 19.0879C24.4693 17.9351 25.6194 16.7891 26.7736 15.6459C27.2534 15.1702 27.7524 15.1222 28.1156 15.5019C28.4693 15.8707 28.4021 16.3669 27.9224 16.8467C26.9669 17.8021 26.0074 18.7521 25.0944 19.6609C26.0773 20.6534 27.0437 21.6294 27.9703 22.5656C32.6954 17.8419 37.4713 13.0688 42.2101 8.33133C41.2848 7.40879 40.3335 6.45883 39.2643 5.39235C39.2094 5.48283 39.1395 5.67337 39.0093 5.80359C36.8613 7.96122 34.7078 10.112 32.5529 12.2628C32.4199 12.3957 32.2911 12.5397 32.1334 12.637C31.7907 12.8481 31.4398 12.8207 31.1437 12.5451C30.8298 12.2518 30.7859 11.8899 30.997 11.5212C31.0889 11.3622 31.2328 11.2292 31.3644 11.0976C33.6002 8.85909 35.8469 6.63018 38.0717 4.38071C39.3438 3.09491 40.5775 1.77072 41.8373 0.472581C42.4514 -0.159355 42.8064 -0.153871 43.4301 0.467097C44.6775 1.71041 45.9236 2.95646 47.1655 4.20525C47.7029 4.74534 47.7043 5.15658 47.1669 5.69667C46.3595 6.50818 45.5411 7.31009 44.5994 8.24223C44.9887 8.57396 45.3684 8.86183 45.7043 9.19356C46.1909 9.67471 46.1895 10.0887 45.7125 10.5671C43.5878 12.7 41.4576 14.8275 39.326 16.9509C38.8914 17.384 38.4212 17.4128 38.0594 17.0564C37.6865 16.6891 37.7235 16.212 38.1814 15.7528C39.9922 13.9365 41.8071 12.1229 43.6248 10.3121C43.7577 10.1805 43.9168 10.0736 44.1114 9.91734C43.8921 9.72406 43.7399 9.58972 43.5645 9.43345C43.4274 9.5623 43.293 9.68567 43.1628 9.81453C38.4816 14.4944 33.7935 19.1661 29.1314 23.8651C28.6091 24.3915 28.0526 24.7589 27.3617 25.0043C25.6756 25.6047 24.0033 26.2435 22.3323 26.8864C22.0704 26.9864 21.8127 27.1509 21.6126 27.347C20.4269 28.508 19.2617 29.6883 18.0855 30.8576C17.3974 31.543 16.8505 31.4511 16.4118 30.5807C15.7511 29.2702 15.0958 27.957 14.4351 26.6451C14.3625 26.4998 14.2747 26.3614 14.1418 26.127C13.7484 27.2976 13.3865 28.3723 13.0273 29.4484C12.272 31.7116 11.5167 33.9761 10.7655 36.2407C10.6312 36.6478 10.4667 37.0097 9.96497 37.0522C9.47012 37.0947 9.20829 36.8054 9.03146 36.4024C8.17883 34.449 7.32894 32.4957 6.47768 30.5423C6.43244 30.4326 6.3872 30.3229 6.31455 30.153ZM6.41873 25.6705C6.5092 25.5594 6.54759 25.5279 6.56541 25.4882C8.04449 22.0749 9.48245 18.6465 10.2323 14.981C10.6106 13.1346 10.8779 11.2731 10.5654 9.38684C10.1665 6.9811 8.50645 6.25047 6.40639 6.78508C5.26315 7.07569 4.75048 8.04895 4.41463 9.08527C3.91841 10.6192 3.88002 12.2052 3.94308 13.8008C4.0596 16.7357 4.65041 19.5869 5.4345 22.4039C5.73471 23.4772 6.07603 24.5396 6.41873 25.6705ZM40.6406 4.14082C41.5754 5.07433 42.5377 6.03663 43.4863 6.98521C44.1484 6.32586 44.8379 5.64184 45.4671 5.01539C44.5103 4.0572 43.5412 3.08668 42.6186 2.16277C41.9702 2.81115 41.2835 3.49655 40.6406 4.14082ZM24.1403 21.421C23.7195 22.5492 23.2987 23.6773 22.8381 24.9138C24.1006 24.4368 25.2301 24.0105 26.3172 23.6006C25.5824 22.8645 24.8765 22.1585 24.1403 21.421Z" fill="#CD76BA"/>
<path d="M30.3706 14.0092C30.3638 14.4588 30.0087 14.8166 29.5632 14.8221C29.1013 14.8289 28.7257 14.4465 28.7325 13.979C28.7394 13.5376 29.1067 13.1648 29.5413 13.1579C29.9964 13.1511 30.3761 13.5417 30.3706 14.0092Z" fill="#CD76BA"/>
</svg>
