<svg width="31" height="31" viewBox="0 0 71 54" fill="none" xmlns="http://www.w3.org/2000/svg">
<path d="M45.8594 44.6602C45.8788 44.6602 45.8983 44.6601 45.9177 44.6666V44.6602H45.8594ZM63.2034 50.8586C64.3575 50.9429 65.5181 51.0337 66.6787 51.1309V51.1244C65.5181 51.0337 64.3575 50.9429 63.2034 50.8586ZM45.8594 44.6602C45.8788 44.6602 45.8983 44.6601 45.9177 44.6666V44.6602H45.8594Z" fill="#CD76BA"/>
<path d="M69.7257 41.334C69.4793 41.334 69.2394 41.334 68.9995 41.3275V41.334C67.1776 41.321 59.1831 41.308 55.027 41.3145C54.8455 41.3145 54.6186 41.3015 54.4954 41.3988C54.1128 41.697 53.8211 41.5155 53.4839 41.334C52.038 40.5818 50.4949 40.0956 48.8675 40.2188C46.8121 40.3744 44.7697 40.7245 42.7144 40.932C40.8341 41.12 39.4595 41.8462 39.2261 43.9404C37.2551 43.5449 35.3164 43.1883 33.3907 42.7669C31.4456 42.3325 29.5329 42.2287 27.6656 43.0781C26.4402 43.6292 25.8242 44.5823 25.8761 45.8661C25.9215 47.0202 26.706 47.9928 27.9379 48.4013C32.6192 49.9638 37.3069 51.5199 41.9947 53.0825C43.687 53.6466 45.3987 53.7698 47.1363 53.3354C49.1398 52.8426 51.1433 52.3563 53.1467 51.8441C53.5293 51.7469 53.8016 51.695 54.0999 52.084C54.2749 52.3174 54.6964 52.4406 55.0141 52.4666C57.627 52.6935 60.24 52.901 62.8529 53.1085C63.9357 53.1928 65.0185 53.2835 66.1013 53.3678C66.3412 53.3873 66.5876 53.4067 66.8275 53.4262C67.2943 53.4586 67.7611 53.491 68.2409 53.5169C68.8569 53.5558 69.3821 53.0955 69.4275 52.486C69.4275 52.473 69.4339 52.4666 69.4339 52.4601C69.4793 51.8441 69.0125 51.306 68.3965 51.2606C67.8195 51.2152 67.2489 51.1698 66.6783 51.1309C65.5178 51.0336 64.3572 50.9429 63.2031 50.8586C60.8105 50.6706 58.4375 50.4825 56.0709 50.301V43.5125H67.0674C67.4953 43.519 67.9232 43.519 68.3512 43.5255C68.805 43.532 69.2589 43.532 69.7257 43.5255C70.3157 43.519 70.7955 43.0392 70.802 42.4492V42.4232C70.802 41.8267 70.3222 41.3404 69.7257 41.334ZM53.7886 49.3803C51.1498 50.0157 48.5887 50.6381 46.0146 51.2411C44.9383 51.494 43.8879 51.3189 42.857 50.9753C38.1758 49.4257 33.488 47.8761 28.8132 46.3005C28.5409 46.2097 28.3464 45.9115 28.1194 45.7105C28.3269 45.4965 28.502 45.1918 28.7613 45.0816C29.8376 44.6147 30.9593 44.5758 32.107 44.8092C34.9015 45.3733 37.7349 45.8013 40.484 46.5339C41.9752 46.9294 43.4471 46.8192 44.9448 46.8581V46.8516H45.859C46.4685 46.8516 46.9548 46.3653 46.9548 45.7559C46.9548 45.1723 46.5009 44.6925 45.9174 44.6666C45.8979 44.6601 45.8785 44.6601 45.859 44.6601H42.9348C42.7274 44.6601 42.481 44.7314 42.3189 44.6407C42.0271 44.485 41.7872 44.2322 41.5214 44.0182C41.7548 43.7783 41.9558 43.3763 42.2281 43.318C43.272 43.0975 44.3353 42.9873 45.3922 42.8447C46.2221 42.728 47.052 42.6242 47.8755 42.514C49.9373 42.2287 51.7852 42.7928 53.4709 43.9534C53.6265 44.0636 53.7757 44.31 53.7757 44.498C53.8016 46.0995 53.7886 47.701 53.7886 49.3803Z" fill="#CD76BA"/>
<path d="M45.9226 27.9126C45.9226 28.5091 45.4428 28.9889 44.8528 28.9889H38.1421C37.5521 28.9889 37.0723 28.5091 37.0723 27.9126C37.0723 27.3226 37.5521 26.8428 38.1421 26.8428H44.8528C45.4428 26.8428 45.9226 27.3226 45.9226 27.9126Z" fill="#CD76BA"/>
<path d="M49.0291 0H9.38745C8.37598 0 8.00641 0.369574 8.00641 1.38752V10.4064C5.86029 9.01891 3.79845 7.68974 1.73013 6.35408C1.21791 6.02341 0.53064 6.16605 0.193484 6.67827C0.187001 6.68475 0.186998 6.69124 0.180514 6.69772C-0.156641 7.21642 -0.00751359 7.9037 0.511187 8.24086C6.23634 11.9496 11.9161 15.6259 17.6218 19.3216C16.1046 21.753 14.6263 24.1131 13.1351 26.4926C9.29019 24.8976 5.48423 23.3156 1.64584 21.7141C1.08176 21.4807 0.426898 21.7465 0.186999 22.3106C0.180515 22.3171 0.180518 22.3301 0.174034 22.3365C-0.0593815 22.9006 0.206448 23.5555 0.777018 23.7889C2.9815 24.7096 5.14059 25.6238 7.32562 26.4926C7.87025 26.7131 8.02586 26.9919 8.01937 27.5625C7.99344 30.5839 8.00641 33.6053 8.00641 36.6332C8.0129 37.5539 8.39543 37.943 9.31612 37.9494C10.95 37.9494 12.5775 37.9624 14.2049 37.9429C14.542 37.9365 14.8468 38.0986 15.0478 38.3709C15.5859 39.11 16.1695 39.8103 16.7724 40.4846C17.3365 41.1005 18.1016 41.4571 18.9056 41.2626C19.6577 41.0876 20.3515 40.6661 21.1555 40.3095C21.6871 40.9579 22.5106 41.4182 23.5739 41.2821C24.6632 41.1459 25.344 40.4586 25.7784 39.499C27.3669 40.5429 28.3719 40.4392 29.7529 39.1619C29.9021 39.0257 30.1809 38.9544 30.3819 38.9933C31.322 39.1813 32.1195 38.9674 32.8651 38.3644C33.1374 38.1439 33.533 37.9624 33.8766 37.9624C38.921 37.9365 43.9718 37.9429 49.0227 37.9429C50.0795 37.9429 50.4361 37.5798 50.4361 36.5165V1.41994C50.4361 0.363092 50.0795 0 49.0291 0ZM10.2757 35.6931V27.757C10.9371 28.0358 11.579 28.2822 12.2014 28.5739C12.3311 28.6323 12.4672 28.8398 12.4608 28.9759C12.3829 31.2712 12.6682 33.5016 13.5565 35.6931H10.2757ZM25.9081 2.28228H32.5215V11.1326H25.9081V2.28228ZM31.2053 36.737C30.9913 36.6462 30.7125 36.6138 30.5764 36.4582C29.2537 34.9021 27.9504 33.3265 26.6342 31.751C26.3101 31.3619 25.9794 30.9729 25.6163 30.5385C25.0457 31.0118 24.4946 31.4657 23.8851 31.9714C24.6113 32.8467 25.331 33.6896 26.0248 34.5519C26.6472 35.33 27.2761 36.108 27.8402 36.9315C27.9829 37.139 27.9051 37.4956 27.931 37.7873C27.6522 37.7225 27.2826 37.7419 27.1076 37.5734C25.6357 36.1469 24.1964 34.6946 22.757 33.2357C22.5819 33.0607 22.4717 32.8143 22.3225 32.5809C21.6742 33.2422 21.1814 33.735 20.6238 34.3056C21.1684 34.8437 21.7909 35.343 22.2447 35.9654C22.7699 36.6786 23.1654 37.4956 23.5609 38.2995C23.6387 38.4552 23.4637 38.7404 23.4053 38.9674C23.1914 38.8766 22.9126 38.8442 22.7829 38.6886C21.4991 37.126 20.2413 35.544 18.9315 33.91C18.361 34.3574 17.8034 34.7983 17.168 35.2911C17.6931 35.9589 18.2313 36.5878 18.7046 37.2622C18.9186 37.5669 19.0547 37.9559 19.1261 38.332C19.1585 38.5265 19.0158 38.8701 18.8537 38.9479C18.7111 39.0192 18.3675 38.8896 18.2183 38.7405C16.6882 37.1844 15.5729 35.3494 15.1515 33.2163C14.8403 31.6796 14.8273 30.0846 14.7171 28.5156C14.6976 28.3146 14.8273 28.0747 14.944 27.8866C16.4158 25.5136 17.9006 23.16 19.3595 20.7869C19.5734 20.4433 19.7874 20.3071 20.1959 20.3525C22.2253 20.5665 24.2612 20.7999 26.2971 20.9425C28.3395 21.0852 30.3883 21.1176 32.4307 21.2084C32.703 21.2213 33.0272 21.2149 33.2282 21.3575C33.4422 21.5066 33.7015 21.8762 33.6497 22.0577C33.5524 22.3625 33.2606 22.7645 32.9883 22.8293C31.8407 23.0951 30.6671 23.2897 29.5001 23.4258C28.7415 23.5101 27.9634 23.4388 27.1983 23.4453C26.0377 23.4582 25.5644 24.2233 26.0831 25.2672C27.717 28.5545 29.3639 31.8288 31.0043 35.1095C31.1469 35.4013 31.3155 35.6996 31.3609 36.0108C31.3998 36.2377 31.2636 36.4971 31.2053 36.737ZM48.1603 35.6866H33.6886C33.3968 34.9734 33.105 34.2796 32.7808 33.5016H38.0521C38.0716 33.5081 38.0846 33.5081 38.104 33.5081H44.8925C45.489 33.5081 45.9753 33.0023 45.9753 32.3864C45.9753 31.7639 45.489 31.2582 44.8925 31.2582H38.104C36.308 31.2582 35.1669 31.2582 32.2168 31.2712C31.7564 31.2776 31.5165 31.1415 31.3155 30.7265C30.5245 29.0732 29.6946 27.4393 28.8647 25.7859C30.0058 25.6497 31.1015 25.546 32.1843 25.3839C32.7549 25.2931 33.319 25.131 33.8636 24.943C35.303 24.4373 36.1329 23.0238 35.8995 21.5261C35.6791 20.0737 34.3953 19.0623 32.8522 18.9715C28.7026 18.7121 24.5594 18.4139 20.4098 18.1026C20.0403 18.0767 19.6383 17.9146 19.3206 17.7136C16.4418 15.8722 13.576 14.0179 10.7231 12.1441C10.5027 12.0079 10.2563 11.7097 10.2563 11.4763C10.2239 8.43538 10.2368 5.388 10.2368 2.28228H23.6387V12.0014C23.6452 13.0194 24.0083 13.389 25.0198 13.389C27.8337 13.3954 30.6477 13.3954 33.4616 13.389C34.4212 13.389 34.7973 13.0064 34.8038 12.0339V2.25635H48.1603V35.6866Z" fill="#CD76BA"/>
</svg>
