<svg width="20" height="31" viewBox="0 0 45 49" fill="none" xmlns="http://www.w3.org/2000/svg">
<path d="M9.24792 48.9448C8.26889 48.6976 7.55066 48.075 6.85974 47.3718C4.91806 45.3946 2.93951 43.4529 0.991 41.4826C0.074777 40.5568 -0.220169 39.4385 0.164891 38.1877C0.540392 36.9684 1.402 36.2365 2.64047 35.9948C3.81749 35.7654 4.84432 36.1163 5.69363 36.9629C6.79965 38.0648 7.90294 39.1695 9.00077 40.2782C9.12093 40.3998 9.20423 40.5581 9.33258 40.7384C10.7008 38.839 11.9857 37.0585 13.2692 35.2766C14.9446 32.9512 16.6187 30.6258 18.2941 28.3018C18.3774 28.1857 18.4566 28.0628 18.559 27.9645C18.8621 27.6723 19.2786 27.6477 19.6049 27.8908C19.934 28.1352 20.0419 28.538 19.8412 28.9094C19.7142 29.1456 19.5421 29.36 19.3837 29.5785C16.3797 33.7513 13.3743 37.9242 10.369 42.097C9.77635 42.9204 9.37218 42.9504 8.64849 42.2254C7.27483 40.8517 5.89573 39.4822 4.52617 38.1044C4.03188 37.6074 3.44882 37.4244 2.78248 37.6197C1.60955 37.9638 1.25726 39.4016 2.12569 40.3137C2.8289 41.0511 3.56352 41.7598 4.28449 42.4807C5.68135 43.8776 7.07684 45.2744 8.47507 46.6699C9.42133 47.6148 10.4727 47.5315 11.2565 46.4433C16.0684 39.7648 20.8652 33.0768 25.6976 26.4147C26.5469 25.2432 25.9611 23.8572 24.7677 23.6606C24.1096 23.5514 23.577 23.7889 23.1783 24.3147C22.8329 24.7721 22.5093 25.2459 22.1665 25.7047C21.8443 26.1362 21.3841 26.2359 21.0032 25.975C20.5935 25.6965 20.5239 25.224 20.8434 24.7612C21.1602 24.3024 21.4893 23.8531 21.8197 23.4039C22.9435 21.8787 24.9289 21.5469 26.4227 22.631C27.8823 23.6906 28.1937 25.6883 27.1095 27.2149C25.6799 29.2262 24.2311 31.2239 22.7892 33.2256C19.4861 37.8122 16.1722 42.3892 12.891 46.9908C12.2192 47.933 11.4641 48.6908 10.3007 48.9462C9.94976 48.9448 9.59885 48.9448 9.24792 48.9448Z" fill="#CD76BA"/>
<path d="M33.4465 45.6865C33.4465 43.7722 33.4355 41.9261 33.4492 40.08C33.4615 38.4919 34.1401 37.2617 35.5097 36.4356C36.1979 36.0205 36.9598 35.888 37.7545 35.8894C39.3958 35.8921 41.0357 35.8894 42.677 35.8894C42.8476 35.8894 43.0197 35.8894 43.2491 35.8894C43.2491 35.66 43.2491 35.4893 43.2491 35.3186C43.2491 25.0121 43.2504 14.7056 43.2477 4.3978C43.2477 2.60222 42.266 1.62865 40.4663 1.62865C29.8089 1.62865 19.1515 1.62865 8.49406 1.62865C6.69165 1.62865 5.71535 2.60086 5.71535 4.39644C5.71535 13.6515 5.71535 22.908 5.71535 32.163C5.71535 32.3228 5.72218 32.4826 5.71125 32.6409C5.67848 33.1011 5.34669 33.4343 4.92203 33.4452C4.48508 33.4575 4.12732 33.1079 4.09045 32.6314C4.08226 32.5208 4.08772 32.4088 4.08772 32.2969C4.08772 22.9776 4.08635 13.6583 4.08772 4.33909C4.08772 1.72423 5.8123 0.00102409 8.42715 0.00102409C19.1323 -0.000341365 29.8375 -0.000341365 40.5427 0.00102409C43.1508 0.00102409 44.8794 1.72833 44.8808 4.34864C44.8849 15.0224 44.8808 25.6949 44.8876 36.3687C44.8876 36.8302 44.7511 37.1838 44.4193 37.5129C41.291 40.6248 38.1723 43.7462 35.0577 46.8718C34.7573 47.1735 34.4391 47.3237 34.0049 47.3224C28.7479 47.3128 23.4909 47.3169 18.2339 47.3142C18.0605 47.3142 17.8775 47.3155 17.715 47.2636C17.3163 47.1367 17.1238 46.8404 17.1593 46.4239C17.1948 46.0033 17.446 45.7603 17.857 45.6988C18.0291 45.6729 18.2066 45.6879 18.3813 45.6879C23.1919 45.6879 28.0037 45.6879 32.8142 45.6879C33.0027 45.6865 33.1925 45.6865 33.4465 45.6865ZM41.9314 37.5279C40.4868 37.5279 39.0407 37.5115 37.5947 37.532C36.0982 37.5539 35.0946 38.5766 35.0795 40.0759C35.0672 41.3335 35.0768 42.5897 35.0768 43.8473C35.0768 44.0302 35.0768 44.2132 35.0768 44.3839C37.3681 42.094 39.632 39.8287 41.9314 37.5279Z" fill="#CD76BA"/>
<path d="M26.9406 6.51799C23.0081 6.51799 19.0742 6.51799 15.1417 6.51799C14.9819 6.51799 14.8222 6.52345 14.6638 6.51117C14.2214 6.47703 13.9114 6.17117 13.8882 5.75334C13.8636 5.34097 14.1449 4.98868 14.5764 4.90812C14.7007 4.8849 14.8304 4.889 14.9574 4.889C22.9357 4.88763 30.9128 4.88763 38.8911 4.89173C39.0946 4.89173 39.3117 4.90675 39.4974 4.98185C39.8674 5.13069 40.0122 5.44065 39.9603 5.83117C39.9098 6.20667 39.6817 6.43333 39.3144 6.49888C39.1437 6.53028 38.9649 6.51799 38.7901 6.51799C34.8384 6.51799 30.8895 6.51799 26.9406 6.51799Z" fill="#CD76BA"/>
<path d="M24.0682 11.4179C21.0901 11.4179 18.1134 11.4179 15.1354 11.4165C14.9442 11.4165 14.7517 11.4206 14.5633 11.3919C14.1441 11.3264 13.9106 11.0533 13.8901 10.645C13.8696 10.2367 14.073 9.93906 14.484 9.83392C14.6506 9.79159 14.8309 9.78613 15.0043 9.78476C21.0546 9.78203 27.1064 9.78203 33.1567 9.78476C33.3301 9.78476 33.509 9.79296 33.6756 9.83665C34.0661 9.93769 34.2668 10.2272 34.26 10.6095C34.2532 11.0123 34.0374 11.3059 33.6182 11.3851C33.4325 11.4206 33.2386 11.4165 33.0475 11.4165C30.0557 11.4179 27.0613 11.4179 24.0682 11.4179Z" fill="#CD76BA"/>
<path d="M21.2146 14.6908C23.2683 14.6908 25.3233 14.6908 27.377 14.6922C27.5517 14.6922 27.7306 14.6867 27.9013 14.7168C28.2973 14.7864 28.5171 15.05 28.5499 15.4364C28.584 15.8269 28.3969 16.1232 28.0228 16.2488C27.833 16.313 27.6159 16.3212 27.4125 16.3212C23.2888 16.3253 19.1651 16.3239 15.04 16.3226C14.8666 16.3226 14.6877 16.3198 14.5184 16.2816C14.1074 16.1874 13.8575 15.8446 13.8848 15.4459C13.9122 15.0459 14.2044 14.7455 14.6236 14.7031C14.8284 14.6826 15.0373 14.6908 15.2435 14.6895C17.233 14.6895 19.2238 14.6908 21.2146 14.6908Z" fill="#CD76BA"/>
<path d="M41.6151 22.8527C41.6151 24.6346 41.6165 26.4165 41.6137 28.1985C41.6137 28.3883 41.6137 28.5849 41.566 28.7665C41.4635 29.1488 41.1959 29.3523 40.7972 29.3536C40.3998 29.3536 40.1322 29.1502 40.0271 28.7692C39.982 28.604 39.9807 28.4224 39.9807 28.249C39.9779 24.6373 39.9807 21.0257 39.9766 17.4141C39.9766 16.9771 40.0325 16.5743 40.4927 16.3831C41.0512 16.151 41.5946 16.547 41.6096 17.2215C41.6301 18.176 41.6165 19.1304 41.6165 20.0849C41.6151 21.008 41.6151 21.9296 41.6151 22.8527Z" fill="#CD76BA"/>
<path d="M41.5929 32.6136C41.5929 32.9318 41.623 33.2527 41.5861 33.5654C41.5356 33.9886 41.212 34.2454 40.801 34.2454C40.3886 34.2454 40.0418 33.99 40.0158 33.5681C39.9776 32.9359 39.979 32.2968 40.0213 31.6646C40.05 31.2441 40.3722 31.0352 40.775 31.001C41.1614 30.9669 41.5219 31.2564 41.582 31.6619C41.6284 31.9746 41.6175 32.2955 41.6312 32.6123C41.6175 32.6136 41.6052 32.6136 41.5929 32.6136Z" fill="#CD76BA"/>
<path d="M10.6307 6.51417C10.344 6.51417 10.0572 6.52783 9.77183 6.51008C9.32942 6.48413 9.01401 6.17554 8.98261 5.76317C8.95257 5.36582 9.24204 4.94799 9.66397 4.91795C10.2962 4.87426 10.9366 4.87289 11.5688 4.92068C12.0016 4.95346 12.257 5.34671 12.2269 5.77273C12.1983 6.19466 11.8992 6.48413 11.4404 6.51008C11.1728 6.52646 10.9011 6.51417 10.6307 6.51417Z" fill="#CD76BA"/>
<path d="M10.627 16.3139C10.3403 16.3139 10.0522 16.3358 9.76952 16.3085C9.3039 16.2648 8.98574 15.9207 8.98438 15.4987C8.98301 15.0536 9.31755 14.7122 9.81594 14.6959C10.3567 14.6781 10.8974 14.6781 11.4381 14.6986C11.9215 14.7177 12.2232 15.0304 12.2342 15.4742C12.2451 15.9179 11.9597 16.2538 11.4859 16.3044C11.2032 16.3344 10.9138 16.3098 10.6284 16.3098C10.627 16.3126 10.627 16.3139 10.627 16.3139Z" fill="#CD76BA"/>
<path d="M10.6524 11.3999C10.3342 11.3999 10.0147 11.4245 9.6993 11.3945C9.28283 11.3549 8.99745 11.0285 8.98107 10.6326C8.96605 10.2448 9.23504 9.85425 9.64331 9.82694C10.2905 9.78188 10.946 9.78051 11.5918 9.82967C12.0069 9.86107 12.2459 10.2325 12.2281 10.6476C12.2104 11.0531 11.9373 11.3562 11.5099 11.3986C11.2259 11.4259 10.9378 11.404 10.6524 11.404C10.6524 11.4013 10.6524 11.4013 10.6524 11.3999Z" fill="#CD76BA"/>
</svg>
