<svg width="31" height="31" viewBox="0 0 51 51" fill="none" xmlns="http://www.w3.org/2000/svg">
<path d="M34.5188 50.6503C33.3745 50.4278 32.2166 50.2612 31.0901 49.9676C29.3505 49.5156 27.7953 48.6622 26.3411 47.6081C26.0857 47.4224 25.7225 47.2927 25.4098 47.2927C17.9107 47.2749 10.413 47.279 2.91388 47.279C0.984491 47.279 0 46.2904 0 44.3542C0 30.544 0 16.7323 0 2.92209C0 0.988599 0.9804 0.00956479 2.91935 0.00956479C11.2746 0.00956479 19.6312 0.0150264 27.9864 6.35834e-06C28.7142 -0.0013591 29.2782 0.217114 29.7875 0.73872C31.4124 2.39912 33.0564 4.04313 34.7168 5.66803C35.2247 6.16505 35.4528 6.70987 35.45 7.42127C35.4323 11.4917 35.4419 15.5621 35.4419 19.6339C35.4419 19.8278 35.4419 20.0217 35.4419 20.1883C36.4905 20.3235 37.4928 20.3918 38.4691 20.587C44.9987 21.8965 49.8802 27.2955 50.552 33.9071C50.5629 34.0177 50.6107 34.1242 50.6408 34.2321C50.6408 35.0227 50.6408 35.8146 50.6408 36.6052C50.6121 36.7322 50.5684 36.8578 50.5547 36.9862C49.9007 43.3547 45.3715 48.6076 39.16 50.1601C38.2547 50.3868 37.3193 50.4892 36.399 50.6503C35.7709 50.6503 35.1455 50.6503 34.5188 50.6503ZM27.8595 1.71366C27.6601 1.70546 27.5454 1.69591 27.4307 1.69591C19.2052 1.69454 10.9797 1.69454 2.75414 1.69591C1.97856 1.69591 1.68634 1.99494 1.68634 2.78008C1.68497 16.6764 1.68497 30.5713 1.68634 44.4675C1.68634 45.3087 1.97173 45.5927 2.81968 45.5927C9.75894 45.594 16.6982 45.594 23.6388 45.5927C23.7754 45.5927 23.9119 45.5736 24.073 45.5599C20.2839 40.8559 19.1342 35.6644 21.2943 30.0237C23.4613 24.3666 27.8021 21.2711 33.7255 20.3221C33.7255 16.0892 33.7255 11.8768 33.7255 7.61244C32.7956 7.61244 31.8889 7.55782 30.9918 7.62336C29.1839 7.75718 27.6915 6.72626 27.8499 4.46096C27.9113 3.56385 27.8595 2.65719 27.8595 1.71366ZM21.9511 35.4473C21.9511 42.9014 27.9823 48.9572 35.4118 48.9654C42.8891 48.9722 48.9572 42.9014 48.9544 35.4159C48.9517 28.0151 42.8959 21.9661 35.4814 21.9607C27.9974 21.9539 21.9511 27.981 21.9511 35.4473ZM32.3696 5.91517C31.426 4.97301 30.4839 4.03221 29.5581 3.10779C29.5581 3.74546 29.5403 4.44731 29.5649 5.14642C29.5813 5.60795 29.8899 5.88104 30.3255 5.90425C31.0219 5.94385 31.7237 5.91517 32.3696 5.91517Z" fill="#CD76BA"/>
<path d="M17.7224 10.9835C15.7452 10.9835 13.7694 10.9958 11.7922 10.9781C10.6015 10.9671 9.64573 10.1806 9.35761 9.03501C9.09135 7.97405 9.55287 6.81477 10.5305 6.2877C10.9074 6.08562 11.3689 5.94497 11.7922 5.94224C15.7452 5.9163 19.6996 5.9163 23.6526 5.93269C25.0713 5.93815 26.1596 7.06055 26.1596 8.44923C26.1596 9.83653 25.0686 10.9617 23.6526 10.9767C21.6754 10.9999 19.6996 10.9835 17.7224 10.9835ZM17.7101 7.61356C17.1011 7.61356 16.4921 7.61356 15.8831 7.61356C14.5327 7.61356 13.1823 7.60674 11.8332 7.61903C11.3362 7.62312 11.0057 7.94947 10.9798 8.3987C10.9525 8.86159 11.287 9.23846 11.7827 9.29171C11.9288 9.3081 12.079 9.29854 12.2264 9.29854C15.7998 9.29854 19.3719 9.29854 22.9453 9.29854C23.1924 9.29854 23.4409 9.31493 23.6854 9.28762C24.2411 9.22617 24.5757 8.75236 24.4323 8.23075C24.3026 7.75967 23.9516 7.6081 23.4901 7.60947C21.5634 7.61766 19.6368 7.61356 17.7101 7.61356Z" fill="#CD76BA"/>
<path d="M17.7155 16.0407C13.9263 16.0407 10.1372 16.0407 6.34938 16.0407C6.18416 16.0407 6.01894 16.0489 5.85509 16.0339C5.41131 15.9943 5.08086 15.6543 5.06311 15.231C5.04673 14.8159 5.36078 14.4363 5.795 14.3694C5.95612 14.3448 6.12409 14.3544 6.28794 14.3544C13.9154 14.3544 21.5428 14.3544 29.1689 14.3544C29.3492 14.3544 29.5349 14.3448 29.7096 14.3803C30.1234 14.465 30.3883 14.8282 30.3678 15.2433C30.3473 15.6611 30.0524 15.9793 29.6236 16.0284C29.4611 16.0462 29.2945 16.038 29.1293 16.038C25.3265 16.0421 21.521 16.0407 17.7155 16.0407Z" fill="#CD76BA"/>
<path d="M16.4683 18.5869C19.8806 18.5869 23.2915 18.5855 26.7037 18.591C26.9304 18.591 27.2213 18.5691 27.366 18.6934C27.5804 18.8777 27.8275 19.1918 27.8111 19.4334C27.792 19.6983 27.5271 19.9878 27.2977 20.1817C27.1626 20.2964 26.8895 20.2705 26.6792 20.2705C19.8724 20.2746 13.0655 20.2732 6.25874 20.2732C6.16042 20.2732 6.06076 20.2773 5.96244 20.2705C5.42582 20.2363 5.05577 19.88 5.06259 19.4102C5.06942 18.9337 5.43536 18.5937 5.98564 18.5896C7.5013 18.5814 9.01834 18.5855 10.534 18.5855C12.5139 18.5869 14.4911 18.5869 16.4683 18.5869Z" fill="#CD76BA"/>
<path d="M11.867 31.247C13.7445 31.247 15.622 31.2456 17.4995 31.2484C18.17 31.2497 18.5618 31.5597 18.5646 32.0772C18.5673 32.5974 18.1672 32.932 17.5118 32.932C13.7076 32.9347 9.90346 32.9347 6.09929 32.932C5.45206 32.932 5.04789 32.5838 5.05881 32.0649C5.06973 31.5597 5.45206 31.2497 6.08564 31.2484C8.01366 31.2443 9.94034 31.247 11.867 31.247Z" fill="#CD76BA"/>
<path d="M10.9637 37.1432C9.40029 37.1432 7.83683 37.1446 6.27338 37.1419C6.09314 37.1419 5.90881 37.1446 5.73266 37.1091C5.30254 37.0231 5.07588 36.7254 5.07042 36.3062C5.06496 35.9088 5.27386 35.6112 5.67531 35.5074C5.86374 35.4596 6.06583 35.4528 6.26109 35.4528C9.40438 35.45 12.5477 35.45 15.6896 35.45C15.7551 35.45 15.8207 35.4487 15.8876 35.4514C16.5061 35.4746 16.8885 35.8105 16.8762 36.3185C16.8639 36.81 16.4979 37.135 15.8999 37.1378C14.2558 37.1487 12.6091 37.1419 10.9637 37.1432Z" fill="#CD76BA"/>
<path d="M10.5425 41.3612C9.06234 41.3612 7.58081 41.3639 6.10066 41.3598C5.44933 41.3585 5.04789 41.0239 5.05881 40.5064C5.06973 40.0053 5.46435 39.6776 6.08291 39.6776C9.06097 39.6749 12.039 39.6749 15.0157 39.6776C15.6452 39.679 16.018 39.9971 16.0235 40.5132C16.0289 41.0362 15.663 41.3585 15.0349 41.3598C13.537 41.3639 12.039 41.3612 10.5425 41.3612Z" fill="#CD76BA"/>
<path d="M10.5312 24.4814C9.01418 24.4814 7.49853 24.4896 5.9815 24.4773C5.42303 24.4732 5.06663 24.1264 5.06253 23.6498C5.05844 23.176 5.41755 22.836 5.96647 22.7964C6.06478 22.7896 6.16447 22.7937 6.26278 22.7937C6.75707 22.7937 7.25137 22.7937 7.74566 22.7937C10.0861 22.7937 12.4265 22.7937 14.7669 22.7951C14.9471 22.7951 15.1314 22.7923 15.3089 22.8224C15.7664 22.9002 16.0436 23.247 16.0231 23.6853C16.004 24.1045 15.7172 24.409 15.2748 24.4664C15.1123 24.4869 14.9457 24.4841 14.7819 24.4841C13.3645 24.4855 11.9472 24.4855 10.5298 24.4855C10.5312 24.4828 10.5312 24.4814 10.5312 24.4814Z" fill="#CD76BA"/>
<path d="M15.6449 27.0158C16.8315 27.0158 18.0181 27.0131 19.2033 27.0172C19.856 27.0185 20.2615 27.349 20.2601 27.8651C20.2588 28.3826 19.8601 28.7008 19.1965 28.7008C16.8069 28.7021 14.4187 28.7035 12.0291 28.7008C11.3573 28.7008 10.9778 28.3922 10.9805 27.8596C10.9818 27.3326 11.3683 27.0185 12.036 27.0172C13.2403 27.0131 14.4433 27.0158 15.6449 27.0158Z" fill="#CD76BA"/>
<path d="M20.6715 24.4829C20.0133 24.4829 19.3566 24.4924 18.6984 24.4801C18.1031 24.4692 17.7358 24.1483 17.7248 23.6581C17.7139 23.1543 18.099 22.802 18.7148 22.7965C20.0297 22.7856 21.3447 22.7856 22.6596 22.7965C23.2522 22.802 23.6195 23.1338 23.6304 23.6254C23.6414 24.1347 23.2645 24.4706 22.6419 24.4801C21.9864 24.4911 21.3283 24.4829 20.6715 24.4829Z" fill="#CD76BA"/>
<path d="M7.17549 28.6992C6.76585 28.6992 6.35485 28.7088 5.94521 28.6965C5.43589 28.6815 5.0795 28.3456 5.06311 27.8881C5.04536 27.4198 5.41541 27.0306 5.93974 27.0211C6.75902 27.0047 7.58103 27.0047 8.4003 27.0211C8.926 27.0306 9.29604 27.413 9.28238 27.8827C9.27009 28.3387 8.91234 28.6801 8.40575 28.6965C7.99611 28.7102 7.58649 28.6992 7.17549 28.6992Z" fill="#CD76BA"/>
<path d="M35.4709 39.0058C34.369 40.1118 33.3272 41.1646 32.2744 42.2078C31.5056 42.9697 30.5949 43.2319 29.5558 42.8837C27.8135 42.2993 27.285 40.1309 28.5685 38.7778C29.5093 37.7851 30.4952 36.8361 31.4661 35.8707C31.5944 35.7437 31.7473 35.6413 31.9344 35.4925C30.8216 34.3864 29.7756 33.3405 28.7215 32.3C28.2873 31.8713 27.9705 31.3838 27.8899 30.768C27.7465 29.6538 28.2504 28.6693 29.2117 28.1722C30.1975 27.6643 31.3527 27.82 32.1816 28.6215C33.1538 29.5609 34.1 30.5263 35.049 31.4876C35.1746 31.6146 35.2579 31.7852 35.3795 31.9641C36.5278 30.8117 37.571 29.7589 38.621 28.7116C39.4048 27.9306 40.3361 27.6793 41.3861 28.0466C43.082 28.6392 43.605 30.7612 42.3665 32.0925C41.423 33.1056 40.4194 34.0601 39.439 35.0378C39.312 35.1648 39.1631 35.2699 38.9843 35.4187C39.8472 36.279 40.6488 37.0778 41.4503 37.8779C41.7643 38.192 42.0907 38.4978 42.3856 38.8296C43.3019 39.8565 43.265 41.3667 42.3133 42.3184C41.3479 43.2851 39.8022 43.3275 38.7931 42.3553C37.6802 41.2834 36.6111 40.161 35.4709 39.0058ZM34.0099 35.4447C33.8242 35.7273 33.7013 36.0004 33.506 36.2011C32.3632 37.3659 31.2039 38.5142 30.0501 39.668C29.9682 39.75 29.8835 39.8278 29.807 39.9138C29.4698 40.2975 29.4657 40.7891 29.7961 41.11C30.1347 41.4404 30.6031 41.4349 30.9936 41.0908C31.1042 40.9925 31.2066 40.8847 31.3118 40.7795C32.4546 39.638 33.5934 38.4924 34.7418 37.3563C35.2416 36.8607 35.6485 36.862 36.155 37.3522C36.6166 37.7987 37.0658 38.2603 37.5205 38.7149C38.3015 39.496 39.0744 40.2852 39.8664 41.054C40.3784 41.551 41.1021 41.4076 41.311 40.7891C41.4448 40.3931 41.2714 40.0913 40.997 39.8169C39.8295 38.6535 38.6661 37.4847 37.5027 36.3186C36.7982 35.6126 36.7995 35.2972 37.5068 34.5885C38.6948 33.3992 39.8868 32.214 41.0693 31.0179C41.4421 30.641 41.453 30.1713 41.1321 29.8285C40.8031 29.4776 40.2951 29.4776 39.8964 29.8299C39.7981 29.9173 39.7093 30.0156 39.6151 30.1085C38.5077 31.2159 37.4003 32.3232 36.293 33.4293C35.6362 34.0847 35.2811 34.0874 34.6366 33.4443C33.5047 32.315 32.3741 31.1844 31.2421 30.0552C31.1261 29.9391 31.0114 29.8163 30.8789 29.722C30.5375 29.4776 30.0869 29.5213 29.7975 29.8135C29.5066 30.1071 29.4738 30.5536 29.7319 30.8936C29.8302 31.0247 29.9531 31.138 30.0692 31.2541C31.2094 32.3983 32.355 33.5371 33.4869 34.6896C33.6781 34.8944 33.8119 35.1607 34.0099 35.4447Z" fill="#CD76BA"/>
</svg>
