<svg width="31" height="31" viewBox="0 0 48 52" fill="none" xmlns="http://www.w3.org/2000/svg">
<path d="M47.4128 32.9144C47.4142 31.0424 47.4156 29.1703 47.4156 27.2983C47.4156 26.9924 47.4156 26.6852 47.4169 26.3793C47.4183 25.6925 47.4197 24.9811 47.4142 24.282C47.4005 22.7854 46.3915 21.7723 44.9017 21.7613C44.4552 21.7572 44.0074 21.7586 43.5609 21.76L37.4081 21.7613V18.969C37.4095 15.7711 37.4095 12.4653 37.3972 9.21278C37.3958 8.94788 37.318 8.56009 37.1022 8.34161C35.988 7.21511 34.8492 6.07768 33.7473 4.97712C32.36 3.59255 30.9263 2.16018 29.5294 0.737374C29.0133 0.210307 28.4985 -0.00270502 27.7475 2.59015e-05C22.7854 0.0191423 17.74 0.0191425 12.8613 0.020508C10.4471 0.020508 8.03299 0.0205081 5.62023 0.023239C5.14368 0.023239 4.59204 0.0341625 4.06907 0.144765C1.60305 0.670466 0.00819409 2.67086 0.00546317 5.24066C-0.00272958 16.5944 -1.33323e-06 28.1367 0.00272958 39.2993L0.00409638 42.6064C0.00409638 42.8686 0.0122905 43.2113 0.0737361 43.5459C0.543454 46.0843 2.61758 47.7924 5.2338 47.7952C9.90094 47.8006 14.6459 47.7993 19.2352 47.7993L25.2733 47.7979C25.2746 47.8839 25.276 47.9659 25.2774 48.0451C25.2828 48.2867 25.2869 48.4957 25.2692 48.7032C25.2023 49.4556 25.4248 50.1506 25.8987 50.664C26.4025 51.2088 27.1481 51.5092 28.0028 51.5092C28.0151 51.5092 28.026 51.5092 28.0383 51.5092C33.5343 51.456 39.1218 51.456 44.6437 51.5092C45.4602 51.5147 46.1593 51.258 46.6577 50.7609C47.1616 50.2585 47.4374 49.5334 47.4319 48.7169C47.4046 43.4489 47.4087 38.0936 47.4128 32.9144ZM45.9736 39.8728C45.9736 42.8072 45.9736 45.7402 45.9736 48.6745C45.9736 49.7792 45.6896 50.0646 44.5918 50.0646C39.0904 50.0646 33.5889 50.0646 28.0875 50.0646C27.0006 50.0646 26.7029 49.7642 26.7029 48.6704C26.7029 45.7961 26.7029 42.9218 26.7029 40.0476V26.0939C26.7029 25.9137 26.7015 25.7348 26.7015 25.5546C26.6988 25.1463 26.6974 24.7244 26.707 24.312C26.7248 23.5555 27.0743 23.2019 27.8048 23.2005C28.0902 23.2005 28.3756 23.2005 28.6623 23.2005C29.9991 23.2005 31.3468 23.2046 32.6563 23.2101C33.9685 23.2142 35.2807 23.2196 36.5916 23.2196C38.3312 23.2196 40.109 23.2128 41.824 23.2046C42.6173 23.2019 43.4107 23.1978 44.204 23.1951H44.316C44.4648 23.1951 44.615 23.1937 44.7638 23.1964C45.6405 23.2115 45.9682 23.5378 45.9736 24.3994C45.9791 25.2842 45.9777 26.1841 45.9764 27.0539C45.9764 27.4294 45.975 27.8049 45.975 28.1804L45.9736 39.8728ZM25.2705 24.4445C25.2692 24.4827 25.2637 24.5196 25.2555 24.5715H23.0025C19.8606 24.5715 16.7187 24.5715 13.5754 24.5715C13.5262 24.5715 13.4743 24.5674 13.4225 24.5633C13.2668 24.551 13.0907 24.5373 12.9527 24.622C12.8271 24.6984 12.4175 24.9702 12.4134 25.2692C12.4093 25.5245 12.681 25.7826 12.909 25.9533C13.0306 26.0448 13.2013 26.0311 13.3515 26.0188C13.3992 26.0147 13.447 26.0106 13.4907 26.0106C16.6914 26.012 19.892 26.012 23.0926 26.012H25.2391V30.0292H13.5126C13.4757 30.0306 13.4334 30.0292 13.3952 30.0278C13.2791 30.0265 13.1589 30.0251 13.0388 30.0374C12.6223 30.0824 12.3833 30.3378 12.3806 30.7379C12.3779 31.1461 12.6155 31.4028 13.0333 31.4438C13.1562 31.4561 13.2777 31.4547 13.3965 31.4534H25.2446V35.4746H23.1787C19.9507 35.4746 16.7241 35.4746 13.4962 35.476C13.4498 35.4719 13.4061 35.4719 13.3596 35.4692C13.2094 35.4583 13.0388 35.4446 12.9159 35.5347C12.6988 35.6945 12.4366 35.9416 12.4134 36.2052C12.3861 36.5233 12.8763 36.8469 12.8968 36.8606C13.0374 36.9521 13.2245 36.9425 13.3897 36.9343C13.4348 36.9316 13.4784 36.9302 13.5208 36.9302C13.5208 36.9302 13.5208 36.9302 13.5221 36.9302C16.675 36.9316 19.8265 36.9316 22.9793 36.9316H25.2514V40.9447H22.9028C19.7937 40.9447 16.6845 40.9447 13.574 40.9447C13.5249 40.9447 13.4716 40.9406 13.4197 40.9365C13.2641 40.9242 13.0879 40.9105 12.9514 40.9938C12.8626 41.0484 12.4189 41.3366 12.4175 41.6451C12.4161 41.9005 12.6906 42.1545 12.92 42.3224C13.0429 42.4112 13.2094 42.3975 13.3583 42.3839C13.4074 42.3798 13.4552 42.3757 13.5003 42.3757C16.7282 42.3757 19.9548 42.3757 23.1828 42.3757H25.2446V46.3724H19.1656C14.5626 46.3724 9.95966 46.3737 5.3567 46.371C3.00674 46.3696 1.42827 44.7871 1.42827 42.4317C1.4269 30.0934 1.4269 17.7551 1.42827 5.4168C1.42827 3.01769 2.9808 1.46653 5.38401 1.46516C8.55597 1.4638 11.7266 1.4638 14.8972 1.4638C16.9645 1.4638 19.0318 1.4638 21.0977 1.4638H27.7707V2.90982C27.7707 3.29215 27.7693 3.67584 27.768 4.05817C27.7652 4.90612 27.7625 5.78138 27.7748 6.64298C27.7994 8.46587 28.9901 9.64836 30.8088 9.65791C31.8971 9.66338 33.0031 9.66201 34.0723 9.66065C34.5516 9.66065 35.0281 9.65791 35.5115 9.65928H35.9539V21.7409C35.9375 21.7422 35.9211 21.7422 35.9047 21.7436C35.7791 21.7504 35.6617 21.7572 35.5429 21.7572C33.8402 21.7586 32.1374 21.7586 30.4333 21.7586H28.0288C26.2373 21.76 25.3361 22.638 25.2705 24.4445ZM33.806 8.23374C32.6986 8.2392 31.6527 8.24467 30.5958 8.21872C29.8407 8.20097 29.2399 7.62202 29.2263 6.89969C29.2072 5.81961 29.2113 4.72178 29.2154 3.65946C29.2167 3.23207 29.2181 2.80468 29.2181 2.37729L29.2317 2.365L34.9039 8.22964C34.5338 8.23101 34.1679 8.23238 33.806 8.23374Z" fill="#CD76BA"/>
<path d="M13.0045 4.57843C10.8238 4.55658 8.77563 5.37722 7.22857 6.89152C5.6815 8.40581 4.81717 10.4376 4.79532 12.6114C4.75162 17.0751 8.32094 20.7468 12.7518 20.7946C12.7833 20.7946 12.8133 20.7946 12.8447 20.7946C15.0035 20.7946 17.0298 19.9726 18.5591 18.4747C20.1062 16.959 20.9705 14.9204 20.9924 12.7357C21.0361 8.28428 17.4518 4.62485 13.0045 4.57843ZM12.8775 6.01762C12.887 6.01762 12.8952 6.01762 12.9048 6.01762C14.6649 6.01762 16.3252 6.70445 17.5828 7.95521C18.8472 9.21143 19.5477 10.8787 19.5532 12.6497C19.56 14.437 18.8705 16.1207 17.6142 17.3892C16.358 18.6577 14.6853 19.3595 12.9034 19.365C12.8966 19.365 12.8898 19.365 12.8829 19.365C11.1242 19.365 9.46109 18.6741 8.19804 17.4192C6.93089 16.1589 6.22904 14.493 6.22358 12.7275C6.21402 9.04211 9.19756 6.03128 12.8775 6.01762Z" fill="#CD76BA"/>
<path d="M27.7956 20.5488C29.0328 20.5488 30.2699 20.5488 31.5083 20.5475C31.5534 20.5516 31.5916 20.5502 31.6353 20.5529C31.6831 20.5557 31.7323 20.5584 31.7814 20.5584C31.8893 20.5584 31.9972 20.5447 32.0845 20.4847C32.2293 20.385 32.5666 20.1228 32.5734 19.8483C32.5802 19.5561 32.2307 19.2626 32.1228 19.1806C31.9985 19.0851 31.8224 19.0946 31.6654 19.1042C31.623 19.1069 31.5821 19.1096 31.5425 19.1096C28.3609 19.1083 25.1781 19.1083 21.9965 19.1096C21.9556 19.1096 21.9132 19.1069 21.8696 19.1042C21.7166 19.0946 21.5418 19.0837 21.4176 19.1765C21.2756 19.2817 20.9465 19.5575 20.9492 19.8388C20.952 20.1037 21.2551 20.3563 21.4367 20.4833C21.5637 20.5734 21.7371 20.5638 21.89 20.5543C21.9324 20.5516 21.9733 20.5502 22.0129 20.5502H22.0143C23.22 20.5516 24.4271 20.5516 25.6328 20.5516H26.7101L27.7956 20.5488Z" fill="#CD76BA"/>
<path d="M23.3982 15.087C23.4036 15.087 23.4105 15.087 23.4159 15.087C24.9862 15.0843 26.5565 15.0843 28.1254 15.0843C29.3161 15.0843 30.5054 15.0843 31.6961 15.083C32.0402 15.083 32.2914 14.9969 32.4457 14.8303C32.5618 14.7034 32.615 14.534 32.5986 14.3374C32.5413 13.6547 31.9296 13.656 31.6988 13.6588C30.6925 13.6629 29.6875 13.6629 28.6811 13.6615L26.3762 13.6601C25.3904 13.6601 24.4045 13.6588 23.4187 13.6615C23.0787 13.6629 22.8179 13.7516 22.6649 13.9196C22.5489 14.0466 22.4983 14.2145 22.5147 14.407C22.5748 15.072 23.1565 15.087 23.3982 15.087Z" fill="#CD76BA"/>
<path d="M10.2196 34.1514C10.0394 34.0394 9.75946 34.0216 9.38942 34.0967C9.24195 34.1268 9.13544 34.2538 9.04122 34.3644C9.00982 34.4012 8.97841 34.4381 8.94701 34.4709C8.38034 35.0389 7.81368 35.6083 7.22244 36.2023L6.68717 36.7389L6.54654 36.5887C6.3936 36.4248 6.26115 36.2815 6.12597 36.1408C5.91842 35.9251 5.70678 35.8158 5.4965 35.8158C5.4965 35.8158 5.4965 35.8158 5.49513 35.8158C5.31626 35.8158 5.14693 35.895 4.99537 36.0521C4.68404 36.3743 4.71955 36.7703 5.09505 37.1403C5.24252 37.2864 5.38862 37.4326 5.53609 37.58C5.70268 37.7466 5.8679 37.9132 6.03585 38.0784C6.2871 38.3256 6.49464 38.4485 6.70219 38.4485C6.91384 38.4485 7.12548 38.3201 7.38629 38.062C8.03488 37.4189 8.67938 36.7717 9.32387 36.1244L9.51913 35.9292C9.58467 35.8623 9.65295 35.7967 9.71986 35.7312C9.91922 35.5359 10.124 35.3338 10.3097 35.1154C10.4558 34.9433 10.5227 34.7358 10.4941 34.5473C10.4668 34.3848 10.3698 34.2442 10.2196 34.1514Z" fill="#CD76BA"/>
<path d="M10.2751 23.2677C9.96648 22.9563 9.57459 22.9632 9.22776 23.284C9.12536 23.3796 9.02704 23.4779 8.92873 23.5776L6.64705 25.8689C6.60336 25.8156 6.56103 25.7637 6.5187 25.7118C6.36167 25.5179 6.21284 25.3363 6.05035 25.1656C5.88376 24.9909 5.69396 24.898 5.5028 24.898C5.50143 24.898 5.50143 24.898 5.50006 24.898C5.32255 24.898 5.14915 24.9786 5.00168 25.1315C4.69718 25.4456 4.71493 25.8375 5.0481 26.1815C5.31982 26.4615 5.60111 26.74 5.87283 27.0104L5.98617 27.1224C6.27018 27.4036 6.48866 27.5443 6.70713 27.5443C6.92151 27.5443 7.13452 27.4077 7.40897 27.136C7.83773 26.71 8.26375 26.2812 8.69114 25.8538L9.17588 25.3677C9.27965 25.264 9.3848 25.1602 9.48857 25.0564C9.74255 24.8052 10.0047 24.5444 10.2546 24.2795C10.5605 23.9504 10.5687 23.564 10.2751 23.2677Z" fill="#CD76BA"/>
<path d="M9.24066 39.6421C9.15327 39.7227 9.06862 39.8073 8.98532 39.892L6.67497 42.2064C6.62854 42.1546 6.58212 42.104 6.53842 42.0549C6.38413 41.8842 6.24485 41.7299 6.10147 41.5783C5.90894 41.3749 5.70822 41.2697 5.50749 41.2656C5.33135 41.2615 5.1675 41.3366 5.0173 41.4841C4.86437 41.6343 4.78654 41.8009 4.78517 41.9798C4.78381 42.1805 4.88075 42.3812 5.07191 42.5738C5.41874 42.9233 5.7683 43.2729 6.11649 43.6211C6.30493 43.8095 6.50291 43.9037 6.70227 43.9037C6.90026 43.9037 7.09826 43.8095 7.28806 43.6211C7.64581 43.2647 8.00219 42.9069 8.35857 42.5492L8.83785 42.0685C8.97849 41.9279 9.11914 41.7886 9.25978 41.648C9.58476 41.3257 9.91929 40.9926 10.2429 40.6566C10.4109 40.4819 10.4969 40.2893 10.4928 40.0982C10.4873 39.9207 10.404 39.7513 10.2484 39.6066C9.94524 39.3281 9.56974 39.3403 9.24066 39.6421Z" fill="#CD76BA"/>
<path d="M9.06252 28.8976C8.97513 28.9837 8.8891 29.0697 8.80308 29.1571L6.6757 31.2981C6.61971 31.2367 6.56645 31.1766 6.51457 31.1179C6.33706 30.9199 6.17047 30.7315 5.98887 30.5621C5.68574 30.2781 5.3157 30.2795 5.02349 30.5635C4.72036 30.8584 4.70807 31.2353 4.99072 31.5698C5.11771 31.72 5.25971 31.8566 5.39762 31.989C5.45634 32.045 5.51369 32.101 5.57104 32.1584C6.11449 32.7018 6.38622 32.9749 6.70027 32.9763C6.70164 32.9763 6.703 32.9763 6.703 32.9763C7.01569 32.9763 7.28605 32.7059 7.82131 32.1707L8.44806 31.5439C8.99697 30.9964 9.54452 30.4474 10.0921 29.8985C10.3583 29.6309 10.4867 29.3906 10.484 29.1639C10.4826 28.9946 10.4075 28.8376 10.2614 28.6956C10.0334 28.4744 9.63874 28.3296 9.06252 28.8976Z" fill="#CD76BA"/>
<path d="M29.3854 32.0598C31.6876 32.0612 33.9898 32.0598 36.2919 32.0598C38.6542 32.0598 41.0151 32.0612 43.3773 32.0585C44.0136 32.0571 44.1447 31.9233 44.1447 31.2979C44.1461 29.9229 44.1461 28.5465 44.1447 27.1715C44.1447 26.5352 44.0163 26.3987 43.3896 26.3987C38.6815 26.3959 33.972 26.3959 29.2639 26.3987C28.6563 26.3987 28.5225 26.5352 28.5211 27.136C28.5184 28.496 28.5197 29.8574 28.5211 31.2174C28.5211 31.9615 28.6222 32.0598 29.3854 32.0598ZM29.5589 27.4446C34.0908 27.4446 38.5832 27.4446 43.1056 27.4446C43.1056 28.6312 43.1056 29.8014 43.1056 31.0016C38.5927 31.0016 34.0908 31.0016 29.5589 31.0016C29.5589 29.826 29.5589 28.6558 29.5589 27.4446Z" fill="#CD76BA"/>
<path d="M39.3182 44.6532C37.2877 44.6491 35.2587 44.6491 33.2282 44.6532C32.7572 44.6546 32.5878 44.8266 32.581 45.3045C32.5728 45.9012 32.5769 46.4993 32.5796 47.096C32.5824 47.6641 32.7312 47.817 33.2897 47.8197C34.2742 47.8238 35.26 47.8211 36.2445 47.8211C37.2591 47.8211 38.275 47.8252 39.2895 47.8197C39.7975 47.817 39.9436 47.6804 39.9504 47.1916C39.96 46.5498 39.96 45.9081 39.9504 45.2663C39.9422 44.8102 39.7811 44.6546 39.3182 44.6532ZM38.9249 46.782C37.1608 46.782 35.4089 46.782 33.6351 46.782C33.6351 46.416 33.6351 46.0665 33.6351 45.6896C35.4021 45.6896 37.1416 45.6896 38.9249 45.6896C38.9249 46.0706 38.9249 46.4119 38.9249 46.782Z" fill="#CD76BA"/>
<path d="M44.1473 41.4351C44.146 40.8575 44.0053 40.7114 43.4455 40.7086C42.8488 40.7059 42.2521 40.7045 41.6554 40.7086C41.1338 40.7114 40.9781 40.8547 40.9768 41.3654C40.9713 43.3057 40.9713 45.2447 40.9768 47.185C40.9781 47.6793 41.1242 47.8131 41.6308 47.8186C42.2575 47.824 42.8843 47.8254 43.511 47.8186C43.9944 47.8131 44.1433 47.6588 44.146 47.1645C44.1514 46.1951 44.1473 45.2242 44.1473 44.2547C44.1487 43.3153 44.1501 42.3759 44.1473 41.4351ZM43.1 46.7972C42.7259 46.7972 42.3859 46.7972 42.0186 46.7972C42.0186 45.1177 42.0186 43.4532 42.0186 41.7519C42.36 41.7519 42.7095 41.7519 43.1 41.7519C43.1 43.4123 43.1 45.0863 43.1 46.7972Z" fill="#CD76BA"/>
<path d="M38.0711 32.8188C37.5031 32.8133 36.935 32.8174 36.367 32.8174C35.7689 32.8174 35.1709 32.8133 34.5742 32.8188C34.1195 32.8229 33.9351 32.9908 33.9283 33.4278C33.9174 34.0859 33.9228 34.7427 33.9269 35.4008C33.9297 35.7791 34.1222 35.9894 34.5059 35.9907C35.717 35.9948 36.9268 35.9934 38.138 35.9934C38.5449 35.9934 38.7415 35.7777 38.7443 35.3804C38.7484 34.7372 38.7538 34.0941 38.7429 33.4523C38.732 32.9881 38.5504 32.8229 38.0711 32.8188ZM37.6806 34.9475C36.7835 34.9475 35.8986 34.9475 34.977 34.9475C34.977 34.5665 34.977 34.2279 34.977 33.8579C35.8836 33.8579 36.7671 33.8579 37.6806 33.8579C37.6806 34.2238 37.6806 34.572 37.6806 34.9475Z" fill="#CD76BA"/>
<path d="M33.199 35.3724C33.2072 34.7293 33.2072 34.0875 33.199 33.4444C33.1936 32.9965 33.0201 32.8244 32.5723 32.819C31.9742 32.8122 31.3775 32.8176 30.7794 32.8176C30.1964 32.8176 29.6133 32.8122 29.0316 32.819C28.5797 32.8244 28.4049 32.9869 28.3953 33.4389C28.3831 34.0807 28.3912 34.7238 28.3926 35.3669C28.3926 35.7889 28.5974 35.9991 29.0262 35.9964C30.2059 35.9923 31.3871 36.0005 32.5668 35.9923C33.027 35.9896 33.1936 35.8203 33.199 35.3724ZM32.1504 34.9409C31.2655 34.9409 30.378 34.9409 29.4399 34.9409C29.4399 34.5777 29.4399 34.2377 29.4399 33.8622C30.3384 33.8622 31.2246 33.8622 32.1504 33.8622C32.1504 34.2104 32.1504 34.5586 32.1504 34.9409Z" fill="#CD76BA"/>
<path d="M43.5244 32.8185C42.3446 32.8131 41.1649 32.8131 39.9851 32.8185C39.5249 32.8213 39.3597 32.9783 39.3502 33.4357C39.3379 34.0625 39.3406 34.6906 39.3488 35.3173C39.3556 35.8471 39.4922 35.985 40.0165 35.9932C40.5996 36.0014 41.1812 35.9946 41.7643 35.9946C42.3474 35.9946 42.929 36.0014 43.5121 35.9919C43.9804 35.9837 44.1388 35.828 44.1443 35.3747C44.1525 34.7329 44.1511 34.0898 44.1443 33.448C44.1388 32.9947 43.9709 32.8213 43.5244 32.8185ZM43.1134 34.935C42.219 34.935 41.3219 34.935 40.3961 34.935C40.3961 34.5909 40.3961 34.24 40.3961 33.8563C41.3192 33.8563 42.204 33.8563 43.1134 33.8563C43.1134 34.2222 43.1134 34.5595 43.1134 34.935Z" fill="#CD76BA"/>
<path d="M35.1854 36.7624C34.8427 36.7637 34.4986 36.7624 34.1558 36.7624C33.8281 36.7624 33.4991 36.7624 33.1714 36.7624C32.7863 36.7624 32.5869 36.9631 32.5815 37.3386C32.5733 38.0104 32.576 38.6822 32.5801 39.354C32.5828 39.7063 32.7576 39.9289 33.1195 39.9343C33.8199 39.9466 34.5218 39.9425 35.2236 39.9357C35.5636 39.933 35.7589 39.7363 35.7657 39.4059C35.7807 38.7054 35.7835 38.0022 35.7657 37.3017C35.7575 36.9508 35.55 36.7596 35.1854 36.7624ZM34.702 38.8843C34.3634 38.8843 34.0056 38.8843 33.6356 38.8843C33.6356 38.5211 33.6356 38.1742 33.6356 37.8001C33.9975 37.8001 34.332 37.8001 34.702 37.8001C34.702 38.1538 34.702 38.5006 34.702 38.8843Z" fill="#CD76BA"/>
<path d="M33.157 43.879C33.4998 43.8817 33.8438 43.879 34.1866 43.879C34.5293 43.879 34.8734 43.8803 35.2161 43.8776C35.5589 43.8749 35.7569 43.6865 35.765 43.3574C35.7828 42.6569 35.7828 41.955 35.7664 41.2532C35.7582 40.905 35.5616 40.707 35.1929 40.7084C34.5061 40.7111 33.8206 40.7084 33.1338 40.7097C32.7897 40.7111 32.5931 40.9009 32.5849 41.23C32.5671 41.9305 32.5699 42.6323 32.5822 43.3342C32.5904 43.6919 32.7979 43.8762 33.157 43.879ZM33.6377 41.7502C33.9913 41.7502 34.3354 41.7502 34.7109 41.7502C34.7109 42.108 34.7109 42.4562 34.7109 42.8467C34.3395 42.8467 34.005 42.8467 33.6377 42.8467C33.6377 42.4807 33.6377 42.1326 33.6377 41.7502Z" fill="#CD76BA"/>
<path d="M30.9892 40.7085C30.6615 40.7098 30.3324 40.7085 30.0047 40.7085C29.677 40.7085 29.3479 40.7153 29.0202 40.7071C28.6133 40.6962 28.4003 40.8914 28.3948 41.2915C28.3866 41.9633 28.3866 42.6351 28.3948 43.3056C28.4003 43.6824 28.5983 43.8804 28.9847 43.8804C29.6565 43.8791 30.3269 43.8818 30.9987 43.8791C31.3811 43.8777 31.5777 43.677 31.5804 43.296C31.5845 42.6242 31.5873 41.9524 31.5791 41.282C31.575 40.9037 31.3756 40.7057 30.9892 40.7085ZM30.5318 42.8468C30.1535 42.8468 29.8149 42.8468 29.4503 42.8468C29.4503 42.4795 29.4503 42.1285 29.4503 41.7462C29.804 41.7462 30.1522 41.7462 30.5318 41.7462C30.5318 42.1067 30.5318 42.4576 30.5318 42.8468Z" fill="#CD76BA"/>
<path d="M31.0216 44.6545C30.3348 44.6517 29.6493 44.6544 28.9625 44.6531C28.6198 44.6517 28.4109 44.8265 28.4027 45.1597C28.3835 45.8752 28.3849 46.592 28.4013 47.3075C28.4095 47.6393 28.6075 47.8223 28.9529 47.821C29.2807 47.8196 29.6097 47.821 29.9374 47.821C30.2952 47.821 30.6529 47.8223 31.0121 47.821C31.3753 47.8196 31.5733 47.6298 31.5787 47.2734C31.5883 46.5866 31.5883 45.9011 31.5787 45.2143C31.5733 44.8593 31.3876 44.6558 31.0216 44.6545ZM30.5273 46.7791C30.1805 46.7791 29.8323 46.7791 29.4527 46.7791C29.4527 46.435 29.4527 46.0854 29.4527 45.684C29.8173 45.684 30.1545 45.684 30.5273 45.684C30.5273 46.0445 30.5273 46.3954 30.5273 46.7791Z" fill="#CD76BA"/>
<path d="M30.9774 36.761C30.3206 36.7624 29.6638 36.7651 29.0084 36.7597C28.6261 36.7569 28.4063 36.9358 28.3981 37.3154C28.3844 38.0009 28.3871 38.6877 28.3967 39.3745C28.4008 39.7282 28.5906 39.9344 28.9538 39.9371C29.6406 39.9439 30.3261 39.9453 31.0129 39.9371C31.3939 39.9316 31.581 39.7186 31.5823 39.339C31.5823 39.0113 31.5823 38.6822 31.5823 38.3545C31.5823 38.0268 31.5837 37.6977 31.5823 37.37C31.5796 36.97 31.3843 36.761 30.9774 36.761ZM30.5309 38.8925C30.1732 38.8925 29.8263 38.8925 29.4399 38.8925C29.4399 38.5157 29.4399 38.1757 29.4399 37.8056C29.8031 37.8056 30.1513 37.8056 30.5309 37.8056C30.5309 38.1675 30.5309 38.5157 30.5309 38.8925Z" fill="#CD76BA"/>
<path d="M39.9464 37.289C39.9409 36.9504 39.747 36.7661 39.4084 36.7633C38.7229 36.7579 38.0361 36.7579 37.3507 36.762C36.9656 36.7647 36.7799 36.9695 36.7813 37.3518C36.7813 38.0236 36.7813 38.6941 36.7813 39.3659C36.7813 39.7291 36.9683 39.9244 37.3247 39.9353C37.6825 39.9476 38.0402 39.938 38.398 39.938V39.9394C38.7257 39.9394 39.0547 39.9448 39.3825 39.938C39.7347 39.9312 39.9478 39.7619 39.9491 39.3918C39.9532 38.6913 39.9573 37.9909 39.9464 37.289ZM38.9168 38.8962C38.5509 38.8962 38.2013 38.8962 37.8054 38.8962C37.8054 38.5207 37.8054 38.1848 37.8054 37.8106C38.1781 37.8106 38.5359 37.8106 38.9168 37.8106C38.9168 38.1752 38.9168 38.5234 38.9168 38.8962Z" fill="#CD76BA"/>
<path d="M41.5583 39.94C41.901 39.9441 42.2437 39.9413 42.5878 39.94C42.9155 39.94 43.2446 39.9454 43.5723 39.9372C43.9492 39.929 44.1485 39.7365 44.1458 39.3487C44.1431 38.6769 44.1472 38.0065 44.1444 37.3347C44.1431 36.9496 43.9396 36.7612 43.5587 36.7598C42.8882 36.7584 42.2164 36.7584 41.546 36.7598C41.1582 36.7612 40.9752 36.9687 40.9752 37.3483C40.9739 38.0201 40.9752 38.6906 40.9752 39.3624C40.9739 39.7543 41.1814 39.9359 41.5583 39.94ZM42.0075 37.8017C42.3762 37.8017 42.723 37.8017 43.104 37.8017C43.104 38.1635 43.104 38.5103 43.104 38.8886C42.7558 38.8886 42.4076 38.8886 42.0075 38.8886C42.0075 38.5254 42.0075 38.1758 42.0075 37.8017Z" fill="#CD76BA"/>
<path d="M39.3483 40.7069C38.6929 40.7124 38.0361 40.7097 37.3807 40.7083C36.9724 40.7069 36.7799 40.909 36.7813 41.3132C36.784 41.97 36.784 42.6254 36.7813 43.2822C36.7799 43.6632 36.9574 43.8748 37.3438 43.8775C38.0293 43.883 38.7161 43.883 39.4016 43.8775C39.7648 43.8748 39.9505 43.6809 39.9532 43.3191C39.9559 42.9763 39.9546 42.6336 39.9546 42.2895C39.9546 41.9618 39.9546 41.6327 39.9546 41.305C39.9532 40.9036 39.758 40.7042 39.3483 40.7069ZM38.9182 42.8384C38.5564 42.8384 38.2068 42.8384 37.8231 42.8384C37.8231 42.4889 37.8231 42.1393 37.8231 41.7529C38.1768 41.7529 38.5359 41.7529 38.9182 41.7529C38.9182 42.1147 38.9182 42.4629 38.9182 42.8384Z" fill="#CD76BA"/>
<path d="M12.3474 15.5978C11.9418 15.4653 11.752 15.1581 11.7329 14.6023C11.722 14.3047 11.6373 14.0835 11.4803 13.9428C11.3451 13.8227 11.1649 13.7708 10.945 13.7885C10.4794 13.8268 10.2623 14.1395 10.2964 14.717C10.3688 15.9146 10.971 16.6915 12.0879 17.0274C12.0879 17.0506 12.0879 17.0725 12.0879 17.0957C12.0893 17.2131 12.0907 17.3264 12.0866 17.4384C12.0784 17.6569 12.0552 18.3246 12.7898 18.3765C12.8103 18.3778 12.8294 18.3792 12.8499 18.3792C13.0246 18.3792 13.1748 18.3219 13.2882 18.2126C13.4534 18.0529 13.5298 17.7989 13.5162 17.4548C13.5012 17.0848 13.5913 16.9441 13.934 16.8021C14.7437 16.4662 15.2845 15.8313 15.421 15.0625C15.5562 14.2965 15.264 13.5195 14.6222 12.9297C14.2863 12.6211 13.8699 12.3999 13.4684 12.1869C13.3264 12.1118 13.1858 12.0367 13.0478 11.9575C12.9168 11.8824 12.7789 11.8195 12.645 11.7595C12.4525 11.6734 12.2709 11.5915 12.1152 11.4768C11.9446 11.3512 11.7957 11.1286 11.7684 10.9579C11.7343 10.7395 11.8176 10.48 11.9978 10.2452C12.2081 9.97071 12.5085 9.78228 12.7829 9.75361C13.138 9.71537 13.4425 9.79047 13.6623 9.96798C13.8753 10.1414 14.0064 10.4104 14.0405 10.749C14.0774 11.1136 14.1825 11.358 14.3601 11.4973C14.4966 11.6038 14.6714 11.6434 14.8789 11.6147C15.3254 11.5519 15.5439 11.1805 15.4811 10.5961C15.3623 9.51055 14.7601 8.76365 13.6896 8.37586V8.26799C13.6882 8.12461 13.6882 7.9867 13.691 7.85016C13.7074 7.13602 13.2677 7.0145 13.0028 7.00494C12.7038 6.99265 12.5344 7.10735 12.4443 7.20293C12.3023 7.3545 12.2422 7.58389 12.2709 7.86245C12.3105 8.24204 12.2026 8.41136 11.8121 8.59024C10.8986 9.0067 10.3866 9.80959 10.332 10.9142C10.2773 12.0039 11.0488 12.5637 11.7274 12.9283C11.8681 13.0034 12.0156 13.0648 12.1576 13.1236C12.316 13.1877 12.4648 13.2492 12.6041 13.3284L12.7461 13.4089C13.0874 13.6015 13.4397 13.8008 13.721 14.0575C14.0583 14.3648 14.1047 14.8208 13.8343 15.1663C13.5271 15.5472 12.8225 15.7534 12.3474 15.5978Z" fill="#CD76BA"/>
</svg>
