<svg width="110" height="110" viewBox="0 0 110 110" fill="none" xmlns="http://www.w3.org/2000/svg">
<path d="M18.2046 71.432V73.144H13.0766V76.568H17.4046V78.288H13.0766V83H10.9086V71.432H18.2046ZM30.889 77.216C30.889 78.064 30.7477 78.8507 30.465 79.576C30.1823 80.296 29.785 80.92 29.273 81.448C28.761 81.976 28.145 82.3893 27.425 82.688C26.705 82.9813 25.9077 83.128 25.033 83.128C24.1583 83.128 23.3583 82.9813 22.633 82.688C21.913 82.3893 21.2943 81.976 20.777 81.448C20.265 80.92 19.8677 80.296 19.585 79.576C19.3023 78.8507 19.161 78.064 19.161 77.216C19.161 76.368 19.3023 75.584 19.585 74.864C19.8677 74.1387 20.265 73.512 20.777 72.984C21.2943 72.456 21.913 72.0453 22.633 71.752C23.3583 71.4533 24.1583 71.304 25.033 71.304C25.9077 71.304 26.705 71.4533 27.425 71.752C28.145 72.0507 28.761 72.464 29.273 72.992C29.785 73.5147 30.1823 74.1387 30.465 74.864C30.7477 75.584 30.889 76.368 30.889 77.216ZM28.681 77.216C28.681 76.5813 28.5957 76.0133 28.425 75.512C28.2597 75.0053 28.0197 74.576 27.705 74.224C27.3903 73.872 27.0063 73.6027 26.553 73.416C26.105 73.2293 25.5983 73.136 25.033 73.136C24.4677 73.136 23.9583 73.2293 23.505 73.416C23.0517 73.6027 22.665 73.872 22.345 74.224C22.0303 74.576 21.7877 75.0053 21.617 75.512C21.4463 76.0133 21.361 76.5813 21.361 77.216C21.361 77.8507 21.4463 78.4213 21.617 78.928C21.7877 79.4293 22.0303 79.856 22.345 80.208C22.665 80.5547 23.0517 80.8213 23.505 81.008C23.9583 81.1947 24.4677 81.288 25.033 81.288C25.5983 81.288 26.105 81.1947 26.553 81.008C27.0063 80.8213 27.3903 80.5547 27.705 80.208C28.0197 79.856 28.2597 79.4293 28.425 78.928C28.5957 78.4213 28.681 77.8507 28.681 77.216ZM43.5859 77.216C43.5859 78.064 43.4445 78.8507 43.1619 79.576C42.8792 80.296 42.4819 80.92 41.9699 81.448C41.4579 81.976 40.8419 82.3893 40.1219 82.688C39.4019 82.9813 38.6045 83.128 37.7299 83.128C36.8552 83.128 36.0552 82.9813 35.3299 82.688C34.6099 82.3893 33.9912 81.976 33.4739 81.448C32.9619 80.92 32.5645 80.296 32.2819 79.576C31.9992 78.8507 31.8579 78.064 31.8579 77.216C31.8579 76.368 31.9992 75.584 32.2819 74.864C32.5645 74.1387 32.9619 73.512 33.4739 72.984C33.9912 72.456 34.6099 72.0453 35.3299 71.752C36.0552 71.4533 36.8552 71.304 37.7299 71.304C38.6045 71.304 39.4019 71.4533 40.1219 71.752C40.8419 72.0507 41.4579 72.464 41.9699 72.992C42.4819 73.5147 42.8792 74.1387 43.1619 74.864C43.4445 75.584 43.5859 76.368 43.5859 77.216ZM41.3779 77.216C41.3779 76.5813 41.2925 76.0133 41.1219 75.512C40.9565 75.0053 40.7165 74.576 40.4019 74.224C40.0872 73.872 39.7032 73.6027 39.2499 73.416C38.8019 73.2293 38.2952 73.136 37.7299 73.136C37.1645 73.136 36.6552 73.2293 36.2019 73.416C35.7485 73.6027 35.3619 73.872 35.0419 74.224C34.7272 74.576 34.4845 75.0053 34.3139 75.512C34.1432 76.0133 34.0579 76.5813 34.0579 77.216C34.0579 77.8507 34.1432 78.4213 34.3139 78.928C34.4845 79.4293 34.7272 79.856 35.0419 80.208C35.3619 80.5547 35.7485 80.8213 36.2019 81.008C36.6552 81.1947 37.1645 81.288 37.7299 81.288C38.2952 81.288 38.8019 81.1947 39.2499 81.008C39.7032 80.8213 40.0872 80.5547 40.4019 80.208C40.7165 79.856 40.9565 79.4293 41.1219 78.928C41.2925 78.4213 41.3779 77.8507 41.3779 77.216ZM52.7137 71.432V73.2H49.2337V83H47.0817V73.2H43.5857V71.432H52.7137ZM52.9054 71.432H54.7134C54.9 71.432 55.0547 71.4773 55.1774 71.568C55.3054 71.6533 55.3907 71.7707 55.4334 71.92L57.4014 78.84C57.4494 79.0107 57.492 79.1973 57.5294 79.4C57.572 79.5973 57.612 79.808 57.6494 80.032C57.692 79.808 57.7374 79.5973 57.7854 79.4C57.8387 79.1973 57.8947 79.0107 57.9534 78.84L60.2254 71.92C60.268 71.7973 60.3507 71.6853 60.4734 71.584C60.6014 71.4827 60.756 71.432 60.9374 71.432H61.5694C61.756 71.432 61.9107 71.4773 62.0334 71.568C62.156 71.6533 62.2414 71.7707 62.2894 71.92L64.5454 78.84C64.6627 79.1813 64.764 79.56 64.8494 79.976C64.8867 79.768 64.924 79.568 64.9614 79.376C65.004 79.184 65.0467 79.0053 65.0894 78.84L67.0574 71.92C67.0947 71.7867 67.1774 71.672 67.3054 71.576C67.4334 71.48 67.588 71.432 67.7694 71.432H69.4574L65.8654 83H63.9214L61.3934 75.096C61.3614 74.9947 61.3267 74.8853 61.2894 74.768C61.2574 74.6507 61.2254 74.5253 61.1934 74.392C61.1614 74.5253 61.1267 74.6507 61.0894 74.768C61.0574 74.8853 61.0254 74.9947 60.9934 75.096L58.4414 83H56.4974L52.9054 71.432ZM77.9234 71.432V73.144H72.7954V76.352H76.8354V78.008H72.7954V81.28H77.9234V83H70.6274V71.432H77.9234ZM89.8516 83H88.1876C88.001 83 87.8463 82.9547 87.7236 82.864C87.6063 82.768 87.521 82.6507 87.4676 82.512L86.6036 80.152H81.8116L80.9476 82.512C80.905 82.6347 80.8196 82.7467 80.6916 82.848C80.569 82.9493 80.417 83 80.2356 83H78.5636L83.1076 71.432H85.3076L89.8516 83ZM82.3636 78.632H86.0516L84.6436 74.784C84.5796 74.6133 84.5076 74.4133 84.4276 74.184C84.353 73.9493 84.2783 73.696 84.2036 73.424C84.129 73.696 84.0543 73.9493 83.9796 74.184C83.9103 74.4187 83.841 74.624 83.7716 74.8L82.3636 78.632ZM93.167 78.48V83H91.015V71.432H94.543C95.3323 71.432 96.007 71.5147 96.567 71.68C97.1323 71.84 97.5937 72.0667 97.951 72.36C98.3137 72.6533 98.5777 73.0053 98.743 73.416C98.9137 73.8213 98.999 74.2693 98.999 74.76C98.999 75.1493 98.9403 75.5173 98.823 75.864C98.711 76.2107 98.5457 76.5253 98.327 76.808C98.1137 77.0907 97.847 77.3387 97.527 77.552C97.2123 77.7653 96.8523 77.936 96.447 78.064C96.719 78.2187 96.9537 78.44 97.151 78.728L100.047 83H98.111C97.9243 83 97.7643 82.9627 97.631 82.888C97.503 82.8133 97.3937 82.7067 97.303 82.568L94.871 78.864C94.7803 78.7253 94.679 78.6267 94.567 78.568C94.4603 78.5093 94.3003 78.48 94.087 78.48H93.167ZM93.167 76.936H94.511C94.9163 76.936 95.2683 76.8853 95.567 76.784C95.871 76.6827 96.119 76.544 96.311 76.368C96.5083 76.1867 96.655 75.9733 96.751 75.728C96.847 75.4827 96.895 75.2133 96.895 74.92C96.895 74.3333 96.7003 73.8827 96.311 73.568C95.927 73.2533 95.3377 73.096 94.543 73.096H93.167V76.936Z" fill="#333333"/>
<path d="M43.6591 17.0061C43.8787 17.2105 44.1418 17.3835 44.3118 17.6223C46.2809 20.3979 48.2784 23.1533 50.5754 25.6678C51.4962 26.6767 52.5212 27.5925 53.5281 28.5183C53.8367 28.8017 54.2465 28.9757 54.6078 29.2024C54.8415 29.3491 55.0682 29.3228 55.2918 29.1831C55.4881 29.0597 55.7178 28.9666 55.8716 28.8017C56.3138 28.3281 56.8258 28.3048 57.3834 28.5052C57.6596 28.6043 57.9015 28.6226 58.1757 28.4566C58.3224 28.3676 58.5582 28.3757 58.7434 28.406C61.0474 28.7875 62.8223 30.5492 63.2432 32.8583C63.2523 32.9069 63.2675 32.9565 63.2614 33.003C63.2149 33.3713 63.309 33.6516 63.6115 33.9157C63.7694 34.0544 63.8129 34.3802 63.821 34.6241C63.8463 35.4184 63.8301 36.2148 63.8301 37.0101C63.8301 37.9765 63.7006 38.1444 62.7535 38.3913C62.7535 38.6878 62.7616 38.9924 62.7514 39.297C62.7393 39.6451 62.5238 39.8657 62.2121 39.8687C61.9015 39.8717 61.6778 39.6521 61.6566 39.3091C61.6465 39.1502 61.6535 38.9914 61.6535 38.8315C61.6535 38.6868 61.6535 38.5421 61.6535 38.3691C58.9053 38.3691 56.1853 38.3691 53.437 38.3691C53.437 40.7855 53.437 43.2008 53.437 45.6557C54.0138 45.4321 54.5693 45.2165 55.1248 45.001C56.7084 44.3878 58.2991 43.7928 59.8716 43.1543C60.4949 42.9013 61.0069 42.9226 61.4441 43.469C61.4815 43.5155 61.5352 43.5489 61.6525 43.6501C61.6525 43.1806 61.6525 42.7758 61.6525 42.3711C61.6525 42.2365 61.6454 42.1009 61.6566 41.9673C61.6829 41.6446 61.8984 41.4341 62.1959 41.429C62.5106 41.424 62.7444 41.6415 62.7504 41.9845C62.7616 42.706 62.7646 43.4285 62.7494 44.151C62.7444 44.3797 62.8182 44.5001 63.0206 44.6013C64.418 45.3005 65.9045 45.4988 67.4436 45.3916C68.5951 45.3106 69.7163 45.0728 70.8091 44.6984C71.3555 44.5112 71.7643 44.6853 72.0386 45.1912C72.4949 46.0321 72.7378 46.9347 72.7853 47.8889C72.8035 48.2603 72.6002 48.5082 72.2794 48.5305C71.9505 48.5537 71.739 48.3534 71.6915 47.9719C71.6763 47.8515 71.6611 47.7311 71.6409 47.5722C71.477 47.6268 71.3323 47.6724 71.1896 47.723C68.587 48.6488 65.952 48.9129 63.2766 48.065C62.7089 47.8849 62.1605 47.6319 61.6242 47.3708C61.3803 47.2514 61.186 47.2332 60.9361 47.3304C58.5551 48.2512 56.1701 49.1629 53.7851 50.0746C53.0201 50.367 52.5253 50.2385 51.992 49.6122C51.5316 49.0718 51.3212 48.4313 51.2604 47.6855C51.0398 47.7695 50.8506 47.8414 50.6604 47.9152C49.1334 48.5052 47.6055 49.0931 46.0806 49.686C45.4259 49.94 45.1446 50.4692 45.2792 51.219C45.4127 51.219 45.5554 51.219 45.6981 51.219C53.9217 51.219 62.1463 51.216 70.37 51.2281C70.7261 51.2292 70.9164 51.1067 71.0429 50.8042C71.1036 50.6574 71.1704 50.5127 71.2493 50.3751C71.4092 50.0979 71.6652 50.024 71.9424 50.1424C72.2227 50.2628 72.3856 50.533 72.2298 50.8011C71.8767 51.4042 71.7896 52.0043 71.9738 52.6812C72.0466 52.9504 71.992 53.2681 71.9404 53.5535C71.8342 54.1485 71.3373 54.5886 70.7332 54.5937C68.9837 54.6089 67.2321 54.624 65.4835 54.5775C65.1415 54.5684 64.7924 54.3114 64.4757 54.1201C64.2875 54.0058 64.161 53.9764 63.9971 54.1282C63.5761 54.5198 63.0732 54.6089 62.5076 54.6079C55.1036 54.5967 47.6996 54.5998 40.2956 54.5998C39.3616 54.5998 39.0753 54.3104 39.0753 53.3663C39.0753 48.5203 39.0753 43.6734 39.0753 38.8275C39.0753 38.6828 39.0753 38.5381 39.0753 38.3812C38.967 38.3569 38.8871 38.3357 38.8051 38.3205C38.3012 38.2244 38.0118 37.8985 38.0067 37.3784C37.9986 36.4121 37.9966 35.4447 38.0077 34.4784C38.0138 33.9289 38.3791 33.5636 38.9285 33.5363C39.1957 33.5231 39.4628 33.5343 39.7269 33.5343C39.7502 33.4766 39.7745 33.4442 39.7745 33.4118C39.7441 30.2294 39.3647 27.1007 38.4732 24.0336C37.8054 21.7356 38.2921 19.6744 40.0244 17.9785C40.4191 17.593 40.927 17.3228 41.3824 17C41.5534 17 41.7254 17 41.8964 17C42.0846 17.1427 42.2738 17.2854 42.46 17.426C42.713 17.2833 42.966 17.1417 43.2189 17C43.3647 17.0061 43.5114 17.0061 43.6591 17.0061ZM43.9425 53.4907C43.9425 53.1538 43.9303 52.8492 43.9465 52.5466C43.9566 52.3665 44.0143 52.1894 44.0447 52.0103C44.0821 51.7928 44.1651 51.5681 44.1398 51.3567C43.991 50.0867 44.5668 49.0971 45.7598 48.6327C46.5339 48.3311 47.305 48.0225 48.0861 47.7392C48.3401 47.6471 48.4363 47.5307 48.4352 47.2454C48.4221 44.406 48.4271 41.5666 48.4271 38.7273C48.4271 38.6089 48.4271 38.4915 48.4271 38.3448C48.2319 38.3448 48.0861 38.3448 47.9404 38.3448C47.0348 38.3448 46.1291 38.3509 45.2235 38.3407C44.8137 38.3367 44.5931 38.1212 44.6012 37.7781C44.6083 37.4482 44.8187 37.253 45.2164 37.2469C45.9136 37.2368 46.6118 37.2428 47.309 37.2428C47.5751 37.2428 47.8413 37.2428 48.1124 37.2428C48.1124 36.3554 48.1124 35.5166 48.1124 34.6686C45.1021 34.6686 42.113 34.6686 39.1289 34.6686C39.1289 35.5348 39.1289 36.3726 39.1289 37.2428C39.2857 37.2428 39.4183 37.2428 39.5509 37.2428C40.5304 37.2428 41.5089 37.2378 42.4884 37.2469C42.883 37.2499 43.1299 37.4857 43.1188 37.8095C43.1076 38.1201 42.8699 38.3347 42.4914 38.3407C41.8549 38.3509 41.2185 38.3428 40.582 38.3458C40.4535 38.3458 40.325 38.3589 40.2045 38.365C40.2045 43.4336 40.2045 48.4566 40.2045 53.4907C41.4552 53.4907 42.6766 53.4907 43.9425 53.4907ZM41.5696 18.2041C41.5331 18.2193 41.4987 18.2294 41.4684 18.2477C39.902 19.1634 38.9316 21.4169 39.3546 23.1756C39.3809 23.2848 39.4628 23.3931 39.5468 23.4741C42.8051 26.6322 46.0654 29.7882 49.3287 32.9413C49.7133 33.3127 50.1828 33.5231 50.715 33.5252C53.7851 33.5333 56.8552 33.5302 59.9252 33.5282C60.3199 33.5282 60.4352 33.3875 60.3512 33.0071C59.9546 31.2241 58.8921 30.0665 57.1233 29.5666C56.8916 29.5009 56.7267 29.5373 56.5283 29.6891C55.2695 30.6443 53.9004 30.872 52.4271 30.2325C51.3991 29.7862 50.5754 29.0526 49.78 28.2907C47.7057 26.3043 45.9227 24.067 44.1954 21.7822C43.3029 20.6023 42.4449 19.3982 41.5696 18.2041ZM57.9419 52.322C53.7932 52.322 49.6434 52.326 45.4947 52.3149C45.1385 52.3139 44.9948 52.4262 45.0414 52.7763C45.0495 52.836 45.0424 52.8988 45.0424 52.9595C45.0434 53.5019 45.0434 53.5019 45.5939 53.5019C51.2604 53.5019 56.927 53.5049 62.5936 53.4928C62.8283 53.4928 63.0975 53.4047 63.2928 53.2712C64.074 52.7379 64.4059 52.7308 65.1759 53.2742C65.3267 53.3804 65.52 53.4897 65.694 53.4917C67.2968 53.5079 68.9007 53.5029 70.5035 53.4978C70.6057 53.4978 70.7919 53.4594 70.797 53.4189C70.8395 53.1103 70.881 52.7925 70.8395 52.489C70.8293 52.4121 70.5217 52.3281 70.3507 52.3281C66.2151 52.32 62.0785 52.322 57.9419 52.322ZM71.1066 45.7822C70.9639 45.8196 70.8465 45.8459 70.7322 45.8813C69.3095 46.3245 67.8544 46.5613 66.3639 46.5168C64.2409 46.4541 62.3285 45.8196 60.7611 44.3311C60.5708 44.151 60.4281 44.1318 60.1954 44.2228C57.8185 45.1497 55.4375 46.0655 53.0575 46.9843C52.2764 47.2858 52.2096 47.4285 52.4777 48.2481C52.5263 48.3979 52.5951 48.5436 52.6761 48.6792C52.9655 49.1588 53.0464 49.1841 53.5584 48.9878C55.9293 48.0781 58.3001 47.1705 60.669 46.2557C61.1456 46.0716 61.5807 46.113 62.0411 46.3427C62.5956 46.62 63.1663 46.8861 63.7583 47.0622C66.3436 47.8282 68.8562 47.4811 71.3151 46.4885C71.3333 46.4814 71.3424 46.45 71.3768 46.3984C71.2928 46.2092 71.2017 46.0017 71.1066 45.7822ZM53.7234 37.2115C56.7236 37.2115 59.7107 37.2115 62.7019 37.2115C62.7019 36.3443 62.7019 35.5074 62.7019 34.6605C59.6976 34.6605 56.7206 34.6605 53.7234 34.6605C53.7234 35.5196 53.7234 36.3574 53.7234 37.2115ZM49.5493 47.1604C50.3912 46.8366 51.1835 46.5208 51.9849 46.2294C52.2298 46.1404 52.3158 46.0189 52.3138 45.7538C52.3027 43.4174 52.3077 41.0809 52.3077 38.7445C52.3077 38.6261 52.3077 38.5067 52.3077 38.366C51.3647 38.366 50.4661 38.366 49.5493 38.366C49.5493 41.2924 49.5493 44.1996 49.5493 47.1604ZM52.582 34.6666C51.4456 34.6666 50.3518 34.6666 49.2569 34.6666C49.2569 35.5307 49.2569 36.3676 49.2569 37.2054C50.3791 37.2054 51.48 37.2054 52.582 37.2054C52.582 36.3412 52.582 35.5145 52.582 34.6666ZM44.4646 33.516C45.7487 33.516 46.9984 33.516 48.3341 33.516C47.0257 32.2492 45.7719 31.0359 44.4646 29.771C44.4646 31.0683 44.4646 32.2745 44.4646 33.516ZM41.5271 33.512C41.5362 33.4341 41.5433 33.3977 41.5433 33.3612C41.5848 31.3708 41.4077 29.3703 41.8155 27.3972C41.8306 27.3243 41.8104 27.212 41.7608 27.1634C41.2002 26.6089 40.6316 26.0635 39.985 25.4381C40.6103 28.1672 40.8481 30.8254 40.8906 33.513C41.1223 33.512 41.3136 33.512 41.5271 33.512ZM43.052 18.3812C45.609 21.8561 48.0983 25.3258 51.3363 28.1642C48.3594 25.0992 45.8458 21.6618 43.3606 18.19C43.2564 18.2537 43.1765 18.3043 43.052 18.3812ZM42.7929 28.2117C42.5582 29.9957 42.6523 31.7473 42.6847 33.4988C42.9285 33.4988 43.1269 33.4988 43.3475 33.4988C43.3475 33.3238 43.3475 33.1791 43.3475 33.0334C43.3515 31.7979 43.3191 30.5613 43.3788 29.3289C43.4041 28.8199 43.2645 28.491 42.7929 28.2117ZM61.4927 33.4988C62.0623 33.5687 62.2415 33.4422 62.1484 33.0121C61.9085 31.9001 61.3722 30.9681 60.4433 30.2861C60.3765 30.2365 60.2976 30.2041 60.1357 30.1151C60.9442 31.1685 61.4734 32.2178 61.4927 33.4988Z" fill="#CD76BA"/>
<path d="M53.4904 31.4405C53.4965 31.7289 53.2607 31.9779 52.9683 31.992C52.6536 32.0062 52.4006 31.7714 52.3966 31.4598C52.3915 31.1653 52.6212 30.9174 52.9126 30.9012C53.2071 30.884 53.4833 31.142 53.4904 31.4405Z" fill="#CD76BA"/>
<path d="M55.7035 31.4658C55.6954 31.7754 55.4384 32.0092 55.1247 31.992C54.8333 31.9758 54.5995 31.7228 54.6087 31.4354C54.6178 31.1501 54.8717 30.9022 55.1561 30.9002C55.4566 30.8981 55.7106 31.1602 55.7035 31.4658Z" fill="#CD76BA"/>
<path d="M57.1255 30.1441C57.42 30.1471 57.6628 30.3829 57.6699 30.6743C57.677 30.9708 57.4109 31.241 57.1144 31.2379C56.8098 31.2339 56.5659 30.9728 56.5781 30.6632C56.5892 30.3657 56.827 30.141 57.1255 30.1441Z" fill="#CD76BA"/>
<path d="M58.411 46.1955C58.4211 46.4839 58.1874 46.7359 57.8949 46.7521C57.5812 46.7693 57.3242 46.5376 57.3161 46.2269C57.308 45.9335 57.5347 45.6835 57.8261 45.6623C58.1226 45.642 58.4009 45.896 58.411 46.1955Z" fill="#CD76BA"/>
<path d="M54.0854 47.7654C54.0773 48.074 53.8162 48.3108 53.5055 48.2926C53.2131 48.2754 52.9814 48.0234 52.9905 47.734C52.9996 47.4467 53.2505 47.2008 53.5369 47.1987C53.8385 47.1967 54.0935 47.4608 54.0854 47.7654Z" fill="#CD76BA"/>
<path d="M60.022 44.9038C60.3236 44.9028 60.5533 45.1254 60.5624 45.4259C60.5715 45.7366 60.3256 45.9946 60.023 45.9946C59.7397 45.9946 59.4847 45.7467 59.4736 45.4624C59.4614 45.1578 59.7104 44.9038 60.022 44.9038Z" fill="#CD76BA"/>
<path d="M55.6935 46.4417C56.0123 46.4377 56.247 46.6734 56.242 46.9912C56.2369 47.2836 55.9981 47.5254 55.7087 47.5295C55.4072 47.5345 55.1542 47.2765 55.1593 46.9699C55.1643 46.6694 55.39 46.4457 55.6935 46.4417Z" fill="#CD76BA"/>
<rect x="0.5" y="0.5" width="109" height="109" rx="14.5" stroke="#CD76BA"/>
</svg>
