<svg width="31" height="31" viewBox="0 0 51 42" fill="none" xmlns="http://www.w3.org/2000/svg">
<path d="M4.97619 11.4845C4.91176 10.6607 4.73904 9.88754 4.81718 9.14182C4.97619 7.60242 6.05637 6.54555 7.5944 6.27413C13.8781 5.1679 20.1632 4.06853 26.4469 2.96367C31.9232 2 37.4009 1.0377 42.8759 0.0630708C44.8196 -0.28374 46.5345 0.826602 46.8731 2.732C47.8162 8.03971 48.7387 13.3502 49.6709 18.6592C50.0451 20.7936 50.3645 22.9388 50.8155 25.0554C51.2062 26.8881 50.1575 28.8497 47.9492 29.2006C46.3494 29.4556 44.7593 29.7805 43.1582 30.0272C42.747 30.0903 42.6757 30.2493 42.6771 30.6153C42.6908 32.958 42.6867 35.3006 42.6826 37.6433C42.6798 39.6296 41.2816 41.0306 39.2953 41.0306C27.3256 41.0319 15.3558 41.0319 3.38607 41.0306C1.40253 41.0306 0.00158285 39.6282 0.00158285 37.642C0.000212062 30.0505 -0.00115873 22.4577 0.00158285 14.8663C0.00158285 12.8841 1.40527 11.49 3.39292 11.4845C3.92342 11.4831 4.45118 11.4845 4.97619 11.4845ZM19.4285 31.1609C26.6799 31.1609 33.8382 31.1609 41.0472 31.1609C41.0472 30.9717 41.0472 30.8045 41.0472 30.6386C41.0472 25.457 41.0472 20.2754 41.0472 15.0952C41.0472 13.7545 40.4125 13.1226 39.0651 13.1226C30.891 13.1226 22.717 13.1226 14.5443 13.1226C14.362 13.1226 14.1797 13.1226 14.0001 13.1226C14.0001 17.3241 14.0001 21.468 14.0001 25.7174C15.0337 23.3021 16.9638 22.8402 18.4113 22.9992C20.181 23.1938 21.6683 24.5687 22.0371 26.3C22.4565 28.274 21.6574 29.7969 19.4285 31.1609ZM42.6853 28.4371C44.4344 28.1246 46.1301 27.8326 47.8217 27.5146C48.9019 27.3117 49.4173 26.5221 49.2213 25.4611C48.9581 24.0355 48.7031 22.6085 48.4509 21.1815C47.383 15.1363 46.3193 9.08974 45.2501 3.04454C45.076 2.05894 44.2508 1.47498 43.2665 1.64907C38.0438 2.57162 32.8238 3.50102 27.6011 4.42767C22.8335 5.27345 18.0659 6.1206 13.2969 6.96501C11.5176 7.28029 9.73695 7.59009 7.95766 7.90674C6.85692 8.10277 6.33601 8.79501 6.46213 9.90536C6.50051 10.2439 6.62662 10.577 6.63073 10.9129C6.63622 11.4297 6.88707 11.4968 7.33806 11.4955C17.9548 11.4831 28.5716 11.4859 39.187 11.4859C41.3186 11.4859 42.6826 12.8443 42.6839 14.9663C42.6853 19.2404 42.6839 23.5146 42.6839 27.7887C42.6853 27.9902 42.6853 28.1917 42.6853 28.4371ZM13.9754 39.3774C14.1194 39.3842 14.2194 39.3925 14.3195 39.3925C22.6293 39.3925 30.939 39.3952 39.2474 39.3911C40.3522 39.3911 41.0363 38.7016 41.0445 37.5967C41.0527 36.3493 41.0458 35.1005 41.0472 33.8517C41.0472 33.5173 41.0472 33.1828 41.0472 32.8579C32.0123 32.8579 23.0515 32.8579 14.081 32.8579C14.4895 34.7537 15.9672 35.9641 18.0097 36.1067C18.5744 36.1464 18.8993 36.4672 18.8788 36.9662C18.8582 37.4391 18.5086 37.8078 17.9864 37.7297C17.1858 37.6104 16.373 37.4583 15.619 37.1745C15.0337 36.9552 14.5334 36.5138 13.9768 36.1601C13.9754 37.2198 13.9754 38.2712 13.9754 39.3774ZM12.2976 13.1226C12.0906 13.1226 11.9384 13.1226 11.7863 13.1226C9.05155 13.1226 6.31682 13.1212 3.58209 13.1226C2.27299 13.124 1.64242 13.76 1.64242 15.0801C1.64105 20.2589 1.64242 25.4364 1.64242 30.6153C1.64242 30.7962 1.64242 30.9758 1.64242 31.1581C3.39429 31.1581 5.07489 31.1581 6.89667 31.1581C4.83774 30.2068 3.86448 28.6948 4.16605 26.5632C4.42239 24.7551 5.53273 23.5201 7.31202 23.1143C9.59302 22.5948 11.2476 23.5447 12.299 25.7558C12.2976 21.4735 12.2976 17.3296 12.2976 13.1226ZM1.64105 32.8387C1.64105 34.4083 1.63968 35.9271 1.64105 37.4459C1.64242 38.7537 2.28395 39.3938 3.59443 39.3952C6.31271 39.3966 9.03099 39.3952 11.7493 39.3952C11.9288 39.3952 12.1098 39.3952 12.2702 39.3952C12.2702 38.2629 12.2702 37.2033 12.2702 36.1039C12.0221 36.3041 11.8288 36.474 11.6232 36.6248C10.6458 37.3418 9.55189 37.7297 8.33737 37.7475C7.7589 37.7557 7.41346 37.461 7.3929 36.9689C7.37233 36.4699 7.69584 36.1547 8.26198 36.1081C8.53339 36.0861 8.80618 36.0573 9.07486 36.0052C10.6307 35.7064 12.0029 34.3041 12.1687 32.8387C8.68144 32.8387 5.19689 32.8387 1.64105 32.8387ZM14.1482 30.9648C15.9987 30.5097 17.6821 30.1465 19.2297 29.361C20.1865 28.8744 20.6224 27.86 20.425 26.714C20.2564 25.7339 19.3873 24.873 18.4045 24.7113C17.253 24.5221 16.2537 24.9635 15.7671 25.9258C15.5148 26.4261 15.2983 26.9512 15.1338 27.4858C14.7965 28.5865 14.5032 29.7023 14.1482 30.9648ZM12.007 30.921C12.007 30.7798 12.0221 30.7099 12.0042 30.6509C11.556 29.1691 11.1297 27.679 10.6334 26.2123C10.5046 25.8312 10.2154 25.4488 9.89733 25.1965C9.05841 24.5331 8.1016 24.4728 7.15712 24.9621C6.24554 25.4351 5.78084 26.2356 5.79866 27.261C5.81786 28.3329 6.32368 29.1389 7.34766 29.5145C8.41688 29.9066 9.51077 30.2383 10.5992 30.5755C11.0461 30.7153 11.5094 30.8017 12.007 30.921Z" fill="#CD76BA"/>
<path d="M28.73 16.492C29.9979 16.9197 30.8355 17.7216 31.1234 19.028C31.17 19.2418 31.1919 19.468 31.1878 19.6873C31.1768 20.1726 30.8478 20.5016 30.3914 20.5098C29.9527 20.518 29.6237 20.2274 29.5593 19.7723C29.5538 19.738 29.5579 19.7038 29.5538 19.6695C29.4414 18.6812 28.7204 18.0013 27.839 18.052C26.9712 18.1013 26.2584 18.8566 26.2721 19.7106C26.2858 20.6126 26.9987 21.2843 27.9843 21.3364C29.3386 21.4063 30.3173 22.0684 30.8766 23.2911C31.636 24.9498 30.8739 26.8922 29.1906 27.616C28.8424 27.7654 28.6463 27.9258 28.7313 28.3178C28.7382 28.3507 28.7327 28.3864 28.7327 28.4206C28.7313 29.176 28.4695 29.5365 27.9198 29.5406C27.366 29.5447 27.096 29.1828 27.0946 28.4344C27.0946 28.2315 27.0946 28.0286 27.0946 27.8189C25.828 27.3912 24.9904 26.5893 24.6998 25.2843C24.656 25.0869 24.6354 24.8785 24.6368 24.6756C24.6382 24.1712 24.9315 23.8367 25.3811 23.8024C25.8623 23.7654 26.22 24.067 26.2667 24.5879C26.3325 25.3364 26.6587 25.8929 27.3838 26.1547C28.0281 26.3878 28.6107 26.2274 29.0768 25.7503C29.5579 25.2555 29.6909 24.6496 29.4195 23.9998C29.1398 23.3336 28.5997 23.0046 27.8924 22.98C26.9329 22.9471 26.1323 22.5838 25.499 21.8751C24.0076 20.2069 24.5792 17.5832 26.6381 16.6935C26.9863 16.5427 27.1823 16.3837 27.0974 15.9917C27.0905 15.9588 27.096 15.9231 27.096 15.8889C27.0974 15.1308 27.3564 14.7744 27.9089 14.7703C28.4654 14.7662 28.7327 15.1253 28.7341 15.8765C28.73 16.0794 28.73 16.2809 28.73 16.492Z" fill="#CD76BA"/>
</svg>
