<svg width="91" height="91" viewBox="0 0 91 91" fill="none" xmlns="http://www.w3.org/2000/svg">
<path d="M56.5615 90.2014C45.5188 90.2014 34.4761 90.2014 23.4334 90.2014C23.4268 90.1727 23.429 90.1308 23.4114 90.1175C22.798 89.6917 22.4604 89.1313 22.7517 88.3922C23.0473 87.6442 23.7159 87.5516 24.4351 87.5538C28.7816 87.5648 33.1281 87.5582 37.4745 87.5582C37.7834 87.5582 38.0923 87.5582 38.4586 87.5582C38.3504 85.4864 38.249 83.5537 38.1475 81.6187C37.8231 75.4631 37.4922 69.3052 37.1811 63.1495C37.1259 62.0707 37.5694 61.486 38.3791 61.433C39.2418 61.3779 39.7625 61.9559 39.8177 63.0459C39.8838 64.3366 39.928 65.6273 40.0251 66.9157C40.0427 67.1408 40.2655 67.3504 40.3957 67.5666C40.5435 67.3548 40.7929 67.1562 40.8215 66.929C41.0422 65.1816 41.1679 63.4231 41.4217 61.6823C41.9093 58.3375 41.7063 54.8604 43.3522 51.7296C42.2843 50.7434 41.0179 50.2227 39.6698 49.8961C39.4492 49.8432 39.0785 50.0484 38.8998 50.2447C38.249 50.9574 37.6841 51.7516 37.0222 52.4555C32.7177 57.0402 25.0198 58.5163 19.2922 55.9216C16.4989 54.6574 14.1823 52.846 12.3952 50.3484C12.2275 50.1123 11.8193 49.8343 11.5921 49.8851C8.94005 50.4808 6.25495 52.2569 5.81368 55.5245C5.49597 57.8786 5.23562 60.2416 4.96424 62.6024C4.77671 64.2262 4.61565 65.8523 4.44135 67.5115C6.74034 67.5115 8.95549 67.5115 11.2082 67.5115C11.2324 67.1915 11.2567 66.9334 11.2699 66.6731C11.3361 65.3824 11.3803 64.0917 11.4729 62.8032C11.5369 61.9008 12.0907 61.3911 12.8717 61.4286C13.6197 61.4639 14.0962 61.9978 14.1007 62.8561C14.1029 63.4717 14.0632 64.0894 14.0301 64.705C13.644 71.9749 13.2534 79.2447 12.8673 86.5146C12.8497 86.8301 12.8651 87.1456 12.8651 87.5538C14.3787 87.5538 15.8393 87.567 17.2998 87.5494C18.0566 87.5405 18.745 87.6619 19.0075 88.4738C19.2723 89.2902 18.8112 89.8086 18.1493 90.197C13.8624 90.197 9.57327 90.197 5.28637 90.197C3.42643 89.7689 1.78933 88.9769 0.906799 87.1809C0.500834 86.3579 0.295648 85.4357 0 84.5598C0 83.856 0 83.1499 0 82.4461C0.0507456 82.3137 0.132376 82.1858 0.14782 82.049C1.10537 73.6539 2.18426 65.2676 2.96751 56.8549C3.486 51.2971 6.49764 48.323 11.3736 47.1912C13.1431 46.7808 14.8994 46.3086 16.66 45.8563C17.3947 45.6688 18.4162 45.6776 18.7759 45.1988C19.1664 44.6804 18.895 43.6919 18.9877 42.9153C19.0781 42.1629 18.7582 41.7879 18.1272 41.404C13.7013 38.71 11.3074 34.7453 10.95 29.5802C10.9081 28.9779 10.725 28.7396 10.1668 28.5455C7.59198 27.6475 6.05417 25.1587 6.97421 22.9193C7.60081 21.3903 7.5633 19.9055 7.56109 18.3743C7.55889 15.698 7.99354 13.1166 9.10332 10.672C12.5761 3.016 21.0506 -1.39887 29.3111 0.41915C36.1287 1.91946 40.645 6.17988 42.8072 12.8386C43.6346 15.3869 43.5419 18.0522 43.575 20.6931C43.5795 21.0947 43.5794 21.5624 43.7736 21.8823C45.4173 24.5851 43.6523 27.7424 40.9451 28.5455C40.409 28.7043 40.2391 28.9911 40.2038 29.5427C39.875 34.6415 37.5716 38.6019 33.2163 41.2936C32.464 41.7592 32.2036 42.2335 32.2279 43.094C32.2897 45.3047 32.2676 45.2408 34.3746 45.8299C38.0438 46.8558 41.9799 47.147 45.0864 49.6446C48.9055 46.7543 53.6536 46.7014 57.9603 45.2143C57.9603 44.4332 57.914 43.639 57.9736 42.8535C58.0265 42.1519 57.786 41.7526 57.1616 41.4017C54.8008 40.0757 52.963 38.2114 51.7517 35.7756C51.2972 34.86 50.9265 33.9046 50.5117 32.9493C49.8366 33.9157 49.3468 35.4557 49.3247 36.8677C49.3027 38.218 49.3755 39.5683 49.3424 40.9164C49.3027 42.5358 47.9127 43.8155 46.3881 43.5926C45.0842 43.4029 43.7824 43.147 42.5138 42.7984C40.5634 42.2666 39.5242 40.3935 40.1287 38.4629C41.2606 34.8512 42.805 31.449 45.435 28.6381C45.6049 28.4572 45.7924 28.2145 45.8145 27.9828C45.949 26.659 46.5602 25.3286 45.8145 24.0004C45.7483 23.8813 45.7483 23.7136 45.7483 23.568C45.777 21.2778 45.6159 18.9678 45.8784 16.7041C46.8514 8.29796 53.4837 1.54659 61.8589 0.236028C67.0394 -0.573696 71.6837 0.723625 75.8912 3.76395C76.0566 3.88309 76.2155 4.01988 76.3435 4.17874C76.7671 4.70385 76.7847 5.27749 76.3744 5.79377C75.9728 6.29902 75.4234 6.48656 74.8079 6.16444C74.4725 5.98793 74.157 5.7673 73.8437 5.55328C72.0566 4.32436 70.0951 3.45286 67.9815 3.02924C59.7077 1.36787 51.7407 6.02544 49.1218 14.041C48.5658 15.7399 48.2745 17.5028 48.4268 19.3649C49.1218 19.1531 49.8918 19.1178 50.3683 18.7273C51.2972 17.9661 52.2525 18.1139 53.2829 18.211C54.3883 18.3169 55.5135 18.4206 56.6145 18.3301C59.0348 18.1338 61.0536 17.1387 62.4899 15.0846C63.7321 13.3063 65.517 13.335 66.7967 15.1332C67.9793 16.7967 69.5612 17.8933 71.569 18.1338C73.0649 18.3147 74.5983 18.1669 76.114 18.2C76.8597 18.2154 77.6342 18.1956 78.338 18.3941C79.1808 18.6302 79.9641 19.0803 80.9569 19.5194C80.8334 18.2176 80.787 17.1321 80.6193 16.0665C80.3038 14.0741 79.5316 12.2429 78.541 10.4933C77.996 9.52909 78.2431 8.70393 79.1345 8.40607C79.9707 8.12587 80.4561 8.58478 80.8576 9.24006C83.6729 13.8447 83.8273 18.9347 83.3596 24.0644C83.2471 25.3022 83.0044 26.4847 83.3464 27.6982C83.4368 28.0181 83.5207 28.3866 83.7347 28.6139C86.3712 31.4247 87.9002 34.8335 89.0541 38.4342C89.6675 40.3515 88.6195 42.2379 86.6845 42.7939C85.6167 43.1006 84.5179 43.3124 83.4214 43.5044C81.1864 43.8927 79.7765 42.6549 79.8074 40.4001C79.8273 39.0498 79.8802 37.6973 79.803 36.3537C79.7368 35.202 79.4257 34.0878 78.7131 32.978C77.6629 36.261 75.9397 38.9593 73.1597 40.6516C71.4763 41.6775 70.9909 42.8248 71.2093 44.6009C71.2755 45.1282 71.3969 45.3489 71.9264 45.479C74.66 46.1476 77.4047 46.7852 80.1008 47.5839C84.0237 48.7466 86.4926 51.3038 87.0376 55.4627C87.459 58.6906 87.8054 61.9294 88.1694 65.1661C88.8445 71.1431 89.5329 77.12 90.1617 83.1014C90.3581 84.9702 89.908 86.7132 88.6482 88.1892C87.6641 89.3409 86.3293 89.8263 84.9305 90.1992C77.2348 90.1992 69.5414 90.1992 61.8457 90.1992C61.5655 89.7469 61.1176 89.3211 61.0448 88.8379C60.9256 88.059 61.6405 87.5604 62.6863 87.5582C67.2666 87.5516 71.847 87.556 76.4273 87.556C76.7428 87.556 77.0561 87.556 77.4025 87.556C77.4025 87.2603 77.4113 87.0596 77.4003 86.861C77.0473 80.1493 76.6921 73.4377 76.3368 66.726C76.2707 65.4949 76.1912 64.2637 76.1493 63.0326C76.1162 62.064 76.606 61.4639 77.3937 61.4242C78.2034 61.3845 78.7087 61.9184 78.7815 62.8936C78.8079 63.2378 78.8344 63.582 78.8697 64.0608C81.0341 63.571 83.1015 63.101 85.2129 62.6222C85.0717 61.4043 84.9371 60.2725 84.807 59.1406C84.6768 58.0044 84.5466 56.8681 84.4186 55.7319C84.0061 52.0429 80.798 50.0881 77.6496 49.7351C77.2017 53.0137 75.7786 55.8135 73.2899 58.0154C70.7923 60.2262 67.827 61.2918 64.5043 61.2918C61.7905 61.2918 59.2819 60.502 57.0866 58.9046C53.9558 56.6254 52.0849 53.541 51.5509 49.5872C50.7081 49.8432 49.9337 50.0197 49.2056 50.3087C46.6242 51.3346 45.0445 53.1747 44.7312 55.9988C44.5966 57.2233 44.4532 58.4457 44.3186 59.6702C44.2105 60.6476 44.1068 61.6272 43.9987 62.6311C46.1851 63.1209 48.2525 63.5842 50.3352 64.0497C50.4103 63.4386 50.4389 62.9399 50.536 62.4546C50.6882 61.6978 51.2089 61.369 51.9503 61.4463C52.6695 61.5213 53.027 61.9846 53.0689 62.6906C53.0821 62.9245 53.0711 63.1606 53.0578 63.3944C52.7159 69.9009 52.3695 76.4074 52.0275 82.9139C51.9481 84.4296 51.8819 85.9454 51.8046 87.5538C53.1329 87.5538 54.3883 87.567 55.6415 87.5494C56.3938 87.5383 57.0866 87.6464 57.3712 88.4495C57.6647 89.2681 57.1881 89.7822 56.5615 90.2014ZM64.6036 16.7769C61.2566 20.4659 60.2858 20.8034 52.6431 20.9314C52.6166 21.0616 52.5636 21.1984 52.5658 21.3352C52.5901 24.0357 52.5107 26.7407 52.6695 29.4324C52.9895 34.8357 56.2747 38.849 61.4618 40.3846C68.2396 42.3924 75.7897 37.4767 76.4869 30.4517C76.7671 27.6298 76.6148 24.7638 76.659 21.9176C76.6634 21.5757 76.659 21.2337 76.659 20.8807C71.527 21.3462 67.6152 20.6644 64.6036 16.7769ZM13.4917 21.5426C13.4917 23.2613 13.4167 24.9337 13.5116 26.5951C13.6219 28.519 13.6175 30.5069 14.1249 32.3359C15.7091 38.0415 21.5492 41.3091 26.6282 40.7619C32.5081 40.1287 37.2252 35.5748 37.5473 29.6663C37.6952 26.9459 37.6201 24.21 37.5959 21.483C37.5937 21.1984 37.3113 20.7593 37.0531 20.6578C34.9659 19.8371 33.4789 18.35 32.2654 16.5342C32.144 16.3533 31.9962 16.1878 31.8925 16.0576C26.9878 21.9904 20.6623 22.9568 13.4917 21.5426ZM10.2153 19.6385C10.6831 19.5238 11.1067 19.5414 11.3427 19.3406C12.3069 18.5155 13.3307 18.6721 14.4118 18.9876C14.9435 19.1421 15.4995 19.2347 16.0511 19.2987C21.6993 19.9606 26.6944 18.981 30.0591 13.7895C30.882 12.5209 32.6647 12.5209 33.6046 13.7079C33.876 14.0499 34.0768 14.447 34.3062 14.8243C35.1469 16.2032 36.228 17.3241 37.6841 18.072C38.4277 18.4537 39.1205 18.9303 39.8596 19.323C40.1486 19.4752 40.4994 19.5105 40.901 19.6208C41.2121 13.5645 39.1425 8.68186 34.1739 5.36354C28.8743 1.82238 23.2194 1.65028 17.7257 4.88918C12.2341 8.12366 10.0167 13.2313 10.2153 19.6385ZM49.1548 87.5207C49.5233 80.5575 49.8874 73.6804 50.2558 66.7525C48.0384 66.2539 45.9093 65.7751 43.7251 65.2831C43.6545 65.667 43.5839 65.9494 43.5508 66.2362C43.1978 69.3538 42.847 72.4713 42.5028 75.591C42.2204 78.157 41.9159 80.7208 41.6798 83.2889C41.4592 85.6916 42.6285 87.3221 44.7643 87.4986C46.1851 87.6156 47.6237 87.5207 49.1548 87.5207ZM80.1097 87.5582C81.3915 87.5582 82.5344 87.5582 83.6773 87.5582C83.8825 87.5582 84.0877 87.556 84.2929 87.5405C85.9829 87.4126 87.0662 86.5058 87.4126 84.8356C87.5362 84.2443 87.5693 83.6066 87.5053 83.0065C87.0111 78.3401 86.4838 73.6782 85.9631 69.0162C85.8285 67.8027 85.674 66.5936 85.5152 65.2787C83.3927 65.7574 81.3673 66.2031 79.3573 66.6973C79.2029 66.7348 79.033 67.1408 79.044 67.3681C79.3044 72.7317 79.5846 78.093 79.867 83.4544C79.9376 84.7937 80.0258 86.1351 80.1097 87.5582ZM11.0206 70.2186C8.79443 70.2186 6.71166 70.2054 4.6333 70.2407C4.43914 70.2429 4.10378 70.5275 4.08171 70.7084C3.58529 75.0483 3.07783 79.3882 2.67848 83.7368C2.49977 85.6916 3.64044 87.2383 5.42316 87.439C6.94332 87.6111 8.50099 87.4743 10.1116 87.4743C10.4139 81.7489 10.7139 76.0456 11.0206 70.2186ZM60.6035 42.9197C60.6035 43.7802 60.6278 44.5392 60.5969 45.2937C60.5528 46.3814 60.2042 47.2882 59.0922 47.756C58.9046 47.8354 58.7281 48.184 58.7237 48.4135C58.6619 51.6303 61.3757 54.3066 64.6676 54.3044C67.8976 54.3022 70.5673 51.6215 70.4945 48.4157C70.4901 48.1796 70.2606 47.8376 70.0444 47.7339C69.2281 47.339 68.7603 46.7212 68.6853 45.8343C68.6081 44.9076 68.5816 43.9765 68.5286 42.9528C65.8899 43.639 63.2886 43.6301 60.6035 42.9197ZM29.5339 42.9329C26.9283 43.5993 24.327 43.6699 21.6728 42.9484C21.6265 43.9589 21.611 44.89 21.5338 45.8144C21.4499 46.8448 20.841 47.5 19.8724 47.842C22.9966 51.0081 28.8323 50.6264 31.2924 47.8244C28.9404 46.8801 29.8296 44.7399 29.5339 42.9329ZM54.2493 48.954C54.4765 54.4721 59.4562 58.8957 65.1088 58.642C71.1078 58.375 74.9182 53.3005 74.9954 48.9584C74.4218 48.8238 73.8371 48.6848 73.2502 48.5458C72.0411 54.0087 69.4465 56.6938 65.2655 56.9145C63.2599 57.0204 61.4176 56.535 59.7673 55.4142C57.3712 53.7881 56.2195 51.4406 56.0651 48.5061C55.3921 48.676 54.8339 48.8106 54.2493 48.954ZM36.3449 49.1371C35.1645 48.4885 34.3504 48.7003 33.3509 49.66C28.9691 53.8631 22.0567 53.7528 17.6771 49.5563C16.6004 48.5238 16.1724 48.4686 14.8707 49.1901C20.3071 56.6056 31.4865 56.0937 36.3449 49.1371ZM46.6087 40.9958C46.6639 40.8303 46.7235 40.7222 46.7279 40.6141C46.7367 40.3228 46.7345 40.0294 46.7146 39.736C46.5668 37.4105 46.611 35.1093 47.5531 32.9162C48.0649 31.7226 48.0605 31.7204 46.9463 30.9151C44.8768 33.3376 43.6677 36.2103 42.6638 39.1822C42.4741 39.7448 42.7587 40.1794 43.3345 40.314C44.4134 40.5655 45.5034 40.7685 46.6087 40.9958ZM82.4969 41.0134C83.6994 40.7619 84.8158 40.5545 85.9189 40.2898C86.5279 40.1441 86.6845 39.6455 86.5036 39.1116C85.4997 36.1661 84.284 33.3244 82.2476 30.9173C81.354 31.3497 81.1511 31.8241 81.5636 32.8302C82.0755 34.0767 82.3182 35.4689 82.466 36.8214C82.6116 38.1717 82.4969 39.5484 82.4969 41.0134ZM10.8618 22.3368C9.77184 22.8112 9.25115 23.5614 9.41883 24.3711C9.57989 25.1521 10.0234 25.6883 10.8618 25.9221C10.8618 24.6778 10.8618 23.5525 10.8618 22.3368ZM79.3264 25.3352C80.3347 24.9425 80.9084 24.2144 80.8025 23.4312C80.6877 22.5884 80.2222 22.0147 79.3264 21.7632C79.3264 22.9789 79.3264 24.1196 79.3264 25.3352ZM49.8675 25.386C49.8675 24.1284 49.8675 22.9833 49.8675 21.7632C49.007 22.0743 48.5216 22.6126 48.4665 23.44C48.4025 24.3711 48.9519 24.9425 49.8675 25.386ZM40.3229 25.8604C41.2694 25.5382 41.8056 24.8852 41.7504 24.0821C41.6908 23.2194 41.2165 22.6612 40.3229 22.3457C40.3229 23.5614 40.3229 24.702 40.3229 25.8604ZM80.8179 28.049C80.7297 27.9828 80.6414 27.9167 80.5531 27.8505C79.1565 28.2631 79.1565 28.2631 79.4654 29.8494C80.0038 29.1346 80.4097 28.5918 80.8179 28.049ZM48.4201 28.0159C48.8614 28.5278 49.3049 29.0397 49.8609 29.6839C50.0175 28.1814 50.0175 28.1814 48.4201 28.0159Z" fill="#CD76BA"/>
</svg>
