<svg width="66" height="91" viewBox="0 0 66 91" fill="none" xmlns="http://www.w3.org/2000/svg">
<path d="M25.3084 90.2203C24.6686 89.8144 24.1964 89.2915 24.4744 88.4818C24.7502 87.6786 25.443 87.5705 26.1976 87.5727C33.8602 87.5816 41.5228 87.5771 49.1831 87.5771C49.5295 87.5771 49.8759 87.5771 50.3304 87.5771C50.3304 87.1999 50.3304 86.8888 50.3304 86.5777C50.3304 82.9968 50.3282 79.4137 50.3326 75.8329C50.3326 75.5107 50.3216 75.1798 50.3944 74.8709C50.5555 74.1891 51.0056 73.8008 51.7226 73.8361C52.4419 73.8714 52.8545 74.3039 52.9427 74.9945C53.0023 75.4578 52.9714 75.9321 52.9714 76.4021C52.9736 79.7778 52.9714 83.1535 52.9714 86.5291C52.9714 86.8447 52.9714 87.1602 52.9714 87.5176C55.4469 87.5176 57.8452 87.5992 60.2369 87.4889C61.8894 87.4139 62.5756 86.4916 62.3439 84.8104C62.0968 83.0123 61.7195 81.2295 61.3665 79.4468C60.4509 74.8157 59.5021 70.1935 58.5998 65.5602C58.057 62.7802 56.4662 61.0196 53.7348 60.2451C50.9151 59.4464 48.1109 58.5948 45.3 57.7674C45.0242 57.6858 44.7462 57.6196 44.402 57.5269C43.6629 59.5921 42.9061 61.5888 42.2376 63.6142C41.7412 65.1145 40.894 66.0456 39.2061 66.0213C38.959 66.0169 38.6766 66.2397 38.4648 66.4184C37.3042 67.4091 36.168 68.4306 35.0052 69.4191C33.3417 70.8333 31.6935 70.8245 30.0256 69.3948C28.8893 68.4218 27.7861 67.4069 26.6366 66.4471C26.3697 66.2243 25.9858 66.05 25.6438 66.0257C24.3222 65.9331 23.4573 65.2932 23.0161 64.0533C22.2505 61.9021 21.4804 59.7531 20.6773 57.5049C19.6404 57.8005 18.6365 58.0807 17.6348 58.3742C15.5256 58.9941 13.4273 59.645 11.3115 60.2429C8.61754 61.0019 7.01354 62.7339 6.47078 65.4785C5.25288 71.632 4.02395 77.7855 2.80605 83.9389C2.74428 84.2544 2.71119 84.5788 2.68692 84.8987C2.56998 86.5247 3.21423 87.4271 4.82264 87.4933C7.21651 87.5926 9.61921 87.5198 12.1102 87.5198C12.1102 87.0278 12.1102 86.5667 12.1102 86.1077C12.1102 82.6725 12.108 79.2372 12.1124 75.8042C12.1124 75.4843 12.1168 75.1533 12.1896 74.8444C12.3529 74.1538 12.8162 73.7832 13.531 73.8339C14.2415 73.8847 14.6474 74.3127 14.7291 75.0143C14.7666 75.3342 14.7511 75.6586 14.7511 75.9829C14.7533 79.7976 14.7511 83.6124 14.7511 87.575C15.7705 87.575 16.7523 87.575 17.7363 87.575C18.1467 87.575 18.5593 87.5838 18.9696 87.5727C19.7066 87.5529 20.4016 87.6213 20.7281 88.4244C21.0568 89.2385 20.5472 89.7349 20.0176 90.2159C14.7908 90.2159 9.56625 90.2159 4.33946 90.2159C3.42162 89.7879 2.38245 89.5165 1.61464 88.9032C-0.0709939 87.5551 -0.198958 85.6025 0.169499 83.6675C1.35871 77.4501 2.63397 71.2481 3.86289 65.0373C4.62629 61.1762 6.91424 58.7492 10.6827 57.6659C13.809 56.768 16.9663 55.956 20.0287 54.8705C21.5113 54.3454 22.8329 53.3305 24.1655 52.4435C24.759 52.0486 24.4149 50.0739 23.7486 49.6746C20.6112 47.7948 18.2791 45.1913 16.728 41.8862C15.7462 39.7924 15.1681 37.5883 15.1042 35.2717C15.0865 34.6208 14.9166 34.3296 14.2349 34.1354C10.9871 33.2088 9.27282 30.1 10.3473 27.1921C10.4885 26.8104 10.6407 26.3757 10.9254 26.1176C11.7285 25.3939 11.6689 24.4893 11.6998 23.5428C11.7902 20.6746 11.905 17.8064 12.0903 14.9425C12.1565 13.9188 12.8316 13.4356 13.6524 13.5812C14.4489 13.7224 14.7489 14.4086 14.6739 15.4279C14.4731 18.1373 14.3474 20.8511 14.1907 23.5627C14.3033 23.6156 14.418 23.6664 14.5305 23.7193C14.8019 23.5163 15.1549 23.3685 15.3314 23.1015C15.8433 22.3293 16.5493 21.9035 17.4407 21.8439C24.7701 21.3497 31.7465 19.3817 38.5707 16.7914C40.5255 16.0501 42.2222 16.3458 43.8262 17.6387C45.3551 18.872 46.9525 20.0259 48.4573 21.2901C48.9978 21.7447 49.3464 22.422 49.8031 22.9824C50.0215 23.2516 50.2841 23.4832 50.5268 23.7326C50.5996 23.6818 50.6724 23.6311 50.743 23.5781C50.7629 23.4126 50.7982 23.2494 50.8004 23.0839C50.8048 20.0612 50.8357 17.0363 50.796 14.0137C50.7408 9.83488 48.027 6.76146 43.9674 6.27386C43.2525 6.18782 42.5046 6.39962 41.7831 6.34226C41.1477 6.29151 40.4086 6.22091 39.9165 5.87451C34.5265 2.08183 28.8672 1.64277 22.9609 4.46246C20.898 5.44649 19.1859 6.92914 17.776 8.74054C17.5046 9.08693 17.2641 9.4576 16.9861 9.79737C16.4257 10.4857 15.6601 10.6358 15.0578 10.1967C14.4489 9.75104 14.2944 8.92587 14.8769 8.25294C16.1588 6.7747 17.3634 5.15746 18.888 3.97266C25.4232 -1.10632 33.9131 -1.29606 40.8057 3.29311C41.1234 3.50491 41.5713 3.71672 41.9155 3.66156C47.2018 2.80992 53.5539 6.93355 53.4568 14.3115C53.4127 17.6872 53.4391 21.0629 53.4634 24.4386C53.4656 24.8159 53.5627 25.2748 53.7878 25.5572C56.047 28.3923 55.2616 32.0151 51.994 33.6897C51.8638 33.7559 51.7314 33.8486 51.5924 33.8662C50.24 34.0383 50.0701 34.9076 49.9553 36.1123C49.4148 41.8377 46.7142 46.3232 41.8294 49.3988C40.9447 49.9548 40.5409 50.502 40.6402 51.55C40.6932 52.1104 40.894 52.3994 41.3065 52.7546C43.8107 54.9168 46.9768 55.4552 49.9862 56.3774C51.4424 56.8231 52.9074 57.2445 54.3724 57.6615C58.1828 58.7448 60.4619 61.2159 61.2121 65.1145C62.4277 71.418 63.6743 77.7149 64.8944 84.0183C65.4659 86.9748 64.0472 89.5474 61.0333 90.0681C60.923 90.088 60.8215 90.163 60.7178 90.2115C48.914 90.2203 37.1101 90.2203 25.3084 90.2203ZM17.7539 24.5467C17.7539 28.3636 17.6304 32.121 17.7959 35.8674C17.9128 38.5415 18.9189 41.0324 20.5317 43.1858C24.1986 48.0838 29.0702 50.1048 35.1597 49.187C40.7792 48.3398 45.8626 43.6734 46.9636 38.1399C47.8748 33.5529 47.4026 28.9042 47.3497 24.2797C47.3453 23.9466 47.0275 23.5318 46.7407 23.2979C45.2382 22.0778 43.6717 20.9349 42.178 19.706C41.3352 19.011 40.5145 18.8897 39.4995 19.289C34.4404 21.2725 29.2467 22.7993 23.8831 23.7061C21.8621 24.0459 19.8235 24.2665 17.7539 24.5467ZM26.9168 51.1948C27.0691 52.042 27.0956 52.7502 27.3294 53.379C27.8589 54.8043 28.4855 56.1943 29.0835 57.5931C29.5313 58.6411 29.7277 60.0973 30.5242 60.6114C31.3604 61.1497 32.7835 60.7504 33.9462 60.8188C34.511 60.8519 34.7714 60.6379 34.9766 60.1304C35.8745 57.9064 36.8453 55.7089 37.719 53.4739C37.9728 52.8252 37.9948 52.0839 38.1515 51.2234C34.3301 52.4237 30.7272 52.406 26.9168 51.1948ZM28.5738 64.607C29.7145 65.6065 30.8154 66.5663 31.9098 67.5304C32.329 67.9011 32.7305 67.9077 33.1563 67.5326C34.2705 66.5508 35.3936 65.58 36.5387 64.5828C35.7708 63.8238 35.0075 63.3009 33.8866 63.4289C33.0195 63.5259 32.126 63.5171 31.2589 63.4311C30.1579 63.3208 29.3504 63.7598 28.5738 64.607ZM39.932 55.111C39.0671 57.1695 38.189 59.2412 37.3329 61.3218C37.2734 61.4674 37.3219 61.7653 37.4322 61.8535C38.0831 62.3742 38.767 62.8508 39.4951 63.3847C40.1284 61.6285 40.713 60.0046 41.2977 58.3808C42.0567 56.2627 42.0567 56.2627 40.0908 55.1419C40.0688 55.1286 40.0357 55.1309 39.932 55.111ZM25.1297 55.0272C24.4943 55.4552 23.9317 55.8104 23.4044 56.2097C23.2808 56.3024 23.1793 56.5782 23.2257 56.715C23.9935 58.9103 24.7877 61.0946 25.6129 63.3891C26.3432 62.8508 26.9874 62.4051 27.592 61.9109C27.7222 61.805 27.8192 61.4873 27.7575 61.3373C26.9124 59.2611 26.0387 57.196 25.1297 55.0272ZM15.0071 26.3757C13.5685 26.7243 12.6529 27.7393 12.6529 28.9505C12.6529 30.1596 13.6414 31.2451 15.0071 31.4988C15.0071 29.7889 15.0071 28.0879 15.0071 26.3757ZM50.1208 31.5386C51.6233 31.0951 52.4816 30.0736 52.4397 28.8667C52.3978 27.6731 51.4424 26.6493 50.1208 26.4088C50.1208 28.1011 50.1208 29.7845 50.1208 31.5386Z" fill="#CD76BA"/>
</svg>
