<svg width="25" height="25" viewBox="0 0 25 25" fill="none" xmlns="http://www.w3.org/2000/svg">
<path d="M11.7672 24.9484C11.2863 24.8832 10.8026 24.8234 10.3216 24.7555C9.71562 24.6713 9.31344 24.174 9.38137 23.6033C9.45203 23.0137 9.96833 22.6115 10.5825 22.7039C11.5607 22.8533 12.539 22.9213 13.5254 22.8126C16.6042 22.4783 19.0988 21.0816 20.9113 18.5843C24.7346 13.3234 22.9194 6.03811 17.0852 3.13865C15.0879 2.14681 12.9738 1.86964 10.77 2.21746C10.5499 2.25279 10.308 2.25822 10.096 2.20387C9.63137 2.08159 9.34062 1.62235 9.37594 1.14409C9.41127 0.673981 9.77268 0.282678 10.2537 0.198439C16.8678 -0.972757 23.145 3.14952 24.6776 9.68213C24.8134 10.2636 24.8624 10.8669 24.9547 11.4593C24.9656 11.5381 24.9846 11.6169 24.9982 11.6957C24.9982 12.2147 24.9982 12.7365 24.9982 13.2555C24.9357 13.7039 24.8868 14.155 24.8107 14.6006C23.9194 19.7854 19.8624 23.8452 14.6504 24.7637C14.1966 24.8425 13.7374 24.8914 13.2781 24.9539C12.7781 24.9484 12.2727 24.9484 11.7672 24.9484Z" fill="#EF8100"/>
<path d="M0 11.693C0.0652174 11.2201 0.125 10.7473 0.195652 10.2745C0.230979 10.0435 0.277177 9.81253 0.342394 9.58427C0.497285 9.03536 1.0462 8.72829 1.60055 8.86687C2.12229 8.99731 2.47283 9.52177 2.35598 10.0598C2.10055 11.2337 2.01087 12.4185 2.14946 13.6114C2.19837 14.0381 2.28532 14.4593 2.35869 14.8832C2.4538 15.4348 2.11413 15.962 1.57608 16.0816C1.02717 16.2038 0.467391 15.9049 0.347826 15.3587C0.214674 14.7582 0.144025 14.1468 0.0461993 13.5381C0.029895 13.443 0.0163043 13.3479 0 13.2527C0 12.7337 0 12.212 0 11.693Z" fill="#EF8100"/>
<path d="M10.5247 15.4266C11.7638 14.1168 12.954 12.8587 14.1442 11.6032C15.0709 10.625 16.0002 9.64401 16.9269 8.66575C17.223 8.35325 17.5845 8.24727 17.9921 8.35868C18.3942 8.4701 18.6415 8.74999 18.7258 9.1576C18.8046 9.53803 18.666 9.85597 18.4024 10.1304C17.4404 11.144 16.4812 12.1603 15.5192 13.1739C14.2964 14.4674 13.0736 15.7581 11.8453 17.0489C11.0546 17.8804 10.0383 17.8831 9.24207 17.0489C8.35076 16.1141 7.46218 15.1739 6.57631 14.2364C6.14153 13.7772 6.13609 13.144 6.56 12.7337C6.99479 12.3125 7.63608 12.3369 8.08174 12.8016C8.84532 13.6005 9.60348 14.4049 10.3616 15.2092C10.4214 15.269 10.4622 15.3397 10.5247 15.4266Z" fill="#EF8100"/>
<path d="M2.86501 17.6741C3.31338 17.6795 3.60142 17.8833 3.82425 18.2203C4.53621 19.2936 5.42207 20.204 6.47642 20.9485C6.74272 21.136 7.0199 21.3018 7.29435 21.4784C7.81066 21.8099 7.96827 22.4159 7.66392 22.9159C7.36501 23.4105 6.74272 23.5599 6.21555 23.2529C4.51446 22.261 3.12588 20.9404 2.04164 19.2991C1.81338 18.9512 1.7862 18.5817 1.98457 18.2148C2.1775 17.8616 2.49001 17.6822 2.86501 17.6741Z" fill="#EF8100"/>
<path d="M2.80922 7.26918C2.48585 7.26374 2.17335 7.08168 1.98042 6.7257C1.78205 6.35885 1.80922 5.992 2.0402 5.64145C2.80379 4.47569 3.73313 3.45939 4.84454 2.617C5.27661 2.28819 5.73313 1.98928 6.19509 1.70396C6.73041 1.37243 7.35814 1.52733 7.66248 2.03005C7.96955 2.5382 7.8065 3.15776 7.26574 3.47841C5.84998 4.31537 4.68694 5.41592 3.77661 6.78548C3.55378 7.117 3.26031 7.26918 2.80922 7.26918Z" fill="#EF8100"/>
</svg>
