<svg width="20" height="31"  fill="none" xmlns="http://www.w3.org/2000/svg">
<path d="M12.7643 0.0207665C13.2241 0.231376 13.7314 0.376731 14.1377 0.664465C14.9149 1.2162 15.2916 2.02304 15.3124 2.9782C15.3272 3.70792 15.3094 4.44061 15.3213 5.17329C15.3243 5.30381 15.3628 5.4462 15.4251 5.55892C15.8701 6.35093 15.7574 7.26753 15.0988 7.89046C14.9297 8.05064 14.9535 8.21972 14.9564 8.40067C14.9802 9.88087 14.5145 11.1742 13.4673 12.2391C13.3072 12.3993 13.144 12.5654 12.9542 12.687C12.7406 12.8235 12.6813 12.9866 12.6961 13.2269C12.7169 13.5117 12.702 13.7994 12.702 14.1257C13.1499 14.2503 13.5979 14.3749 14.0487 14.4995C15.0276 14.7724 16.0036 15.0512 16.8994 15.5495C18.4093 16.392 19.1864 17.6794 19.228 19.4058C19.2458 20.1651 19.228 20.9275 19.2398 21.6898C19.2428 21.8144 19.2903 21.9598 19.3644 22.0636C19.5869 22.3721 19.6907 22.7132 19.6937 23.087C19.6967 23.6002 19.6996 24.1163 19.6937 24.6295C19.6818 25.5906 19.0233 26.2402 18.0652 26.2432C17.5342 26.2432 17.0032 26.2432 16.4396 26.2432C16.4396 26.8869 16.4396 27.5068 16.4396 28.1268C16.4396 28.4145 16.4485 28.6993 16.4366 28.987C16.4159 29.61 16.1193 30.052 15.5467 30.3011C15.4874 30.3278 15.4311 30.3634 15.3747 30.3961C14.3661 30.3961 13.3576 30.3961 12.349 30.3961C11.9782 30.1647 11.8596 29.9363 11.9486 29.6278C12.0316 29.343 12.263 29.2125 12.6813 29.2095C13.414 29.2095 14.1437 29.2036 14.8764 29.2125C15.1433 29.2154 15.2501 29.1087 15.2471 28.8446C15.2412 27.8865 15.2501 26.9284 15.2382 25.9703C15.2382 25.8694 15.1789 25.7419 15.1018 25.6736C13.9835 24.6384 13.9805 23.1018 15.0959 22.0428C15.17 21.9716 15.2353 21.8471 15.2382 21.7462C15.2531 21.2538 15.2442 20.7584 15.2442 20.263C15.2442 20.0435 15.1522 19.9427 14.9209 19.9456C14.2979 19.9545 13.675 19.9486 13.0521 19.9486C12.7999 19.9486 12.5448 19.9486 12.2749 19.9486C12.2749 20.0969 12.2749 20.2067 12.2749 20.3135C12.2749 21.3606 12.2749 22.4077 12.2749 23.4548C12.2749 23.7188 12.1918 23.9413 11.9486 24.0748C11.6994 24.2083 11.4769 24.143 11.2574 23.9917C10.8599 23.7159 10.4506 23.4578 10.0561 23.176C9.91367 23.0751 9.80985 23.0662 9.66154 23.173C9.27591 23.4489 8.87546 23.701 8.48687 23.971C8.26143 24.1282 8.03302 24.2142 7.76902 24.0748C7.49908 23.9324 7.43382 23.6832 7.43382 23.3985C7.43678 22.3602 7.43382 21.322 7.43382 20.2868C7.43382 20.183 7.43382 20.0762 7.43382 19.9456C6.54095 19.9456 5.68368 19.9546 4.82641 19.9397C4.54461 19.9368 4.46155 20.0554 4.46748 20.3105C4.47638 20.7466 4.47935 21.1796 4.46452 21.6157C4.45858 21.8204 4.51791 21.9598 4.6692 22.1022C5.72224 23.09 5.69851 24.6651 4.6336 25.6469C4.54757 25.727 4.47638 25.8753 4.47342 25.991C4.46155 26.9284 4.46452 27.8687 4.46748 28.8061C4.46748 29.1472 4.52384 29.2006 4.86201 29.2006C5.63325 29.2036 6.4045 29.2006 7.17575 29.2006C7.46942 29.2006 7.66519 29.3489 7.75715 29.6189C7.84614 29.8799 7.73639 30.1439 7.48721 30.31C7.44569 30.3367 7.40415 30.3605 7.36262 30.3871C6.35407 30.3871 5.34552 30.3871 4.33696 30.3871C4.23611 30.3338 4.13229 30.2863 4.03143 30.2299C3.53012 29.9481 3.27798 29.518 3.27501 28.9455C3.26908 28.0556 3.27501 27.1687 3.27501 26.2313C2.92202 26.2313 2.58089 26.2343 2.23977 26.2313C1.92237 26.2283 1.602 26.258 1.2935 26.2076C0.569717 26.0919 0.0446734 25.463 0.0209427 24.7066C0.00314471 24.1341 -0.0205834 23.5557 0.0328106 22.9891C0.062474 22.6717 0.240455 22.3662 0.353175 22.0547C0.39767 21.9301 0.47183 21.8055 0.474796 21.678C0.486662 20.9868 0.483692 20.2957 0.480726 19.6016C0.471827 17.5637 1.41216 16.1102 3.26908 15.3271C4.3251 14.8791 5.45231 14.6033 6.54985 14.2503C6.69817 14.2028 6.84945 14.1613 7.0126 14.1109C7.0126 13.7341 7.02446 13.3693 7.0037 13.0044C6.99777 12.9095 6.90878 12.7968 6.82572 12.7345C5.7519 11.9098 5.07855 10.839 4.84717 9.50711C4.77598 9.09183 4.79971 8.66171 4.75818 8.23752C4.74632 8.1159 4.69292 7.97055 4.6069 7.88453C3.96914 7.2349 3.84455 6.33016 4.2895 5.54111C4.35476 5.42839 4.39332 5.28601 4.39332 5.15549C4.40222 4.45247 4.39629 3.75241 4.39926 3.04939C4.40519 1.57512 5.35145 0.397496 6.79012 0.0622996C6.84648 0.0504342 6.89691 0.0207644 6.9503 0C8.88732 0.0207644 10.8243 0.0207665 12.7643 0.0207665ZM18.0444 21.4496C18.0444 20.8118 18.0474 20.2097 18.0444 19.6075C18.0385 18.1925 17.46 17.095 16.1459 16.5255C15.1849 16.1072 14.1585 15.8343 13.1588 15.5021C12.9779 15.4427 12.7881 15.4042 12.6041 15.3567C12.1355 16.5729 11.3168 17.3264 10.0234 17.3916C8.56399 17.4628 7.63256 16.6975 7.09269 15.3508C5.75487 15.7453 4.36663 15.9885 3.15636 16.739C2.46521 17.1692 1.9283 17.7654 1.80965 18.5693C1.67023 19.5096 1.67023 20.4677 1.60497 21.4407C2.21307 21.4407 2.72921 21.4407 3.27205 21.4407C3.27205 21.0462 3.27205 20.6635 3.27205 20.2779C3.27502 19.3227 3.84158 18.7532 4.80564 18.7532C8.17837 18.7502 11.5481 18.7502 14.9209 18.7532C15.8641 18.7532 16.4337 19.3257 16.4366 20.266C16.4366 20.6576 16.4366 21.0521 16.4366 21.4466C16.9825 21.4496 17.4956 21.4496 18.0444 21.4496ZM5.99218 8.40067C5.8053 9.69695 6.57951 11.2068 7.79868 11.9632C9.11573 12.779 10.8154 12.7493 12.0494 11.8713C13.233 11.0288 13.7847 9.87197 13.7432 8.40364C13.1648 8.37101 12.7465 8.08624 12.3461 7.72731C10.8926 6.42509 8.77164 6.43992 7.33296 7.75994C6.94734 8.10996 6.53502 8.36804 5.99218 8.40067ZM14.1229 4.31602C14.1229 3.84141 14.1407 3.40832 14.1199 2.97523C14.0725 1.99041 13.325 1.22806 12.3461 1.21323C10.6849 1.1895 9.02674 1.19543 7.36559 1.21323C6.53799 1.22213 5.78453 1.81837 5.65698 2.59258C5.56502 3.14729 5.58876 3.72276 5.55613 4.33382C8.44237 2.57775 11.2663 2.57479 14.1229 4.31602ZM14.4937 6.40432C14.4195 6.3005 14.3187 6.08396 14.1585 5.92971C11.7558 3.66046 8.05971 3.63673 5.61545 5.86741C5.1794 6.2649 5.10228 6.66536 5.40188 6.98869C5.69851 7.31202 6.096 7.26753 6.53502 6.86411C8.27626 5.25932 10.9311 5.13176 12.8207 6.56153C13.0254 6.71578 13.2063 6.8997 13.408 7.05989C13.6305 7.2349 13.8797 7.25862 14.1288 7.12811C14.3632 7.00649 14.4848 6.79884 14.4937 6.40432ZM8.21397 13.479C8.21397 13.9121 8.17837 14.3155 8.2199 14.713C8.31482 15.594 8.99708 16.2081 9.83655 16.217C10.6879 16.2259 11.3879 15.6089 11.4858 14.716C11.5303 14.3185 11.4918 13.9121 11.4918 13.485C10.4002 13.8291 9.31448 13.835 8.21397 13.479ZM1.22824 23.8612C1.22824 24.1282 1.22528 24.3952 1.22824 24.6621C1.23121 24.9143 1.36469 25.0507 1.6109 25.0537C2.11518 25.0596 2.61946 25.0774 3.12373 25.0477C3.78523 25.0092 4.25094 24.4752 4.23611 23.8226C4.22128 23.17 3.7259 22.6836 3.05551 22.6717C2.58089 22.6628 2.10628 22.6717 1.63167 22.6687C1.36173 22.6658 1.22825 22.7933 1.22528 23.0633C1.22528 23.3273 1.22824 23.5942 1.22824 23.8612ZM18.4834 23.8582C18.4834 23.612 18.4894 23.3629 18.4834 23.1167C18.4775 22.7666 18.3855 22.6747 18.0444 22.6717C17.5906 22.6687 17.1367 22.6658 16.6799 22.6717C15.9887 22.6806 15.4845 23.1701 15.4726 23.8286C15.4637 24.5049 15.9591 25.0329 16.6502 25.0537C17.1248 25.0685 17.5995 25.0596 18.0741 25.0567C18.3351 25.0567 18.4805 24.9232 18.4834 24.6562C18.4864 24.3892 18.4834 24.1222 18.4834 23.8582ZM8.66781 19.9605C8.66781 20.7792 8.66781 21.5712 8.66781 22.4018C8.93775 22.2238 9.18099 22.0755 9.4094 21.9064C9.71196 21.681 9.99673 21.681 10.3023 21.9034C10.5336 22.0755 10.7828 22.2238 11.0409 22.3929C11.0409 21.5534 11.0409 20.7584 11.0409 19.9575C10.2429 19.9605 9.46576 19.9605 8.66781 19.9605Z" fill="#CD76BA"/>

</svg>
