<svg width="494" height="134" viewBox="0 0 494 134" fill="none" xmlns="http://www.w3.org/2000/svg">
<rect x="0.5" y="0.5" width="493" height="133" rx="9.5" stroke="#808080" stroke-dasharray="14 14"/>
<path d="M70.1456 82.0996C66.795 82.0996 63.4443 82.0968 60.0937 82.0926H59.9801C59.7585 82.0926 59.5369 82.094 59.3139 82.094C59.0937 82.0954 58.8749 82.0954 58.6547 82.0954C57.8328 82.0954 56.9548 82.0842 56.0923 82.0042C54.3153 81.8387 52.7024 80.9664 51.5481 79.5498C50.3742 78.108 49.8398 76.3128 50.0418 74.4965C50.485 70.5288 50.9212 66.561 51.3588 62.5919C51.607 60.3366 51.8553 58.0828 52.1049 55.8289C52.1596 55.3366 52.2171 54.8443 52.2746 54.352C52.3728 53.5161 52.4724 52.6564 52.5579 51.7981C53.0039 51.7995 53.4457 51.8008 53.8875 51.8008L55.5509 51.7994C56.3237 51.7994 57.2354 51.8009 58.1456 51.8135H58.1863C58.7276 51.8135 59.6533 51.6213 59.7627 50.331L59.795 49.9551C59.9198 48.4797 60.0488 46.9537 60.2536 45.4755C60.5916 43.0365 62.3742 41.2805 64.6912 41.108C65.6491 41.0365 66.6421 41 67.6435 41C68.8595 41 70.1175 41.0533 71.3798 41.1585C73.3377 41.3212 75.1835 43.0954 75.4107 45.0309C75.6126 46.756 75.7922 48.5175 75.9577 50.4124C76.0362 51.3002 76.5804 51.8093 77.4514 51.8093H77.4752C78.0685 51.8037 78.6617 51.8023 79.255 51.8023L80.938 51.8037C81.5986 51.8037 82.3644 51.8023 83.1484 51.7924C83.234 52.6634 83.3321 53.54 83.4275 54.3913C83.5089 55.1206 83.593 55.8738 83.6687 56.6143C83.1905 57.108 82.6996 57.6017 82.2129 58.0884L81.6926 53.4656H76.2859L76.5355 56.0814C76.5579 56.3114 76.4836 56.533 76.3279 56.7041C76.1723 56.8752 75.9591 56.9692 75.7291 56.9692C75.3125 56.9692 74.9661 56.6578 74.9226 56.244L74.6323 53.4628H61.0741L60.7837 56.2469C60.7403 56.6606 60.3938 56.9734 59.9773 56.9734C59.7459 56.9734 59.5341 56.8794 59.3784 56.7083C59.2227 56.5372 59.1498 56.317 59.1708 56.087L59.4205 53.453H54.0236L53.8244 55.1417C53.7529 55.7433 53.6799 56.3478 53.6126 56.9523C53.0909 61.6269 52.5706 66.303 52.053 70.9776C51.9058 72.303 51.7753 73.4965 51.6603 74.6957C51.384 77.5568 53.4051 80.0631 56.2606 80.4012L56.3041 80.4068C56.5621 80.4376 56.8553 80.4727 57.1596 80.4727L59.6561 80.4741C62.8104 80.4755 65.9647 80.4769 69.1189 80.4769C72.2564 80.4769 75.3938 80.4755 78.5313 80.4699C80.6954 80.4671 82.37 79.5526 83.3742 77.8261C83.9619 76.8163 84.1737 75.6354 84.0054 74.3156C84.0025 74.2946 84.0025 74.2791 84.0011 74.2693C84.0152 74.2511 84.0502 74.2076 84.1344 74.1347C84.6225 73.7111 85.0713 73.2903 85.4892 72.8654C85.68 74.4194 85.8048 75.8149 85.4107 77.1515C84.5145 80.1936 81.8735 82.087 78.5187 82.0926C75.7291 82.0982 72.9366 82.0996 70.1456 82.0996ZM67.9366 42.6522C67.1063 42.6522 66.2746 42.6536 65.4443 42.655C63.4121 42.6606 61.9815 43.9748 61.8006 46.0042C61.7683 46.3675 61.7304 46.7307 61.6926 47.094C61.6631 47.3717 61.6351 47.6508 61.6084 47.9299C61.5467 48.568 61.4892 49.2076 61.4289 49.857L61.2508 51.7784H74.4738L74.3658 50.6985C74.3153 50.1936 74.2662 49.6929 74.2185 49.195C74.1105 48.0757 73.9997 46.9201 73.8637 45.7868C73.6365 43.892 72.2298 42.6634 70.2774 42.6578C69.4976 42.6536 68.7178 42.6522 67.9366 42.6522Z" fill="#CD76BA"/>
<path d="M70.7825 65.6689C70.6451 65.5301 70.5693 65.3478 70.5693 65.1528C70.5693 64.9578 70.6465 64.7741 70.7839 64.6367L70.8092 64.6114C70.9466 64.4754 71.1303 64.3982 71.3239 64.3982C71.5188 64.3982 71.7026 64.474 71.84 64.6128L77.6689 70.4445L88.92 59.1949C89.0574 59.0574 89.2412 58.9817 89.4361 58.9817C89.6339 58.9817 89.8176 59.0588 89.9564 59.1991L90.0055 59.2482C90.2874 59.5343 90.286 59.9957 90.0041 60.279L77.69 72.5904L70.7825 65.6689Z" fill="#CD76BA"/>
<path d="M117.093 65.87V71H115.356V65.87L110.631 58.103H112.161C112.317 58.103 112.44 58.142 112.53 58.22C112.62 58.298 112.698 58.394 112.764 58.508L115.716 63.521C115.836 63.731 115.935 63.929 116.013 64.115C116.097 64.301 116.172 64.484 116.238 64.664C116.304 64.478 116.376 64.292 116.454 64.106C116.532 63.92 116.631 63.725 116.751 63.521L119.694 58.508C119.748 58.412 119.82 58.322 119.91 58.238C120.006 58.148 120.129 58.103 120.279 58.103H121.827L117.093 65.87ZM125.442 61.739C126.108 61.739 126.708 61.85 127.242 62.072C127.782 62.294 128.238 62.609 128.61 63.017C128.988 63.425 129.276 63.92 129.474 64.502C129.678 65.078 129.78 65.723 129.78 66.437C129.78 67.157 129.678 67.805 129.474 68.381C129.276 68.957 128.988 69.449 128.61 69.857C128.238 70.265 127.782 70.58 127.242 70.802C126.708 71.018 126.108 71.126 125.442 71.126C124.776 71.126 124.173 71.018 123.633 70.802C123.099 70.58 122.643 70.265 122.265 69.857C121.887 69.449 121.596 68.957 121.392 68.381C121.188 67.805 121.086 67.157 121.086 66.437C121.086 65.723 121.188 65.078 121.392 64.502C121.596 63.92 121.887 63.425 122.265 63.017C122.643 62.609 123.099 62.294 123.633 62.072C124.173 61.85 124.776 61.739 125.442 61.739ZM125.442 69.875C126.342 69.875 127.014 69.575 127.458 68.975C127.902 68.369 128.124 67.526 128.124 66.446C128.124 65.36 127.902 64.514 127.458 63.908C127.014 63.302 126.342 62.999 125.442 62.999C124.986 62.999 124.59 63.077 124.254 63.233C123.918 63.389 123.636 63.614 123.408 63.908C123.186 64.202 123.018 64.565 122.904 64.997C122.796 65.423 122.742 65.906 122.742 66.446C122.742 66.986 122.796 67.469 122.904 67.895C123.018 68.321 123.186 68.681 123.408 68.975C123.636 69.263 123.918 69.485 124.254 69.641C124.59 69.797 124.986 69.875 125.442 69.875ZM133.139 61.883V67.697C133.139 68.387 133.298 68.921 133.616 69.299C133.934 69.677 134.414 69.866 135.056 69.866C135.524 69.866 135.965 69.755 136.379 69.533C136.793 69.311 137.174 69.002 137.522 68.606V61.883H139.124V71H138.17C137.942 71 137.798 70.889 137.738 70.667L137.612 69.686C137.216 70.124 136.772 70.478 136.28 70.748C135.788 71.012 135.224 71.144 134.588 71.144C134.09 71.144 133.649 71.063 133.265 70.901C132.887 70.733 132.569 70.499 132.311 70.199C132.053 69.899 131.858 69.536 131.726 69.11C131.6 68.684 131.537 68.213 131.537 67.697V61.883H133.139ZM141.755 71V61.883H142.673C142.847 61.883 142.967 61.916 143.033 61.982C143.099 62.048 143.144 62.162 143.168 62.324L143.276 63.746C143.588 63.11 143.972 62.615 144.428 62.261C144.89 61.901 145.43 61.721 146.048 61.721C146.3 61.721 146.528 61.751 146.732 61.811C146.936 61.865 147.125 61.943 147.299 62.045L147.092 63.242C147.05 63.392 146.957 63.467 146.813 63.467C146.729 63.467 146.6 63.44 146.426 63.386C146.252 63.326 146.009 63.296 145.697 63.296C145.139 63.296 144.671 63.458 144.293 63.782C143.921 64.106 143.609 64.577 143.357 65.195V71H141.755ZM152.496 74.087V61.883H153.45C153.678 61.883 153.822 61.994 153.882 62.216L154.017 63.296C154.407 62.822 154.851 62.441 155.349 62.153C155.853 61.865 156.432 61.721 157.086 61.721C157.608 61.721 158.082 61.823 158.508 62.027C158.934 62.225 159.297 62.522 159.597 62.918C159.897 63.308 160.128 63.794 160.29 64.376C160.452 64.958 160.533 65.627 160.533 66.383C160.533 67.055 160.443 67.682 160.263 68.264C160.083 68.84 159.825 69.341 159.489 69.767C159.153 70.187 158.739 70.52 158.247 70.766C157.761 71.006 157.212 71.126 156.6 71.126C156.036 71.126 155.553 71.033 155.151 70.847C154.755 70.661 154.404 70.397 154.098 70.055V74.087H152.496ZM156.555 63.017C156.033 63.017 155.574 63.137 155.178 63.377C154.788 63.617 154.428 63.956 154.098 64.394V68.804C154.392 69.2 154.713 69.479 155.061 69.641C155.415 69.803 155.808 69.884 156.24 69.884C157.086 69.884 157.737 69.581 158.193 68.975C158.649 68.369 158.877 67.505 158.877 66.383C158.877 65.789 158.823 65.279 158.715 64.853C158.613 64.427 158.463 64.079 158.265 63.809C158.067 63.533 157.824 63.332 157.536 63.206C157.248 63.08 156.921 63.017 156.555 63.017ZM162.427 71V61.883H163.345C163.519 61.883 163.639 61.916 163.705 61.982C163.771 62.048 163.816 62.162 163.84 62.324L163.948 63.746C164.26 63.11 164.644 62.615 165.1 62.261C165.562 61.901 166.102 61.721 166.72 61.721C166.972 61.721 167.2 61.751 167.404 61.811C167.608 61.865 167.797 61.943 167.971 62.045L167.764 63.242C167.722 63.392 167.629 63.467 167.485 63.467C167.401 63.467 167.272 63.44 167.098 63.386C166.924 63.326 166.681 63.296 166.369 63.296C165.811 63.296 165.343 63.458 164.965 63.782C164.593 64.106 164.281 64.577 164.029 65.195V71H162.427ZM173.377 61.739C174.043 61.739 174.643 61.85 175.177 62.072C175.717 62.294 176.173 62.609 176.545 63.017C176.923 63.425 177.211 63.92 177.409 64.502C177.613 65.078 177.715 65.723 177.715 66.437C177.715 67.157 177.613 67.805 177.409 68.381C177.211 68.957 176.923 69.449 176.545 69.857C176.173 70.265 175.717 70.58 175.177 70.802C174.643 71.018 174.043 71.126 173.377 71.126C172.711 71.126 172.108 71.018 171.568 70.802C171.034 70.58 170.578 70.265 170.2 69.857C169.822 69.449 169.531 68.957 169.327 68.381C169.123 67.805 169.021 67.157 169.021 66.437C169.021 65.723 169.123 65.078 169.327 64.502C169.531 63.92 169.822 63.425 170.2 63.017C170.578 62.609 171.034 62.294 171.568 62.072C172.108 61.85 172.711 61.739 173.377 61.739ZM173.377 69.875C174.277 69.875 174.949 69.575 175.393 68.975C175.837 68.369 176.059 67.526 176.059 66.446C176.059 65.36 175.837 64.514 175.393 63.908C174.949 63.302 174.277 62.999 173.377 62.999C172.921 62.999 172.525 63.077 172.189 63.233C171.853 63.389 171.571 63.614 171.343 63.908C171.121 64.202 170.953 64.565 170.839 64.997C170.731 65.423 170.677 65.906 170.677 66.446C170.677 66.986 170.731 67.469 170.839 67.895C170.953 68.321 171.121 68.681 171.343 68.975C171.571 69.263 171.853 69.485 172.189 69.641C172.525 69.797 172.921 69.875 173.377 69.875ZM186.106 71C185.878 71 185.734 70.889 185.674 70.667L185.53 69.56C185.14 70.034 184.693 70.415 184.189 70.703C183.691 70.985 183.118 71.126 182.47 71.126C181.948 71.126 181.474 71.027 181.048 70.829C180.622 70.625 180.259 70.328 179.959 69.938C179.659 69.548 179.428 69.062 179.266 68.48C179.104 67.898 179.023 67.229 179.023 66.473C179.023 65.801 179.113 65.177 179.293 64.601C179.473 64.019 179.731 63.515 180.067 63.089C180.409 62.663 180.823 62.33 181.309 62.09C181.795 61.844 182.347 61.721 182.965 61.721C183.523 61.721 184 61.817 184.396 62.009C184.792 62.195 185.146 62.459 185.458 62.801V57.743H187.06V71H186.106ZM183.001 69.83C183.523 69.83 183.979 69.71 184.369 69.47C184.765 69.23 185.128 68.891 185.458 68.453V64.043C185.164 63.647 184.84 63.371 184.486 63.215C184.138 63.053 183.751 62.972 183.325 62.972C182.473 62.972 181.819 63.275 181.363 63.881C180.907 64.487 180.679 65.351 180.679 66.473C180.679 67.067 180.73 67.577 180.832 68.003C180.934 68.423 181.084 68.771 181.282 69.047C181.48 69.317 181.723 69.515 182.011 69.641C182.299 69.767 182.629 69.83 183.001 69.83ZM191.13 61.883V67.697C191.13 68.387 191.289 68.921 191.607 69.299C191.925 69.677 192.405 69.866 193.047 69.866C193.515 69.866 193.956 69.755 194.37 69.533C194.784 69.311 195.165 69.002 195.513 68.606V61.883H197.115V71H196.161C195.933 71 195.789 70.889 195.729 70.667L195.603 69.686C195.207 70.124 194.763 70.478 194.271 70.748C193.779 71.012 193.215 71.144 192.579 71.144C192.081 71.144 191.64 71.063 191.256 70.901C190.878 70.733 190.56 70.499 190.302 70.199C190.044 69.899 189.849 69.536 189.717 69.11C189.591 68.684 189.528 68.213 189.528 67.697V61.883H191.13ZM205.965 63.503C205.917 63.569 205.869 63.62 205.821 63.656C205.773 63.692 205.704 63.71 205.614 63.71C205.524 63.71 205.425 63.674 205.317 63.602C205.215 63.524 205.083 63.44 204.921 63.35C204.759 63.26 204.561 63.179 204.327 63.107C204.099 63.029 203.817 62.99 203.481 62.99C203.037 62.99 202.644 63.071 202.302 63.233C201.96 63.389 201.672 63.617 201.438 63.917C201.21 64.217 201.036 64.58 200.916 65.006C200.802 65.432 200.745 65.909 200.745 66.437C200.745 66.989 200.808 67.481 200.934 67.913C201.06 68.339 201.237 68.699 201.465 68.993C201.693 69.281 201.969 69.503 202.293 69.659C202.623 69.809 202.992 69.884 203.4 69.884C203.79 69.884 204.111 69.839 204.363 69.749C204.615 69.653 204.825 69.548 204.993 69.434C205.161 69.32 205.299 69.218 205.407 69.128C205.515 69.032 205.623 68.984 205.731 68.984C205.869 68.984 205.971 69.035 206.037 69.137L206.487 69.722C206.091 70.208 205.596 70.565 205.002 70.793C204.408 71.015 203.781 71.126 203.121 71.126C202.551 71.126 202.02 71.021 201.528 70.811C201.042 70.601 200.619 70.298 200.259 69.902C199.899 69.5 199.614 69.008 199.404 68.426C199.2 67.844 199.098 67.181 199.098 66.437C199.098 65.759 199.191 65.132 199.377 64.556C199.569 63.98 199.845 63.485 200.205 63.071C200.571 62.651 201.021 62.324 201.555 62.09C202.089 61.856 202.701 61.739 203.391 61.739C204.027 61.739 204.591 61.844 205.083 62.054C205.575 62.258 206.01 62.549 206.388 62.927L205.965 63.503ZM210.911 71.144C210.191 71.144 209.636 70.943 209.246 70.541C208.862 70.139 208.67 69.56 208.67 68.804V63.224H207.572C207.476 63.224 207.395 63.197 207.329 63.143C207.263 63.083 207.23 62.993 207.23 62.873V62.234L208.724 62.045L209.093 59.228C209.105 59.138 209.144 59.066 209.21 59.012C209.276 58.952 209.36 58.922 209.462 58.922H210.272V62.063H212.882V63.224H210.272V68.696C210.272 69.08 210.365 69.365 210.551 69.551C210.737 69.737 210.977 69.83 211.271 69.83C211.439 69.83 211.583 69.809 211.703 69.767C211.829 69.719 211.937 69.668 212.027 69.614C212.117 69.56 212.192 69.512 212.252 69.47C212.318 69.422 212.375 69.398 212.423 69.398C212.507 69.398 212.582 69.449 212.648 69.551L213.116 70.316C212.84 70.574 212.507 70.778 212.117 70.928C211.727 71.072 211.325 71.144 210.911 71.144ZM220.083 63.386C220.011 63.518 219.9 63.584 219.75 63.584C219.66 63.584 219.558 63.551 219.444 63.485C219.33 63.419 219.189 63.347 219.021 63.269C218.859 63.185 218.664 63.11 218.436 63.044C218.208 62.972 217.938 62.936 217.626 62.936C217.356 62.936 217.113 62.972 216.897 63.044C216.681 63.11 216.495 63.203 216.339 63.323C216.189 63.443 216.072 63.584 215.988 63.746C215.91 63.902 215.871 64.073 215.871 64.259C215.871 64.493 215.937 64.688 216.069 64.844C216.207 65 216.387 65.135 216.609 65.249C216.831 65.363 217.083 65.465 217.365 65.555C217.647 65.639 217.935 65.732 218.229 65.834C218.529 65.93 218.82 66.038 219.102 66.158C219.384 66.278 219.636 66.428 219.858 66.608C220.08 66.788 220.257 67.01 220.389 67.274C220.527 67.532 220.596 67.844 220.596 68.21C220.596 68.63 220.521 69.02 220.371 69.38C220.221 69.734 219.999 70.043 219.705 70.307C219.411 70.565 219.051 70.769 218.625 70.919C218.199 71.069 217.707 71.144 217.149 71.144C216.513 71.144 215.937 71.042 215.421 70.838C214.905 70.628 214.467 70.361 214.107 70.037L214.485 69.425C214.533 69.347 214.59 69.287 214.656 69.245C214.722 69.203 214.809 69.182 214.917 69.182C215.025 69.182 215.139 69.224 215.259 69.308C215.379 69.392 215.523 69.485 215.691 69.587C215.865 69.689 216.072 69.782 216.312 69.866C216.558 69.95 216.864 69.992 217.23 69.992C217.542 69.992 217.815 69.953 218.049 69.875C218.283 69.791 218.478 69.68 218.634 69.542C218.79 69.404 218.904 69.245 218.976 69.065C219.054 68.885 219.093 68.693 219.093 68.489C219.093 68.237 219.024 68.03 218.886 67.868C218.754 67.7 218.577 67.559 218.355 67.445C218.133 67.325 217.878 67.223 217.59 67.139C217.308 67.049 217.017 66.956 216.717 66.86C216.423 66.764 216.132 66.656 215.844 66.536C215.562 66.41 215.31 66.254 215.088 66.068C214.866 65.882 214.686 65.654 214.548 65.384C214.416 65.108 214.35 64.775 214.35 64.385C214.35 64.037 214.422 63.704 214.566 63.386C214.71 63.062 214.92 62.78 215.196 62.54C215.472 62.294 215.811 62.099 216.213 61.955C216.615 61.811 217.074 61.739 217.59 61.739C218.19 61.739 218.727 61.835 219.201 62.027C219.681 62.213 220.095 62.471 220.443 62.801L220.083 63.386ZM224.96 61.883H226.22C226.352 61.883 226.46 61.916 226.544 61.982C226.628 62.048 226.685 62.126 226.715 62.216L228.461 68.084C228.509 68.3 228.554 68.51 228.596 68.714C228.638 68.912 228.674 69.113 228.704 69.317C228.752 69.113 228.806 68.912 228.866 68.714C228.926 68.51 228.989 68.3 229.055 68.084L230.981 62.18C231.011 62.09 231.062 62.015 231.134 61.955C231.212 61.895 231.308 61.865 231.422 61.865H232.115C232.235 61.865 232.334 61.895 232.412 61.955C232.49 62.015 232.544 62.09 232.574 62.18L234.455 68.084C234.521 68.294 234.578 68.501 234.626 68.705C234.68 68.909 234.731 69.11 234.779 69.308C234.809 69.11 234.848 68.903 234.896 68.687C234.944 68.471 234.995 68.27 235.049 68.084L236.831 62.216C236.861 62.12 236.918 62.042 237.002 61.982C237.086 61.916 237.185 61.883 237.299 61.883H238.505L235.553 71H234.284C234.128 71 234.02 70.898 233.96 70.694L231.944 64.511C231.896 64.373 231.857 64.235 231.827 64.097C231.797 63.953 231.767 63.812 231.737 63.674C231.707 63.812 231.677 63.953 231.647 64.097C231.617 64.241 231.578 64.382 231.53 64.52L229.487 70.694C229.421 70.898 229.298 71 229.118 71H227.912L224.96 61.883ZM241.711 61.883V71H240.109V61.883H241.711ZM242.071 59.021C242.071 59.177 242.038 59.324 241.972 59.462C241.912 59.594 241.828 59.714 241.72 59.822C241.618 59.924 241.498 60.005 241.36 60.065C241.222 60.125 241.075 60.155 240.919 60.155C240.763 60.155 240.616 60.125 240.478 60.065C240.346 60.005 240.226 59.924 240.118 59.822C240.016 59.714 239.935 59.594 239.875 59.462C239.815 59.324 239.785 59.177 239.785 59.021C239.785 58.865 239.815 58.718 239.875 58.58C239.935 58.436 240.016 58.313 240.118 58.211C240.226 58.103 240.346 58.019 240.478 57.959C240.616 57.899 240.763 57.869 240.919 57.869C241.075 57.869 241.222 57.899 241.36 57.959C241.498 58.019 241.618 58.103 241.72 58.211C241.828 58.313 241.912 58.436 241.972 58.58C242.038 58.718 242.071 58.865 242.071 59.021ZM246.317 57.743V71H244.715V57.743H246.317ZM250.922 57.743V71H249.32V57.743H250.922ZM257.28 71V57.743H258.891V63.197C259.269 62.759 259.701 62.408 260.187 62.144C260.679 61.874 261.24 61.739 261.87 61.739C262.398 61.739 262.875 61.838 263.301 62.036C263.727 62.234 264.09 62.531 264.39 62.927C264.69 63.317 264.921 63.803 265.083 64.385C265.245 64.961 265.326 65.627 265.326 66.383C265.326 67.055 265.236 67.682 265.056 68.264C264.876 68.84 264.615 69.341 264.273 69.767C263.937 70.187 263.523 70.52 263.031 70.766C262.545 71.006 261.996 71.126 261.384 71.126C260.796 71.126 260.295 71.012 259.881 70.784C259.473 70.556 259.116 70.238 258.81 69.83L258.729 70.658C258.681 70.886 258.543 71 258.315 71H257.28ZM261.348 63.017C260.826 63.017 260.367 63.137 259.971 63.377C259.581 63.617 259.221 63.956 258.891 64.394V68.804C259.179 69.2 259.497 69.479 259.845 69.641C260.199 69.803 260.592 69.884 261.024 69.884C261.876 69.884 262.53 69.581 262.986 68.975C263.442 68.369 263.67 67.505 263.67 66.383C263.67 65.789 263.616 65.279 263.508 64.853C263.406 64.427 263.256 64.079 263.058 63.809C262.86 63.533 262.617 63.332 262.329 63.206C262.041 63.08 261.714 63.017 261.348 63.017ZM270.89 61.739C271.436 61.739 271.94 61.832 272.402 62.018C272.864 62.198 273.263 62.462 273.599 62.81C273.935 63.152 274.196 63.578 274.382 64.088C274.574 64.592 274.67 65.168 274.67 65.816C274.67 66.068 274.643 66.236 274.589 66.32C274.535 66.404 274.433 66.446 274.283 66.446H268.217C268.229 67.022 268.307 67.523 268.451 67.949C268.595 68.375 268.793 68.732 269.045 69.02C269.297 69.302 269.597 69.515 269.945 69.659C270.293 69.797 270.683 69.866 271.115 69.866C271.517 69.866 271.862 69.821 272.15 69.731C272.444 69.635 272.696 69.533 272.906 69.425C273.116 69.317 273.29 69.218 273.428 69.128C273.572 69.032 273.695 68.984 273.797 68.984C273.929 68.984 274.031 69.035 274.103 69.137L274.553 69.722C274.355 69.962 274.118 70.172 273.842 70.352C273.566 70.526 273.269 70.67 272.951 70.784C272.639 70.898 272.315 70.982 271.979 71.036C271.643 71.096 271.31 71.126 270.98 71.126C270.35 71.126 269.768 71.021 269.234 70.811C268.706 70.595 268.247 70.283 267.857 69.875C267.473 69.461 267.173 68.951 266.957 68.345C266.741 67.739 266.633 67.043 266.633 66.257C266.633 65.621 266.729 65.027 266.921 64.475C267.119 63.923 267.401 63.446 267.767 63.044C268.133 62.636 268.58 62.318 269.108 62.09C269.636 61.856 270.23 61.739 270.89 61.739ZM270.926 62.918C270.152 62.918 269.543 63.143 269.099 63.593C268.655 64.037 268.379 64.655 268.271 65.447H273.23C273.23 65.075 273.179 64.736 273.077 64.43C272.975 64.118 272.825 63.851 272.627 63.629C272.429 63.401 272.186 63.227 271.898 63.107C271.616 62.981 271.292 62.918 270.926 62.918ZM281.983 57.743V71H280.381V57.743H281.983ZM286.588 61.883V71H284.986V61.883H286.588ZM286.948 59.021C286.948 59.177 286.915 59.324 286.849 59.462C286.789 59.594 286.705 59.714 286.597 59.822C286.495 59.924 286.375 60.005 286.237 60.065C286.099 60.125 285.952 60.155 285.796 60.155C285.64 60.155 285.493 60.125 285.355 60.065C285.223 60.005 285.103 59.924 284.995 59.822C284.893 59.714 284.812 59.594 284.752 59.462C284.692 59.324 284.662 59.177 284.662 59.021C284.662 58.865 284.692 58.718 284.752 58.58C284.812 58.436 284.893 58.313 284.995 58.211C285.103 58.103 285.223 58.019 285.355 57.959C285.493 57.899 285.64 57.869 285.796 57.869C285.952 57.869 286.099 57.899 286.237 57.959C286.375 58.019 286.495 58.103 286.597 58.211C286.705 58.313 286.789 58.436 286.849 58.58C286.915 58.718 286.948 58.865 286.948 59.021ZM294.632 63.386C294.56 63.518 294.449 63.584 294.299 63.584C294.209 63.584 294.107 63.551 293.993 63.485C293.879 63.419 293.738 63.347 293.57 63.269C293.408 63.185 293.213 63.11 292.985 63.044C292.757 62.972 292.487 62.936 292.175 62.936C291.905 62.936 291.662 62.972 291.446 63.044C291.23 63.11 291.044 63.203 290.888 63.323C290.738 63.443 290.621 63.584 290.537 63.746C290.459 63.902 290.42 64.073 290.42 64.259C290.42 64.493 290.486 64.688 290.618 64.844C290.756 65 290.936 65.135 291.158 65.249C291.38 65.363 291.632 65.465 291.914 65.555C292.196 65.639 292.484 65.732 292.778 65.834C293.078 65.93 293.369 66.038 293.651 66.158C293.933 66.278 294.185 66.428 294.407 66.608C294.629 66.788 294.806 67.01 294.938 67.274C295.076 67.532 295.145 67.844 295.145 68.21C295.145 68.63 295.07 69.02 294.92 69.38C294.77 69.734 294.548 70.043 294.254 70.307C293.96 70.565 293.6 70.769 293.174 70.919C292.748 71.069 292.256 71.144 291.698 71.144C291.062 71.144 290.486 71.042 289.97 70.838C289.454 70.628 289.016 70.361 288.656 70.037L289.034 69.425C289.082 69.347 289.139 69.287 289.205 69.245C289.271 69.203 289.358 69.182 289.466 69.182C289.574 69.182 289.688 69.224 289.808 69.308C289.928 69.392 290.072 69.485 290.24 69.587C290.414 69.689 290.621 69.782 290.861 69.866C291.107 69.95 291.413 69.992 291.779 69.992C292.091 69.992 292.364 69.953 292.598 69.875C292.832 69.791 293.027 69.68 293.183 69.542C293.339 69.404 293.453 69.245 293.525 69.065C293.603 68.885 293.642 68.693 293.642 68.489C293.642 68.237 293.573 68.03 293.435 67.868C293.303 67.7 293.126 67.559 292.904 67.445C292.682 67.325 292.427 67.223 292.139 67.139C291.857 67.049 291.566 66.956 291.266 66.86C290.972 66.764 290.681 66.656 290.393 66.536C290.111 66.41 289.859 66.254 289.637 66.068C289.415 65.882 289.235 65.654 289.097 65.384C288.965 65.108 288.899 64.775 288.899 64.385C288.899 64.037 288.971 63.704 289.115 63.386C289.259 63.062 289.469 62.78 289.745 62.54C290.021 62.294 290.36 62.099 290.762 61.955C291.164 61.811 291.623 61.739 292.139 61.739C292.739 61.739 293.276 61.835 293.75 62.027C294.23 62.213 294.644 62.471 294.992 62.801L294.632 63.386ZM299.979 71.144C299.259 71.144 298.704 70.943 298.314 70.541C297.93 70.139 297.738 69.56 297.738 68.804V63.224H296.64C296.544 63.224 296.463 63.197 296.397 63.143C296.331 63.083 296.298 62.993 296.298 62.873V62.234L297.792 62.045L298.161 59.228C298.173 59.138 298.212 59.066 298.278 59.012C298.344 58.952 298.428 58.922 298.53 58.922H299.34V62.063H301.95V63.224H299.34V68.696C299.34 69.08 299.433 69.365 299.619 69.551C299.805 69.737 300.045 69.83 300.339 69.83C300.507 69.83 300.651 69.809 300.771 69.767C300.897 69.719 301.005 69.668 301.095 69.614C301.185 69.56 301.26 69.512 301.32 69.47C301.386 69.422 301.443 69.398 301.491 69.398C301.575 69.398 301.65 69.449 301.716 69.551L302.184 70.316C301.908 70.574 301.575 70.778 301.185 70.928C300.795 71.072 300.393 71.144 299.979 71.144ZM307.54 61.739C308.086 61.739 308.59 61.832 309.052 62.018C309.514 62.198 309.913 62.462 310.249 62.81C310.585 63.152 310.846 63.578 311.032 64.088C311.224 64.592 311.32 65.168 311.32 65.816C311.32 66.068 311.293 66.236 311.239 66.32C311.185 66.404 311.083 66.446 310.933 66.446H304.867C304.879 67.022 304.957 67.523 305.101 67.949C305.245 68.375 305.443 68.732 305.695 69.02C305.947 69.302 306.247 69.515 306.595 69.659C306.943 69.797 307.333 69.866 307.765 69.866C308.167 69.866 308.512 69.821 308.8 69.731C309.094 69.635 309.346 69.533 309.556 69.425C309.766 69.317 309.94 69.218 310.078 69.128C310.222 69.032 310.345 68.984 310.447 68.984C310.579 68.984 310.681 69.035 310.753 69.137L311.203 69.722C311.005 69.962 310.768 70.172 310.492 70.352C310.216 70.526 309.919 70.67 309.601 70.784C309.289 70.898 308.965 70.982 308.629 71.036C308.293 71.096 307.96 71.126 307.63 71.126C307 71.126 306.418 71.021 305.884 70.811C305.356 70.595 304.897 70.283 304.507 69.875C304.123 69.461 303.823 68.951 303.607 68.345C303.391 67.739 303.283 67.043 303.283 66.257C303.283 65.621 303.379 65.027 303.571 64.475C303.769 63.923 304.051 63.446 304.417 63.044C304.783 62.636 305.23 62.318 305.758 62.09C306.286 61.856 306.88 61.739 307.54 61.739ZM307.576 62.918C306.802 62.918 306.193 63.143 305.749 63.593C305.305 64.037 305.029 64.655 304.921 65.447H309.88C309.88 65.075 309.829 64.736 309.727 64.43C309.625 64.118 309.475 63.851 309.277 63.629C309.079 63.401 308.836 63.227 308.548 63.107C308.266 62.981 307.942 62.918 307.576 62.918ZM319.788 71C319.56 71 319.416 70.889 319.356 70.667L319.212 69.56C318.822 70.034 318.375 70.415 317.871 70.703C317.373 70.985 316.8 71.126 316.152 71.126C315.63 71.126 315.156 71.027 314.73 70.829C314.304 70.625 313.941 70.328 313.641 69.938C313.341 69.548 313.11 69.062 312.948 68.48C312.786 67.898 312.705 67.229 312.705 66.473C312.705 65.801 312.795 65.177 312.975 64.601C313.155 64.019 313.413 63.515 313.749 63.089C314.091 62.663 314.505 62.33 314.991 62.09C315.477 61.844 316.029 61.721 316.647 61.721C317.205 61.721 317.682 61.817 318.078 62.009C318.474 62.195 318.828 62.459 319.14 62.801V57.743H320.742V71H319.788ZM316.683 69.83C317.205 69.83 317.661 69.71 318.051 69.47C318.447 69.23 318.81 68.891 319.14 68.453V64.043C318.846 63.647 318.522 63.371 318.168 63.215C317.82 63.053 317.433 62.972 317.007 62.972C316.155 62.972 315.501 63.275 315.045 63.881C314.589 64.487 314.361 65.351 314.361 66.473C314.361 67.067 314.412 67.577 314.514 68.003C314.616 68.423 314.766 68.771 314.964 69.047C315.162 69.317 315.405 69.515 315.693 69.641C315.981 69.767 316.311 69.83 316.683 69.83ZM326.906 71V57.743H328.508V63.107C328.898 62.693 329.33 62.363 329.804 62.117C330.278 61.865 330.824 61.739 331.442 61.739C331.94 61.739 332.378 61.823 332.756 61.991C333.14 62.153 333.458 62.387 333.71 62.693C333.968 62.993 334.163 63.356 334.295 63.782C334.427 64.208 334.493 64.679 334.493 65.195V71H332.891V65.195C332.891 64.505 332.732 63.971 332.414 63.593C332.102 63.209 331.622 63.017 330.974 63.017C330.5 63.017 330.056 63.131 329.642 63.359C329.234 63.587 328.856 63.896 328.508 64.286V71H326.906ZM340.517 61.739C341.063 61.739 341.567 61.832 342.029 62.018C342.491 62.198 342.89 62.462 343.226 62.81C343.562 63.152 343.823 63.578 344.009 64.088C344.201 64.592 344.297 65.168 344.297 65.816C344.297 66.068 344.27 66.236 344.216 66.32C344.162 66.404 344.06 66.446 343.91 66.446H337.844C337.856 67.022 337.934 67.523 338.078 67.949C338.222 68.375 338.42 68.732 338.672 69.02C338.924 69.302 339.224 69.515 339.572 69.659C339.92 69.797 340.31 69.866 340.742 69.866C341.144 69.866 341.489 69.821 341.777 69.731C342.071 69.635 342.323 69.533 342.533 69.425C342.743 69.317 342.917 69.218 343.055 69.128C343.199 69.032 343.322 68.984 343.424 68.984C343.556 68.984 343.658 69.035 343.73 69.137L344.18 69.722C343.982 69.962 343.745 70.172 343.469 70.352C343.193 70.526 342.896 70.67 342.578 70.784C342.266 70.898 341.942 70.982 341.606 71.036C341.27 71.096 340.937 71.126 340.607 71.126C339.977 71.126 339.395 71.021 338.861 70.811C338.333 70.595 337.874 70.283 337.484 69.875C337.1 69.461 336.8 68.951 336.584 68.345C336.368 67.739 336.26 67.043 336.26 66.257C336.26 65.621 336.356 65.027 336.548 64.475C336.746 63.923 337.028 63.446 337.394 63.044C337.76 62.636 338.207 62.318 338.735 62.09C339.263 61.856 339.857 61.739 340.517 61.739ZM340.553 62.918C339.779 62.918 339.17 63.143 338.726 63.593C338.282 64.037 338.006 64.655 337.898 65.447H342.857C342.857 65.075 342.806 64.736 342.704 64.43C342.602 64.118 342.452 63.851 342.254 63.629C342.056 63.401 341.813 63.227 341.525 63.107C341.243 62.981 340.919 62.918 340.553 62.918ZM346.347 71V61.883H347.265C347.439 61.883 347.559 61.916 347.625 61.982C347.691 62.048 347.736 62.162 347.76 62.324L347.868 63.746C348.18 63.11 348.564 62.615 349.02 62.261C349.482 61.901 350.022 61.721 350.64 61.721C350.892 61.721 351.12 61.751 351.324 61.811C351.528 61.865 351.717 61.943 351.891 62.045L351.684 63.242C351.642 63.392 351.549 63.467 351.405 63.467C351.321 63.467 351.192 63.44 351.018 63.386C350.844 63.326 350.601 63.296 350.289 63.296C349.731 63.296 349.263 63.458 348.885 63.782C348.513 64.106 348.201 64.577 347.949 65.195V71H346.347ZM357.216 61.739C357.762 61.739 358.266 61.832 358.728 62.018C359.19 62.198 359.589 62.462 359.925 62.81C360.261 63.152 360.522 63.578 360.708 64.088C360.9 64.592 360.996 65.168 360.996 65.816C360.996 66.068 360.969 66.236 360.915 66.32C360.861 66.404 360.759 66.446 360.609 66.446H354.543C354.555 67.022 354.633 67.523 354.777 67.949C354.921 68.375 355.119 68.732 355.371 69.02C355.623 69.302 355.923 69.515 356.271 69.659C356.619 69.797 357.009 69.866 357.441 69.866C357.843 69.866 358.188 69.821 358.476 69.731C358.77 69.635 359.022 69.533 359.232 69.425C359.442 69.317 359.616 69.218 359.754 69.128C359.898 69.032 360.021 68.984 360.123 68.984C360.255 68.984 360.357 69.035 360.429 69.137L360.879 69.722C360.681 69.962 360.444 70.172 360.168 70.352C359.892 70.526 359.595 70.67 359.277 70.784C358.965 70.898 358.641 70.982 358.305 71.036C357.969 71.096 357.636 71.126 357.306 71.126C356.676 71.126 356.094 71.021 355.56 70.811C355.032 70.595 354.573 70.283 354.183 69.875C353.799 69.461 353.499 68.951 353.283 68.345C353.067 67.739 352.959 67.043 352.959 66.257C352.959 65.621 353.055 65.027 353.247 64.475C353.445 63.923 353.727 63.446 354.093 63.044C354.459 62.636 354.906 62.318 355.434 62.09C355.962 61.856 356.556 61.739 357.216 61.739ZM357.252 62.918C356.478 62.918 355.869 63.143 355.425 63.593C354.981 64.037 354.705 64.655 354.597 65.447H359.556C359.556 65.075 359.505 64.736 359.403 64.43C359.301 64.118 359.151 63.851 358.953 63.629C358.755 63.401 358.512 63.227 358.224 63.107C357.942 62.981 357.618 62.918 357.252 62.918Z" fill="#808080"/>
</svg>
