<svg width="494" height="134" viewBox="0 0 494 134" fill="none" xmlns="http://www.w3.org/2000/svg">
<rect x="0.5" y="0.5" width="493" height="133" rx="9.5" stroke="#808080" stroke-dasharray="14 14"/>
<path d="M70.1456 82.0996C66.795 82.0996 63.4443 82.0968 60.0937 82.0926H59.9801C59.7585 82.0926 59.5369 82.094 59.3139 82.094C59.0937 82.0954 58.8749 82.0954 58.6547 82.0954C57.8328 82.0954 56.9548 82.0842 56.0923 82.0042C54.3153 81.8387 52.7024 80.9664 51.5481 79.5498C50.3742 78.108 49.8398 76.3128 50.0418 74.4965C50.485 70.5288 50.9212 66.561 51.3588 62.5919C51.607 60.3366 51.8553 58.0828 52.1049 55.8289C52.1596 55.3366 52.2171 54.8443 52.2746 54.352C52.3728 53.5161 52.4724 52.6564 52.5579 51.7981C53.0039 51.7995 53.4457 51.8008 53.8875 51.8008L55.5509 51.7994C56.3237 51.7994 57.2354 51.8009 58.1456 51.8135H58.1863C58.7276 51.8135 59.6533 51.6213 59.7627 50.331L59.795 49.9551C59.9198 48.4797 60.0488 46.9537 60.2536 45.4755C60.5916 43.0365 62.3742 41.2805 64.6912 41.108C65.6491 41.0365 66.6421 41 67.6435 41C68.8595 41 70.1175 41.0533 71.3798 41.1585C73.3377 41.3212 75.1835 43.0954 75.4107 45.0309C75.6126 46.756 75.7922 48.5175 75.9577 50.4124C76.0362 51.3002 76.5804 51.8093 77.4514 51.8093H77.4752C78.0685 51.8037 78.6617 51.8023 79.255 51.8023L80.938 51.8037C81.5986 51.8037 82.3644 51.8023 83.1484 51.7924C83.234 52.6634 83.3321 53.54 83.4275 54.3913C83.5089 55.1206 83.593 55.8738 83.6687 56.6143C83.1905 57.108 82.6996 57.6017 82.2129 58.0884L81.6926 53.4656H76.2859L76.5355 56.0814C76.5579 56.3114 76.4836 56.533 76.3279 56.7041C76.1723 56.8752 75.9591 56.9692 75.729 56.9692C75.3125 56.9692 74.9661 56.6578 74.9226 56.244L74.6323 53.4628H61.0741L60.7837 56.2469C60.7403 56.6606 60.3938 56.9734 59.9773 56.9734C59.7459 56.9734 59.5341 56.8794 59.3784 56.7083C59.2227 56.5372 59.1498 56.317 59.1708 56.087L59.4205 53.453H54.0236L53.8244 55.1417C53.7529 55.7434 53.6799 56.3478 53.6126 56.9523C53.0909 61.6269 52.5706 66.303 52.053 70.9776C51.9058 72.303 51.7753 73.4965 51.6603 74.6957C51.384 77.5568 53.4051 80.0631 56.2606 80.4012L56.3041 80.4068C56.5621 80.4376 56.8553 80.4727 57.1596 80.4727L59.6561 80.4741C62.8104 80.4755 65.9647 80.4769 69.1189 80.4769C72.2564 80.4769 75.3938 80.4755 78.5313 80.4699C80.6954 80.4671 82.37 79.5526 83.3742 77.8261C83.9619 76.8163 84.1737 75.6354 84.0054 74.3156C84.0025 74.2946 84.0025 74.2791 84.0011 74.2693C84.0152 74.2511 84.0502 74.2076 84.1344 74.1347C84.6225 73.7111 85.0713 73.2903 85.4892 72.8654C85.68 74.4194 85.8048 75.8149 85.4107 77.1515C84.5145 80.1936 81.8735 82.087 78.5187 82.0926C75.7291 82.0982 72.9366 82.0996 70.1456 82.0996ZM67.9366 42.6522C67.1063 42.6522 66.2746 42.6536 65.4443 42.655C63.4121 42.6606 61.9815 43.9748 61.8006 46.0042C61.7683 46.3675 61.7304 46.7307 61.6926 47.094C61.6631 47.3717 61.6351 47.6508 61.6084 47.9299C61.5467 48.568 61.4892 49.2076 61.4289 49.857L61.2508 51.7784H74.4738L74.3658 50.6985C74.3153 50.1936 74.2662 49.6929 74.2185 49.195C74.1105 48.0757 73.9997 46.9201 73.8637 45.7868C73.6365 43.892 72.2297 42.6634 70.2774 42.6578C69.4976 42.6536 68.7178 42.6522 67.9366 42.6522Z" fill="#CD76BA"/>
<path d="M70.7825 65.6689C70.6451 65.5301 70.5693 65.3478 70.5693 65.1528C70.5693 64.9578 70.6465 64.7741 70.7839 64.6367L70.8092 64.6114C70.9466 64.4754 71.1303 64.3982 71.3239 64.3982C71.5188 64.3982 71.7026 64.474 71.84 64.6128L77.6689 70.4445L88.92 59.1949C89.0574 59.0574 89.2412 58.9817 89.4361 58.9817C89.6339 58.9817 89.8176 59.0588 89.9564 59.1991L90.0055 59.2482C90.2874 59.5343 90.286 59.9957 90.0041 60.279L77.69 72.5904L70.7825 65.6689Z" fill="#CD76BA"/>
</svg>
