<svg width="31" height="31" viewBox="0 0 46 46" fill="none" xmlns="http://www.w3.org/2000/svg">
<path d="M22.9769 45.9894C14.5334 45.9894 7.00471 41.5223 2.83565 34.0385C1.00743 30.756 0.0528585 27.1136 0.00018316 23.2118C-0.00367113 22.9729 0.046434 22.1943 0.818577 22.1814H0.839137C1.52006 22.1814 1.67165 22.7442 1.67936 23.2157C1.83225 32.5559 7.69335 40.4585 16.6083 43.3505C18.6524 44.0134 20.7838 44.35 22.9448 44.35C31.9844 44.35 40.2904 38.4517 43.1413 30.0069C45.0337 24.4002 44.638 18.471 42.0261 13.3089C39.4617 8.23919 35.0267 4.48511 29.5382 2.73783C27.2128 1.99652 24.9066 1.62137 22.684 1.62137C17.6413 1.62137 12.9069 3.53181 8.61453 7.29874C8.51946 7.38225 8.4385 7.46448 8.35885 7.54542L8.30618 7.59809C8.24708 7.65719 8.21239 7.71115 8.1777 7.76382C8.16357 7.78567 8.14302 7.8165 8.11347 7.86018L7.42868 8.86487H10.6791C11.0042 8.86487 11.3292 8.86359 11.6543 8.8623C11.978 8.86102 12.3018 8.85973 12.6256 8.85973C13.1947 8.85973 13.6585 8.86359 14.0838 8.87001C14.5463 8.87772 14.897 9.15394 14.9561 9.55736C15.0204 9.99161 14.7891 10.368 14.3805 10.4927C14.2919 10.5196 14.1673 10.5338 14.0002 10.5338C12.3468 10.5363 10.6946 10.5376 9.04106 10.5376C7.82568 10.5376 6.61029 10.5363 5.3949 10.5351C4.75895 10.5338 4.43519 10.2164 4.4339 9.59333C4.42362 6.77841 4.42362 3.86714 4.4339 0.940448C4.43519 0.390569 4.77822 0.00385429 5.26643 0C5.76235 0 6.10281 0.396993 6.10538 0.964859C6.10795 2.08517 6.10795 3.20549 6.10667 4.35278V7.14457L7.14089 6.3493C7.191 6.31076 7.23469 6.27864 7.27451 6.24909C7.36059 6.18485 7.44281 6.12447 7.52375 6.04995C11.4217 2.48731 15.903 0.494634 20.8416 0.128476C21.5726 0.0745163 22.3024 0.0475356 23.009 0.0475356C31.0054 0.0475356 37.4562 3.52411 42.1802 10.3796C45.0902 14.6026 46.348 19.531 45.9176 25.0298C45.1493 34.8466 37.5962 43.443 27.9579 45.4703C26.3057 45.8134 24.6304 45.9894 22.9769 45.9894Z" fill="#CD76BA"/>
<path d="M22.9994 35.6291C22.8337 35.6291 22.6641 35.5957 22.4804 35.5263C19.7207 34.4844 16.9109 33.4334 14.1949 32.4159L11.0653 31.2442C10.4935 31.0297 10.3535 30.8267 10.3535 30.2074C10.3509 25.8957 10.3509 21.5841 10.3535 17.2724C10.3535 16.6544 10.4884 16.4617 11.0717 16.242C12.3333 15.7679 13.595 15.2952 14.8566 14.8224C17.3567 13.8845 19.9417 12.9158 22.4817 11.9561C22.6654 11.8867 22.835 11.8533 22.9994 11.8533C23.1639 11.8533 23.3335 11.8867 23.5159 11.9561C25.9364 12.8695 28.3993 13.7907 30.7812 14.6823C32.1495 15.1937 33.5165 15.7063 34.8848 16.2189C35.5246 16.4591 35.6454 16.6339 35.6466 17.3199C35.6479 18.8424 35.6479 20.3661 35.6479 21.8886V25.6131C35.6479 27.1445 35.6492 28.676 35.6466 30.2074C35.6454 30.8344 35.513 31.0284 34.9349 31.2455C33.3983 31.8224 31.8617 32.3979 30.3239 32.9735C28.055 33.8227 25.7861 34.6732 23.5197 35.5276C23.3347 35.5957 23.1664 35.6291 22.9994 35.6291ZM12.0468 19.1764C12.0417 19.224 12.0378 19.2638 12.0327 19.2985C12.0237 19.3781 12.0147 19.4539 12.0147 19.5413V22.0093C12.0147 24.3039 12.0147 26.6756 12.0057 29.0087C12.0018 29.822 12.6121 30.0455 12.8112 30.12C13.7221 30.4554 14.6459 30.8035 15.5401 31.1389C16.0077 31.3149 16.4741 31.4909 16.9418 31.6656C17.9464 32.042 18.9524 32.4159 19.9815 32.7988L22.041 33.5658L22.1322 32.7474C22.1386 32.6947 22.1438 32.6523 22.1489 32.6163C22.1592 32.5341 22.1707 32.4557 22.1707 32.3658C22.1707 31.5423 22.1707 30.7187 22.1707 29.8965C22.1707 27.6032 22.1708 25.2315 22.181 22.8997C22.1849 22.1108 21.5875 21.8886 21.3626 21.8051C19.7901 21.2205 18.1918 20.6192 16.6463 20.0385L14.9864 19.4141C14.5161 19.2381 14.0459 19.0621 13.5654 18.8822L12.1303 18.3465L12.0468 19.1764ZM33.2608 18.6471C33.2454 18.6484 33.2338 18.6484 33.2223 18.6497C33.1593 18.6522 33.054 18.6561 32.9319 18.7023C32.1469 18.9966 31.3607 19.2908 30.5757 19.5837C28.5958 20.325 26.5479 21.092 24.5309 21.8372C23.8165 22.1005 23.8242 22.7224 23.8268 22.9562V23.0089V26.5574C23.8268 28.419 23.8268 30.2806 23.8281 32.141C23.8281 32.263 23.8358 32.3787 23.8422 32.5007C23.8461 32.556 23.8499 32.615 23.8525 32.6793L23.8923 33.481L24.6658 33.2664C24.7159 33.2523 24.7621 33.2407 24.8045 33.2305C24.9047 33.2048 25.0088 33.1778 25.1167 33.1379C25.8773 32.8527 26.6379 32.5675 27.3985 32.2823C29.2986 31.5693 31.2643 30.8318 33.2004 30.1188C33.9906 29.8284 33.988 29.1539 33.988 28.8995C33.9829 26.7642 33.9829 24.6277 33.9829 22.4924V19.77C33.9829 19.6454 33.9752 19.5259 33.9687 19.4115C33.9662 19.3614 33.9623 19.31 33.9597 19.2574L33.9276 18.5854L33.2608 18.6471ZM23.0213 13.6661C22.8324 13.6661 22.6384 13.6995 22.4611 13.7624C21.7069 14.0297 20.9489 14.3162 20.2153 14.5924L19.6179 14.8185C18.5503 15.2194 17.4827 15.6215 16.4009 16.03L14.0112 16.9307L15.1225 17.618C15.1495 17.6347 15.1714 17.6501 15.1906 17.663C15.2536 17.7054 15.332 17.758 15.4399 17.7992L16.2172 18.0908C18.2882 18.8681 20.4299 19.6723 22.542 20.4509C22.6757 20.4997 22.8247 20.5254 22.9827 20.5254C23.1652 20.5254 23.3514 20.4933 23.5223 20.4316C24.2778 20.1606 25.0383 19.8741 25.7745 19.5965C26.0302 19.5002 26.2858 19.4038 26.5415 19.3075L32.0596 17.2403L30.8802 16.5594C30.8403 16.5362 30.8108 16.5182 30.7877 16.5041C30.7286 16.4681 30.6682 16.4309 30.5834 16.3988L29.4939 15.9889C27.5256 15.2489 25.4906 14.4845 23.4838 13.7444C23.3437 13.6931 23.1883 13.6661 23.0213 13.6661Z" fill="#CD76BA"/>
</svg>
