<svg width="538" height="58" viewBox="0 0 538 58" fill="none" xmlns="http://www.w3.org/2000/svg">
<rect x="29" y="8" width="470" height="6" fill="#D8D8D8"/>
<path d="M7.35997 49.731C7.70797 49.731 8.02597 49.716 8.31397 49.686C8.60797 49.65 8.88397 49.599 9.14197 49.533C9.39997 49.467 9.64297 49.389 9.87097 49.299C10.099 49.203 10.327 49.095 10.555 48.975V46.131H8.55697C8.44297 46.131 8.34997 46.098 8.27797 46.032C8.21197 45.966 8.17897 45.885 8.17897 45.789V44.799H12.139V49.749C11.815 49.983 11.476 50.187 11.122 50.361C10.774 50.535 10.399 50.682 9.99697 50.802C9.60097 50.916 9.17497 51 8.71897 51.054C8.26297 51.114 7.76797 51.144 7.23397 51.144C6.29797 51.144 5.43997 50.985 4.65997 50.667C3.87997 50.343 3.20797 49.893 2.64397 49.317C2.07997 48.735 1.63897 48.039 1.32097 47.229C1.00897 46.419 0.852969 45.528 0.852969 44.556C0.852969 43.572 1.00597 42.675 1.31197 41.865C1.62397 41.055 2.06497 40.362 2.63497 39.786C3.21097 39.204 3.90397 38.754 4.71397 38.436C5.52997 38.118 6.44197 37.959 7.44997 37.959C7.95997 37.959 8.43397 37.998 8.87197 38.076C9.30997 38.148 9.71497 38.256 10.087 38.4C10.465 38.538 10.813 38.709 11.131 38.913C11.449 39.111 11.746 39.336 12.022 39.588L11.527 40.38C11.425 40.542 11.293 40.623 11.131 40.623C11.035 40.623 10.93 40.59 10.816 40.524C10.666 40.44 10.498 40.338 10.312 40.218C10.126 40.098 9.89797 39.984 9.62797 39.876C9.36397 39.762 9.04897 39.666 8.68297 39.588C8.32297 39.51 7.89397 39.471 7.39597 39.471C6.66997 39.471 6.01297 39.591 5.42497 39.831C4.83697 40.065 4.33597 40.404 3.92197 40.848C3.50797 41.286 3.18997 41.82 2.96797 42.45C2.74597 43.074 2.63497 43.776 2.63497 44.556C2.63497 45.372 2.74897 46.101 2.97697 46.743C3.21097 47.379 3.53797 47.919 3.95797 48.363C4.37797 48.807 4.87597 49.146 5.45197 49.38C6.02797 49.614 6.66397 49.731 7.35997 49.731ZM18.0847 41.739C18.6307 41.739 19.1347 41.832 19.5967 42.018C20.0587 42.198 20.4577 42.462 20.7937 42.81C21.1297 43.152 21.3907 43.578 21.5767 44.088C21.7687 44.592 21.8647 45.168 21.8647 45.816C21.8647 46.068 21.8377 46.236 21.7837 46.32C21.7297 46.404 21.6277 46.446 21.4777 46.446H15.4117C15.4237 47.022 15.5017 47.523 15.6457 47.949C15.7897 48.375 15.9877 48.732 16.2397 49.02C16.4917 49.302 16.7917 49.515 17.1397 49.659C17.4877 49.797 17.8777 49.866 18.3097 49.866C18.7117 49.866 19.0567 49.821 19.3447 49.731C19.6387 49.635 19.8907 49.533 20.1007 49.425C20.3107 49.317 20.4847 49.218 20.6227 49.128C20.7667 49.032 20.8897 48.984 20.9917 48.984C21.1237 48.984 21.2257 49.035 21.2977 49.137L21.7477 49.722C21.5497 49.962 21.3127 50.172 21.0367 50.352C20.7607 50.526 20.4637 50.67 20.1457 50.784C19.8337 50.898 19.5097 50.982 19.1737 51.036C18.8377 51.096 18.5047 51.126 18.1747 51.126C17.5447 51.126 16.9627 51.021 16.4287 50.811C15.9007 50.595 15.4417 50.283 15.0517 49.875C14.6677 49.461 14.3677 48.951 14.1517 48.345C13.9357 47.739 13.8277 47.043 13.8277 46.257C13.8277 45.621 13.9237 45.027 14.1157 44.475C14.3137 43.923 14.5957 43.446 14.9617 43.044C15.3277 42.636 15.7747 42.318 16.3027 42.09C16.8307 41.856 17.4247 41.739 18.0847 41.739ZM18.1207 42.918C17.3467 42.918 16.7377 43.143 16.2937 43.593C15.8497 44.037 15.5737 44.655 15.4657 45.447H20.4247C20.4247 45.075 20.3737 44.736 20.2717 44.43C20.1697 44.118 20.0197 43.851 19.8217 43.629C19.6237 43.401 19.3807 43.227 19.0927 43.107C18.8107 42.981 18.4867 42.918 18.1207 42.918ZM23.8152 51V41.883H24.7692C24.9972 41.883 25.1412 41.994 25.2012 42.216L25.3272 43.206C25.7232 42.768 26.1642 42.414 26.6502 42.144C27.1422 41.874 27.7092 41.739 28.3512 41.739C28.8492 41.739 29.2872 41.823 29.6652 41.991C30.0492 42.153 30.3672 42.387 30.6192 42.693C30.8772 42.993 31.0722 43.356 31.2042 43.782C31.3362 44.208 31.4022 44.679 31.4022 45.195V51H29.8002V45.195C29.8002 44.505 29.6412 43.971 29.3232 43.593C29.0112 43.209 28.5312 43.017 27.8832 43.017C27.4092 43.017 26.9652 43.131 26.5512 43.359C26.1432 43.587 25.7652 43.896 25.4172 44.286V51H23.8152ZM40.1341 51C39.9061 51 39.7621 50.889 39.7021 50.667L39.5581 49.56C39.1681 50.034 38.7211 50.415 38.2171 50.703C37.7191 50.985 37.1461 51.126 36.4981 51.126C35.9761 51.126 35.5021 51.027 35.0761 50.829C34.6501 50.625 34.2871 50.328 33.9871 49.938C33.6871 49.548 33.4561 49.062 33.2941 48.48C33.1321 47.898 33.0511 47.229 33.0511 46.473C33.0511 45.801 33.1411 45.177 33.3211 44.601C33.5011 44.019 33.7591 43.515 34.0951 43.089C34.4371 42.663 34.8511 42.33 35.3371 42.09C35.8231 41.844 36.3751 41.721 36.9931 41.721C37.5511 41.721 38.0281 41.817 38.4241 42.009C38.8201 42.195 39.1741 42.459 39.4861 42.801V37.743H41.0881V51H40.1341ZM37.0291 49.83C37.5511 49.83 38.0071 49.71 38.3971 49.47C38.7931 49.23 39.1561 48.891 39.4861 48.453V44.043C39.1921 43.647 38.8681 43.371 38.5141 43.215C38.1661 43.053 37.7791 42.972 37.3531 42.972C36.5011 42.972 35.8471 43.275 35.3911 43.881C34.9351 44.487 34.7071 45.351 34.7071 46.473C34.7071 47.067 34.7581 47.577 34.8601 48.003C34.9621 48.423 35.1121 48.771 35.3101 49.047C35.5081 49.317 35.7511 49.515 36.0391 49.641C36.3271 49.767 36.6571 49.83 37.0291 49.83ZM47.2808 41.739C47.8268 41.739 48.3308 41.832 48.7928 42.018C49.2548 42.198 49.6538 42.462 49.9898 42.81C50.3258 43.152 50.5868 43.578 50.7728 44.088C50.9648 44.592 51.0608 45.168 51.0608 45.816C51.0608 46.068 51.0338 46.236 50.9798 46.32C50.9258 46.404 50.8238 46.446 50.6738 46.446H44.6078C44.6198 47.022 44.6978 47.523 44.8418 47.949C44.9858 48.375 45.1838 48.732 45.4358 49.02C45.6878 49.302 45.9878 49.515 46.3358 49.659C46.6838 49.797 47.0738 49.866 47.5058 49.866C47.9078 49.866 48.2528 49.821 48.5408 49.731C48.8348 49.635 49.0868 49.533 49.2968 49.425C49.5068 49.317 49.6808 49.218 49.8188 49.128C49.9628 49.032 50.0858 48.984 50.1878 48.984C50.3198 48.984 50.4218 49.035 50.4938 49.137L50.9438 49.722C50.7458 49.962 50.5088 50.172 50.2328 50.352C49.9568 50.526 49.6598 50.67 49.3418 50.784C49.0298 50.898 48.7058 50.982 48.3698 51.036C48.0338 51.096 47.7008 51.126 47.3708 51.126C46.7408 51.126 46.1588 51.021 45.6248 50.811C45.0968 50.595 44.6378 50.283 44.2478 49.875C43.8638 49.461 43.5638 48.951 43.3478 48.345C43.1318 47.739 43.0238 47.043 43.0238 46.257C43.0238 45.621 43.1198 45.027 43.3118 44.475C43.5098 43.923 43.7918 43.446 44.1578 43.044C44.5238 42.636 44.9708 42.318 45.4988 42.09C46.0268 41.856 46.6208 41.739 47.2808 41.739ZM47.3168 42.918C46.5428 42.918 45.9338 43.143 45.4898 43.593C45.0458 44.037 44.7698 44.655 44.6618 45.447H49.6208C49.6208 45.075 49.5698 44.736 49.4678 44.43C49.3658 44.118 49.2158 43.851 49.0178 43.629C48.8198 43.401 48.5768 43.227 48.2888 43.107C48.0068 42.981 47.6828 42.918 47.3168 42.918ZM53.0113 51V41.883H53.9293C54.1033 41.883 54.2233 41.916 54.2893 41.982C54.3553 42.048 54.4003 42.162 54.4243 42.324L54.5323 43.746C54.8443 43.11 55.2283 42.615 55.6843 42.261C56.1463 41.901 56.6863 41.721 57.3043 41.721C57.5563 41.721 57.7843 41.751 57.9883 41.811C58.1923 41.865 58.3813 41.943 58.5553 42.045L58.3483 43.242C58.3063 43.392 58.2133 43.467 58.0693 43.467C57.9853 43.467 57.8563 43.44 57.6823 43.386C57.5083 43.326 57.2653 43.296 56.9533 43.296C56.3953 43.296 55.9273 43.458 55.5493 43.782C55.1773 44.106 54.8653 44.577 54.6133 45.195V51H53.0113Z" fill="#CD76BA"/>
<path d="M238.873 48.336C238.969 48.336 239.056 48.375 239.134 48.453L239.818 49.2C239.29 49.812 238.648 50.289 237.892 50.631C237.142 50.973 236.236 51.144 235.174 51.144C234.244 51.144 233.401 50.985 232.645 50.667C231.889 50.343 231.244 49.893 230.71 49.317C230.176 48.735 229.762 48.039 229.468 47.229C229.174 46.419 229.027 45.528 229.027 44.556C229.027 43.584 229.183 42.693 229.495 41.883C229.813 41.073 230.257 40.377 230.827 39.795C231.397 39.213 232.078 38.763 232.87 38.445C233.668 38.121 234.547 37.959 235.507 37.959C236.455 37.959 237.271 38.106 237.955 38.4C238.645 38.694 239.257 39.093 239.791 39.597L239.224 40.398C239.182 40.458 239.134 40.509 239.08 40.551C239.026 40.587 238.948 40.605 238.846 40.605C238.768 40.605 238.684 40.578 238.594 40.524C238.51 40.464 238.408 40.392 238.288 40.308C238.168 40.224 238.027 40.134 237.865 40.038C237.703 39.942 237.511 39.852 237.289 39.768C237.067 39.684 236.809 39.615 236.515 39.561C236.221 39.501 235.882 39.471 235.498 39.471C234.808 39.471 234.175 39.591 233.599 39.831C233.029 40.065 232.537 40.401 232.123 40.839C231.709 41.277 231.385 41.811 231.151 42.441C230.923 43.071 230.809 43.776 230.809 44.556C230.809 45.36 230.923 46.077 231.151 46.707C231.385 47.337 231.7 47.871 232.096 48.309C232.498 48.741 232.972 49.071 233.518 49.299C234.064 49.527 234.652 49.641 235.282 49.641C235.666 49.641 236.011 49.62 236.317 49.578C236.623 49.53 236.905 49.458 237.163 49.362C237.427 49.266 237.67 49.146 237.892 49.002C238.12 48.852 238.348 48.675 238.576 48.471C238.678 48.381 238.777 48.336 238.873 48.336ZM248.449 51H247.738C247.582 51 247.456 50.976 247.36 50.928C247.264 50.88 247.201 50.778 247.171 50.622L246.991 49.776C246.751 49.992 246.517 50.187 246.289 50.361C246.061 50.529 245.821 50.673 245.569 50.793C245.317 50.907 245.047 50.994 244.759 51.054C244.477 51.114 244.162 51.144 243.814 51.144C243.46 51.144 243.127 51.096 242.815 51C242.509 50.898 242.242 50.748 242.014 50.55C241.786 50.352 241.603 50.103 241.465 49.803C241.333 49.497 241.267 49.137 241.267 48.723C241.267 48.363 241.366 48.018 241.564 47.688C241.762 47.352 242.08 47.055 242.518 46.797C242.962 46.539 243.541 46.329 244.255 46.167C244.969 45.999 245.842 45.903 246.874 45.879V45.168C246.874 44.46 246.721 43.926 246.415 43.566C246.115 43.2 245.668 43.017 245.074 43.017C244.684 43.017 244.354 43.068 244.084 43.17C243.82 43.266 243.589 43.377 243.391 43.503C243.199 43.623 243.031 43.734 242.887 43.836C242.749 43.932 242.611 43.98 242.473 43.98C242.365 43.98 242.269 43.953 242.185 43.899C242.107 43.839 242.044 43.767 241.996 43.683L241.708 43.17C242.212 42.684 242.755 42.321 243.337 42.081C243.919 41.841 244.564 41.721 245.272 41.721C245.782 41.721 246.235 41.805 246.631 41.973C247.027 42.141 247.36 42.375 247.63 42.675C247.9 42.975 248.104 43.338 248.242 43.764C248.38 44.19 248.449 44.658 248.449 45.168V51ZM244.291 50.019C244.573 50.019 244.831 49.992 245.065 49.938C245.299 49.878 245.518 49.797 245.722 49.695C245.932 49.587 246.13 49.458 246.316 49.308C246.508 49.158 246.694 48.987 246.874 48.795V46.896C246.136 46.92 245.509 46.98 244.993 47.076C244.477 47.166 244.057 47.286 243.733 47.436C243.409 47.586 243.172 47.763 243.022 47.967C242.878 48.171 242.806 48.399 242.806 48.651C242.806 48.891 242.845 49.098 242.923 49.272C243.001 49.446 243.106 49.59 243.238 49.704C243.37 49.812 243.526 49.893 243.706 49.947C243.886 49.995 244.081 50.019 244.291 50.019ZM253.539 51.144C252.819 51.144 252.264 50.943 251.874 50.541C251.49 50.139 251.298 49.56 251.298 48.804V43.224H250.2C250.104 43.224 250.023 43.197 249.957 43.143C249.891 43.083 249.858 42.993 249.858 42.873V42.234L251.352 42.045L251.721 39.228C251.733 39.138 251.772 39.066 251.838 39.012C251.904 38.952 251.988 38.922 252.09 38.922H252.9V42.063H255.51V43.224H252.9V48.696C252.9 49.08 252.993 49.365 253.179 49.551C253.365 49.737 253.605 49.83 253.899 49.83C254.067 49.83 254.211 49.809 254.331 49.767C254.457 49.719 254.565 49.668 254.655 49.614C254.745 49.56 254.82 49.512 254.88 49.47C254.946 49.422 255.003 49.398 255.051 49.398C255.135 49.398 255.21 49.449 255.276 49.551L255.744 50.316C255.468 50.574 255.135 50.778 254.745 50.928C254.355 51.072 253.953 51.144 253.539 51.144ZM261 41.739C261.546 41.739 262.05 41.832 262.512 42.018C262.974 42.198 263.373 42.462 263.709 42.81C264.045 43.152 264.306 43.578 264.492 44.088C264.684 44.592 264.78 45.168 264.78 45.816C264.78 46.068 264.753 46.236 264.699 46.32C264.645 46.404 264.543 46.446 264.393 46.446H258.327C258.339 47.022 258.417 47.523 258.561 47.949C258.705 48.375 258.903 48.732 259.155 49.02C259.407 49.302 259.707 49.515 260.055 49.659C260.403 49.797 260.793 49.866 261.225 49.866C261.627 49.866 261.972 49.821 262.26 49.731C262.554 49.635 262.806 49.533 263.016 49.425C263.226 49.317 263.4 49.218 263.538 49.128C263.682 49.032 263.805 48.984 263.907 48.984C264.039 48.984 264.141 49.035 264.213 49.137L264.663 49.722C264.465 49.962 264.228 50.172 263.952 50.352C263.676 50.526 263.379 50.67 263.061 50.784C262.749 50.898 262.425 50.982 262.089 51.036C261.753 51.096 261.42 51.126 261.09 51.126C260.46 51.126 259.878 51.021 259.344 50.811C258.816 50.595 258.357 50.283 257.967 49.875C257.583 49.461 257.283 48.951 257.067 48.345C256.851 47.739 256.743 47.043 256.743 46.257C256.743 45.621 256.839 45.027 257.031 44.475C257.229 43.923 257.511 43.446 257.877 43.044C258.243 42.636 258.69 42.318 259.218 42.09C259.746 41.856 260.34 41.739 261 41.739ZM261.036 42.918C260.262 42.918 259.653 43.143 259.209 43.593C258.765 44.037 258.489 44.655 258.381 45.447H263.34C263.34 45.075 263.289 44.736 263.187 44.43C263.085 44.118 262.935 43.851 262.737 43.629C262.539 43.401 262.296 43.227 262.008 43.107C261.726 42.981 261.402 42.918 261.036 42.918ZM269.8 41.73C270.196 41.73 270.565 41.775 270.907 41.865C271.255 41.949 271.57 42.075 271.852 42.243H274.327V42.837C274.327 43.035 274.201 43.161 273.949 43.215L272.914 43.359C273.118 43.749 273.22 44.184 273.22 44.664C273.22 45.108 273.133 45.513 272.959 45.879C272.791 46.239 272.554 46.548 272.248 46.806C271.948 47.064 271.588 47.262 271.168 47.4C270.754 47.538 270.298 47.607 269.8 47.607C269.374 47.607 268.972 47.556 268.594 47.454C268.402 47.574 268.255 47.703 268.153 47.841C268.057 47.979 268.009 48.114 268.009 48.246C268.009 48.462 268.096 48.627 268.27 48.741C268.444 48.849 268.675 48.927 268.963 48.975C269.251 49.023 269.578 49.053 269.944 49.065C270.31 49.077 270.682 49.098 271.06 49.128C271.444 49.152 271.819 49.197 272.185 49.263C272.551 49.329 272.878 49.437 273.166 49.587C273.454 49.737 273.685 49.944 273.859 50.208C274.033 50.472 274.12 50.814 274.12 51.234C274.12 51.624 274.021 52.002 273.823 52.368C273.631 52.734 273.352 53.058 272.986 53.34C272.62 53.628 272.173 53.856 271.645 54.024C271.117 54.198 270.52 54.285 269.854 54.285C269.188 54.285 268.603 54.219 268.099 54.087C267.601 53.955 267.187 53.778 266.857 53.556C266.527 53.334 266.278 53.076 266.11 52.782C265.948 52.494 265.867 52.191 265.867 51.873C265.867 51.423 266.008 51.042 266.29 50.73C266.578 50.412 266.971 50.16 267.469 49.974C267.211 49.854 267.004 49.695 266.848 49.497C266.698 49.293 266.623 49.023 266.623 48.687C266.623 48.555 266.647 48.42 266.695 48.282C266.743 48.138 266.815 47.997 266.911 47.859C267.013 47.721 267.136 47.589 267.28 47.463C267.424 47.337 267.592 47.226 267.784 47.13C267.334 46.878 266.98 46.545 266.722 46.131C266.47 45.711 266.344 45.222 266.344 44.664C266.344 44.22 266.428 43.818 266.596 43.458C266.77 43.092 267.01 42.783 267.316 42.531C267.622 42.273 267.985 42.075 268.405 41.937C268.831 41.799 269.296 41.73 269.8 41.73ZM272.644 51.495C272.644 51.267 272.581 51.084 272.455 50.946C272.329 50.808 272.158 50.703 271.942 50.631C271.726 50.553 271.477 50.496 271.195 50.46C270.913 50.424 270.616 50.4 270.304 50.388C269.992 50.37 269.674 50.352 269.35 50.334C269.026 50.316 268.717 50.283 268.423 50.235C268.081 50.397 267.802 50.595 267.586 50.829C267.376 51.063 267.271 51.342 267.271 51.666C267.271 51.87 267.322 52.059 267.424 52.233C267.532 52.413 267.694 52.566 267.91 52.692C268.126 52.824 268.396 52.926 268.72 52.998C269.05 53.076 269.437 53.115 269.881 53.115C270.313 53.115 270.7 53.076 271.042 52.998C271.384 52.92 271.672 52.809 271.906 52.665C272.146 52.521 272.329 52.35 272.455 52.152C272.581 51.954 272.644 51.735 272.644 51.495ZM269.8 46.545C270.124 46.545 270.409 46.5 270.655 46.41C270.907 46.32 271.117 46.194 271.285 46.032C271.453 45.87 271.579 45.678 271.663 45.456C271.747 45.228 271.789 44.979 271.789 44.709C271.789 44.151 271.618 43.707 271.276 43.377C270.94 43.047 270.448 42.882 269.8 42.882C269.158 42.882 268.666 43.047 268.324 43.377C267.988 43.707 267.82 44.151 267.82 44.709C267.82 44.979 267.862 45.228 267.946 45.456C268.036 45.678 268.165 45.87 268.333 46.032C268.501 46.194 268.708 46.32 268.954 46.41C269.2 46.5 269.482 46.545 269.8 46.545ZM279.514 41.739C280.18 41.739 280.78 41.85 281.314 42.072C281.854 42.294 282.31 42.609 282.682 43.017C283.06 43.425 283.348 43.92 283.546 44.502C283.75 45.078 283.852 45.723 283.852 46.437C283.852 47.157 283.75 47.805 283.546 48.381C283.348 48.957 283.06 49.449 282.682 49.857C282.31 50.265 281.854 50.58 281.314 50.802C280.78 51.018 280.18 51.126 279.514 51.126C278.848 51.126 278.245 51.018 277.705 50.802C277.171 50.58 276.715 50.265 276.337 49.857C275.959 49.449 275.668 48.957 275.464 48.381C275.26 47.805 275.158 47.157 275.158 46.437C275.158 45.723 275.26 45.078 275.464 44.502C275.668 43.92 275.959 43.425 276.337 43.017C276.715 42.609 277.171 42.294 277.705 42.072C278.245 41.85 278.848 41.739 279.514 41.739ZM279.514 49.875C280.414 49.875 281.086 49.575 281.53 48.975C281.974 48.369 282.196 47.526 282.196 46.446C282.196 45.36 281.974 44.514 281.53 43.908C281.086 43.302 280.414 42.999 279.514 42.999C279.058 42.999 278.662 43.077 278.326 43.233C277.99 43.389 277.708 43.614 277.48 43.908C277.258 44.202 277.09 44.565 276.976 44.997C276.868 45.423 276.814 45.906 276.814 46.446C276.814 46.986 276.868 47.469 276.976 47.895C277.09 48.321 277.258 48.681 277.48 48.975C277.708 49.263 277.99 49.485 278.326 49.641C278.662 49.797 279.058 49.875 279.514 49.875ZM285.726 51V41.883H286.644C286.818 41.883 286.938 41.916 287.004 41.982C287.07 42.048 287.115 42.162 287.139 42.324L287.247 43.746C287.559 43.11 287.943 42.615 288.399 42.261C288.861 41.901 289.401 41.721 290.019 41.721C290.271 41.721 290.499 41.751 290.703 41.811C290.907 41.865 291.096 41.943 291.27 42.045L291.063 43.242C291.021 43.392 290.928 43.467 290.784 43.467C290.7 43.467 290.571 43.44 290.397 43.386C290.223 43.326 289.98 43.296 289.668 43.296C289.11 43.296 288.642 43.458 288.264 43.782C287.892 44.106 287.58 44.577 287.328 45.195V51H285.726ZM295.559 53.691C295.505 53.811 295.436 53.907 295.352 53.979C295.274 54.051 295.151 54.087 294.983 54.087H293.795L295.46 50.469L291.698 41.883H293.084C293.222 41.883 293.33 41.919 293.408 41.991C293.486 42.057 293.543 42.132 293.579 42.216L296.018 47.958C296.072 48.09 296.117 48.222 296.153 48.354C296.195 48.486 296.231 48.621 296.261 48.759C296.303 48.621 296.345 48.486 296.387 48.354C296.429 48.222 296.477 48.087 296.531 47.949L298.898 42.216C298.934 42.12 298.994 42.042 299.078 41.982C299.168 41.916 299.264 41.883 299.366 41.883H300.644L295.559 53.691Z" fill="#808080"/>
<path d="M471.301 51H469.951C469.795 51 469.669 50.961 469.573 50.883C469.477 50.805 469.405 50.706 469.357 50.586L468.151 47.472H462.364L461.158 50.586C461.116 50.694 461.044 50.79 460.942 50.874C460.84 50.958 460.714 51 460.564 51H459.214L464.371 38.103H466.144L471.301 51ZM462.85 46.212H467.665L465.64 40.965C465.508 40.641 465.379 40.236 465.253 39.75C465.187 39.996 465.121 40.224 465.055 40.434C464.995 40.638 464.935 40.818 464.875 40.974L462.85 46.212ZM478.989 51C478.761 51 478.617 50.889 478.557 50.667L478.413 49.56C478.023 50.034 477.576 50.415 477.072 50.703C476.574 50.985 476.001 51.126 475.353 51.126C474.831 51.126 474.357 51.027 473.931 50.829C473.505 50.625 473.142 50.328 472.842 49.938C472.542 49.548 472.311 49.062 472.149 48.48C471.987 47.898 471.906 47.229 471.906 46.473C471.906 45.801 471.996 45.177 472.176 44.601C472.356 44.019 472.614 43.515 472.95 43.089C473.292 42.663 473.706 42.33 474.192 42.09C474.678 41.844 475.23 41.721 475.848 41.721C476.406 41.721 476.883 41.817 477.279 42.009C477.675 42.195 478.029 42.459 478.341 42.801V37.743H479.943V51H478.989ZM475.884 49.83C476.406 49.83 476.862 49.71 477.252 49.47C477.648 49.23 478.011 48.891 478.341 48.453V44.043C478.047 43.647 477.723 43.371 477.369 43.215C477.021 43.053 476.634 42.972 476.208 42.972C475.356 42.972 474.702 43.275 474.246 43.881C473.79 44.487 473.562 45.351 473.562 46.473C473.562 47.067 473.613 47.577 473.715 48.003C473.817 48.423 473.967 48.771 474.165 49.047C474.363 49.317 474.606 49.515 474.894 49.641C475.182 49.767 475.512 49.83 475.884 49.83ZM488.944 51C488.716 51 488.572 50.889 488.512 50.667L488.368 49.56C487.978 50.034 487.531 50.415 487.027 50.703C486.529 50.985 485.956 51.126 485.308 51.126C484.786 51.126 484.312 51.027 483.886 50.829C483.46 50.625 483.097 50.328 482.797 49.938C482.497 49.548 482.266 49.062 482.104 48.48C481.942 47.898 481.861 47.229 481.861 46.473C481.861 45.801 481.951 45.177 482.131 44.601C482.311 44.019 482.569 43.515 482.905 43.089C483.247 42.663 483.661 42.33 484.147 42.09C484.633 41.844 485.185 41.721 485.803 41.721C486.361 41.721 486.838 41.817 487.234 42.009C487.63 42.195 487.984 42.459 488.296 42.801V37.743H489.898V51H488.944ZM485.839 49.83C486.361 49.83 486.817 49.71 487.207 49.47C487.603 49.23 487.966 48.891 488.296 48.453V44.043C488.002 43.647 487.678 43.371 487.324 43.215C486.976 43.053 486.589 42.972 486.163 42.972C485.311 42.972 484.657 43.275 484.201 43.881C483.745 44.487 483.517 45.351 483.517 46.473C483.517 47.067 483.568 47.577 483.67 48.003C483.772 48.423 483.922 48.771 484.12 49.047C484.318 49.317 484.561 49.515 484.849 49.641C485.137 49.767 485.467 49.83 485.839 49.83ZM498.625 51.144C497.905 51.144 497.35 50.943 496.96 50.541C496.576 50.139 496.384 49.56 496.384 48.804V43.224H495.286C495.19 43.224 495.109 43.197 495.043 43.143C494.977 43.083 494.944 42.993 494.944 42.873V42.234L496.438 42.045L496.807 39.228C496.819 39.138 496.858 39.066 496.924 39.012C496.99 38.952 497.074 38.922 497.176 38.922H497.986V42.063H500.596V43.224H497.986V48.696C497.986 49.08 498.079 49.365 498.265 49.551C498.451 49.737 498.691 49.83 498.985 49.83C499.153 49.83 499.297 49.809 499.417 49.767C499.543 49.719 499.651 49.668 499.741 49.614C499.831 49.56 499.906 49.512 499.966 49.47C500.032 49.422 500.089 49.398 500.137 49.398C500.221 49.398 500.296 49.449 500.362 49.551L500.83 50.316C500.554 50.574 500.221 50.778 499.831 50.928C499.441 51.072 499.039 51.144 498.625 51.144ZM506.167 41.739C506.833 41.739 507.433 41.85 507.967 42.072C508.507 42.294 508.963 42.609 509.335 43.017C509.713 43.425 510.001 43.92 510.199 44.502C510.403 45.078 510.505 45.723 510.505 46.437C510.505 47.157 510.403 47.805 510.199 48.381C510.001 48.957 509.713 49.449 509.335 49.857C508.963 50.265 508.507 50.58 507.967 50.802C507.433 51.018 506.833 51.126 506.167 51.126C505.501 51.126 504.898 51.018 504.358 50.802C503.824 50.58 503.368 50.265 502.99 49.857C502.612 49.449 502.321 48.957 502.117 48.381C501.913 47.805 501.811 47.157 501.811 46.437C501.811 45.723 501.913 45.078 502.117 44.502C502.321 43.92 502.612 43.425 502.99 43.017C503.368 42.609 503.824 42.294 504.358 42.072C504.898 41.85 505.501 41.739 506.167 41.739ZM506.167 49.875C507.067 49.875 507.739 49.575 508.183 48.975C508.627 48.369 508.849 47.526 508.849 46.446C508.849 45.36 508.627 44.514 508.183 43.908C507.739 43.302 507.067 42.999 506.167 42.999C505.711 42.999 505.315 43.077 504.979 43.233C504.643 43.389 504.361 43.614 504.133 43.908C503.911 44.202 503.743 44.565 503.629 44.997C503.521 45.423 503.467 45.906 503.467 46.446C503.467 46.986 503.521 47.469 503.629 47.895C503.743 48.321 503.911 48.681 504.133 48.975C504.361 49.263 504.643 49.485 504.979 49.641C505.315 49.797 505.711 49.875 506.167 49.875ZM517.542 37.743V51H515.94V37.743H517.542ZM522.047 41.883V51H520.445V41.883H522.047ZM522.407 39.021C522.407 39.177 522.374 39.324 522.308 39.462C522.248 39.594 522.164 39.714 522.056 39.822C521.954 39.924 521.834 40.005 521.696 40.065C521.558 40.125 521.411 40.155 521.255 40.155C521.099 40.155 520.952 40.125 520.814 40.065C520.682 40.005 520.562 39.924 520.454 39.822C520.352 39.714 520.271 39.594 520.211 39.462C520.151 39.324 520.121 39.177 520.121 39.021C520.121 38.865 520.151 38.718 520.211 38.58C520.271 38.436 520.352 38.313 520.454 38.211C520.562 38.103 520.682 38.019 520.814 37.959C520.952 37.899 521.099 37.869 521.255 37.869C521.411 37.869 521.558 37.899 521.696 37.959C521.834 38.019 521.954 38.103 522.056 38.211C522.164 38.313 522.248 38.436 522.308 38.58C522.374 38.718 522.407 38.865 522.407 39.021ZM529.99 43.386C529.918 43.518 529.807 43.584 529.657 43.584C529.567 43.584 529.465 43.551 529.351 43.485C529.237 43.419 529.096 43.347 528.928 43.269C528.766 43.185 528.571 43.11 528.343 43.044C528.115 42.972 527.845 42.936 527.533 42.936C527.263 42.936 527.02 42.972 526.804 43.044C526.588 43.11 526.402 43.203 526.246 43.323C526.096 43.443 525.979 43.584 525.895 43.746C525.817 43.902 525.778 44.073 525.778 44.259C525.778 44.493 525.844 44.688 525.976 44.844C526.114 45 526.294 45.135 526.516 45.249C526.738 45.363 526.99 45.465 527.272 45.555C527.554 45.639 527.842 45.732 528.136 45.834C528.436 45.93 528.727 46.038 529.009 46.158C529.291 46.278 529.543 46.428 529.765 46.608C529.987 46.788 530.164 47.01 530.296 47.274C530.434 47.532 530.503 47.844 530.503 48.21C530.503 48.63 530.428 49.02 530.278 49.38C530.128 49.734 529.906 50.043 529.612 50.307C529.318 50.565 528.958 50.769 528.532 50.919C528.106 51.069 527.614 51.144 527.056 51.144C526.42 51.144 525.844 51.042 525.328 50.838C524.812 50.628 524.374 50.361 524.014 50.037L524.392 49.425C524.44 49.347 524.497 49.287 524.563 49.245C524.629 49.203 524.716 49.182 524.824 49.182C524.932 49.182 525.046 49.224 525.166 49.308C525.286 49.392 525.43 49.485 525.598 49.587C525.772 49.689 525.979 49.782 526.219 49.866C526.465 49.95 526.771 49.992 527.137 49.992C527.449 49.992 527.722 49.953 527.956 49.875C528.19 49.791 528.385 49.68 528.541 49.542C528.697 49.404 528.811 49.245 528.883 49.065C528.961 48.885 529 48.693 529 48.489C529 48.237 528.931 48.03 528.793 47.868C528.661 47.7 528.484 47.559 528.262 47.445C528.04 47.325 527.785 47.223 527.497 47.139C527.215 47.049 526.924 46.956 526.624 46.86C526.33 46.764 526.039 46.656 525.751 46.536C525.469 46.41 525.217 46.254 524.995 46.068C524.773 45.882 524.593 45.654 524.455 45.384C524.323 45.108 524.257 44.775 524.257 44.385C524.257 44.037 524.329 43.704 524.473 43.386C524.617 43.062 524.827 42.78 525.103 42.54C525.379 42.294 525.718 42.099 526.12 41.955C526.522 41.811 526.981 41.739 527.497 41.739C528.097 41.739 528.634 41.835 529.108 42.027C529.588 42.213 530.002 42.471 530.35 42.801L529.99 43.386ZM535.238 51.144C534.518 51.144 533.963 50.943 533.573 50.541C533.189 50.139 532.997 49.56 532.997 48.804V43.224H531.899C531.803 43.224 531.722 43.197 531.656 43.143C531.59 43.083 531.557 42.993 531.557 42.873V42.234L533.051 42.045L533.42 39.228C533.432 39.138 533.471 39.066 533.537 39.012C533.603 38.952 533.687 38.922 533.789 38.922H534.599V42.063H537.209V43.224H534.599V48.696C534.599 49.08 534.692 49.365 534.878 49.551C535.064 49.737 535.304 49.83 535.598 49.83C535.766 49.83 535.91 49.809 536.03 49.767C536.156 49.719 536.264 49.668 536.354 49.614C536.444 49.56 536.519 49.512 536.579 49.47C536.645 49.422 536.702 49.398 536.75 49.398C536.834 49.398 536.909 49.449 536.975 49.551L537.443 50.316C537.167 50.574 536.834 50.778 536.444 50.928C536.054 51.072 535.652 51.144 535.238 51.144Z" fill="#808080"/>
<circle cx="29" cy="11" r="11" fill="#D8D8D8"/>
<circle cx="264" cy="11" r="11" fill="#D8D8D8"/>
<circle cx="500" cy="11" r="11" fill="#D8D8D8"/>
<circle cx="29" cy="11" r="7" fill="#CD76BA"/>
<circle cx="264" cy="11" r="7" fill="#CD76BA"/>
<circle cx="500" cy="11" r="7" fill="#CD76BA"/>
</svg>
