<svg width="60" height="60" viewBox="0 0 60 60" fill="none" xmlns="http://www.w3.org/2000/svg">
<path d="M9.57365 55.6876C9.57365 56.6139 9.57929 57.3708 9.57365 58.1333C9.568 58.9636 9.27428 59.3138 8.61343 59.3194C7.93564 59.3251 7.60805 58.9354 7.61934 58.0938C7.64194 56.5744 7.68712 55.055 7.71536 53.5356C7.72101 53.3153 7.71536 53.095 7.71536 52.8861C7.06581 52.79 6.46709 52.694 5.86838 52.6093C5.34874 52.5359 5.0042 52.2817 4.76132 51.7903C3.225 48.6725 1.62089 45.5829 0.141046 42.4368C-0.107478 41.9115 0.0167828 41.1264 0.174934 40.5164C0.638092 38.692 1.69996 37.1726 2.90304 35.7606C3.91408 34.5744 5.0155 33.4673 6.09431 32.3377C6.7947 31.6091 7.52897 30.9087 8.235 30.2083C7.61934 28.9262 7.63629 28.8358 8.60779 27.8643C9.62448 26.8476 10.6412 25.8365 11.5901 24.8933C11.0083 23.7241 10.4661 22.6227 9.90689 21.5326C9.85606 21.4309 9.69791 21.3631 9.57365 21.3179C6.87378 20.3352 5.89662 17.607 7.35952 15.1105C7.43295 14.9919 7.50638 14.8733 7.5911 14.7264C6.88507 14.0034 6.71562 13.1223 6.74386 12.1508C6.7834 10.8348 6.77776 9.51306 6.74952 8.19701C6.67609 4.84759 8.21806 2.52618 11.2681 1.26662C14.4537 -0.0494268 17.8032 -0.337516 21.1582 0.39111C24.5472 1.13103 26.4055 3.46378 27.1058 6.86403C28.2355 6.86403 29.3877 6.87532 30.5343 6.85838C32.6976 6.83014 34.1944 7.88637 35.1659 9.7277C36.0583 11.4222 35.6065 13.1167 34.0306 14.2068C32.5564 15.2235 30.8619 15.4776 29.1336 15.6019C28.8342 15.6245 28.5292 15.6075 28.1903 15.6075C28.0039 19.262 27.682 22.843 25.0838 25.7688C25.9141 26.5991 26.7105 27.4633 27.5916 28.2371C27.8797 28.4912 28.3711 28.5195 28.7777 28.6268C29.1844 28.7341 29.6024 28.8132 30.0994 28.9261C30.0994 28.5759 30.0994 28.2823 30.0994 27.9885C30.0994 26.1867 30.0938 24.3793 30.0994 22.5775C30.0994 21.7811 30.4101 21.4704 31.1952 21.4704C40.1929 21.4704 49.1906 21.4704 58.1882 21.4704C58.9282 21.4704 59.1767 21.7246 59.1767 22.4476C59.1767 31.0612 59.1767 39.6804 59.171 48.294C59.171 48.4183 59.171 48.5369 59.1654 48.6612C59.1315 49.3728 58.8208 49.6779 58.0979 49.6835C56.1097 49.6892 54.1271 49.6835 52.139 49.6835C51.9187 49.6835 51.6984 49.6835 51.4273 49.6835C51.3821 50.0055 51.3595 50.2992 51.2974 50.5872C50.9076 52.3721 49.5859 53.0951 47.9705 53.434C47.4622 53.5413 46.9256 53.5639 46.4003 53.5695C43.949 53.5808 41.4976 53.5243 39.0463 53.5865C37.6568 53.6204 36.2786 53.8293 34.844 53.9592C34.844 55.5182 34.8496 56.9359 34.8383 58.348C34.8327 59.0314 34.5164 59.3816 33.9346 59.4098C33.285 59.4437 32.8953 59.0653 32.8897 58.3592C32.8784 57.1223 32.884 55.891 32.884 54.5749C32.5451 54.6766 32.2627 54.75 31.9859 54.846C28.2298 56.0943 24.485 57.3764 20.712 58.5795C19.5824 58.9354 18.3906 59.1387 17.2101 59.2742C14.6288 59.5736 12.5107 58.5513 10.6694 56.8229C10.3475 56.501 10.0255 56.1508 9.57365 55.6876ZM32.065 23.4473C32.065 30.9087 32.065 38.3192 32.065 45.7636C32.291 45.7071 32.4886 45.6732 32.675 45.6167C34.5841 45.0293 36.5215 44.7243 38.5323 44.8204C39.9669 44.8881 41.4129 44.8938 42.8476 44.8204C44.7002 44.7243 46.0558 45.7354 46.2817 47.6501C46.2873 47.6784 46.3325 47.701 46.3325 47.7066C50.0095 47.7066 53.664 47.7066 57.3071 47.7066C57.3071 39.5957 57.3071 31.5356 57.3071 23.4643C54.7146 23.4643 52.1559 23.4643 49.552 23.4643C49.552 23.7241 49.552 23.9444 49.552 24.159C49.552 26.1472 49.5577 28.1297 49.552 30.1179C49.5464 31.0951 48.9251 31.4509 48.0609 31.0047C47.1233 30.5302 46.1744 30.0784 45.2424 29.587C44.9261 29.4175 44.6776 29.4063 44.3556 29.5814C43.3954 30.0954 42.407 30.5698 41.4298 31.0555C40.5261 31.5018 39.8427 31.0894 39.837 30.084C39.8257 28.2596 39.8314 26.4352 39.8314 24.6109C39.8314 24.2324 39.8314 23.854 39.8314 23.4473C37.2219 23.4473 34.6745 23.4473 32.065 23.4473ZM9.72614 31.4735C7.88481 33.3996 6.04348 35.2522 4.29252 37.1896C3.31537 38.2684 2.51896 39.511 2.08405 40.9287C1.98238 41.2506 1.9146 41.6856 2.04451 41.9623C3.41139 44.8317 4.81216 47.6784 6.22422 50.5251C6.30895 50.6945 6.52358 50.864 6.70433 50.8979C9.5567 51.4401 12.0758 50.0958 13.1716 47.475C13.3184 47.1249 13.3128 46.8594 13.0982 46.5205C12.2735 45.2214 11.4771 43.9053 10.692 42.5836C10.2514 41.8437 10.5338 41.1264 11.302 40.9739C11.8838 40.8553 12.1944 41.2111 12.4543 41.663C13.6291 43.6963 14.8096 45.7241 15.9957 47.7518C17.0406 49.5367 18.7747 50.1862 20.7177 49.5366C23.57 48.5821 26.4224 47.6162 29.2861 46.6843C29.7549 46.5318 29.8961 46.3397 29.8961 45.8483C29.8735 41.1264 29.8848 36.3988 29.8848 31.6768C29.8848 31.4566 29.8848 31.2419 29.8848 31.0104C29.0375 30.8127 28.2637 30.6319 27.4843 30.4455C27.2132 30.9934 26.9759 31.4848 26.7387 31.9762C26.5015 32.4676 26.2756 32.9647 26.0214 33.4504C25.6938 34.083 25.1685 34.3089 24.6319 34.0209C24.4286 33.9136 24.2591 33.7159 24.1179 33.5295C23.5644 32.8009 23.0278 32.0553 22.4291 31.2363C21.9942 32.3321 21.6044 33.3092 21.2317 34.2863C21.0848 34.6761 20.8645 34.9472 20.4183 34.9924C19.8252 35.0489 19.5202 34.7213 19.3225 34.2299C18.9102 33.2245 18.4979 32.2191 18.0517 31.1346C17.1254 32.3208 16.2555 33.4391 15.3744 34.5518C14.8039 35.2691 14.3295 35.303 13.6291 34.7156C12.3526 33.6594 11.093 32.6145 9.72614 31.4735ZM9.88429 52.7279C10.178 53.1572 10.4152 53.5243 10.6807 53.8745C11.5957 55.0832 12.6576 56.1169 14.0075 56.8455C15.7302 57.7718 17.5264 57.5741 19.2661 57.0432C23.282 55.8119 27.2753 54.5015 31.2573 53.1629C33.8386 52.293 36.4424 51.6039 39.1931 51.6209C41.6049 51.6321 44.0167 51.6717 46.4286 51.6265C47.1402 51.6152 47.8632 51.4175 48.5467 51.2029C49.151 51.0165 49.4504 50.5025 49.5181 49.8304C49.3205 49.8191 49.1397 49.8078 48.9646 49.8021C46.6149 49.7626 44.2653 49.7287 41.9156 49.6892C41.17 49.6779 40.8029 49.3503 40.8029 48.712C40.8085 48.0738 41.1757 47.7518 41.9269 47.7518C42.6894 47.7462 43.4519 47.7518 44.2257 47.7518C44.1015 47.0288 43.8191 46.7803 43.1074 46.7747C40.9384 46.769 38.7695 46.769 36.6006 46.7747C36.4198 46.7747 36.2334 46.786 36.0583 46.8311C34.2848 47.3112 32.4943 47.7405 30.749 48.2997C27.6142 49.3051 24.5076 50.4065 21.3785 51.4288C18.9723 52.2139 16.617 51.4797 15.0073 49.5084C14.9225 49.4011 14.8209 49.2994 14.6966 49.1639C13.6121 51.0447 12.008 52.1913 9.88429 52.7279ZM25.6994 11.4504C25.4453 11.8006 25.2928 12.0322 25.112 12.2468C24.5867 12.8851 24.0953 13.5629 23.5023 14.139C22.4686 15.15 21.2373 15.681 19.7349 15.6527C16.5154 15.5962 13.2958 15.6245 10.0763 15.6527C9.74874 15.6527 9.29688 15.7826 9.12743 16.0142C8.59649 16.7485 8.5626 17.607 8.87326 18.443C9.15002 19.1772 9.78828 19.4597 10.5056 19.5105C11.206 19.5613 11.5449 19.9341 11.7369 20.5611C12.0984 21.7754 12.6689 22.8825 13.4992 23.8484C16.8373 27.74 23.1577 26.8984 25.1007 22.2217C25.6994 20.787 26.0496 19.3015 26.1569 17.7595C26.3094 15.6979 26.1908 13.6419 25.6994 11.4504ZM25.1515 6.88099C24.9934 6.40654 24.8861 5.99421 24.7223 5.61013C23.5135 2.69563 19.3395 0.865566 16.4984 3.32256C15.1372 4.4974 14.6514 6.07892 14.5328 7.81293C14.4876 8.46813 14.0979 8.84656 13.4992 8.82961C12.9231 8.80702 12.5898 8.43424 12.5955 7.77339C12.6124 5.95465 13.1546 4.31104 14.2561 2.85943C14.3577 2.72952 14.4481 2.58831 14.6119 2.35673C13.2281 2.6222 12.0193 2.99499 10.9405 3.70667C9.72615 4.50308 8.88455 5.58751 8.79983 7.06171C8.69251 8.98211 8.72076 10.9082 8.71511 12.8286C8.71511 13.2805 8.98057 13.6193 9.44373 13.6645C11.0365 13.834 12.5785 13.7831 13.7138 12.3993C14.0866 11.9475 14.4312 11.4674 14.8152 11.0268C15.493 10.253 16.1256 9.4227 16.8938 8.74491C18.3172 7.48535 19.9777 6.77367 21.9377 6.87534C22.9657 6.92617 23.9993 6.88099 25.1515 6.88099ZM25.4904 8.824C24.3326 8.824 23.1577 8.85787 21.9885 8.81269C20.7516 8.7675 19.6953 9.16852 18.7012 9.8576C17.2722 10.8404 16.3629 12.2751 15.3179 13.6928C16.6679 13.6928 17.95 13.6024 19.2152 13.7154C20.8024 13.8566 21.8869 13.111 22.8358 12.0039C23.7169 10.9647 24.5867 9.90281 25.4904 8.824ZM47.5695 28.6381C47.5695 26.8419 47.5695 25.1475 47.5695 23.4586C45.6208 23.4586 43.7117 23.4586 41.8026 23.4586C41.8026 25.1926 41.8026 26.8758 41.8026 28.6381C42.616 28.237 43.3502 27.8191 44.1354 27.5084C44.463 27.3785 44.9261 27.3729 45.2537 27.5028C46.0332 27.8191 46.7674 28.237 47.5695 28.6381ZM28.1338 13.7097C28.8116 13.6589 29.5007 13.6476 30.1728 13.5516C31.1726 13.4047 32.1667 13.2014 33.0026 12.5688C33.4658 12.2186 33.8216 11.7554 33.59 11.1623C33.1664 10.0948 32.4999 9.21373 31.3025 8.93131C29.9074 8.59807 28.7325 9.19675 27.5972 9.88584C27.5069 9.94232 27.4447 10.157 27.4673 10.2812C27.6707 11.3939 27.891 12.501 28.1338 13.7097ZM10.1328 29.3046C11.5336 30.4455 12.9174 31.5808 14.3408 32.7387C15.2275 31.6204 16.0748 30.5528 16.9446 29.4514C15.493 28.4912 14.0979 27.5762 12.7536 26.6894C11.8668 27.5762 11.0252 28.4178 10.1328 29.3046ZM25.0386 31.2815C25.3436 30.7053 25.6091 30.214 25.8576 29.7113C25.9084 29.6096 25.9254 29.4119 25.8632 29.3498C25.2589 28.7172 24.6376 28.1015 23.9767 27.435C23.796 27.949 23.6435 28.3444 23.5249 28.7454C23.4797 28.881 23.4458 29.0843 23.5136 29.186C23.988 29.8751 24.4963 30.5472 25.0386 31.2815ZM20.407 31.4001C20.8589 30.1801 21.2768 29.0673 21.7118 27.8982C20.6951 28.062 19.7744 28.2088 18.9893 28.3387C19.4299 29.2989 19.8874 30.2874 20.407 31.4001Z" fill="#CD76BA"/>
<path d="M37.8831 42.8775C37.2561 42.8775 36.6292 42.8831 36.0022 42.8775C35.3188 42.8662 34.9573 42.516 34.963 41.8947C34.9686 41.3016 35.3244 40.9458 35.9683 40.9401C37.2392 40.9288 38.5157 40.9288 39.7866 40.9401C40.4305 40.9458 40.7863 41.3016 40.792 41.889C40.7976 42.5103 40.4361 42.8662 39.7527 42.8718C39.1314 42.8888 38.5101 42.8775 37.8831 42.8775Z" fill="#CD76BA"/>
<path d="M36.8438 39.9571C36.5388 39.9571 36.2395 39.9684 35.9345 39.9571C35.3075 39.9345 34.9573 39.5731 34.963 38.9687C34.9686 38.3982 35.3131 38.0367 35.9119 38.0198C36.5784 38.0028 37.2449 38.0028 37.9114 38.0198C38.5044 38.0367 38.849 38.3982 38.8546 38.9743C38.8603 39.5504 38.5214 39.9232 37.9396 39.9515C37.5724 39.9741 37.2053 39.9571 36.8438 39.9571Z" fill="#CD76BA"/>
</svg>
