<svg width="22" height="23" viewBox="0 0 22 23" fill="none" xmlns="http://www.w3.org/2000/svg">
<path d="M6.5968 3.29064C6.5968 2.81507 6.55488 2.37387 6.60505 1.94366C6.73631 0.822791 7.64002 0.0256049 8.78151 0.0118603C10.0584 -0.00325875 11.3359 -0.00463321 12.6128 0.0118603C13.8766 0.0276666 14.8037 0.982918 14.814 2.24811C14.8168 2.5821 14.8147 2.91541 14.8147 3.29064C14.9226 3.29064 15.0209 3.29064 15.1191 3.29064C16.8846 3.29407 18.6501 3.29407 20.4156 3.30507C20.5991 3.30644 20.797 3.33599 20.9613 3.41021C21.2884 3.55934 21.4582 3.95381 21.3819 4.29468C21.3001 4.66098 20.995 4.92968 20.617 4.94068C20.206 4.95305 19.7944 4.95236 19.3827 4.94274C19.2116 4.93862 19.1456 4.98397 19.1346 5.16815C18.9477 8.27306 18.7532 11.3773 18.5594 14.4815C18.4584 16.0979 18.356 17.7142 18.2543 19.3306C18.1423 21.1146 16.7328 22.4925 14.935 22.507C12.1235 22.5297 9.31205 22.529 6.50128 22.5077C4.67874 22.4939 3.28504 21.0762 3.18126 19.2488C3.05413 17.0249 2.88988 14.8031 2.7435 12.5799C2.61499 10.6303 2.48991 8.68127 2.36346 6.7316C2.3291 6.20175 2.28787 5.67189 2.26313 5.14135C2.25557 4.97779 2.18822 4.94137 2.04184 4.9448C1.69066 4.95236 1.3388 4.94755 0.987625 4.94686C0.373241 4.94549 -0.00611058 4.6273 7.44971e-05 4.11806C0.00625957 3.6157 0.381488 3.30232 0.980066 3.30094C2.74556 3.29751 4.51106 3.29407 6.27655 3.29132C6.36864 3.29064 6.46073 3.29064 6.5968 3.29064ZM17.5004 4.99497C12.9626 4.99497 8.46744 4.99497 3.95784 4.99497C3.95784 5.08431 3.95371 5.16884 3.95852 5.25199C4.04855 6.82644 4.13789 8.40088 4.23135 9.97464C4.41141 13.0115 4.59765 16.0484 4.77495 19.0859C4.84093 20.2109 5.51579 20.8652 6.63872 20.8672C7.71011 20.8686 8.78219 20.8679 9.85359 20.8679C11.5077 20.8679 13.1626 20.8714 14.8168 20.8666C15.7919 20.8638 16.5472 20.2158 16.6077 19.3065C16.7561 17.0916 16.8874 14.876 17.0255 12.6603C17.1389 10.8467 17.2537 9.03382 17.3664 7.22022C17.4117 6.4945 17.4544 5.7681 17.5004 4.99497ZM8.22966 3.26933C9.89207 3.26933 11.5236 3.26933 13.1681 3.26933C13.1681 2.97726 13.1681 2.70374 13.1681 2.43022C13.1681 1.84677 13.0286 1.71001 12.4348 1.70932C11.672 1.70932 10.9092 1.70932 10.1463 1.70932C9.69209 1.70932 9.23783 1.70313 8.78357 1.71207C8.41453 1.71894 8.23516 1.90793 8.23104 2.2756C8.22691 2.60066 8.22966 2.92572 8.22966 3.26933Z" fill="#CD76BA"/>
<path d="M6.58322 12.9071C6.58322 11.4495 6.58047 9.99184 6.58459 8.53491C6.58597 8.09164 6.89591 7.74597 7.30619 7.70611C7.73845 7.66419 8.113 7.9219 8.20577 8.33905C8.23189 8.4545 8.22776 8.57752 8.22776 8.6971C8.22914 11.5003 8.22845 14.3042 8.22845 17.1074C8.22845 17.1672 8.22982 17.2277 8.22776 17.2875C8.21127 17.7637 7.84772 18.1211 7.38865 18.1135C6.94539 18.1067 6.58597 17.7459 6.58459 17.2806C6.57978 15.8223 6.58322 14.3647 6.58322 12.9071Z" fill="#CD76BA"/>
<path d="M11.5214 12.9069C11.5214 14.3556 11.5234 15.805 11.52 17.2536C11.5193 17.6976 11.2183 18.0529 10.817 18.1051C10.395 18.1601 10.0108 17.9044 9.90432 17.4887C9.87957 17.3911 9.87614 17.2853 9.87614 17.1835C9.87476 14.3288 9.87476 11.4733 9.87545 8.61859C9.87545 8.06537 10.2012 7.70182 10.6939 7.70045C11.1846 7.69839 11.5207 8.06537 11.5207 8.61171C11.5227 10.0432 11.5214 11.4754 11.5214 12.9069Z" fill="#CD76BA"/>
<path d="M14.8146 12.8822C14.8146 14.3398 14.8167 15.7974 14.8133 17.2543C14.8126 17.6983 14.5109 18.0536 14.1095 18.1051C13.6876 18.1594 13.3034 17.9031 13.1976 17.488C13.1728 17.3904 13.1701 17.2846 13.1701 17.1828C13.1687 14.3281 13.1687 11.4727 13.1694 8.61789C13.1694 8.06536 13.4965 7.70182 13.9886 7.70044C14.4793 7.69907 14.8139 8.06605 14.8146 8.6124C14.8153 10.0357 14.8146 11.4589 14.8146 12.8822Z" fill="#CD76BA"/>
</svg>
