<svg width="172" height="31" viewBox="0 0 172 31" fill="none" xmlns="http://www.w3.org/2000/svg">
<path d="M31.098 13.5276H32.225C32.3463 13.5276 32.4467 13.5579 32.526 13.6186C32.6053 13.6793 32.659 13.7563 32.687 13.8496L34.759 20.8216C34.7963 20.9476 34.829 21.0829 34.857 21.2276C34.8897 21.3723 34.92 21.5239 34.948 21.6826C34.9807 21.5239 35.0133 21.3723 35.046 21.2276C35.0787 21.0783 35.116 20.9429 35.158 20.8216L37.517 13.8496C37.545 13.7703 37.5987 13.6979 37.678 13.6326C37.762 13.5626 37.8623 13.5276 37.979 13.5276H38.371C38.4923 13.5276 38.5903 13.5579 38.665 13.6186C38.7443 13.6793 38.8003 13.7563 38.833 13.8496L41.178 20.8216C41.262 21.0643 41.3367 21.3419 41.402 21.6546C41.43 21.5006 41.4557 21.3536 41.479 21.2136C41.5023 21.0736 41.5327 20.9429 41.57 20.8216L43.649 13.8496C43.6723 13.7656 43.7237 13.6909 43.803 13.6256C43.887 13.5603 43.9873 13.5276 44.104 13.5276H45.161L42.032 23.5586H40.814L38.273 15.9076C38.2217 15.7629 38.175 15.5949 38.133 15.4036C38.1097 15.4969 38.0863 15.5879 38.063 15.6766C38.0443 15.7606 38.0233 15.8376 38 15.9076L35.445 23.5586H34.227L31.098 13.5276ZM50.7745 23.5586H50.2215C50.1002 23.5586 50.0022 23.5399 49.9275 23.5026C49.8529 23.4653 49.8039 23.3859 49.7805 23.2646L49.6405 22.6066C49.4539 22.7746 49.2719 22.9263 49.0945 23.0616C48.9172 23.1923 48.7305 23.3043 48.5345 23.3976C48.3385 23.4863 48.1285 23.5539 47.9045 23.6006C47.6852 23.6473 47.4402 23.6706 47.1695 23.6706C46.8942 23.6706 46.6352 23.6333 46.3925 23.5586C46.1545 23.4793 45.9469 23.3626 45.7695 23.2086C45.5922 23.0546 45.4499 22.8609 45.3425 22.6276C45.2399 22.3896 45.1885 22.1096 45.1885 21.7876C45.1885 21.5076 45.2655 21.2393 45.4195 20.9826C45.5735 20.7213 45.8209 20.4903 46.1615 20.2896C46.5069 20.0889 46.9572 19.9256 47.5125 19.7996C48.0679 19.6689 48.7469 19.5943 49.5495 19.5756V19.0226C49.5495 18.4719 49.4305 18.0566 49.1925 17.7766C48.9592 17.4919 48.6115 17.3496 48.1495 17.3496C47.8462 17.3496 47.5895 17.3893 47.3795 17.4686C47.1742 17.5433 46.9945 17.6296 46.8405 17.7276C46.6912 17.8209 46.5605 17.9073 46.4485 17.9866C46.3412 18.0613 46.2339 18.0986 46.1265 18.0986C46.0425 18.0986 45.9679 18.0776 45.9025 18.0356C45.8419 17.9889 45.7929 17.9329 45.7555 17.8676L45.5315 17.4686C45.9235 17.0906 46.3459 16.8083 46.7985 16.6216C47.2512 16.4349 47.7529 16.3416 48.3035 16.3416C48.7002 16.3416 49.0525 16.4069 49.3605 16.5376C49.6685 16.6683 49.9275 16.8503 50.1375 17.0836C50.3475 17.3169 50.5062 17.5993 50.6135 17.9306C50.7209 18.2619 50.7745 18.6259 50.7745 19.0226V23.5586ZM47.5405 22.7956C47.7599 22.7956 47.9605 22.7746 48.1425 22.7326C48.3245 22.6859 48.4949 22.6229 48.6535 22.5436C48.8169 22.4596 48.9709 22.3593 49.1155 22.2426C49.2649 22.1259 49.4095 21.9929 49.5495 21.8436V20.3666C48.9755 20.3853 48.4879 20.4319 48.0865 20.5066C47.6852 20.5766 47.3585 20.6699 47.1065 20.7866C46.8545 20.9033 46.6702 21.0409 46.5535 21.1996C46.4415 21.3583 46.3855 21.5356 46.3855 21.7316C46.3855 21.9183 46.4159 22.0793 46.4765 22.2146C46.5372 22.3499 46.6189 22.4619 46.7215 22.5506C46.8242 22.6346 46.9455 22.6976 47.0855 22.7396C47.2255 22.7769 47.3772 22.7956 47.5405 22.7956ZM53.9482 16.4676V23.5586H52.7022V16.4676H53.9482ZM54.2282 14.2416C54.2282 14.3629 54.2026 14.4773 54.1512 14.5846C54.1046 14.6873 54.0392 14.7806 53.9552 14.8646C53.8759 14.9439 53.7826 15.0069 53.6752 15.0536C53.5679 15.1003 53.4536 15.1236 53.3322 15.1236C53.2109 15.1236 53.0966 15.1003 52.9892 15.0536C52.8866 15.0069 52.7932 14.9439 52.7092 14.8646C52.6299 14.7806 52.5669 14.6873 52.5202 14.5846C52.4736 14.4773 52.4502 14.3629 52.4502 14.2416C52.4502 14.1203 52.4736 14.0059 52.5202 13.8986C52.5669 13.7866 52.6299 13.6909 52.7092 13.6116C52.7932 13.5276 52.8866 13.4623 52.9892 13.4156C53.0966 13.3689 53.2109 13.3456 53.3322 13.3456C53.4536 13.3456 53.5679 13.3689 53.6752 13.4156C53.7826 13.4623 53.8759 13.5276 53.9552 13.6116C54.0392 13.6909 54.1046 13.7866 54.1512 13.8986C54.2026 14.0059 54.2282 14.1203 54.2282 14.2416ZM58.1933 23.6706C57.6333 23.6706 57.2016 23.5143 56.8983 23.2016C56.5996 22.8889 56.4503 22.4386 56.4503 21.8506V17.5106H55.5963C55.5216 17.5106 55.4586 17.4896 55.4073 17.4476C55.3559 17.4009 55.3303 17.3309 55.3303 17.2376V16.7406L56.4923 16.5936L56.7793 14.4026C56.7886 14.3326 56.8189 14.2766 56.8703 14.2346C56.9216 14.1879 56.9869 14.1646 57.0663 14.1646H57.6963V16.6076H59.7263V17.5106H57.6963V21.7666C57.6963 22.0653 57.7686 22.2869 57.9133 22.4316C58.0579 22.5763 58.2446 22.6486 58.4733 22.6486C58.6039 22.6486 58.7159 22.6323 58.8093 22.5996C58.9073 22.5623 58.9913 22.5226 59.0613 22.4806C59.1313 22.4386 59.1896 22.4013 59.2363 22.3686C59.2876 22.3313 59.3319 22.3126 59.3693 22.3126C59.4346 22.3126 59.4929 22.3523 59.5443 22.4316L59.9083 23.0266C59.6936 23.2273 59.4346 23.3859 59.1313 23.5026C58.8279 23.6146 58.5153 23.6706 58.1933 23.6706ZM62.5529 16.4676V23.5586H61.3069V16.4676H62.5529ZM62.8329 14.2416C62.8329 14.3629 62.8073 14.4773 62.7559 14.5846C62.7093 14.6873 62.6439 14.7806 62.5599 14.8646C62.4806 14.9439 62.3873 15.0069 62.2799 15.0536C62.1726 15.1003 62.0583 15.1236 61.9369 15.1236C61.8156 15.1236 61.7013 15.1003 61.5939 15.0536C61.4913 15.0069 61.3979 14.9439 61.3139 14.8646C61.2346 14.7806 61.1716 14.6873 61.1249 14.5846C61.0783 14.4773 61.0549 14.3629 61.0549 14.2416C61.0549 14.1203 61.0783 14.0059 61.1249 13.8986C61.1716 13.7866 61.2346 13.6909 61.3139 13.6116C61.3979 13.5276 61.4913 13.4623 61.5939 13.4156C61.7013 13.3689 61.8156 13.3456 61.9369 13.3456C62.0583 13.3456 62.1726 13.3689 62.2799 13.4156C62.3873 13.4623 62.4806 13.5276 62.5599 13.6116C62.6439 13.6909 62.7093 13.7866 62.7559 13.8986C62.8073 14.0059 62.8329 14.1203 62.8329 14.2416ZM64.649 23.5586V16.4676H65.391C65.5683 16.4676 65.6803 16.5539 65.727 16.7266L65.825 17.4966C66.133 17.1559 66.476 16.8806 66.854 16.6706C67.2366 16.4606 67.6776 16.3556 68.177 16.3556C68.5643 16.3556 68.905 16.4209 69.199 16.5516C69.4976 16.6776 69.745 16.8596 69.941 17.0976C70.1416 17.3309 70.2933 17.6133 70.396 17.9446C70.4986 18.2759 70.55 18.6423 70.55 19.0436V23.5586H69.304V19.0436C69.304 18.5069 69.1803 18.0916 68.933 17.7976C68.6903 17.4989 68.317 17.3496 67.813 17.3496C67.4443 17.3496 67.099 17.4383 66.777 17.6156C66.4596 17.7929 66.1656 18.0333 65.895 18.3366V23.5586H64.649ZM74.7153 16.3486C75.0233 16.3486 75.3103 16.3836 75.5763 16.4536C75.8469 16.5189 76.0919 16.6169 76.3113 16.7476H78.2363V17.2096C78.2363 17.3636 78.1383 17.4616 77.9423 17.5036L77.1373 17.6156C77.2959 17.9189 77.3753 18.2573 77.3753 18.6306C77.3753 18.9759 77.3076 19.2909 77.1723 19.5756C77.0416 19.8556 76.8573 20.0959 76.6193 20.2966C76.3859 20.4973 76.1059 20.6513 75.7793 20.7586C75.4573 20.8659 75.1026 20.9196 74.7153 20.9196C74.3839 20.9196 74.0713 20.8799 73.7773 20.8006C73.6279 20.8939 73.5136 20.9943 73.4343 21.1016C73.3596 21.2089 73.3223 21.3139 73.3223 21.4166C73.3223 21.5846 73.3899 21.7129 73.5253 21.8016C73.6606 21.8856 73.8403 21.9463 74.0643 21.9836C74.2883 22.0209 74.5426 22.0443 74.8273 22.0536C75.1119 22.0629 75.4013 22.0793 75.6953 22.1026C75.9939 22.1213 76.2856 22.1563 76.5703 22.2076C76.8549 22.2589 77.1093 22.3429 77.3333 22.4596C77.5573 22.5763 77.7369 22.7373 77.8723 22.9426C78.0076 23.1479 78.0753 23.4139 78.0753 23.7406C78.0753 24.0439 77.9983 24.3379 77.8443 24.6226C77.6949 24.9073 77.4779 25.1593 77.1933 25.3786C76.9086 25.6026 76.5609 25.7799 76.1503 25.9106C75.7396 26.0459 75.2753 26.1136 74.7573 26.1136C74.2393 26.1136 73.7843 26.0623 73.3923 25.9596C73.0049 25.8569 72.6829 25.7193 72.4263 25.5466C72.1696 25.3739 71.9759 25.1733 71.8453 24.9446C71.7193 24.7206 71.6563 24.4849 71.6563 24.2376C71.6563 23.8876 71.7659 23.5913 71.9853 23.3486C72.2093 23.1013 72.5149 22.9053 72.9023 22.7606C72.7016 22.6673 72.5406 22.5436 72.4193 22.3896C72.3026 22.2309 72.2443 22.0209 72.2443 21.7596C72.2443 21.6569 72.2629 21.5519 72.3003 21.4446C72.3376 21.3326 72.3936 21.2229 72.4683 21.1156C72.5476 21.0083 72.6433 20.9056 72.7553 20.8076C72.8673 20.7096 72.9979 20.6233 73.1473 20.5486C72.7973 20.3526 72.5219 20.0936 72.3213 19.7716C72.1253 19.4449 72.0273 19.0646 72.0273 18.6306C72.0273 18.2853 72.0926 17.9726 72.2233 17.6926C72.3586 17.4079 72.5453 17.1676 72.7833 16.9716C73.0213 16.7709 73.3036 16.6169 73.6303 16.5096C73.9616 16.4023 74.3233 16.3486 74.7153 16.3486ZM76.9273 23.9436C76.9273 23.7663 76.8783 23.6239 76.7803 23.5166C76.6823 23.4093 76.5493 23.3276 76.3813 23.2716C76.2133 23.2109 76.0196 23.1666 75.8003 23.1386C75.5809 23.1106 75.3499 23.0919 75.1073 23.0826C74.8646 23.0686 74.6173 23.0546 74.3653 23.0406C74.1133 23.0266 73.8729 23.0009 73.6443 22.9636C73.3783 23.0896 73.1613 23.2436 72.9933 23.4256C72.8299 23.6076 72.7483 23.8246 72.7483 24.0766C72.7483 24.2353 72.7879 24.3823 72.8673 24.5176C72.9513 24.6576 73.0773 24.7766 73.2453 24.8746C73.4133 24.9773 73.6233 25.0566 73.8753 25.1126C74.1319 25.1733 74.4329 25.2036 74.7783 25.2036C75.1143 25.2036 75.4153 25.1733 75.6813 25.1126C75.9473 25.0519 76.1713 24.9656 76.3533 24.8536C76.5399 24.7416 76.6823 24.6086 76.7803 24.4546C76.8783 24.3006 76.9273 24.1303 76.9273 23.9436ZM74.7153 20.0936C74.9673 20.0936 75.1889 20.0586 75.3803 19.9886C75.5763 19.9186 75.7396 19.8206 75.8703 19.6946C76.0009 19.5686 76.0989 19.4193 76.1643 19.2466C76.2296 19.0693 76.2623 18.8756 76.2623 18.6656C76.2623 18.2316 76.1293 17.8863 75.8633 17.6296C75.6019 17.3729 75.2193 17.2446 74.7153 17.2446C74.2159 17.2446 73.8333 17.3729 73.5673 17.6296C73.3059 17.8863 73.1753 18.2316 73.1753 18.6656C73.1753 18.8756 73.2079 19.0693 73.2733 19.2466C73.3433 19.4193 73.4436 19.5686 73.5743 19.6946C73.7049 19.8206 73.8659 19.9186 74.0573 19.9886C74.2486 20.0586 74.4679 20.0936 74.7153 20.0936ZM89.2517 21.4866C89.3263 21.4866 89.394 21.5169 89.4547 21.5776L89.9867 22.1586C89.576 22.6346 89.0767 23.0056 88.4887 23.2716C87.9053 23.5376 87.2007 23.6706 86.3747 23.6706C85.6513 23.6706 84.9957 23.5469 84.4077 23.2996C83.8197 23.0476 83.318 22.6976 82.9027 22.2496C82.4873 21.7969 82.1653 21.2556 81.9367 20.6256C81.708 19.9956 81.5937 19.3026 81.5937 18.5466C81.5937 17.7906 81.715 17.0976 81.9577 16.4676C82.205 15.8376 82.5503 15.2963 82.9937 14.8436C83.437 14.3909 83.9667 14.0409 84.5827 13.7936C85.2033 13.5416 85.887 13.4156 86.6337 13.4156C87.371 13.4156 88.0057 13.5299 88.5377 13.7586C89.0743 13.9873 89.5503 14.2976 89.9657 14.6896L89.5247 15.3126C89.492 15.3593 89.4547 15.3989 89.4127 15.4316C89.3707 15.4596 89.31 15.4736 89.2307 15.4736C89.17 15.4736 89.1047 15.4526 89.0347 15.4106C88.9693 15.3639 88.89 15.3079 88.7967 15.2426C88.7033 15.1773 88.5937 15.1073 88.4677 15.0326C88.3417 14.9579 88.1923 14.8879 88.0197 14.8226C87.847 14.7573 87.6463 14.7036 87.4177 14.6616C87.189 14.6149 86.9253 14.5916 86.6267 14.5916C86.09 14.5916 85.5977 14.6849 85.1497 14.8716C84.7063 15.0536 84.3237 15.3149 84.0017 15.6556C83.6797 15.9963 83.4277 16.4116 83.2457 16.9016C83.0683 17.3916 82.9797 17.9399 82.9797 18.5466C82.9797 19.1719 83.0683 19.7296 83.2457 20.2196C83.4277 20.7096 83.6727 21.1249 83.9807 21.4656C84.2933 21.8016 84.662 22.0583 85.0867 22.2356C85.5113 22.4129 85.9687 22.5016 86.4587 22.5016C86.7573 22.5016 87.0257 22.4853 87.2637 22.4526C87.5017 22.4153 87.721 22.3593 87.9217 22.2846C88.127 22.2099 88.316 22.1166 88.4887 22.0046C88.666 21.8879 88.8433 21.7503 89.0207 21.5916C89.1 21.5216 89.177 21.4866 89.2517 21.4866ZM94.3397 16.3556C94.8577 16.3556 95.3243 16.4419 95.7397 16.6146C96.1597 16.7873 96.5143 17.0323 96.8037 17.3496C97.0977 17.6669 97.3217 18.0519 97.4757 18.5046C97.6343 18.9526 97.7137 19.4543 97.7137 20.0096C97.7137 20.5696 97.6343 21.0736 97.4757 21.5216C97.3217 21.9696 97.0977 22.3523 96.8037 22.6696C96.5143 22.9869 96.1597 23.2319 95.7397 23.4046C95.3243 23.5726 94.8577 23.6566 94.3397 23.6566C93.8217 23.6566 93.3527 23.5726 92.9327 23.4046C92.5173 23.2319 92.1627 22.9869 91.8687 22.6696C91.5747 22.3523 91.3483 21.9696 91.1897 21.5216C91.031 21.0736 90.9517 20.5696 90.9517 20.0096C90.9517 19.4543 91.031 18.9526 91.1897 18.5046C91.3483 18.0519 91.5747 17.6669 91.8687 17.3496C92.1627 17.0323 92.5173 16.7873 92.9327 16.6146C93.3527 16.4419 93.8217 16.3556 94.3397 16.3556ZM94.3397 22.6836C95.0397 22.6836 95.5623 22.4503 95.9077 21.9836C96.253 21.5123 96.4257 20.8566 96.4257 20.0166C96.4257 19.1719 96.253 18.5139 95.9077 18.0426C95.5623 17.5713 95.0397 17.3356 94.3397 17.3356C93.985 17.3356 93.677 17.3963 93.4157 17.5176C93.1543 17.6389 92.935 17.8139 92.7577 18.0426C92.585 18.2713 92.4543 18.5536 92.3657 18.8896C92.2817 19.2209 92.2397 19.5966 92.2397 20.0166C92.2397 20.4366 92.2817 20.8123 92.3657 21.1436C92.4543 21.4749 92.585 21.7549 92.7577 21.9836C92.935 22.2076 93.1543 22.3803 93.4157 22.5016C93.677 22.6229 93.985 22.6836 94.3397 22.6836ZM100.227 16.4676V20.9896C100.227 21.5263 100.351 21.9416 100.598 22.2356C100.845 22.5296 101.219 22.6766 101.718 22.6766C102.082 22.6766 102.425 22.5903 102.747 22.4176C103.069 22.2449 103.365 22.0046 103.636 21.6966V16.4676H104.882V23.5586H104.14C103.963 23.5586 103.851 23.4723 103.804 23.2996L103.706 22.5366C103.398 22.8773 103.053 23.1526 102.67 23.3626C102.287 23.5679 101.849 23.6706 101.354 23.6706C100.967 23.6706 100.624 23.6076 100.325 23.4816C100.031 23.3509 99.7836 23.1689 99.583 22.9356C99.3823 22.7023 99.2306 22.4199 99.128 22.0886C99.03 21.7573 98.981 21.3909 98.981 20.9896V16.4676H100.227ZM106.828 23.5586V16.4676H107.542C107.678 16.4676 107.771 16.4933 107.822 16.5446C107.874 16.5959 107.909 16.6846 107.927 16.8106L108.011 17.9166C108.254 17.4219 108.553 17.0369 108.907 16.7616C109.267 16.4816 109.687 16.3416 110.167 16.3416C110.363 16.3416 110.541 16.3649 110.699 16.4116C110.858 16.4536 111.005 16.5143 111.14 16.5936L110.979 17.5246C110.947 17.6413 110.874 17.6996 110.762 17.6996C110.697 17.6996 110.597 17.6786 110.461 17.6366C110.326 17.5899 110.137 17.5666 109.894 17.5666C109.46 17.5666 109.096 17.6926 108.802 17.9446C108.513 18.1966 108.27 18.5629 108.074 19.0436V23.5586H106.828ZM113.761 16.4676V23.5586H112.515V16.4676H113.761ZM114.041 14.2416C114.041 14.3629 114.015 14.4773 113.964 14.5846C113.917 14.6873 113.852 14.7806 113.768 14.8646C113.688 14.9439 113.595 15.0069 113.488 15.0536C113.38 15.1003 113.266 15.1236 113.145 15.1236C113.023 15.1236 112.909 15.1003 112.802 15.0536C112.699 15.0069 112.606 14.9439 112.522 14.8646C112.442 14.7806 112.379 14.6873 112.333 14.5846C112.286 14.4773 112.263 14.3629 112.263 14.2416C112.263 14.1203 112.286 14.0059 112.333 13.8986C112.379 13.7866 112.442 13.6909 112.522 13.6116C112.606 13.5276 112.699 13.4623 112.802 13.4156C112.909 13.3689 113.023 13.3456 113.145 13.3456C113.266 13.3456 113.38 13.3689 113.488 13.4156C113.595 13.4623 113.688 13.5276 113.768 13.6116C113.852 13.6909 113.917 13.7866 113.964 13.8986C114.015 14.0059 114.041 14.1203 114.041 14.2416ZM118.664 16.3556C119.088 16.3556 119.48 16.4279 119.84 16.5726C120.199 16.7126 120.509 16.9179 120.771 17.1886C121.032 17.4546 121.235 17.7859 121.38 18.1826C121.529 18.5746 121.604 19.0226 121.604 19.5266C121.604 19.7226 121.583 19.8533 121.541 19.9186C121.499 19.9839 121.419 20.0166 121.303 20.0166H116.585C116.594 20.4646 116.655 20.8543 116.767 21.1856C116.879 21.5169 117.033 21.7946 117.229 22.0186C117.425 22.2379 117.658 22.4036 117.929 22.5156C118.199 22.6229 118.503 22.6766 118.839 22.6766C119.151 22.6766 119.42 22.6416 119.644 22.5716C119.872 22.4969 120.068 22.4176 120.232 22.3336C120.395 22.2496 120.53 22.1726 120.638 22.1026C120.75 22.0279 120.845 21.9906 120.925 21.9906C121.027 21.9906 121.107 22.0303 121.163 22.1096L121.513 22.5646C121.359 22.7513 121.174 22.9146 120.96 23.0546C120.745 23.1899 120.514 23.3019 120.267 23.3906C120.024 23.4793 119.772 23.5446 119.511 23.5866C119.249 23.6333 118.99 23.6566 118.734 23.6566C118.244 23.6566 117.791 23.5749 117.376 23.4116C116.965 23.2436 116.608 23.0009 116.305 22.6836C116.006 22.3616 115.773 21.9649 115.605 21.4936C115.437 21.0223 115.353 20.4809 115.353 19.8696C115.353 19.3749 115.427 18.9129 115.577 18.4836C115.731 18.0543 115.95 17.6833 116.235 17.3706C116.519 17.0533 116.867 16.8059 117.278 16.6286C117.688 16.4466 118.15 16.3556 118.664 16.3556ZM118.692 17.2726C118.09 17.2726 117.616 17.4476 117.271 17.7976C116.925 18.1429 116.711 18.6236 116.627 19.2396H120.484C120.484 18.9503 120.444 18.6866 120.365 18.4486C120.285 18.2059 120.169 17.9983 120.015 17.8256C119.861 17.6483 119.672 17.5129 119.448 17.4196C119.228 17.3216 118.976 17.2726 118.692 17.2726ZM123.099 23.5586V16.4676H123.813C123.948 16.4676 124.041 16.4933 124.093 16.5446C124.144 16.5959 124.179 16.6846 124.198 16.8106L124.282 17.9166C124.524 17.4219 124.823 17.0369 125.178 16.7616C125.537 16.4816 125.957 16.3416 126.438 16.3416C126.634 16.3416 126.811 16.3649 126.97 16.4116C127.128 16.4536 127.275 16.5143 127.411 16.5936L127.25 17.5246C127.217 17.6413 127.145 17.6996 127.033 17.6996C126.967 17.6996 126.867 17.6786 126.732 17.6366C126.596 17.5899 126.407 17.5666 126.165 17.5666C125.731 17.5666 125.367 17.6926 125.073 17.9446C124.783 18.1966 124.541 18.5629 124.345 19.0436V23.5586H123.099ZM132.939 19.8066V23.5586H131.588V13.5276H134.549C135.184 13.5276 135.734 13.6023 136.201 13.7516C136.672 13.8963 137.062 14.1039 137.37 14.3746C137.678 14.6453 137.907 14.9719 138.056 15.3546C138.21 15.7373 138.287 16.1643 138.287 16.6356C138.287 17.1023 138.205 17.5293 138.042 17.9166C137.879 18.3039 137.638 18.6376 137.321 18.9176C137.008 19.1976 136.619 19.4169 136.152 19.5756C135.685 19.7296 135.151 19.8066 134.549 19.8066H132.939ZM132.939 18.7286H134.549C134.936 18.7286 135.277 18.6773 135.571 18.5746C135.87 18.4719 136.119 18.3296 136.32 18.1476C136.521 17.9609 136.672 17.7393 136.775 17.4826C136.878 17.2259 136.929 16.9436 136.929 16.6356C136.929 15.9963 136.731 15.4969 136.334 15.1376C135.942 14.7783 135.347 14.5986 134.549 14.5986H132.939V18.7286ZM141.097 16.4676V23.5586H139.851V16.4676H141.097ZM141.377 14.2416C141.377 14.3629 141.351 14.4773 141.3 14.5846C141.253 14.6873 141.188 14.7806 141.104 14.8646C141.024 14.9439 140.931 15.0069 140.824 15.0536C140.716 15.1003 140.602 15.1236 140.481 15.1236C140.359 15.1236 140.245 15.1003 140.138 15.0536C140.035 15.0069 139.942 14.9439 139.858 14.8646C139.778 14.7806 139.715 14.6873 139.669 14.5846C139.622 14.4773 139.599 14.3629 139.599 14.2416C139.599 14.1203 139.622 14.0059 139.669 13.8986C139.715 13.7866 139.778 13.6909 139.858 13.6116C139.942 13.5276 140.035 13.4623 140.138 13.4156C140.245 13.3689 140.359 13.3456 140.481 13.3456C140.602 13.3456 140.716 13.3689 140.824 13.4156C140.931 13.4623 141.024 13.5276 141.104 13.6116C141.188 13.6909 141.253 13.7866 141.3 13.8986C141.351 14.0059 141.377 14.1203 141.377 14.2416ZM148.03 17.7276C147.992 17.7789 147.955 17.8186 147.918 17.8466C147.88 17.8746 147.827 17.8886 147.757 17.8886C147.687 17.8886 147.61 17.8606 147.526 17.8046C147.446 17.7439 147.344 17.6786 147.218 17.6086C147.092 17.5386 146.938 17.4756 146.756 17.4196C146.578 17.3589 146.359 17.3286 146.098 17.3286C145.752 17.3286 145.447 17.3916 145.181 17.5176C144.915 17.6389 144.691 17.8163 144.509 18.0496C144.331 18.2829 144.196 18.5653 144.103 18.8966C144.014 19.2279 143.97 19.5989 143.97 20.0096C143.97 20.4389 144.019 20.8216 144.117 21.1576C144.215 21.4889 144.352 21.7689 144.53 21.9976C144.707 22.2216 144.922 22.3943 145.174 22.5156C145.43 22.6323 145.717 22.6906 146.035 22.6906C146.338 22.6906 146.588 22.6556 146.784 22.5856C146.98 22.5109 147.143 22.4293 147.274 22.3406C147.404 22.2519 147.512 22.1726 147.596 22.1026C147.68 22.0279 147.764 21.9906 147.848 21.9906C147.955 21.9906 148.034 22.0303 148.086 22.1096L148.436 22.5646C148.128 22.9426 147.743 23.2203 147.281 23.3976C146.819 23.5703 146.331 23.6566 145.818 23.6566C145.374 23.6566 144.961 23.5749 144.579 23.4116C144.201 23.2483 143.872 23.0126 143.592 22.7046C143.312 22.3919 143.09 22.0093 142.927 21.5566C142.768 21.1039 142.689 20.5883 142.689 20.0096C142.689 19.4823 142.761 18.9946 142.906 18.5466C143.055 18.0986 143.27 17.7136 143.55 17.3916C143.834 17.0649 144.184 16.8106 144.6 16.6286C145.015 16.4466 145.491 16.3556 146.028 16.3556C146.522 16.3556 146.961 16.4373 147.344 16.6006C147.726 16.7593 148.065 16.9856 148.359 17.2796L148.03 17.7276ZM150.923 13.2476V19.3166H151.245C151.338 19.3166 151.415 19.3049 151.476 19.2816C151.537 19.2536 151.604 19.1999 151.679 19.1206L153.919 16.7196C153.989 16.6449 154.059 16.5843 154.129 16.5376C154.199 16.4909 154.292 16.4676 154.409 16.4676H155.543L152.932 19.2466C152.867 19.3259 152.801 19.3959 152.736 19.4566C152.675 19.5173 152.605 19.5709 152.526 19.6176C152.61 19.6736 152.685 19.7389 152.75 19.8136C152.82 19.8836 152.885 19.9653 152.946 20.0586L155.718 23.5586H154.598C154.495 23.5586 154.407 23.5399 154.332 23.5026C154.262 23.4606 154.194 23.3976 154.129 23.3136L151.798 20.4086C151.728 20.3106 151.658 20.2476 151.588 20.2196C151.518 20.1869 151.413 20.1706 151.273 20.1706H150.923V23.5586H149.67V13.2476H150.923ZM157.948 16.4676V20.9896C157.948 21.5263 158.071 21.9416 158.319 22.2356C158.566 22.5296 158.939 22.6766 159.439 22.6766C159.803 22.6766 160.146 22.5903 160.468 22.4176C160.79 22.2449 161.086 22.0046 161.357 21.6966V16.4676H162.603V23.5586H161.861C161.683 23.5586 161.571 23.4723 161.525 23.2996L161.427 22.5366C161.119 22.8773 160.773 23.1526 160.391 23.3626C160.008 23.5679 159.569 23.6706 159.075 23.6706C158.687 23.6706 158.344 23.6076 158.046 23.4816C157.752 23.3509 157.504 23.1689 157.304 22.9356C157.103 22.7023 156.951 22.4199 156.849 22.0886C156.751 21.7573 156.702 21.3909 156.702 20.9896V16.4676H157.948ZM164.549 25.9596V16.4676H165.291C165.468 16.4676 165.58 16.5539 165.627 16.7266L165.732 17.5666C166.035 17.1979 166.381 16.9016 166.768 16.6776C167.16 16.4536 167.61 16.3416 168.119 16.3416C168.525 16.3416 168.894 16.4209 169.225 16.5796C169.556 16.7336 169.839 16.9646 170.072 17.2726C170.305 17.5759 170.485 17.9539 170.611 18.4066C170.737 18.8593 170.8 19.3796 170.8 19.9676C170.8 20.4903 170.73 20.9779 170.59 21.4306C170.45 21.8786 170.249 22.2683 169.988 22.5996C169.727 22.9263 169.405 23.1853 169.022 23.3766C168.644 23.5633 168.217 23.6566 167.741 23.6566C167.302 23.6566 166.927 23.5843 166.614 23.4396C166.306 23.2949 166.033 23.0896 165.795 22.8236V25.9596H164.549ZM167.706 17.3496C167.3 17.3496 166.943 17.4429 166.635 17.6296C166.332 17.8163 166.052 18.0799 165.795 18.4206V21.8506C166.024 22.1586 166.273 22.3756 166.544 22.5016C166.819 22.6276 167.125 22.6906 167.461 22.6906C168.119 22.6906 168.625 22.4549 168.98 21.9836C169.335 21.5123 169.512 20.8403 169.512 19.9676C169.512 19.5056 169.47 19.1089 169.386 18.7776C169.307 18.4463 169.19 18.1756 169.036 17.9656C168.882 17.7509 168.693 17.5946 168.469 17.4966C168.245 17.3986 167.991 17.3496 167.706 17.3496Z" fill="#808080"/>
<path d="M12.7643 0.0207665C13.2241 0.231376 13.7314 0.376731 14.1377 0.664465C14.9149 1.2162 15.2916 2.02304 15.3124 2.9782C15.3272 3.70792 15.3094 4.44061 15.3213 5.17329C15.3243 5.30381 15.3628 5.4462 15.4251 5.55892C15.8701 6.35093 15.7574 7.26753 15.0988 7.89046C14.9297 8.05064 14.9535 8.21972 14.9564 8.40067C14.9802 9.88087 14.5145 11.1742 13.4673 12.2391C13.3072 12.3993 13.144 12.5654 12.9542 12.687C12.7406 12.8235 12.6813 12.9866 12.6961 13.2269C12.7169 13.5117 12.702 13.7994 12.702 14.1257C13.1499 14.2503 13.5979 14.3749 14.0487 14.4995C15.0276 14.7724 16.0036 15.0512 16.8994 15.5495C18.4093 16.392 19.1864 17.6794 19.228 19.4058C19.2458 20.1651 19.228 20.9275 19.2398 21.6898C19.2428 21.8144 19.2903 21.9598 19.3644 22.0636C19.5869 22.3721 19.6907 22.7132 19.6937 23.087C19.6967 23.6002 19.6996 24.1163 19.6937 24.6295C19.6818 25.5906 19.0233 26.2402 18.0652 26.2432C17.5342 26.2432 17.0032 26.2432 16.4396 26.2432C16.4396 26.8869 16.4396 27.5068 16.4396 28.1268C16.4396 28.4145 16.4485 28.6993 16.4366 28.987C16.4159 29.61 16.1193 30.052 15.5467 30.3011C15.4874 30.3278 15.4311 30.3634 15.3747 30.3961C14.3661 30.3961 13.3576 30.3961 12.349 30.3961C11.9782 30.1647 11.8596 29.9363 11.9486 29.6278C12.0316 29.343 12.263 29.2125 12.6813 29.2095C13.414 29.2095 14.1437 29.2036 14.8764 29.2125C15.1433 29.2154 15.2501 29.1087 15.2471 28.8446C15.2412 27.8865 15.2501 26.9284 15.2382 25.9703C15.2382 25.8694 15.1789 25.7419 15.1018 25.6736C13.9835 24.6384 13.9805 23.1018 15.0959 22.0428C15.17 21.9716 15.2353 21.8471 15.2382 21.7462C15.2531 21.2538 15.2442 20.7584 15.2442 20.263C15.2442 20.0435 15.1522 19.9427 14.9209 19.9456C14.2979 19.9545 13.675 19.9486 13.0521 19.9486C12.7999 19.9486 12.5448 19.9486 12.2749 19.9486C12.2749 20.0969 12.2749 20.2067 12.2749 20.3135C12.2749 21.3606 12.2749 22.4077 12.2749 23.4548C12.2749 23.7188 12.1918 23.9413 11.9486 24.0748C11.6994 24.2083 11.4769 24.143 11.2574 23.9917C10.8599 23.7159 10.4506 23.4578 10.0561 23.176C9.91367 23.0751 9.80985 23.0662 9.66154 23.173C9.27591 23.4489 8.87546 23.701 8.48687 23.971C8.26143 24.1282 8.03302 24.2142 7.76902 24.0748C7.49908 23.9324 7.43382 23.6832 7.43382 23.3985C7.43678 22.3602 7.43382 21.322 7.43382 20.2868C7.43382 20.183 7.43382 20.0762 7.43382 19.9456C6.54095 19.9456 5.68368 19.9546 4.82641 19.9397C4.54461 19.9368 4.46155 20.0554 4.46748 20.3105C4.47638 20.7466 4.47935 21.1796 4.46452 21.6157C4.45858 21.8204 4.51791 21.9598 4.6692 22.1022C5.72224 23.09 5.69851 24.6651 4.6336 25.6469C4.54757 25.727 4.47638 25.8753 4.47342 25.991C4.46155 26.9284 4.46452 27.8687 4.46748 28.8061C4.46748 29.1472 4.52384 29.2006 4.86201 29.2006C5.63325 29.2036 6.4045 29.2006 7.17575 29.2006C7.46942 29.2006 7.66519 29.3489 7.75715 29.6189C7.84614 29.8799 7.73639 30.1439 7.48721 30.31C7.44569 30.3367 7.40415 30.3605 7.36262 30.3871C6.35407 30.3871 5.34552 30.3871 4.33696 30.3871C4.23611 30.3338 4.13229 30.2863 4.03143 30.2299C3.53012 29.9481 3.27798 29.518 3.27501 28.9455C3.26908 28.0556 3.27501 27.1687 3.27501 26.2313C2.92202 26.2313 2.58089 26.2343 2.23977 26.2313C1.92237 26.2283 1.602 26.258 1.2935 26.2076C0.569717 26.0919 0.0446734 25.463 0.0209427 24.7066C0.00314471 24.1341 -0.0205834 23.5557 0.0328106 22.9891C0.062474 22.6717 0.240455 22.3662 0.353175 22.0547C0.39767 21.9301 0.47183 21.8055 0.474796 21.678C0.486662 20.9868 0.483692 20.2957 0.480726 19.6016C0.471827 17.5637 1.41216 16.1102 3.26908 15.3271C4.3251 14.8791 5.45231 14.6033 6.54985 14.2503C6.69817 14.2028 6.84945 14.1613 7.0126 14.1109C7.0126 13.7341 7.02446 13.3693 7.0037 13.0044C6.99777 12.9095 6.90878 12.7968 6.82572 12.7345C5.7519 11.9098 5.07855 10.839 4.84717 9.50711C4.77598 9.09183 4.79971 8.66171 4.75818 8.23752C4.74632 8.1159 4.69292 7.97055 4.6069 7.88453C3.96914 7.2349 3.84455 6.33016 4.2895 5.54111C4.35476 5.42839 4.39332 5.28601 4.39332 5.15549C4.40222 4.45247 4.39629 3.75241 4.39926 3.04939C4.40519 1.57512 5.35145 0.397496 6.79012 0.0622996C6.84648 0.0504342 6.89691 0.0207644 6.9503 0C8.88732 0.0207644 10.8243 0.0207665 12.7643 0.0207665ZM18.0444 21.4496C18.0444 20.8118 18.0474 20.2097 18.0444 19.6075C18.0385 18.1925 17.46 17.095 16.1459 16.5255C15.1849 16.1072 14.1585 15.8343 13.1588 15.5021C12.9779 15.4427 12.7881 15.4042 12.6041 15.3567C12.1355 16.5729 11.3168 17.3264 10.0234 17.3916C8.56399 17.4628 7.63256 16.6975 7.09269 15.3508C5.75487 15.7453 4.36663 15.9885 3.15636 16.739C2.46521 17.1692 1.9283 17.7654 1.80965 18.5693C1.67023 19.5096 1.67023 20.4677 1.60497 21.4407C2.21307 21.4407 2.72921 21.4407 3.27205 21.4407C3.27205 21.0462 3.27205 20.6635 3.27205 20.2779C3.27502 19.3227 3.84158 18.7532 4.80564 18.7532C8.17837 18.7502 11.5481 18.7502 14.9209 18.7532C15.8641 18.7532 16.4337 19.3257 16.4366 20.266C16.4366 20.6576 16.4366 21.0521 16.4366 21.4466C16.9825 21.4496 17.4956 21.4496 18.0444 21.4496ZM5.99218 8.40067C5.8053 9.69695 6.57951 11.2068 7.79868 11.9632C9.11573 12.779 10.8154 12.7493 12.0494 11.8713C13.233 11.0288 13.7847 9.87197 13.7432 8.40364C13.1648 8.37101 12.7465 8.08624 12.3461 7.72731C10.8926 6.42509 8.77164 6.43992 7.33296 7.75994C6.94734 8.10996 6.53502 8.36804 5.99218 8.40067ZM14.1229 4.31602C14.1229 3.84141 14.1407 3.40832 14.1199 2.97523C14.0725 1.99041 13.325 1.22806 12.3461 1.21323C10.6849 1.1895 9.02674 1.19543 7.36559 1.21323C6.53799 1.22213 5.78453 1.81837 5.65698 2.59258C5.56502 3.14729 5.58876 3.72276 5.55613 4.33382C8.44237 2.57775 11.2663 2.57479 14.1229 4.31602ZM14.4937 6.40432C14.4195 6.3005 14.3187 6.08396 14.1585 5.92971C11.7558 3.66046 8.05971 3.63673 5.61545 5.86741C5.1794 6.2649 5.10228 6.66536 5.40188 6.98869C5.69851 7.31202 6.096 7.26753 6.53502 6.86411C8.27626 5.25932 10.9311 5.13176 12.8207 6.56153C13.0254 6.71578 13.2063 6.8997 13.408 7.05989C13.6305 7.2349 13.8797 7.25862 14.1288 7.12811C14.3632 7.00649 14.4848 6.79884 14.4937 6.40432ZM8.21397 13.479C8.21397 13.9121 8.17837 14.3155 8.2199 14.713C8.31482 15.594 8.99708 16.2081 9.83655 16.217C10.6879 16.2259 11.3879 15.6089 11.4858 14.716C11.5303 14.3185 11.4918 13.9121 11.4918 13.485C10.4002 13.8291 9.31448 13.835 8.21397 13.479ZM1.22824 23.8612C1.22824 24.1282 1.22528 24.3952 1.22824 24.6621C1.23121 24.9143 1.36469 25.0507 1.6109 25.0537C2.11518 25.0596 2.61946 25.0774 3.12373 25.0477C3.78523 25.0092 4.25094 24.4752 4.23611 23.8226C4.22128 23.17 3.7259 22.6836 3.05551 22.6717C2.58089 22.6628 2.10628 22.6717 1.63167 22.6687C1.36173 22.6658 1.22825 22.7933 1.22528 23.0633C1.22528 23.3273 1.22824 23.5942 1.22824 23.8612ZM18.4834 23.8582C18.4834 23.612 18.4894 23.3629 18.4834 23.1167C18.4775 22.7666 18.3855 22.6747 18.0444 22.6717C17.5906 22.6687 17.1367 22.6658 16.6799 22.6717C15.9887 22.6806 15.4845 23.1701 15.4726 23.8286C15.4637 24.5049 15.9591 25.0329 16.6502 25.0537C17.1248 25.0685 17.5995 25.0596 18.0741 25.0567C18.3351 25.0567 18.4805 24.9232 18.4834 24.6562C18.4864 24.3892 18.4834 24.1222 18.4834 23.8582ZM8.66781 19.9605C8.66781 20.7792 8.66781 21.5712 8.66781 22.4018C8.93775 22.2238 9.18099 22.0755 9.4094 21.9064C9.71196 21.681 9.99673 21.681 10.3023 21.9034C10.5336 22.0755 10.7828 22.2238 11.0409 22.3929C11.0409 21.5534 11.0409 20.7584 11.0409 19.9575C10.2429 19.9605 9.46576 19.9605 8.66781 19.9605Z" fill="#CD76BA"/>
<path d="M9.67624 30.3961C9.54572 30.2567 9.37071 30.135 9.29359 29.9719C9.169 29.7049 9.33808 29.3875 9.61395 29.2629C9.87499 29.1443 10.1865 29.2303 10.3466 29.4676C10.5128 29.7108 10.4742 30.0549 10.2517 30.2478C10.1865 30.3041 10.1064 30.3486 10.0322 30.3961C9.91355 30.3961 9.7949 30.3961 9.67624 30.3961Z" fill="#CD76BA"/>
</svg>
