<svg width="67" height="97" viewBox="0 0 67 97" fill="none" xmlns="http://www.w3.org/2000/svg">
<path d="M61.8221 71.5734C61.5596 70.2187 61.1117 69.0383 60.4807 68.0278L60.4829 68.0256L62.676 66.0355L62.6892 66.0223C62.9584 65.7575 63.2254 65.4905 63.4901 65.2236C65.8487 62.8451 66.1002 59.8026 64.1697 57.0601C62.9496 55.326 63.0489 53.9647 64.5095 52.3982C66.6805 50.0661 66.8283 46.8625 64.8735 44.3384C64.2491 43.5331 63.6027 42.7455 62.9694 41.949C62.2303 41.0157 62.0428 39.9787 62.3825 38.8403C62.8128 37.3929 63.2585 35.9478 63.6556 34.4894C64.483 31.4623 63.0842 28.5477 60.2181 27.2725C59.6643 27.0254 59.0951 26.8158 58.5391 26.5775C57.1602 25.984 56.4321 24.9536 56.4343 23.4312C56.4365 21.8625 56.4541 20.2938 56.4233 18.7251C56.2512 10.3521 50.7508 3.14182 42.6999 0.776629C41.5195 0.430235 40.2884 0.253728 39.0793 0H27.1651C26.5716 0.110317 25.9803 0.225048 25.3868 0.326539C17.2763 1.69888 10.5956 8.90696 9.95352 17.0792C9.78584 19.2149 9.84761 21.3683 9.8101 23.5151C9.78583 24.9249 9.11952 25.9178 7.85309 26.5091C7.28165 26.776 6.68152 26.9878 6.10126 27.2416C3.14036 28.5301 1.74155 31.4557 2.61305 34.5666C2.99033 35.9147 3.38968 37.2583 3.80888 38.5976C4.21705 39.9103 4.02952 41.0819 3.12713 42.1453C2.46964 42.922 1.83421 43.7207 1.22526 44.5392C-0.548629 46.9198 -0.378733 50.0859 1.6202 52.2746C3.24406 54.0551 3.33011 55.2532 1.98204 57.1947C0.179472 59.7894 0.42657 62.8518 2.6329 65.1022C2.92414 65.4001 3.21538 65.6957 3.50882 65.9914L5.7681 68.0808C5.16577 69.0582 4.73553 70.1922 4.4796 71.4939C3.25067 77.7048 1.97542 83.9068 0.786203 90.1242C0.415539 92.0592 0.545724 94.0118 2.23136 95.3598C2.99916 95.9732 4.03834 96.2446 4.95617 96.6704H20.6344C21.1639 96.1894 21.6757 95.693 21.3448 94.8789C21.0205 94.0735 20.3233 94.0073 19.5886 94.0272C19.176 94.0382 18.7656 94.0294 18.3552 94.0294H15.3701V82.4374C15.3701 82.1152 15.3855 81.7887 15.348 81.471C15.2641 80.7672 14.8582 80.3413 14.1477 80.2906C13.4329 80.2399 12.9718 80.6105 12.8085 81.3011C12.7357 81.61 12.7313 81.9387 12.7313 82.2586C12.7247 85.6939 12.7269 89.1292 12.7269 92.5644V93.9765C10.2359 93.9765 7.83323 94.0515 5.43936 93.9522C3.82874 93.8838 3.18449 92.9836 3.30363 91.3576C3.3257 91.0354 3.35879 90.7111 3.42277 90.3956C4.64067 84.2421 5.86959 78.0909 7.08748 71.9374C7.23531 71.1939 7.46036 70.5232 7.76483 69.9275C8.2436 68.9964 8.91212 68.2462 9.777 67.6748C9.8123 67.6483 9.8454 67.6263 9.88071 67.6042C9.87188 67.5932 9.86526 67.5843 9.85644 67.5733C11.6789 65.2567 14.3772 63.6549 17.5433 63.2202C18.7148 63.0592 19.9129 63.0658 21.069 62.8429C21.689 62.7216 22.0972 62.8319 22.5627 63.1959C25.4067 65.4177 28.2617 67.6263 31.1321 69.8149C31.5469 70.1304 31.7212 70.4548 31.7168 70.9799C31.6925 73.8702 31.7035 76.7605 31.7079 79.6508C31.7079 79.9795 31.7057 80.3171 31.7741 80.6348C31.9264 81.3518 32.425 81.7291 33.1332 81.7225C33.8415 81.7159 34.3291 81.3298 34.4747 80.6105C34.5342 80.3171 34.5342 80.0104 34.5365 79.7081C34.5409 76.8178 34.5519 73.9275 34.5276 71.0395C34.521 70.4879 34.6865 70.1304 35.1322 69.7973C36.6347 68.6787 38.1063 67.5204 39.5868 66.3731C40.4671 65.6891 40.6656 64.8794 40.1383 64.1844C39.5912 63.4673 38.7859 63.4342 37.8901 64.1182C36.467 65.2081 35.0417 66.2914 33.6473 67.4145C33.2413 67.7388 32.9744 67.7211 32.5883 67.4056C31.6064 66.6047 30.5893 65.8479 29.5854 65.0713C27.9351 63.7939 26.2826 62.5142 24.566 61.1838C26.501 59.5776 27.5203 57.5345 27.8314 55.1075C30.5606 55.8709 33.2038 56.0165 35.8933 55.6657C44.5355 54.5361 51.7348 46.686 51.9643 38.0195C52.0591 34.4982 51.9863 30.9747 51.9974 27.4512C52.0018 26.6525 51.6333 26.1539 50.881 25.92C47.0486 24.7175 44.3436 22.2707 42.7617 18.5883C42.4947 17.9684 42.0203 17.5161 41.3651 17.6815C40.862 17.8095 40.3259 18.1713 39.9949 18.5839C35.2403 24.5057 29.2324 28.5632 21.8831 30.4937C19.4231 31.138 16.8439 31.3343 14.311 31.6962C13.4175 31.8241 12.8041 32.3603 12.8262 33.1501C12.8482 33.951 13.477 34.507 14.3816 34.5158C14.6574 34.5203 14.9332 34.5092 15.2068 34.4872C25.2059 33.6929 33.6627 29.7016 40.4891 22.3347C40.6899 22.1185 40.8951 21.9067 41.129 21.6596C43.0044 24.7087 45.5306 26.8731 48.7827 28.1925C48.9548 28.2631 49.1622 28.5323 49.16 28.7066C49.1313 32.1992 49.3056 35.7139 48.9747 39.18C48.2731 46.494 41.6894 52.5791 34.3423 53.0027C25.8214 53.4947 18.6707 47.8355 17.2454 39.4713C17.0711 38.4563 16.4137 37.8805 15.5929 38.0261C14.7457 38.1761 14.2801 38.9109 14.4588 39.9103C15.5488 46.0373 18.7921 50.6485 24.2748 53.6293C24.961 54.0022 25.0625 54.4103 24.9742 55.0568C24.5572 58.1126 22.17 60.2218 19.0171 60.277C15.3105 60.341 12.076 61.5941 9.30486 64.0542C8.66723 64.6212 8.00532 65.1574 7.28164 65.7685C6.5359 65.0228 5.59821 64.1005 4.67817 63.1606C3.38526 61.8413 3.26392 60.2615 4.32296 58.7502C6.37705 55.8136 6.19833 53.0623 3.77799 50.4566C2.57554 49.1571 2.4917 47.5133 3.57501 46.1035C4.17954 45.318 4.81277 44.5524 5.42833 43.7758C6.81611 42.0306 7.17575 40.0868 6.54694 37.9533C6.12112 36.5037 5.67323 35.0586 5.28712 33.598C4.87895 32.0602 5.60043 30.582 7.04337 29.9068C7.542 29.673 8.05827 29.4788 8.56573 29.267C11.3236 28.1263 12.6099 26.1892 12.6386 23.1974C12.6563 21.2183 12.6166 19.2304 12.7732 17.2601C13.3424 10.0543 19.5908 3.61618 26.8209 3.00503C30.3819 2.70276 33.9827 2.80425 37.5657 2.82852C44.4142 2.87706 50.4507 7.29192 52.7144 13.7587C53.6565 16.446 53.7249 19.2194 53.5903 21.9949C53.3587 26.7165 55.3377 28.5146 58.7708 29.7413C60.7609 30.4518 61.4471 32.0139 60.8558 34.0371C60.4719 35.3565 60.0703 36.6692 59.6864 37.9886C59.0753 40.0912 59.4217 42.013 60.7896 43.7383C61.3698 44.473 61.9567 45.2011 62.537 45.938C63.7968 47.542 63.6733 49.0754 62.345 50.6221C61.6986 51.3766 61.1073 52.268 60.7962 53.2013C60.1409 55.1583 60.6131 57.0028 61.8464 58.6443C62.7267 59.8114 63.0246 61.1441 62.1685 62.3244C61.2022 63.6593 59.9357 64.7779 58.773 66.0178C58.5546 65.7685 58.4443 65.6472 58.3361 65.5236C55.4547 62.1479 51.7833 60.4005 47.353 60.288C45.1533 60.2306 43.4191 59.3922 42.1681 57.5632C41.6166 56.7579 40.7826 56.5637 40.1074 57.0204C39.4036 57.497 39.3109 58.3398 39.878 59.1959C41.0319 60.9411 42.6293 62.095 44.6172 62.726C44.8135 62.7878 45.0077 62.8672 45.2283 62.9488C43.7942 67.9263 42.38 72.8354 40.9701 77.7445C40.4847 79.4345 39.9861 81.1224 39.547 82.8257C39.344 83.6133 39.7831 84.2818 40.5134 84.4981C41.2216 84.7077 41.9277 84.3304 42.2211 83.5758C42.2917 83.3971 42.338 83.2096 42.391 83.0242C44.22 76.659 46.0557 70.2959 47.8627 63.9262C48.0392 63.2974 48.2863 63.1121 48.9416 63.2312C52.004 63.7872 54.4199 65.164 56.1938 67.3615L56.4961 67.6616C57.0123 68.0035 57.4558 68.4117 57.8353 68.8794C58.1023 69.2435 58.3163 69.5943 58.4619 69.8568L58.4707 69.8502H58.4729C58.8105 70.4879 59.0598 71.2071 59.2165 72.0169C60.1189 76.6501 61.0676 81.2724 61.9832 85.9035C62.3362 87.6862 62.7135 89.4689 62.9606 91.2671C63.1923 92.9461 62.5039 93.8684 60.8536 93.9456C58.4619 94.0559 56.0614 93.9743 53.5881 93.9743C53.5881 93.6168 53.5881 93.3013 53.5881 92.9858C53.5881 89.6101 53.5881 86.2344 53.5881 82.8588C53.5881 82.3888 53.619 81.9145 53.5594 81.4511C53.4712 80.7583 53.0564 80.3259 52.3393 80.2928C51.6201 80.2575 51.1722 80.6458 51.0111 81.3276C50.9383 81.6365 50.9494 81.9674 50.9494 82.2895C50.9449 85.8704 50.9471 89.4535 50.9471 93.0344V94.0338H49.7999C42.1373 94.0338 34.4747 94.0382 26.8143 94.0294C26.0597 94.0294 25.3647 94.1353 25.0912 94.9384C24.8154 95.7481 25.2853 96.2688 25.9251 96.677H61.3345C61.4404 96.6285 61.5397 96.5513 61.6501 96.5336C64.6639 96.0129 66.0826 93.4403 65.5111 90.4838C64.2866 84.1737 63.04 77.8747 61.8221 71.5734Z" fill="#CD76BA"/>
<path d="M25.7265 84.5003C26.576 84.2554 26.918 83.4876 26.6245 82.4285C26.2053 80.9216 25.7707 79.4213 25.3448 77.9166C24.4094 74.6181 23.4695 71.3218 22.545 68.019C22.3354 67.2688 21.8986 66.832 21.1484 66.7614C20.1247 66.768 19.5245 67.6814 19.829 68.7669C21.1771 73.5745 22.534 78.3777 23.8931 83.1809C24.1931 84.2399 24.9036 84.7385 25.7265 84.5003Z" fill="#CD76BA"/>
</svg>
